<svg width="700" height="900" viewBox="0 0 700 900" fill="none" xmlns="http://www.w3.org/2000/svg">
<path opacity="0.7" d="M29.5386 325.658C-40.9574 195.721 23.9687 0 126.98 0H748C748 261.119 747 660.963 747 892.706C747 920.538 655.334 931.844 536.51 940.548C417.685 949.252 304.044 830.921 354.52 689.917C377.11 626.813 395.518 480.06 257.026 461.032C144.573 445.581 60.8312 383.336 29.5386 325.658Z" fill="#F3CA61"/>
<path d="M237.583 589.228L359.806 900.31" stroke="#1A2224" stroke-width="5.8001" stroke-miterlimit="10" stroke-linecap="round"/>
<path d="M346.547 589.228L468.6 900.31" stroke="#1A2224" stroke-width="5.8001" stroke-miterlimit="10" stroke-linecap="round"/>
<path d="M258.832 643.285H370.516" stroke="#1A2224" stroke-width="5.8001" stroke-miterlimit="10" stroke-linecap="round"/>
<path d="M279.231 695.132H390.914" stroke="#1A2224" stroke-width="5.8001" stroke-miterlimit="10" stroke-linecap="round"/>
<path d="M299.969 744.769H411.823" stroke="#1A2224" stroke-width="5.8001" stroke-miterlimit="10" stroke-linecap="round"/>
<path d="M315.779 790.837H427.462" stroke="#1A2224" stroke-width="5.8001" stroke-miterlimit="10" stroke-linecap="round"/>
<path d="M333.628 836.734H445.481" stroke="#1A2224" stroke-width="5.8001" stroke-miterlimit="10" stroke-linecap="round"/>
<g opacity="0.54">
<path opacity="0.54" d="M237.583 589.228L359.806 900.31" stroke="#1A2224" stroke-width="5.8001" stroke-miterlimit="10" stroke-linecap="round"/>
<path opacity="0.54" d="M346.547 589.228L468.6 900.31" stroke="#1A2224" stroke-width="5.8001" stroke-miterlimit="10" stroke-linecap="round"/>
<path opacity="0.54" d="M258.832 643.285H370.516" stroke="#1A2224" stroke-width="5.8001" stroke-miterlimit="10" stroke-linecap="round"/>
<path opacity="0.54" d="M279.231 695.132H390.914" stroke="#1A2224" stroke-width="5.8001" stroke-miterlimit="10" stroke-linecap="round"/>
<path opacity="0.54" d="M299.969 744.769H411.823" stroke="#1A2224" stroke-width="5.8001" stroke-miterlimit="10" stroke-linecap="round"/>
<path opacity="0.54" d="M315.779 790.837H427.462" stroke="#1A2224" stroke-width="5.8001" stroke-miterlimit="10" stroke-linecap="round"/>
<path opacity="0.54" d="M333.628 836.734H445.481" stroke="#1A2224" stroke-width="5.8001" stroke-miterlimit="10" stroke-linecap="round"/>
</g>
<path d="M249.312 476.014C231.803 479.244 221.944 459.525 221.944 459.525L214.974 468.535L217.014 474.824C220.244 478.394 223.304 480.264 227.724 481.624C232.823 486.554 230.953 495.223 230.953 495.223C230.953 495.223 243.023 493.523 248.292 491.993L249.312 488.254C246.933 486.554 245.063 484.854 245.063 480.264C246.593 479.074 248.122 477.714 249.312 476.014Z" fill="#F8985F"/>
<path d="M345.017 589.228L222.794 900.31" stroke="#1A2224" stroke-width="5.8001" stroke-miterlimit="10" stroke-linecap="round"/>
<path d="M236.223 589.228L114 900.31" stroke="#1A2224" stroke-width="5.8001" stroke-miterlimit="10" stroke-linecap="round"/>
<path d="M238.773 589.228L116.55 900.31" stroke="#1A2224" stroke-width="2.5778" stroke-miterlimit="10" stroke-linecap="round"/>
<path d="M323.938 643.285H212.084" stroke="#1A2224" stroke-width="5.8001" stroke-miterlimit="10" stroke-linecap="round"/>
<path d="M303.539 695.132H191.686" stroke="#1A2224" stroke-width="5.8001" stroke-miterlimit="10" stroke-linecap="round"/>
<path d="M282.63 744.769H170.947" stroke="#1A2224" stroke-width="5.8001" stroke-miterlimit="10" stroke-linecap="round"/>
<path d="M266.991 790.837H155.138" stroke="#1A2224" stroke-width="5.8001" stroke-miterlimit="10" stroke-linecap="round"/>
<path d="M248.972 836.734H137.289" stroke="#1A2224" stroke-width="5.8001" stroke-miterlimit="10" stroke-linecap="round"/>
<path d="M246.763 838.944H135.079" stroke="#1A2224" stroke-width="2.5778" stroke-miterlimit="10" stroke-linecap="round"/>
<path d="M264.102 792.876H152.248" stroke="#1A2224" stroke-width="2.5778" stroke-miterlimit="10" stroke-linecap="round"/>
<path d="M281.27 747.829H169.587" stroke="#1A2224" stroke-width="2.5778" stroke-miterlimit="10" stroke-linecap="round"/>
<path d="M301.499 697.342H189.816" stroke="#1A2224" stroke-width="2.5778" stroke-miterlimit="10" stroke-linecap="round"/>
<path d="M322.748 646.685H211.064" stroke="#1A2224" stroke-width="2.5778" stroke-miterlimit="10" stroke-linecap="round"/>
<path d="M258.492 584.808L247.953 641.755C247.953 641.755 231.463 719.27 231.463 725.05C231.463 730.83 249.312 738.479 248.633 741.709C247.953 744.939 219.394 739.839 216.504 738.479C213.615 736.949 219.224 727.94 219.224 723.52C219.224 719.101 212.595 682.213 213.955 666.913C214.974 655.524 219.394 644.305 221.434 639.035C222.284 637.165 222.454 634.955 222.284 632.915C220.924 620.166 216.334 573.589 224.494 559.14C234.013 542.48 258.492 584.808 258.492 584.808Z" fill="#41386C"/>
<path opacity="0.2" d="M258.492 584.808L247.953 641.755C247.953 641.755 231.463 719.27 231.463 725.05C231.463 730.83 249.312 738.479 248.633 741.709C247.953 744.939 219.394 739.839 216.504 738.479C213.615 736.949 219.224 727.94 219.224 723.52C219.224 719.101 212.595 682.213 213.955 666.913C214.974 655.524 219.394 644.305 221.434 639.035C222.284 637.165 222.454 634.955 222.284 632.915C220.924 620.166 216.334 573.589 224.494 559.14C234.013 542.48 258.492 584.808 258.492 584.808Z" fill="#41386C"/>
<path opacity="0.3" d="M231.633 723.86C232.483 714.341 239.793 652.634 240.983 644.645C242.173 636.145 236.223 582.938 236.223 582.938L241.323 576.989H253.732C256.622 581.408 258.662 584.638 258.662 584.638L248.122 641.585C247.952 641.755 232.993 712.471 231.633 723.86Z" fill="#272339"/>
<path d="M238.603 552.34C272.431 550.47 298.1 574.269 306.939 584.468C312.209 590.588 312.719 595.178 312.549 599.597C312.549 599.597 314.079 606.227 297.93 636.825C297.93 636.825 276.341 675.413 278.211 681.193C278.211 681.193 278.551 686.632 287.56 688.842C296.57 691.052 297.42 695.132 295.04 695.132C292.66 695.132 264.952 695.472 263.592 693.262C262.232 691.052 266.141 683.743 266.141 679.493C266.141 666.404 266.481 653.144 268.521 640.225C269.031 636.995 273.281 615.746 278.041 608.267C279.061 606.737 278.381 604.527 276.511 603.847C262.912 598.577 238.773 585.488 232.313 579.878C224.834 573.419 220.754 567.979 220.754 567.979L238.603 552.34Z" fill="#41386C"/>
<path d="M234.353 500.493L231.633 491.823C231.633 491.823 226.364 492.843 220.584 502.193C214.804 511.542 198.485 558.12 178.936 571.209C178.936 571.209 174.007 576.478 170.097 578.858C168.567 579.708 167.547 581.578 167.377 583.448C167.037 586.848 180.296 578.858 184.206 576.818C184.206 576.818 212.085 565.259 223.644 547.92C235.373 530.751 234.353 500.493 234.353 500.493Z" fill="#33959F"/>
<path d="M223.984 446.096C223.984 446.096 229.934 444.906 235.203 448.136C240.303 451.366 243.363 456.125 245.573 456.975C247.953 457.825 249.142 457.995 249.142 457.995C249.142 457.995 249.992 459.695 248.462 461.735C248.462 461.735 253.562 468.705 250.672 474.144C247.103 480.944 239.453 483.664 231.973 482.474C224.494 481.284 220.244 478.904 215.484 472.954C210.725 467.005 209.535 448.646 223.984 446.096Z" fill="#F8985F"/>
<path opacity="0.3" d="M249.312 476.014C231.803 479.244 221.944 459.525 221.944 459.525L214.974 468.535L217.014 474.824C220.244 478.394 223.304 480.264 227.724 481.624C232.823 486.554 230.953 495.223 230.953 495.223C230.953 495.223 243.023 493.523 248.292 491.993L249.312 488.254C246.933 486.554 245.063 484.854 245.063 480.264C246.593 479.074 248.122 477.714 249.312 476.014Z" fill="#F8985F"/>
<path d="M221.264 452.046C221.264 452.046 232.313 445.076 244.383 443.206C244.383 443.206 244.553 445.076 238.603 447.626C235.713 448.816 244.893 446.776 244.893 446.776C244.893 446.776 243.533 454.426 226.704 460.545C209.875 466.495 221.264 452.046 221.264 452.046Z" fill="#0C1D25"/>
<path d="M214.804 454.595C214.804 454.595 228.234 451.535 222.284 468.534C220.074 474.654 233.503 479.584 231.803 486.553C230.783 490.293 229.083 491.653 229.083 491.653C229.083 491.653 229.423 489.273 223.474 485.704C217.354 482.134 211.064 477.544 209.875 468.874C208.685 460.205 214.804 454.595 214.804 454.595Z" fill="#0C1D25"/>
<path d="M223.134 481.624C224.494 483.834 225.344 485.704 225.684 487.404C225.004 486.894 224.324 486.384 223.304 485.874C217.184 482.304 210.895 477.714 209.705 469.045V468.875L233.503 450.346C233.673 450.176 214.294 466.495 223.134 481.624Z" fill="#0C1D25"/>
<path d="M242.853 438.446C242.853 438.446 222.114 465.475 208.515 477.714C208.005 478.054 207.325 477.544 207.495 477.034L208.175 475.334C208.515 474.484 208.345 473.464 207.835 472.784C204.945 469.044 197.295 456.295 209.704 444.736C213.954 440.656 221.264 436.916 230.953 441.676C232.823 442.526 235.203 442.186 236.733 440.656C239.453 437.936 243.193 434.366 244.043 434.706C245.572 435.216 242.853 438.446 242.853 438.446Z" fill="white"/>
<path opacity="0.5" d="M223.134 458.335C214.294 463.605 207.665 458.845 203.755 454.255C201.375 462.585 205.965 469.895 208.005 472.784C208.515 473.464 208.685 474.484 208.345 475.334L207.665 477.034C207.495 477.544 208.175 478.054 208.685 477.714C215.654 471.424 224.494 461.395 231.463 452.896C229.423 454.425 226.704 456.125 223.134 458.335Z" fill="white"/>
<path d="M225.004 467.345C225.004 467.345 219.224 466.495 219.224 470.065C219.224 473.634 223.644 476.694 226.194 475.334" fill="#F8985F"/>
<path d="M187.946 620.676L195.765 610.307C195.765 610.307 194.746 582.258 171.457 583.448C171.457 583.448 153.778 583.788 153.778 612.857C153.778 641.925 187.946 620.676 187.946 620.676Z" stroke="#E1E1E1" stroke-width="1.2889" stroke-miterlimit="10"/>
<path d="M234.353 500.493L231.633 491.823C231.633 491.823 226.364 492.843 220.584 502.193C214.804 511.542 198.485 558.12 178.936 571.209C178.936 571.209 174.007 576.478 170.097 578.858C168.907 579.538 182.676 579.368 183.526 575.968C183.526 575.968 211.915 565.089 223.644 547.92C235.373 530.751 234.353 500.493 234.353 500.493Z" fill="#4F78A2"/>
<path d="M170.267 578.859C174.177 576.479 179.106 571.209 179.106 571.209C183.696 568.149 187.946 563.39 192.026 557.61C195.595 559.48 200.015 562.71 202.225 567.299C192.706 573.249 182.676 577.839 182.676 577.839C179.786 583.618 178.086 582.258 178.086 582.258C176.216 581.749 174.857 583.108 174.007 584.638C172.137 587.868 166.867 585.828 167.887 582.088C168.227 580.899 168.907 579.709 170.267 578.859Z" fill="#F8985F"/>
<path d="M278.211 681.193C279.571 684.253 284.84 688.162 287.56 688.842C296.57 691.052 297.42 695.132 295.04 695.132C292.66 695.132 264.952 695.472 263.592 693.262C262.742 691.732 264.952 684.763 265.971 681.193C272.601 682.893 275.151 683.403 278.211 681.193Z" fill="#0C1D25"/>
<path d="M218.714 726.24C230.104 729.47 231.463 725.22 231.463 725.22C231.463 731 249.312 738.649 248.632 741.879C247.953 745.109 219.394 740.009 216.504 738.649C214.124 737.29 217.524 730.83 218.714 726.24Z" fill="#0C1D25"/>
<path d="M196.445 610.647V660.794C196.445 662.324 186.586 664.364 174.517 664.364C162.447 664.364 152.588 662.154 152.588 660.794V610.647H196.445Z" fill="#ECECEC"/>
<path d="M174.687 613.366C186.798 613.366 196.615 612.149 196.615 610.647C196.615 609.144 186.798 607.927 174.687 607.927C162.576 607.927 152.758 609.144 152.758 610.647C152.758 612.149 162.576 613.366 174.687 613.366Z" fill="#E1E1E1"/>
<path d="M195 611C191.394 612.25 183.611 613 174.5 613C165.389 613 157.606 612.25 154 611C157.606 609.75 165.389 609 174.5 609C183.611 609 191.394 609.75 195 611Z" fill="#F3CA61"/>
<path d="M221.944 726.92C221.604 729.13 221.604 733.04 225.854 736.609C230.444 740.349 241.833 742.049 247.443 742.559C242.003 743.919 219.054 739.839 216.504 738.479C214.124 737.289 217.524 730.83 218.714 726.07C219.904 726.58 221.094 726.75 221.944 726.92Z" fill="#0C1D25"/>
<path d="M302.18 487.574C304.219 487.574 305.919 486.044 306.089 483.834L310.339 391.019C310.509 388.979 308.809 387.109 306.769 386.939C304.729 386.769 302.859 388.469 302.689 390.509L298.44 483.324C298.27 485.364 299.97 487.234 302.01 487.404C302.01 487.574 302.01 487.574 302.18 487.574Z" fill="#1A2224"/>
<path d="M302.689 390.849C302.689 389.149 303.879 387.789 305.409 387.449C305.409 387.619 305.239 387.959 305.239 388.129L300.989 480.944C300.819 482.984 302.519 484.854 304.559 485.024H304.729C305.069 485.024 305.409 485.024 305.749 484.854C305.409 486.554 303.879 487.914 302.009 487.914H301.839C299.799 487.744 298.1 486.044 298.27 483.834L302.689 390.849Z" fill="#1A2224"/>
<path d="M263.422 693.262C262.572 691.732 264.782 684.763 265.801 681.193C265.971 681.193 265.971 681.193 266.141 681.363C266.651 684.593 268.691 691.392 275.491 692.242C284.5 693.262 294.87 695.132 294.87 695.132C292.49 695.132 264.782 695.472 263.422 693.262Z" fill="#0C1D25"/>
<path d="M300.649 427.567C300.649 427.567 293 450.855 280.93 462.755C269.031 474.654 253.562 489.103 231.633 491.823C231.633 491.823 227.723 493.353 227.723 498.623C227.723 503.722 220.924 547.41 220.584 568.149C220.584 568.149 242.343 579.708 273.791 559.479L269.031 511.032C269.031 511.032 302.179 493.353 309.149 436.236C309.489 433.516 309.659 430.797 309.319 428.247C309.149 427.397 309.319 426.207 310.679 425.187C314.929 421.617 316.458 418.047 313.739 413.288C312.889 411.588 310.509 411.758 309.659 413.458C308.639 415.667 306.599 418.047 303.199 418.727C296.57 419.577 298.949 421.447 300.649 427.567Z" fill="#4F78A2"/>
<path d="M196.445 654.844V660.794C196.445 662.324 186.586 664.364 174.517 664.364C162.447 664.364 152.588 662.154 152.588 660.794V615.406C156.328 637.505 168.907 653.994 196.445 654.844Z" fill="#E4E4E4"/>
<path opacity="0.19" d="M269.031 510.863L273.791 559.31C273.791 559.31 247.272 579.199 220.584 567.979C220.754 568.149 264.951 557.78 269.031 510.863Z" fill="#344A60"/>
<path d="M300.649 427.567C298.95 421.447 296.57 419.577 303.369 418.387C306.769 417.707 308.639 415.328 309.829 413.118C310.679 411.418 313.059 411.248 313.909 412.948C316.459 417.877 315.099 421.277 310.849 424.847C309.659 425.867 309.489 427.057 309.489 427.907C309.829 430.627 309.659 433.347 309.319 435.896C308.809 440.316 307.959 444.566 307.279 448.646C300.819 447.116 296.74 444.736 294.19 443.036C298.27 434.707 300.649 427.567 300.649 427.567Z" fill="#F8985F"/>
<path opacity="0.3" d="M225.004 467.345C225.004 467.345 219.224 466.495 219.224 470.065C219.224 473.634 223.644 476.694 226.194 475.334" fill="#F8985F"/>
<path d="M283.991 389.829L328.188 391.869C329.548 391.869 330.738 390.849 330.908 389.489L331.418 378.1C331.418 376.74 330.398 375.55 329.038 375.38L323.428 375.04L284.841 373.17C283.481 373.17 282.291 374.19 282.121 375.55L281.611 386.939C281.611 388.639 282.631 389.829 283.991 389.829Z" fill="#F7F8FA"/>
<path d="M281.611 387.279L281.951 380.82C285.86 382.69 293.17 385.07 306.599 385.58C322.408 386.26 328.868 384.05 331.248 382.86L330.908 389.489C330.908 390.849 329.718 392.039 328.188 391.869L283.991 389.829C282.631 389.829 281.611 388.639 281.611 387.279Z" fill="#F1F3F3"/>
<path opacity="0.95" d="M332.267 381.33L332.437 378.27C332.437 376.23 330.908 374.53 328.868 374.53L286.03 373C283.14 373 282.29 374.36 282.12 376.4L281.78 378.95C281.61 380.14 282.63 381.16 283.82 380.82C284.33 380.65 284.84 380.31 284.84 379.46C285.18 377.08 287.73 376.91 287.56 380.48C287.22 387.109 289.43 389.149 291.64 387.109C293.85 385.069 294.02 377.42 294.87 379.29C295.72 381.33 295.04 385.239 298.779 384.899C300.819 384.729 300.989 377.42 301.329 379.63C301.669 381.84 302.009 383.709 303.709 383.369C305.239 383.029 304.899 381.5 306.259 381.839C308.299 382.519 308.129 388.469 311.359 388.469C316.458 388.469 313.909 379.8 316.118 380.82C318.328 382.009 319.348 384.389 322.068 383.709C324.788 383.029 324.958 376.23 327.848 378.61C329.548 380.31 331.248 386.089 332.267 381.33Z" fill="#F3CA61"/>
<path opacity="0.18" d="M300.649 427.567C300.649 427.567 285.86 486.724 249.142 488.084V486.894C262.232 480.944 272.431 471.255 280.931 462.755C293 450.856 300.649 427.567 300.649 427.567Z" fill="#344A60"/>
<path d="M192.876 611.326C194.745 610.986 196.445 612.516 196.445 614.386C196.105 619.146 195.255 624.246 193.386 622.546C190.666 620.166 190.836 612.346 188.286 615.236C185.906 617.956 182.676 626.966 181.316 619.486C179.956 611.836 176.896 613.026 176.047 615.236C174.857 618.126 176.726 627.306 173.327 627.306C169.247 627.306 170.777 615.916 167.547 615.236C164.657 614.556 165.847 618.636 163.297 622.036C160.237 626.286 159.557 615.236 157.858 615.236C153.948 615.236 154.118 621.016 152.758 618.296C152.078 616.766 152.078 614.556 152.248 612.856C152.418 611.666 153.608 610.646 154.798 610.986C160.577 612.006 176.556 614.216 192.876 611.326Z" fill="#F3CA61"/>
<path opacity="0.3" d="M276.511 603.847C276.511 603.847 285.69 606.397 282.63 609.457C271.581 620.336 266.481 649.235 266.141 664.364C266.141 664.364 266.991 636.655 273.281 619.826C273.281 619.826 275.491 611.837 277.871 608.267C278.041 608.267 279.571 605.207 276.511 603.847Z" fill="#272339"/>
</svg>
