<svg width="609" height="206" viewBox="0 0 609 206" fill="none" xmlns="http://www.w3.org/2000/svg">
<path opacity="0.7" d="M609 125.203V10C609 4.47715 604.523 0 599 0L85.0558 1.52588e-05L61.23 0C-23.5 32.5 -15.3791 143.317 56.0985 164.882C164.748 197.662 251.66 117.936 378.522 157.481C507.198 197.592 596.293 134.284 609 125.203Z" fill="#F3CA61"/>
<mask id="mask0" mask-type="alpha" maskUnits="userSpaceOnUse" x="156" y="19" width="347" height="187">
<rect x="156" y="19" width="347" height="187" fill="#C4C4C4"/>
</mask>
<g mask="url(#mask0)">
<path d="M418.329 186.672C418.329 186.672 423.653 192.614 425.273 204.42C425.273 204.42 447.342 272.246 447.805 293.311C448.268 314.377 439.085 332.51 439.085 332.51C439.085 332.51 424.733 347.865 411.307 318.621L413.776 296.784C413.776 296.784 411.307 296.321 411.307 289.067L401.893 255.347C401.893 255.347 402.896 329.269 404.362 337.68C405.828 346.091 407.834 353.807 407.834 353.807C407.834 353.807 405.828 350.798 398.884 353.807C391.939 356.816 373.343 366.23 372.571 370.165C372.571 370.165 367.864 325.488 365.163 298.481C362.463 271.474 357.987 213.139 370.256 179.264L418.329 186.672Z" fill="#4F78A2"/>
<path d="M417.788 186.672L369.716 179.264C367.555 185.283 365.935 191.996 364.7 199.25C371.567 199.867 383.065 195.777 395.179 195.16C405.751 194.62 415.087 192.228 420.257 190.607C418.945 187.984 417.788 186.672 417.788 186.672Z" fill="#426486"/>
<path d="M380.287 181.271C380.287 181.271 379.053 205.423 363.697 205.731" stroke="#36506D" stroke-width="0.75" stroke-miterlimit="10" stroke-linecap="round" stroke-linejoin="round"/>
<path d="M378.821 189.99L371.182 188.987L370.565 203.648" stroke="#36506D" stroke-width="0.75" stroke-miterlimit="10" stroke-linecap="round" stroke-linejoin="round"/>
<path d="M414.316 186.132C414.316 186.132 417.634 206.812 425.659 207.197" stroke="#36506D" stroke-width="0.75" stroke-miterlimit="10" stroke-linecap="round" stroke-linejoin="round"/>
<path d="M401.353 232.584V187.058" stroke="#36506D" stroke-width="0.75" stroke-miterlimit="10" stroke-linecap="round" stroke-linejoin="round"/>
<path d="M407.371 187.058C407.371 187.058 412.695 216.071 401.353 217.923" stroke="#36506D" stroke-width="0.75" stroke-miterlimit="10" stroke-linecap="round" stroke-linejoin="round"/>
<path d="M369.716 150.251C367.633 145.776 378.05 133.584 378.05 133.584L386.923 145.699L374.191 156.887L369.716 150.251Z" fill="#2B4057"/>
<path d="M385.071 100.635L398.034 108.197L424.27 123.475L427.665 131.115L426.585 148.862L374.191 157.041C374.191 157.041 375.503 138.908 371.799 128.028C368.095 117.071 385.071 100.635 385.071 100.635Z" fill="#E3CD3E"/>
<path d="M374.191 141.918C374.423 145.853 374.423 149.48 374.423 152.258L375.58 156.733L426.662 148.785L427.742 131.038L427.511 130.498C426.894 131.038 426.354 132.118 425.659 133.816C420.103 149.094 391.322 122.164 391.322 122.164C388.312 133.198 378.59 139.603 374.191 141.918Z" fill="#B4A232"/>
<path d="M414.084 70.1564C420.72 72.0855 427.048 72.7028 428.668 78.027C430.289 83.3512 428.745 88.444 430.211 91.1447C431.678 93.7682 433.684 95.4658 433.375 98.398C432.989 101.33 431.215 102.565 432.835 105.651C434.378 108.738 434.07 113.522 432.218 118.229L391.321 101.948C391.321 101.948 393.482 99.4011 392.865 94.2312C392.17 89.0613 393.791 86.5149 395.72 82.6568C397.649 78.8758 396.414 76.0979 398.112 72.4713C399.732 68.7674 404.362 67.3014 414.084 70.1564Z" fill="#41386C"/>
<path d="M426.662 126.177C426.662 126.177 430.443 127.874 432.758 133.738C435.073 139.603 450.197 171.317 450.197 171.317C450.197 171.317 467.173 148.477 468.793 144.464C468.793 144.464 468.948 141.455 470.645 139.294C472.343 137.134 475.969 134.124 477.358 132.89C478.824 131.732 479.056 132.89 478.207 134.047C477.358 135.205 475.198 136.979 475.738 137.982C476.278 138.908 480.213 137.211 481.448 135.899C482.683 134.587 485.229 132.118 485.615 132.504C485.923 132.89 484.226 135.899 482.142 137.674C482.142 137.674 486.309 134.124 486.926 134.279C487.621 134.433 487.698 136.825 486.926 138.06C486.155 139.294 482.76 141.686 482.76 141.686C482.76 141.686 487.312 139.449 487.467 139.757C487.621 140.066 484.997 142.612 481.216 145.467C478.979 147.165 475.661 147.628 475.661 147.628C475.661 147.628 461.308 188.678 449.734 188.987C438.082 189.296 424.733 165.684 424.733 165.684L426.662 126.177Z" fill="#BC6363"/>
<path d="M472.883 144.541C472.883 144.541 475.043 141.223 478.902 141.455" stroke="#8F3D3D" stroke-miterlimit="10" stroke-linecap="round" stroke-linejoin="round"/>
<path d="M450.12 171.394L446.879 175.638" stroke="#8F3D3D" stroke-width="0.75" stroke-miterlimit="10" stroke-linecap="round" stroke-linejoin="round"/>
<path d="M432.681 133.738C430.366 127.874 426.585 126.177 426.585 126.177L424.733 165.684C424.733 165.684 425.968 167.844 427.974 170.854C429.44 173.014 432.912 172.32 433.298 169.696C434.764 160.591 437.542 153.184 439.471 148.785C436.385 142.149 433.607 136.053 432.681 133.738Z" fill="#8F3D3D"/>
<path d="M408.915 78.0269C408.915 78.0269 410.612 85.203 415.473 87.0549C415.473 87.0549 414.702 92.765 415.473 93.3823C416.245 93.9224 417.094 89.9871 417.094 89.9871C417.094 89.9871 419.177 86.9006 420.258 89.6013C421.338 92.302 419.409 95.62 417.325 95.7743C417.325 95.7743 417.48 117.611 419.486 119.618C421.492 121.624 424.27 123.399 424.27 123.399C424.27 123.399 424.965 134.742 415.473 132.041C406.06 129.34 401.97 112.596 398.035 108.12L404.362 110.898L404.285 102.796C404.285 102.796 400.735 103.105 400.195 101.253C399.655 99.401 398.112 90.6816 398.112 90.6816C398.112 90.6816 401.738 89.0612 401.738 86.2061C401.661 83.3511 404.902 78.4898 408.915 78.0269Z" fill="#BC6363"/>
<path d="M404.285 102.796C407.603 102.873 413.467 99.4781 415.087 97.7034C414.239 102.024 409.609 105.497 404.285 106.037V102.796Z" fill="#8F3D3D"/>
<path d="M401.121 93.305L406.368 93.1506C406.368 93.1506 406.831 97.5489 403.899 98.0119C400.89 98.4749 401.121 93.305 401.121 93.305Z" fill="white"/>
<path d="M400.041 91.6846H401.121" stroke="#8F3D3D" stroke-width="0.75" stroke-miterlimit="10" stroke-linecap="round" stroke-linejoin="round"/>
<path d="M406.846 88.5288C407.223 88.5968 407.627 88.1079 407.748 87.4368C407.869 86.7657 407.661 86.1666 407.283 86.0986C406.906 86.0307 406.502 86.5196 406.381 87.1907C406.26 87.8618 406.468 88.4609 406.846 88.5288Z" fill="#2E294A"/>
<path d="M403.383 87.8117C403.76 87.8797 404.164 87.3907 404.285 86.7196C404.406 86.0485 404.198 85.4495 403.82 85.3815C403.443 85.3136 403.039 85.8026 402.918 86.4736C402.797 87.1447 403.005 87.7438 403.383 87.8117Z" fill="#2E294A"/>
<path d="M407.603 84.1228C407.603 84.1228 409.3 84.5086 410.303 85.9747" stroke="#41386C" stroke-width="0.75" stroke-miterlimit="10" stroke-linecap="round" stroke-linejoin="round"/>
<path d="M403.822 83.7365C403.822 83.7365 402.664 83.5822 401.584 84.3538" stroke="#41386C" stroke-width="0.75" stroke-miterlimit="10" stroke-linecap="round" stroke-linejoin="round"/>
<path d="M429.749 145.467C429.749 139.448 429.749 132.735 429.671 130.883C429.517 125.482 426.045 123.244 424.27 121.932C424.27 121.932 425.505 125.482 425.427 128.723C425.35 130.42 424.81 137.442 424.347 143.615L397.031 134.047C396.954 121.315 396.414 106.577 395.257 105.265C393.328 103.182 389.547 101.87 389.547 101.87C389.547 101.87 390.395 102.719 390.858 105.265C391.321 107.966 390.627 125.328 390.087 136.516C374.037 160.591 369.793 150.251 369.793 150.251V179.265C390.395 193.385 418.791 188.061 418.791 188.061L419.332 182.351C419.332 182.351 425.659 169.928 428.282 162.752C430.906 155.421 429.749 145.467 429.749 145.467Z" fill="#4F78A2"/>
<path d="M401.507 149.171L419.254 156.193C419.254 156.193 417.943 169.696 406.677 166.533C396.954 163.755 401.507 149.171 401.507 149.171Z" stroke="#36506D" stroke-width="0.75" stroke-miterlimit="10" stroke-linecap="round" stroke-linejoin="round"/>
<path d="M419.331 182.274C419.331 182.274 396.26 187.521 372.802 174.249" stroke="#36506D" stroke-width="0.75" stroke-miterlimit="10" stroke-linecap="round" stroke-linejoin="round"/>
<path d="M385.071 100.635C379.13 97.7031 357.061 89.7553 357.061 89.7553C357.061 89.7553 341.474 56.1895 341.32 52.7171C341.165 49.322 342.863 38.8278 341.86 37.3617L340.162 38.3648C340.162 38.3648 339.931 34.661 339.005 34.8925C338.079 35.0468 338.387 38.0562 338.387 38.0562C338.387 38.0562 337.23 36.2814 336.536 36.8216C335.841 37.3617 335.841 39.5994 335.841 39.5994C335.841 39.5994 334.992 37.3617 334.375 38.442C333.835 39.5223 333.912 40.3711 333.835 42.3001C333.758 44.2292 332.446 55.4178 334.838 57.4241C334.838 57.4241 341.474 94.6938 346.49 101.253C351.505 107.811 364.006 116.222 371.645 121.546C372.879 126.253 372.108 135.281 378.821 133.738C385.534 132.041 392.093 104.03 385.071 100.635Z" fill="#BC6363"/>
<path d="M370.642 117.148C370.642 117.148 377.046 116.685 379.67 119.155" stroke="#8F3D3D" stroke-width="0.75" stroke-miterlimit="10" stroke-linecap="round" stroke-linejoin="round"/>
<path d="M337.848 53.952C337.848 53.952 335.533 51.4828 335.301 48.3191" stroke="#8F3D3D" stroke-width="0.75" stroke-miterlimit="10" stroke-linecap="round" stroke-linejoin="round"/>
<path d="M419.563 91.6846C419.563 91.6846 420.026 90.0641 418.946 89.6011C417.788 89.1382 417.017 93.7679 417.017 93.7679" stroke="#8F3D3D" stroke-width="0.75" stroke-miterlimit="10" stroke-linecap="round" stroke-linejoin="round"/>
<path d="M397.032 133.97V144.31L389.855 143.23L389.933 138.291" stroke="#36506D" stroke-width="0.75" stroke-miterlimit="10" stroke-linecap="round" stroke-linejoin="round"/>
<path d="M424.27 144.31V150.329L429.44 152.335" stroke="#36506D" stroke-width="0.75" stroke-miterlimit="10" stroke-linecap="round" stroke-linejoin="round"/>
<path d="M393.945 141.994C394.712 141.994 395.334 141.373 395.334 140.605C395.334 139.838 394.712 139.217 393.945 139.217C393.178 139.217 392.556 139.838 392.556 140.605C392.556 141.373 393.178 141.994 393.945 141.994Z" fill="#2B4057"/>
<path d="M427.665 149.711C428.432 149.711 429.054 149.089 429.054 148.322C429.054 147.555 428.432 146.933 427.665 146.933C426.898 146.933 426.276 147.555 426.276 148.322C426.276 149.089 426.898 149.711 427.665 149.711Z" fill="#2B4057"/>
<path d="M351.562 100.444C352.315 99.816 352.129 98.352 351.147 97.1738C350.164 95.9955 348.757 95.5492 348.005 96.1769C347.252 96.8046 347.438 98.2686 348.421 99.4469C349.403 100.625 350.81 101.071 351.562 100.444Z" fill="#8F3D3D"/>
<path d="M204.664 187.366C204.664 187.366 198.183 200.021 200.497 201.873C200.497 201.873 198.8 205.885 199.649 208.2C199.649 208.2 184.448 256.813 185.451 280.425C186.377 304.037 200.497 307.123 206.207 309.438C211.918 311.753 234.218 319.315 234.218 319.315C234.218 319.315 242.011 315.148 240.699 302.57L216.161 281.196C216.161 281.196 218.322 278.881 216.161 277.03L229.511 220.238L226.887 182.042L204.664 187.366Z" fill="#41386C"/>
<path d="M206.208 184.202L269.481 173.708C269.481 173.708 271.41 181.888 271.025 198.941C270.639 215.994 257.367 281.196 257.367 281.196C257.367 281.196 260.145 308.28 255.746 305.425C255.746 305.425 257.29 330.195 252.274 327.34C250.962 338.22 243.709 376.492 243.709 376.492H222.026L229.511 266.921V220.16L206.208 184.202Z" fill="#41386C"/>
<path d="M269.481 173.708L206.208 184.202L207.751 186.594L204.664 187.366C204.664 187.366 198.183 200.021 200.498 201.873C200.498 201.873 198.8 205.885 199.649 208.2C199.649 208.2 197.797 214.064 195.482 222.707C200.961 223.093 205.745 217.074 217.936 212.907C229.588 208.972 260.916 195.854 271.102 191.61C270.793 179.573 269.481 173.708 269.481 173.708Z" fill="#37305B"/>
<path d="M261.842 181.271C261.842 181.271 260.916 197.166 271.024 199.018" stroke="#6657AE" stroke-width="0.75" stroke-miterlimit="10" stroke-linecap="round" stroke-linejoin="round"/>
<path d="M229.511 220.238L226.81 182.042" stroke="#2B2646" stroke-width="0.75" stroke-miterlimit="10" stroke-linecap="round" stroke-linejoin="round"/>
<path d="M237.458 200.947L213.075 211.055" stroke="#2B2646" stroke-width="0.75" stroke-miterlimit="10" stroke-linecap="round" stroke-linejoin="round"/>
<path d="M195.791 159.665L186.223 187.675L156.438 193.539L168.784 152.334L195.791 159.665Z" fill="#E79A9A"/>
<path d="M162.533 173.168C172.719 166.146 186.917 166.532 193.244 167.072L195.79 159.588L168.783 152.334L162.533 173.168Z" fill="#E17777"/>
<path d="M202.581 83.4281C202.581 83.4281 191.778 76.8693 196.562 71.1592C194.787 65.9121 199.263 65.2177 204.741 61.3595C210.297 57.4242 212.843 50.9425 218.476 55.2637C224.109 59.5848 219.634 67.8412 219.325 69.9246C219.016 72.008 220.56 75.326 220.56 75.326L202.581 83.4281Z" fill="#1D1B2D"/>
<path d="M199.572 116.145L203.044 101.638L232.443 87.4404L241.471 98.6291L253.586 180.113C253.586 180.113 234.681 189.295 210.452 189.295L199.572 116.145Z" fill="#E3CD3E"/>
<path d="M200.343 121.083L200.497 122.164C201.114 121.701 201.886 121.315 203.121 121.006C204.973 120.543 206.053 120.775 207.133 121.006C208.291 121.238 209.525 121.546 211.609 121.006C213.692 120.466 214.618 119.694 215.544 118.923C216.393 118.228 217.164 117.534 219.093 117.071C220.945 116.608 222.026 116.839 223.106 117.071C224.263 117.302 225.498 117.611 227.581 117.071C229.665 116.531 230.591 115.759 231.517 114.987C232.365 114.293 233.137 113.599 235.066 113.136C236.918 112.673 237.998 112.904 239.079 113.136C240.236 113.367 241.471 113.676 243.554 113.136C243.631 113.136 243.631 113.136 243.708 113.058L243.554 112.055C243.477 112.055 243.4 112.132 243.323 112.132C241.471 112.595 240.39 112.364 239.31 112.132C238.153 111.901 236.918 111.592 234.835 112.132C232.751 112.673 231.825 113.444 230.899 114.216C230.051 114.91 229.279 115.605 227.35 116.068C225.498 116.531 224.418 116.299 223.337 116.068C222.18 115.836 220.945 115.528 218.862 116.068C216.778 116.608 215.853 117.38 214.927 118.151C214.078 118.846 213.306 119.54 211.377 120.003C209.525 120.466 208.445 120.235 207.365 120.003C206.207 119.772 204.973 119.463 202.889 120.003C201.732 120.312 200.96 120.697 200.343 121.083Z" fill="#FBF2D5"/>
<path d="M252.582 172.783C251.888 172.783 251.039 172.86 250.036 173.091C247.953 173.632 247.027 174.403 246.101 175.175C245.252 175.869 244.48 176.564 242.551 177.027C240.699 177.49 239.619 177.258 238.539 177.027C237.381 176.795 236.147 176.487 234.063 177.027C231.98 177.567 231.054 178.338 230.128 179.11C229.279 179.805 228.508 180.499 226.579 180.962C224.727 181.425 223.646 181.193 222.566 180.962C221.409 180.731 220.174 180.422 218.091 180.962C216.007 181.502 215.081 182.274 214.155 183.045C213.307 183.74 212.535 184.434 210.606 184.897C210.374 184.974 210.143 184.974 209.911 185.052L210.066 186.055C210.297 185.978 210.606 185.978 210.914 185.9C212.998 185.36 213.924 184.589 214.85 183.817C215.699 183.123 216.47 182.428 218.399 181.965C220.251 181.502 221.332 181.734 222.412 181.965C223.569 182.197 224.804 182.505 226.887 181.965C228.971 181.425 229.897 180.653 230.823 179.882C231.671 179.187 232.443 178.493 234.372 178.03C236.224 177.567 237.304 177.798 238.384 178.03C239.542 178.261 240.777 178.57 242.86 178.03C244.943 177.49 245.869 176.718 246.795 175.946C247.644 175.252 248.416 174.557 250.345 174.094C251.348 173.863 252.119 173.786 252.814 173.863L252.582 172.783Z" fill="#FBF2D5"/>
<path d="M237.844 124.247C235.761 124.787 234.835 125.558 233.909 126.33C233.06 127.025 232.289 127.719 230.36 128.182C228.508 128.645 227.427 128.413 226.347 128.182C225.19 127.951 223.955 127.642 221.872 128.182C219.788 128.722 218.862 129.494 217.936 130.265C217.087 130.96 216.316 131.654 214.387 132.117C212.535 132.58 211.455 132.349 210.374 132.117C209.217 131.886 207.982 131.577 205.899 132.117C203.97 132.58 203.044 133.275 202.195 133.969L202.349 135.127C202.427 135.049 202.504 135.049 202.581 134.972C203.43 134.278 204.201 133.583 206.13 133.12C207.982 132.657 209.063 132.889 210.143 133.12C211.3 133.352 212.535 133.661 214.618 133.12C216.702 132.58 217.628 131.809 218.554 131.037C219.402 130.343 220.174 129.648 222.103 129.185C223.955 128.722 225.035 128.954 226.116 129.185C227.273 129.417 228.508 129.725 230.591 129.185C232.674 128.645 233.6 127.873 234.526 127.102C235.375 126.407 236.147 125.713 238.076 125.25C239.928 124.787 241.008 125.018 242.088 125.25C243.014 125.481 244.017 125.636 245.561 125.404L245.406 124.401C244.095 124.632 243.246 124.401 242.32 124.247C241.162 124.015 239.928 123.707 237.844 124.247Z" fill="#FBF2D5"/>
<path d="M208.754 159.51C209.603 158.816 210.374 158.121 212.303 157.659C214.155 157.196 215.236 157.427 216.316 157.659C217.473 157.89 218.708 158.199 220.791 157.659C222.875 157.118 223.801 156.347 224.727 155.575C225.575 154.881 226.347 154.186 228.276 153.723C230.128 153.26 231.208 153.492 232.289 153.723C233.446 153.955 234.681 154.263 236.764 153.723C238.847 153.183 239.773 152.411 240.699 151.64C241.548 150.945 242.32 150.251 244.249 149.788C246.101 149.325 247.181 149.556 248.261 149.788C248.57 149.865 248.879 149.942 249.264 149.942L249.11 148.862C248.879 148.785 248.724 148.785 248.493 148.708C247.335 148.476 246.101 148.167 244.017 148.708C241.934 149.248 241.008 150.019 240.082 150.791C239.233 151.485 238.462 152.18 236.533 152.643C234.681 153.106 233.6 152.874 232.52 152.643C231.363 152.411 230.128 152.103 228.045 152.643C225.961 153.183 225.035 153.955 224.109 154.726C223.26 155.421 222.489 156.115 220.56 156.578C218.708 157.041 217.628 156.81 216.547 156.578C215.39 156.347 214.155 156.038 212.072 156.578C209.988 157.118 209.063 157.89 208.137 158.662C207.596 159.125 207.056 159.588 206.208 159.973L206.362 161.054C207.442 160.591 208.137 160.051 208.754 159.51Z" fill="#FBF2D5"/>
<path d="M240.854 136.516C238.77 137.056 237.844 137.828 236.918 138.6C236.069 139.294 235.298 139.988 233.369 140.451C231.517 140.914 230.437 140.683 229.356 140.451C228.199 140.22 226.964 139.911 224.881 140.451C222.797 140.992 221.871 141.763 220.946 142.535C220.097 143.229 219.325 143.924 217.396 144.387C215.544 144.85 214.464 144.618 213.384 144.387C212.226 144.155 210.992 143.847 208.908 144.387C206.825 144.927 205.899 145.699 204.973 146.47C204.741 146.702 204.433 146.933 204.201 147.087L204.356 148.168C204.818 147.859 205.281 147.473 205.667 147.165C206.516 146.47 207.288 145.776 209.217 145.313C211.069 144.85 212.149 145.081 213.229 145.313C214.387 145.544 215.621 145.853 217.705 145.313C219.788 144.773 220.714 144.001 221.64 143.229C222.489 142.535 223.26 141.84 225.189 141.377C227.041 140.914 228.122 141.146 229.202 141.377C230.359 141.609 231.517 141.918 233.677 141.377C235.761 140.837 236.687 140.066 237.613 139.294C238.461 138.6 239.233 137.905 241.162 137.442C243.014 136.979 244.094 137.211 245.175 137.442C245.869 137.596 246.564 137.751 247.412 137.751L247.258 136.748C246.564 136.748 246.023 136.593 245.406 136.516C244.172 136.207 243.014 135.976 240.854 136.516Z" fill="#FBF2D5"/>
<path d="M215.312 169.851C217.164 169.388 218.244 169.619 219.325 169.851C220.482 170.082 221.717 170.391 223.8 169.851C225.883 169.31 226.809 168.539 227.735 167.767C228.584 167.073 229.356 166.378 231.285 165.915C233.137 165.452 234.217 165.684 235.297 165.915C236.455 166.147 237.689 166.455 239.773 165.915C241.856 165.375 242.782 164.604 243.708 163.832C244.557 163.137 245.329 162.443 247.258 161.98C248.955 161.517 249.958 161.671 250.961 161.903L250.807 160.823C249.804 160.668 248.724 160.514 247.026 160.977C244.943 161.517 244.017 162.289 243.091 163.06C242.242 163.755 241.47 164.449 239.541 164.912C237.689 165.375 236.609 165.144 235.529 164.912C234.371 164.681 233.137 164.372 231.053 164.912C228.97 165.452 228.044 166.224 227.118 166.996C226.269 167.69 225.498 168.385 223.569 168.847C221.717 169.31 220.636 169.079 219.556 168.847C218.399 168.616 217.164 168.307 215.081 168.847C212.997 169.388 212.071 170.159 211.145 170.931C210.374 171.625 209.602 172.243 208.059 172.706L208.213 173.709C210.065 173.169 210.914 172.474 211.763 171.703C212.689 171.008 213.46 170.314 215.312 169.851Z" fill="#FBF2D5"/>
<path d="M223.415 188.524C221.486 179.187 214.773 146.547 212.535 136.208C209.834 124.016 203.739 105.111 203.739 105.111L201.809 107.349L199.649 116.222L210.606 189.373C215.081 189.296 219.325 188.987 223.415 188.524Z" fill="#B4A232"/>
<path d="M206.285 84.6626L209.834 96.8543L203.044 101.638C203.044 101.638 208.06 113.753 221.486 106.191C234.912 98.6291 232.443 87.4405 232.443 87.4405L223.878 90.527L219.171 80.7273L206.285 84.6626Z" fill="#E79A9A"/>
<path d="M219.248 80.8044L206.285 84.7398L207.751 89.7553C210.452 91.6844 214.696 94.1536 217.859 92.6875C220.56 91.5301 221.64 88.9837 222.18 86.9003L219.248 80.8044Z" fill="#E17777"/>
<path d="M210.529 101.407L217.859 98.6289" stroke="#E17777" stroke-width="0.75" stroke-miterlimit="10" stroke-linecap="round" stroke-linejoin="round"/>
<path d="M228.122 93.1504L223.415 96.4684" stroke="#E17777" stroke-width="0.75" stroke-miterlimit="10" stroke-linecap="round" stroke-linejoin="round"/>
<path d="M199.572 197.784L217.859 191.765L203.044 101.562C203.044 101.562 190.312 108.506 183.136 116.84C175.96 125.096 165.157 153.724 165.157 153.724L197.488 163.138L199.572 157.736C199.572 157.736 198.8 171.471 199.572 176.024C200.344 180.576 201.501 184.049 201.501 184.049C201.501 184.049 196.794 191.225 199.572 197.784Z" fill="#6657AE"/>
<path d="M156.36 194.543C155.28 206.349 170.404 203.262 178.969 199.558C187.534 195.854 202.735 187.058 202.735 187.058C202.735 187.058 204.896 188.215 208.522 186.209C208.522 186.209 212.226 187.521 212.689 186.981C213.152 186.441 208.908 183.74 208.908 183.74C208.908 183.74 213.924 185.283 215.236 185.206C216.547 185.052 216.702 183.74 215.236 183.045C213.77 182.274 208.831 181.116 208.831 181.116C208.831 181.116 211.223 180.576 212.844 180.962C214.464 181.271 215.621 182.66 215.93 182.042C216.239 181.425 214.927 178.724 213.307 178.261C211.686 177.798 208.291 177.875 208.291 177.875C208.291 177.875 211.146 176.332 212.998 176.718C214.85 177.027 215.853 176.95 215.93 176.178C216.007 175.406 213.152 174.635 211.3 174.403C209.526 174.172 198.26 180.268 198.26 180.268C198.26 180.268 178.352 182.428 171.021 183.74C163.691 184.974 157.209 185.36 156.36 194.543Z" fill="#E79A9A"/>
<path d="M197.488 163.214L199.572 157.813C200.035 152.103 194.788 143.075 195.328 134.047C195.328 134.047 190.775 145.313 189.463 150.946C188.769 153.801 187.38 157.273 186.145 159.896L197.488 163.214Z" fill="#514688"/>
<path d="M167.549 184.203L188.383 181.271" stroke="#E17777" stroke-width="0.75" stroke-miterlimit="10" stroke-linecap="round" stroke-linejoin="round"/>
<path d="M160.99 196.24C160.99 196.24 162.456 198.941 166.391 198.941" stroke="#E17777" stroke-width="0.75" stroke-miterlimit="10" stroke-linecap="round" stroke-linejoin="round"/>
<path d="M284.528 121.469C287.692 122.395 291.01 114.216 292.322 112.21C293.633 110.126 279.05 105.111 279.05 105.111L277.429 115.296C277.506 115.296 281.287 120.543 284.528 121.469Z" fill="#41386C"/>
<path d="M276.812 81.8848L304.513 90.7585C304.513 90.7585 326.042 55.5722 327.353 49.785C327.816 47.7016 331.134 35.2784 332.369 34.1209C333.604 32.9635 332.369 38.3649 332.369 38.3649C332.369 38.3649 336.227 33.0406 337.307 32.8863C338.388 32.732 336.073 36.05 335.764 37.7476C335.764 37.7476 340.78 31.6517 341.783 32.269C342.786 32.8091 338.388 38.5964 338.388 38.5964C338.388 38.5964 341.937 34.1981 342.709 34.7382C343.403 35.2012 340.24 40.3711 338.851 42.4545C337.462 44.5379 336.536 46.8528 337.385 47.0843C338.156 47.3158 339.931 43.6891 340.78 43.8434C341.629 44.0749 340.548 46.6213 339.005 48.3189C337.462 50.0165 334.607 52.9487 334.607 52.9487C334.607 52.9487 322.492 110.435 313.541 114.679C304.59 118.923 275.963 112.441 275.963 112.441L276.812 81.8848Z" fill="#E79A9A"/>
<path d="M306.596 90.9126H310.995" stroke="#E17777" stroke-width="0.75" stroke-miterlimit="10" stroke-linecap="round" stroke-linejoin="round"/>
<path d="M313.156 107.04C313.156 107.04 308.989 105.342 307.6 112.21" stroke="#E17777" stroke-width="0.75" stroke-miterlimit="10" stroke-linecap="round" stroke-linejoin="round"/>
<path d="M299.961 89.2924L276.812 81.8848L275.963 112.518C275.963 112.518 280.747 113.599 286.997 114.602C284.065 104.108 294.482 93.845 299.961 89.2924Z" fill="#E17777"/>
<path d="M338.388 38.5193C338.388 38.5193 336.381 41.2972 335.61 43.1491" stroke="#E17777" stroke-width="0.75" stroke-miterlimit="10" stroke-linecap="round" stroke-linejoin="round"/>
<path d="M335.841 37.3616C335.841 37.3616 334.761 39.2135 333.835 41.7599" stroke="#E17777" stroke-width="0.75" stroke-miterlimit="10" stroke-linecap="round" stroke-linejoin="round"/>
<path d="M332.369 38.3647C332.369 38.3647 331.906 39.9852 331.52 41.2969" stroke="#E17777" stroke-width="0.75" stroke-miterlimit="10" stroke-linecap="round" stroke-linejoin="round"/>
<path d="M232.52 87.4405L245.098 187.058H276.349C276.349 187.058 275.963 182.274 274.651 178.261C273.339 174.249 276.734 173.323 275.037 168.153C273.339 162.983 278.818 164.526 276.349 157.273C273.879 150.02 269.713 117.611 269.713 117.611L284.605 121.392C284.605 121.392 274.342 120.466 287.306 85.2028C287.306 85.2028 266.317 78.1809 260.839 77.4865C255.206 76.8692 232.52 87.4405 232.52 87.4405Z" fill="#6657AE"/>
<path d="M252.351 102.41C252.351 102.719 250.885 113.676 268.015 116.994" stroke="#41386C" stroke-width="0.75" stroke-miterlimit="10" stroke-linecap="round" stroke-linejoin="round"/>
<path d="M249.187 109.663C249.187 109.663 254.434 117.997 263.925 119.694" stroke="#41386C" stroke-width="0.75" stroke-miterlimit="10" stroke-linecap="round" stroke-linejoin="round"/>
<path d="M247.875 119.772C247.875 119.772 259.913 128.568 266.934 131.886" stroke="#41386C" stroke-width="0.75" stroke-miterlimit="10" stroke-linecap="round" stroke-linejoin="round"/>
<path d="M193.862 126.87C193.862 126.87 195.559 140.683 196.948 145.467" stroke="#41386C" stroke-width="0.75" stroke-miterlimit="10" stroke-linecap="round" stroke-linejoin="round"/>
<path d="M186.223 118.151C186.223 118.151 189.386 132.581 193.939 141.609" stroke="#41386C" stroke-width="0.75" stroke-miterlimit="10" stroke-linecap="round" stroke-linejoin="round"/>
<path d="M200.729 74.7085C200.729 74.7085 202.427 78.0265 202.89 82.2705C202.89 82.2705 200.806 80.1871 199.803 80.6501C198.877 81.113 200.112 85.6656 203.97 84.8169C203.97 84.8169 211.146 90.7584 216.084 88.5978C221.023 86.4373 220.251 80.9587 219.865 77.5635C219.865 77.5635 221.486 76.7919 221.409 73.8597C221.331 70.9275 219.634 70.9275 219.248 72.7794C218.862 74.7085 218.785 76.1746 218.785 76.1746C218.785 76.1746 214.773 69.3843 212.612 66.8379C212.689 66.8379 207.982 76.0974 200.729 74.7085Z" fill="#E79A9A"/>
<path d="M211.3 77.9492L212.921 80.1869L212.149 80.8042" stroke="#BA6464" stroke-width="0.75" stroke-miterlimit="10" stroke-linecap="round" stroke-linejoin="round"/>
<path d="M210.529 84.1996L216.007 81.0359C216.007 81.0359 217.473 83.5823 215.467 84.8169C213.538 86.0515 210.529 84.1996 210.529 84.1996Z" fill="#FBF2D5"/>
<path d="M214.708 75.5164C215.051 75.3444 215.112 74.7726 214.844 74.2394C214.577 73.7061 214.082 73.4133 213.739 73.5853C213.396 73.7573 213.335 74.329 213.603 74.8623C213.87 75.3955 214.365 75.6884 214.708 75.5164Z" fill="#41386C"/>
<path d="M207.769 79.7642C208.112 79.5922 208.173 79.0204 207.905 78.4872C207.638 77.9539 207.143 77.6611 206.8 77.8331C206.457 78.0051 206.396 78.5768 206.664 79.1101C206.932 79.6433 207.426 79.9362 207.769 79.7642Z" fill="#41386C"/>
<path d="M206.285 82.425C208.032 82.425 209.448 81.0086 209.448 79.2613C209.448 77.5141 208.032 76.0977 206.285 76.0977C204.538 76.0977 203.121 77.5141 203.121 79.2613C203.121 81.0086 204.538 82.425 206.285 82.425Z" stroke="#FBF2D5" stroke-width="0.75" stroke-miterlimit="10" stroke-linecap="round" stroke-linejoin="round"/>
<path d="M213.461 77.7951C215.208 77.7951 216.625 76.3787 216.625 74.6315C216.625 72.8842 215.208 71.4678 213.461 71.4678C211.714 71.4678 210.297 72.8842 210.297 74.6315C210.297 76.3787 211.714 77.7951 213.461 77.7951Z" stroke="#FBF2D5" stroke-width="0.75" stroke-miterlimit="10" stroke-linecap="round" stroke-linejoin="round"/>
<path d="M208.985 77.5637L210.76 76.4062" stroke="#FBF2D5" stroke-width="0.75" stroke-miterlimit="10" stroke-linecap="round" stroke-linejoin="round"/>
<path d="M351.428 32.346L362.308 28.0249" stroke="#DD5592" stroke-width="2" stroke-miterlimit="10" stroke-linecap="round" stroke-linejoin="round"/>
<path d="M352.277 39.368L364.006 39.1365" stroke="#DD5592" stroke-width="2" stroke-miterlimit="10" stroke-linecap="round" stroke-linejoin="round"/>
<path d="M349.345 52.0225L359.299 58.2727" stroke="#DD5592" stroke-width="2" stroke-miterlimit="10" stroke-linecap="round" stroke-linejoin="round"/>
<path d="M351.505 45.2324L363.003 47.6245" stroke="#DD5592" stroke-width="2" stroke-miterlimit="10" stroke-linecap="round" stroke-linejoin="round"/>
<path d="M325.965 27.4076L316.859 20" stroke="#DD5592" stroke-width="2" stroke-miterlimit="10" stroke-linecap="round" stroke-linejoin="round"/>
<path d="M323.032 33.8894L311.844 30.1084" stroke="#DD5592" stroke-width="2" stroke-miterlimit="10" stroke-linecap="round" stroke-linejoin="round"/>
<path d="M322.029 46.7754L310.686 49.7847" stroke="#DD5592" stroke-width="2" stroke-miterlimit="10" stroke-linecap="round" stroke-linejoin="round"/>
<path d="M321.952 39.6767L310.3 38.5964" stroke="#DD5592" stroke-width="2" stroke-miterlimit="10" stroke-linecap="round" stroke-linejoin="round"/>
</g>
</svg>
