<svg width="199" height="150" viewBox="0 0 199 150" fill="none" xmlns="http://www.w3.org/2000/svg">
<path opacity="0.7" d="M198.873 82.0281V10C198.873 4.47715 194.396 0 188.873 0L30.6739 4.93926e-06L23.0252 0C-4.17525 10.5202 -9.9331 76.5 21.3778 94.8723C52.8906 113.363 84.1579 79.6757 124.884 92.4765C166.192 105.46 194.794 84.9675 198.873 82.0281Z" fill="#F3CA61"/>
<mask id="mask0" mask-type="alpha" maskUnits="userSpaceOnUse" x="10" y="47" width="189" height="103">
<rect x="10.3057" y="47" width="188.694" height="103" fill="#C4C4C4"/>
</mask>
<g mask="url(#mask0)">
<path d="M152.957 139.354C152.957 139.354 155.852 142.627 156.733 149.13C156.733 149.13 168.734 186.488 168.986 198.091C169.237 209.694 164.244 219.682 164.244 219.682C164.244 219.682 156.439 228.14 149.138 212.032L150.481 200.004C150.481 200.004 149.138 199.749 149.138 195.754L144.019 177.181C144.019 177.181 144.565 217.897 145.362 222.53C146.159 227.162 147.25 231.413 147.25 231.413C147.25 231.413 146.159 229.755 142.383 231.413C138.606 233.07 128.494 238.255 128.074 240.423C128.074 240.423 125.515 215.815 124.046 200.939C122.578 186.063 120.144 153.932 126.816 135.274L152.957 139.354Z" fill="#4F78A2"/>
<path d="M152.663 139.354L126.522 135.274C125.347 138.589 124.466 142.287 123.794 146.282C127.529 146.622 133.781 144.369 140.369 144.029C146.117 143.732 151.194 142.414 154.006 141.522C153.292 140.077 152.663 139.354 152.663 139.354Z" fill="#426486"/>
<path d="M132.27 136.379C132.27 136.379 131.599 149.682 123.249 149.852" stroke="#36506D" stroke-width="0.75" stroke-miterlimit="10" stroke-linecap="round" stroke-linejoin="round"/>
<path d="M131.473 141.182L127.319 140.629L126.983 148.705" stroke="#36506D" stroke-width="0.75" stroke-miterlimit="10" stroke-linecap="round" stroke-linejoin="round"/>
<path d="M150.774 139.057C150.774 139.057 152.579 150.447 156.943 150.66" stroke="#36506D" stroke-width="0.75" stroke-miterlimit="10" stroke-linecap="round" stroke-linejoin="round"/>
<path d="M143.726 164.643V139.567" stroke="#36506D" stroke-width="0.75" stroke-miterlimit="10" stroke-linecap="round" stroke-linejoin="round"/>
<path d="M146.998 139.567C146.998 139.567 149.894 155.547 143.726 156.567" stroke="#36506D" stroke-width="0.75" stroke-miterlimit="10" stroke-linecap="round" stroke-linejoin="round"/>
<path d="M126.522 119.294C125.389 116.829 131.054 110.113 131.054 110.113L135.879 116.786L128.956 122.949L126.522 119.294Z" fill="#2B4057"/>
<path d="M134.872 91.965L141.921 96.1301L156.188 104.545L158.034 108.753L157.446 118.528L128.955 123.034C128.955 123.034 129.669 113.046 127.655 107.053C125.641 101.018 134.872 91.965 134.872 91.965Z" fill="#E3CD3E"/>
<path d="M128.955 114.703C129.081 116.871 129.081 118.869 129.081 120.399L129.71 122.864L157.488 118.486L158.075 108.711L157.95 108.413C157.614 108.711 157.32 109.306 156.943 110.241C153.921 118.656 138.27 103.823 138.27 103.823C136.634 109.901 131.347 113.428 128.955 114.703Z" fill="#B4A232"/>
<path d="M150.648 75.1771C154.257 76.2397 157.698 76.5797 158.579 79.5123C159.46 82.4449 158.621 85.25 159.418 86.7375C160.215 88.1826 161.306 89.1176 161.138 90.7327C160.929 92.3477 159.963 93.0278 160.845 94.7278C161.684 96.4279 161.516 99.063 160.509 101.656L138.27 92.6878C138.27 92.6878 139.445 91.2852 139.109 88.4376C138.732 85.59 139.613 84.1874 140.662 82.0624C141.711 79.9798 141.039 78.4497 141.963 76.4522C142.844 74.4121 145.361 73.6046 150.648 75.1771Z" fill="#41386C"/>
<path d="M157.488 106.033C157.488 106.033 159.545 106.968 160.803 110.198C162.062 113.428 170.286 130.897 170.286 130.897C170.286 130.897 179.518 118.316 180.399 116.106C180.399 116.106 180.483 114.449 181.406 113.258C182.329 112.068 184.301 110.411 185.056 109.731C185.854 109.093 185.979 109.731 185.518 110.368C185.056 111.006 183.881 111.983 184.175 112.536C184.469 113.046 186.609 112.111 187.28 111.388C187.952 110.666 189.336 109.306 189.546 109.518C189.714 109.731 188.791 111.388 187.658 112.366C187.658 112.366 189.924 110.411 190.259 110.496C190.637 110.581 190.679 111.898 190.259 112.578C189.84 113.258 187.994 114.576 187.994 114.576C187.994 114.576 190.469 113.343 190.553 113.513C190.637 113.683 189.21 115.086 187.154 116.659C185.937 117.594 184.133 117.849 184.133 117.849C184.133 117.849 176.329 140.459 170.035 140.629C163.699 140.799 156.439 127.794 156.439 127.794L157.488 106.033Z" fill="#BC6363"/>
<path d="M182.622 116.148C182.622 116.148 183.797 114.321 185.895 114.448" stroke="#8F3D3D" stroke-miterlimit="10" stroke-linecap="round" stroke-linejoin="round"/>
<path d="M170.244 130.939L168.482 133.277" stroke="#8F3D3D" stroke-width="0.75" stroke-miterlimit="10" stroke-linecap="round" stroke-linejoin="round"/>
<path d="M160.761 110.198C159.503 106.968 157.447 106.033 157.447 106.033L156.439 127.794C156.439 127.794 157.111 128.984 158.202 130.642C158.999 131.832 160.887 131.449 161.097 130.004C161.894 124.989 163.405 120.909 164.454 118.486C162.775 114.831 161.265 111.473 160.761 110.198Z" fill="#8F3D3D"/>
<path d="M147.838 79.5122C147.838 79.5122 148.761 83.4648 151.404 84.4849C151.404 84.4849 150.985 87.63 151.404 87.97C151.824 88.2675 152.286 86.0999 152.286 86.0999C152.286 86.0999 153.418 84.3999 154.006 85.8874C154.593 87.375 153.544 89.2026 152.411 89.2876C152.411 89.2876 152.495 101.315 153.586 102.421C154.677 103.526 156.188 104.503 156.188 104.503C156.188 104.503 156.565 110.751 151.404 109.263C146.285 107.776 144.061 98.5529 141.921 96.0878L145.362 97.6178L145.32 93.1552C145.32 93.1552 143.39 93.3252 143.096 92.3052C142.803 91.2851 141.963 86.4825 141.963 86.4825C141.963 86.4825 143.935 85.5899 143.935 84.0174C143.894 82.4448 145.656 79.7672 147.838 79.5122Z" fill="#BC6363"/>
<path d="M145.319 93.1552C147.124 93.1977 150.313 91.3276 151.194 90.3501C150.732 92.7302 148.215 94.6427 145.319 94.9403V93.1552Z" fill="#8F3D3D"/>
<path d="M143.599 87.9274L146.452 87.8424C146.452 87.8424 146.704 90.265 145.109 90.52C143.473 90.775 143.599 87.9274 143.599 87.9274Z" fill="white"/>
<path d="M143.012 87.0349H143.6" stroke="#8F3D3D" stroke-width="0.75" stroke-miterlimit="10" stroke-linecap="round" stroke-linejoin="round"/>
<path d="M146.713 85.2965C146.918 85.3339 147.138 85.0646 147.203 84.695C147.269 84.3253 147.156 83.9954 146.951 83.9579C146.746 83.9205 146.526 84.1898 146.46 84.5594C146.394 84.929 146.508 85.259 146.713 85.2965Z" fill="#2E294A"/>
<path d="M144.83 84.9015C145.035 84.939 145.255 84.6696 145.32 84.3C145.386 83.9304 145.273 83.6004 145.067 83.563C144.862 83.5256 144.643 83.7949 144.577 84.1645C144.511 84.5342 144.624 84.8641 144.83 84.9015Z" fill="#2E294A"/>
<path d="M147.124 82.8699C147.124 82.8699 148.047 83.0824 148.593 83.8899" stroke="#41386C" stroke-width="0.75" stroke-miterlimit="10" stroke-linecap="round" stroke-linejoin="round"/>
<path d="M145.068 82.6571C145.068 82.6571 144.439 82.5721 143.851 82.9971" stroke="#41386C" stroke-width="0.75" stroke-miterlimit="10" stroke-linecap="round" stroke-linejoin="round"/>
<path d="M159.167 116.658C159.167 113.343 159.167 109.646 159.125 108.626C159.041 105.651 157.152 104.418 156.187 103.696C156.187 103.696 156.859 105.651 156.817 107.436C156.775 108.371 156.481 112.238 156.229 115.638L141.375 110.368C141.333 103.356 141.04 95.2377 140.41 94.5152C139.361 93.3677 137.305 92.6451 137.305 92.6451C137.305 92.6451 137.767 93.1127 138.019 94.5152C138.27 96.0028 137.893 105.566 137.599 111.728C128.871 124.989 126.563 119.294 126.563 119.294V135.274C137.767 143.052 153.208 140.119 153.208 140.119L153.502 136.974C153.502 136.974 156.943 130.131 158.369 126.179C159.796 122.141 159.167 116.658 159.167 116.658Z" fill="#4F78A2"/>
<path d="M143.809 118.698L153.46 122.566C153.46 122.566 152.747 130.004 146.621 128.261C141.334 126.731 143.809 118.698 143.809 118.698Z" stroke="#36506D" stroke-width="0.75" stroke-miterlimit="10" stroke-linecap="round" stroke-linejoin="round"/>
<path d="M153.502 136.932C153.502 136.932 140.956 139.822 128.2 132.511" stroke="#36506D" stroke-width="0.75" stroke-miterlimit="10" stroke-linecap="round" stroke-linejoin="round"/>
<path d="M134.871 91.9649C131.64 90.3499 119.64 85.9722 119.64 85.9722C119.64 85.9722 111.164 67.4841 111.08 65.5715C110.996 63.7014 111.919 57.9212 111.373 57.1137L110.45 57.6662C110.45 57.6662 110.324 55.6262 109.821 55.7537C109.317 55.8387 109.485 57.4962 109.485 57.4962C109.485 57.4962 108.856 56.5187 108.478 56.8162C108.1 57.1137 108.101 58.3463 108.101 58.3463C108.101 58.3463 107.639 57.1137 107.303 57.7087C107.01 58.3038 107.051 58.7713 107.01 59.8338C106.968 60.8963 106.254 67.0591 107.555 68.1641C107.555 68.1641 111.164 88.6923 113.891 92.305C116.618 95.9176 123.416 100.55 127.57 103.483C128.241 106.075 127.822 111.048 131.472 110.198C135.123 109.263 138.689 93.835 134.871 91.9649Z" fill="#BC6363"/>
<path d="M127.025 101.06C127.025 101.06 130.508 100.805 131.935 102.166" stroke="#8F3D3D" stroke-width="0.75" stroke-miterlimit="10" stroke-linecap="round" stroke-linejoin="round"/>
<path d="M109.192 66.2517C109.192 66.2517 107.933 64.8916 107.807 63.149" stroke="#8F3D3D" stroke-width="0.75" stroke-miterlimit="10" stroke-linecap="round" stroke-linejoin="round"/>
<path d="M153.628 87.0349C153.628 87.0349 153.88 86.1423 153.292 85.8873C152.663 85.6323 152.243 88.1824 152.243 88.1824" stroke="#8F3D3D" stroke-width="0.75" stroke-miterlimit="10" stroke-linecap="round" stroke-linejoin="round"/>
<path d="M141.375 110.326V116.021L137.473 115.426L137.515 112.706" stroke="#36506D" stroke-width="0.75" stroke-miterlimit="10" stroke-linecap="round" stroke-linejoin="round"/>
<path d="M156.188 116.021V119.336L158.999 120.441" stroke="#36506D" stroke-width="0.75" stroke-miterlimit="10" stroke-linecap="round" stroke-linejoin="round"/>
<path d="M139.697 114.746C140.114 114.746 140.452 114.403 140.452 113.981C140.452 113.558 140.114 113.216 139.697 113.216C139.28 113.216 138.942 113.558 138.942 113.981C138.942 114.403 139.28 114.746 139.697 114.746Z" fill="#2B4057"/>
<path d="M158.033 118.996C158.45 118.996 158.788 118.653 158.788 118.231C158.788 117.808 158.45 117.466 158.033 117.466C157.616 117.466 157.278 117.808 157.278 118.231C157.278 118.653 157.616 118.996 158.033 118.996Z" fill="#2B4057"/>
<path d="M116.65 91.8595C117.059 91.5138 116.958 90.7074 116.423 90.0584C115.889 89.4095 115.124 89.1636 114.715 89.5094C114.305 89.8551 114.407 90.6615 114.941 91.3105C115.475 91.9594 116.24 92.2053 116.65 91.8595Z" fill="#8F3D3D"/>
<path d="M36.7689 139.736C36.7689 139.736 33.2442 146.707 34.503 147.727C34.503 147.727 33.5799 149.937 34.0415 151.212C34.0415 151.212 25.7753 177.988 26.3208 190.993C26.8243 203.999 34.503 205.699 37.6081 206.974C40.7131 208.249 52.8396 212.414 52.8396 212.414C52.8396 212.414 57.0776 210.119 56.3643 203.191L43.0209 191.418C43.0209 191.418 44.1958 190.143 43.0209 189.123L50.28 157.842L48.8534 136.804L36.7689 139.736Z" fill="#41386C"/>
<path d="M37.6084 137.994L72.0157 132.214C72.0157 132.214 73.0647 136.719 72.8549 146.111C72.6451 155.504 65.428 191.418 65.428 191.418C65.428 191.418 66.9385 206.336 64.5468 204.764C64.5468 204.764 65.386 218.407 62.6586 216.834C61.9453 222.827 58.001 243.907 58.001 243.907H46.2102L50.2803 183.555V157.799L37.6084 137.994Z" fill="#41386C"/>
<path d="M72.0147 132.214L37.6074 137.994L38.4466 139.311L36.7682 139.736C36.7682 139.736 33.2435 146.707 34.5023 147.727C34.5023 147.727 33.5792 149.937 34.0408 151.212C34.0408 151.212 33.0337 154.442 31.7749 159.202C34.7541 159.414 37.3556 156.099 43.9853 153.804C50.3213 151.637 67.3571 144.411 72.8959 142.074C72.728 135.444 72.0147 132.214 72.0147 132.214Z" fill="#37305B"/>
<path d="M67.8612 136.379C67.8612 136.379 67.3577 145.134 72.8545 146.154" stroke="#6657AE" stroke-width="0.75" stroke-miterlimit="10" stroke-linecap="round" stroke-linejoin="round"/>
<path d="M50.2796 157.842L48.811 136.804" stroke="#2B2646" stroke-width="0.75" stroke-miterlimit="10" stroke-linecap="round" stroke-linejoin="round"/>
<path d="M56.4485 150.362L42.1401 159.245" stroke="#2B2646" stroke-width="0.75" stroke-miterlimit="10" stroke-linecap="round" stroke-linejoin="round"/>
<path d="M54.6022 147.217L41.3428 152.784" stroke="#2B2646" stroke-width="0.75" stroke-miterlimit="10" stroke-linecap="round" stroke-linejoin="round"/>
<path d="M31.9436 124.478L26.7406 139.906L10.5439 143.136L17.2576 120.441L31.9436 124.478Z" fill="#E79A9A"/>
<path d="M13.8589 131.916C19.3976 128.048 27.1183 128.261 30.559 128.558L31.9437 124.436L17.2577 120.441L13.8589 131.916Z" fill="#E17777"/>
<path d="M35.6353 82.487C35.6353 82.487 29.7609 78.8744 32.3624 75.7293C31.3974 72.8392 33.831 72.4567 36.8102 70.3316C39.8313 68.164 41.216 64.5939 44.2791 66.974C47.3422 69.3541 44.9085 73.9017 44.7407 75.0493C44.5728 76.1968 45.412 78.0244 45.412 78.0244L35.6353 82.487Z" fill="#1D1B2D"/>
<path d="M33.9995 100.508L35.8877 92.5173L51.8746 84.697L56.7839 90.8597L63.3716 135.741C63.3716 135.741 53.0914 140.799 39.9159 140.799L33.9995 100.508Z" fill="#E3CD3E"/>
<path d="M34.4194 103.228L34.5034 103.823C34.839 103.568 35.2587 103.355 35.93 103.185C36.9371 102.93 37.5245 103.058 38.1119 103.185C38.7413 103.313 39.4127 103.483 40.5456 103.185C41.6786 102.888 42.1821 102.463 42.6856 102.038C43.1472 101.655 43.5667 101.273 44.6158 101.018C45.6228 100.763 46.2102 100.89 46.7977 101.018C47.4271 101.145 48.0984 101.315 49.2314 101.018C50.3643 100.72 50.8678 100.295 51.3714 99.8701C51.8329 99.4876 52.2525 99.1051 53.3015 98.85C54.3086 98.595 54.896 98.7225 55.4834 98.85C56.1129 98.9775 56.7842 99.1476 57.9171 98.85C57.9591 98.85 57.9591 98.85 58.0011 98.8075L57.9171 98.255C57.8752 98.255 57.8332 98.2975 57.7913 98.2975C56.7842 98.5525 56.1968 98.425 55.6093 98.2975C54.9799 98.17 54.3086 98 53.1756 98.2975C52.0427 98.595 51.5392 99.02 51.0357 99.4451C50.5741 99.8276 50.1545 100.21 49.1055 100.465C48.0985 100.72 47.511 100.593 46.9236 100.465C46.2942 100.338 45.6228 100.168 44.4899 100.465C43.357 100.763 42.8534 101.188 42.3499 101.613C41.8884 101.995 41.4687 102.378 40.4197 102.633C39.4127 102.888 38.8253 102.76 38.2378 102.633C37.6084 102.505 36.937 102.335 35.8041 102.633C35.1747 102.803 34.7551 103.015 34.4194 103.228Z" fill="#FBF2D5"/>
<path d="M62.826 131.704C62.4484 131.704 61.9868 131.746 61.4414 131.874C60.3084 132.171 59.8049 132.596 59.3014 133.021C58.8398 133.404 58.4202 133.786 57.3712 134.041C56.3642 134.296 55.7767 134.169 55.1893 134.041C54.5599 133.914 53.8885 133.744 52.7556 134.041C51.6227 134.339 51.1192 134.764 50.6156 135.189C50.1541 135.571 49.7345 135.954 48.6855 136.209C47.6784 136.464 47.091 136.336 46.5035 136.209C45.8741 136.081 45.2028 135.911 44.0698 136.209C42.9369 136.506 42.4334 136.931 41.9299 137.356C41.4683 137.739 41.0487 138.121 39.9997 138.376C39.8738 138.419 39.748 138.419 39.6221 138.461L39.706 139.014C39.8319 138.971 39.9997 138.971 40.1675 138.929C41.3005 138.631 41.804 138.206 42.3075 137.781C42.7691 137.399 43.1887 137.016 44.2377 136.761C45.2447 136.506 45.8322 136.634 46.4196 136.761C47.049 136.889 47.7204 137.059 48.8533 136.761C49.9862 136.464 50.4897 136.039 50.9933 135.614C51.4548 135.231 51.8744 134.849 52.9234 134.594C53.9305 134.339 54.5179 134.466 55.1054 134.594C55.7348 134.721 56.4061 134.891 57.5391 134.594C58.672 134.296 59.1755 133.871 59.679 133.446C60.1406 133.064 60.5602 132.681 61.6092 132.426C62.1547 132.299 62.5743 132.256 62.9519 132.299L62.826 131.704Z" fill="#FBF2D5"/>
<path d="M54.8119 104.97C53.679 105.267 53.1754 105.692 52.6719 106.117C52.2103 106.5 51.7907 106.882 50.7417 107.137C49.7347 107.392 49.1472 107.265 48.5598 107.137C47.9304 107.01 47.259 106.84 46.1261 107.137C44.9932 107.435 44.4897 107.86 43.9861 108.285C43.5246 108.668 43.105 109.05 42.056 109.305C41.0489 109.56 40.4615 109.433 39.874 109.305C39.2446 109.178 38.5733 109.008 37.4404 109.305C36.3913 109.56 35.8878 109.943 35.4263 110.325L35.5102 110.963C35.5522 110.92 35.5941 110.92 35.6361 110.878C36.0976 110.495 36.5172 110.113 37.5662 109.858C38.5733 109.603 39.1607 109.73 39.7482 109.858C40.3776 109.985 41.0489 110.155 42.1818 109.858C43.3148 109.56 43.8183 109.135 44.3218 108.71C44.7834 108.328 45.203 107.945 46.252 107.69C47.259 107.435 47.8465 107.562 48.4339 107.69C49.0633 107.817 49.7347 107.987 50.8676 107.69C52.0005 107.392 52.504 106.967 53.0076 106.542C53.4691 106.16 53.8887 105.777 54.9378 105.522C55.9448 105.267 56.5322 105.395 57.1197 105.522C57.6232 105.65 58.1687 105.735 59.0079 105.607L58.924 105.055C58.2106 105.182 57.7491 105.055 57.2456 104.97C56.6162 104.842 55.9448 104.672 54.8119 104.97Z" fill="#FBF2D5"/>
<path d="M38.9936 124.393C39.4551 124.011 39.8747 123.628 40.9237 123.373C41.9308 123.118 42.5182 123.246 43.1057 123.373C43.7351 123.501 44.4064 123.671 45.5393 123.373C46.6723 123.076 47.1758 122.651 47.6793 122.226C48.1409 121.843 48.5605 121.461 49.6095 121.206C50.6165 120.951 51.204 121.078 51.7914 121.206C52.4208 121.333 53.0922 121.503 54.2251 121.206C55.358 120.908 55.8615 120.483 56.3651 120.058C56.8266 119.676 57.2462 119.293 58.2952 119.038C59.3023 118.783 59.8897 118.911 60.4772 119.038C60.645 119.081 60.8129 119.123 61.0227 119.123L60.9387 118.528C60.8129 118.486 60.7289 118.486 60.6031 118.443C59.9737 118.316 59.3023 118.146 58.1694 118.443C57.0364 118.741 56.5329 119.166 56.0294 119.591C55.5678 119.973 55.1482 120.356 54.0992 120.611C53.0922 120.866 52.5047 120.738 51.9173 120.611C51.2879 120.483 50.6165 120.313 49.4836 120.611C48.3507 120.908 47.8471 121.333 47.3436 121.758C46.8821 122.141 46.4625 122.523 45.4135 122.778C44.4064 123.033 43.819 122.906 43.2315 122.778C42.6021 122.651 41.9308 122.481 40.7978 122.778C39.6649 123.076 39.1614 123.501 38.6579 123.926C38.3642 124.181 38.0704 124.436 37.6089 124.648L37.6928 125.243C38.2802 124.988 38.6579 124.691 38.9936 124.393Z" fill="#FBF2D5"/>
<path d="M56.4482 111.728C55.3152 112.026 54.8117 112.451 54.3082 112.876C53.8466 113.258 53.427 113.641 52.378 113.896C51.371 114.151 50.7836 114.023 50.1961 113.896C49.5667 113.768 48.8953 113.598 47.7624 113.896C46.6295 114.193 46.126 114.618 45.6225 115.043C45.1609 115.426 44.7413 115.808 43.6923 116.063C42.6852 116.318 42.0978 116.191 41.5104 116.063C40.881 115.936 40.2096 115.766 39.0767 116.063C37.9438 116.361 37.4402 116.786 36.9367 117.211C36.8108 117.338 36.643 117.466 36.5171 117.551L36.601 118.146C36.8528 117.976 37.1045 117.763 37.3143 117.593C37.7759 117.211 38.1955 116.828 39.2445 116.573C40.2515 116.318 40.839 116.446 41.4264 116.573C42.0558 116.701 42.7272 116.871 43.8601 116.573C44.993 116.276 45.4966 115.851 46.0001 115.426C46.4617 115.043 46.8813 114.661 47.9303 114.406C48.9373 114.151 49.5248 114.278 50.1122 114.406C50.7416 114.533 51.371 114.703 52.5459 114.406C53.6788 114.108 54.1823 113.683 54.6858 113.258C55.1474 112.876 55.567 112.493 56.616 112.238C57.6231 111.983 58.2105 112.111 58.798 112.238C59.1756 112.323 59.5532 112.408 60.0148 112.408L59.9309 111.856C59.5532 111.856 59.2595 111.771 58.9238 111.728C58.2525 111.558 57.6231 111.431 56.4482 111.728Z" fill="#FBF2D5"/>
<path d="M42.56 130.089C43.567 129.834 44.1545 129.961 44.7419 130.089C45.3713 130.216 46.0427 130.386 47.1756 130.089C48.3085 129.791 48.812 129.366 49.3156 128.941C49.7771 128.559 50.1967 128.176 51.2458 127.921C52.2528 127.666 52.8402 127.794 53.4277 127.921C54.0571 128.049 54.7284 128.219 55.8614 127.921C56.9943 127.624 57.4978 127.199 58.0013 126.774C58.4629 126.391 58.8825 126.009 59.9315 125.754C60.8546 125.499 61.4001 125.584 61.9456 125.711L61.8617 125.116C61.3162 125.031 60.7287 124.946 59.8056 125.201C58.6727 125.499 58.1692 125.924 57.6657 126.349C57.2041 126.731 56.7845 127.114 55.7355 127.369C54.7284 127.624 54.141 127.496 53.5536 127.369C52.9242 127.241 52.2528 127.071 51.1199 127.369C49.9869 127.666 49.4834 128.091 48.9799 128.516C48.5183 128.899 48.0987 129.281 47.0497 129.536C46.0427 129.791 45.4552 129.664 44.8678 129.536C44.2384 129.409 43.567 129.239 42.4341 129.536C41.3012 129.834 40.7977 130.259 40.2941 130.684C39.8745 131.066 39.4549 131.406 38.6157 131.661L38.6996 132.214C39.7067 131.916 40.1682 131.534 40.6298 131.109C41.1333 130.726 41.5529 130.344 42.56 130.089Z" fill="#FBF2D5"/>
<path d="M46.9647 140.374C45.9157 135.231 42.2652 117.253 41.0483 111.558C39.5797 104.843 36.2649 94.4299 36.2649 94.4299L35.2159 95.6625L34.041 100.55L39.9993 140.842C42.433 140.799 44.7409 140.629 46.9647 140.374Z" fill="#B4A232"/>
<path d="M37.65 83.167L39.5802 89.8822L35.8877 92.5173C35.8877 92.5173 38.6151 99.19 45.9162 95.0249C53.2173 90.8597 51.8745 84.697 51.8745 84.697L47.2169 86.3971L44.6574 80.9994L37.65 83.167Z" fill="#E79A9A"/>
<path d="M44.6992 81.0419L37.6499 83.2094L38.4472 85.972C39.9158 87.0346 42.2236 88.3946 43.9439 87.5871C45.4125 86.9496 46 85.547 46.2937 84.3995L44.6992 81.0419Z" fill="#E17777"/>
<path d="M39.958 92.3897L43.9442 90.8596" stroke="#E17777" stroke-width="0.75" stroke-miterlimit="10" stroke-linecap="round" stroke-linejoin="round"/>
<path d="M49.5244 87.842L46.9648 89.6696" stroke="#E17777" stroke-width="0.75" stroke-miterlimit="10" stroke-linecap="round" stroke-linejoin="round"/>
<path d="M33.9999 145.474L43.9444 142.159L35.8881 92.475C35.8881 92.475 28.9647 96.3001 25.0624 100.89C21.1601 105.438 15.2856 121.206 15.2856 121.206L32.8669 126.391L33.9999 123.416C33.9999 123.416 33.5803 130.981 33.9999 133.489C34.4195 135.997 35.0489 137.909 35.0489 137.909C35.0489 137.909 32.4893 141.862 33.9999 145.474Z" fill="#6657AE"/>
<path d="M10.5025 143.689C9.91506 150.192 18.1393 148.492 22.7968 146.452C27.4544 144.412 35.7206 139.567 35.7206 139.567C35.7206 139.567 36.8955 140.204 38.8676 139.099C38.8676 139.099 40.8817 139.822 41.1334 139.524C41.3852 139.227 39.0774 137.739 39.0774 137.739C39.0774 137.739 41.8048 138.589 42.5181 138.547C43.2314 138.462 43.3154 137.739 42.5181 137.357C41.7209 136.932 39.0354 136.294 39.0354 136.294C39.0354 136.294 40.3362 135.997 41.2174 136.209C42.0985 136.379 42.7279 137.144 42.8958 136.804C43.0636 136.464 42.3503 134.977 41.4691 134.722C40.5879 134.467 38.7417 134.509 38.7417 134.509C38.7417 134.509 40.2942 133.659 41.3013 133.871C42.3083 134.041 42.8538 133.999 42.8958 133.574C42.9377 133.149 41.3852 132.724 40.3782 132.596C39.4131 132.469 33.2869 135.827 33.2869 135.827C33.2869 135.827 22.4612 137.017 18.4749 137.739C14.4887 138.419 10.9641 138.632 10.5025 143.689Z" fill="#E79A9A"/>
<path d="M32.8664 126.434L33.9993 123.459C34.2511 120.313 31.3978 115.341 31.6915 110.368C31.6915 110.368 29.2159 116.573 28.5025 119.676C28.1249 121.248 27.3696 123.161 26.6982 124.606L32.8664 126.434Z" fill="#514688"/>
<path d="M16.5859 137.994L27.9152 136.379" stroke="#E17777" stroke-width="0.75" stroke-miterlimit="10" stroke-linecap="round" stroke-linejoin="round"/>
<path d="M13.0195 144.624C13.0195 144.624 13.8168 146.112 15.9567 146.112" stroke="#E17777" stroke-width="0.75" stroke-miterlimit="10" stroke-linecap="round" stroke-linejoin="round"/>
<path d="M80.1973 103.44C81.9176 103.95 83.7219 99.4451 84.4352 98.3401C85.1485 97.1925 77.2181 94.4299 77.2181 94.4299L76.3369 100.04C76.3789 100.04 78.4349 102.93 80.1973 103.44Z" fill="#41386C"/>
<path d="M76.0016 81.637L91.0653 86.5246C91.0653 86.5246 102.772 67.1439 103.486 63.9563C103.737 62.8088 105.542 55.966 106.213 55.3285C106.884 54.691 106.213 57.6661 106.213 57.6661C106.213 57.6661 108.311 54.7335 108.898 54.6485C109.486 54.5635 108.227 56.3911 108.059 57.3261C108.059 57.3261 110.787 53.9685 111.332 54.3085C111.878 54.606 109.486 57.7936 109.486 57.7936C109.486 57.7936 111.416 55.371 111.836 55.6685C112.213 55.9235 110.493 58.7711 109.738 59.9187C108.982 61.0662 108.479 62.3413 108.94 62.4688C109.36 62.5963 110.325 60.5987 110.787 60.6837C111.248 60.8112 110.661 62.2138 109.822 63.1488C108.982 64.0838 107.43 65.6989 107.43 65.6989C107.43 65.6989 100.842 97.3625 95.9746 99.7001C91.1073 102.038 75.54 98.4675 75.54 98.4675L76.0016 81.637Z" fill="#E79A9A"/>
<path d="M92.1982 86.6095H94.59" stroke="#E17777" stroke-width="0.75" stroke-miterlimit="10" stroke-linecap="round" stroke-linejoin="round"/>
<path d="M95.7648 95.4925C95.7648 95.4925 93.4989 94.5574 92.7437 98.3401" stroke="#E17777" stroke-width="0.75" stroke-miterlimit="10" stroke-linecap="round" stroke-linejoin="round"/>
<path d="M88.5897 85.7171L76.0016 81.637L75.54 98.5101C75.54 98.5101 78.1416 99.1051 81.5403 99.6576C79.9459 93.8774 85.6105 88.2247 88.5897 85.7171Z" fill="#E17777"/>
<path d="M109.486 57.7512C109.486 57.7512 108.395 59.2813 107.975 60.3013" stroke="#E17777" stroke-width="0.75" stroke-miterlimit="10" stroke-linecap="round" stroke-linejoin="round"/>
<path d="M108.101 57.1135C108.101 57.1135 107.513 58.1336 107.01 59.5361" stroke="#E17777" stroke-width="0.75" stroke-miterlimit="10" stroke-linecap="round" stroke-linejoin="round"/>
<path d="M106.213 57.666C106.213 57.666 105.961 58.5585 105.751 59.2811" stroke="#E17777" stroke-width="0.75" stroke-miterlimit="10" stroke-linecap="round" stroke-linejoin="round"/>
<path d="M51.9165 84.6971L58.756 139.567H75.7499C75.7499 139.567 75.5401 136.931 74.8267 134.721C74.1134 132.511 75.9597 132.001 75.0365 129.154C74.1134 126.306 77.0926 127.156 75.7499 123.161C74.4072 119.166 72.1413 101.315 72.1413 101.315L80.2396 103.398C80.2396 103.398 74.6589 102.888 81.7082 83.4646C81.7082 83.4646 70.2951 79.5969 67.3159 79.2144C64.2528 78.8744 51.9165 84.6971 51.9165 84.6971Z" fill="#6657AE"/>
<path d="M62.7001 92.9423C62.7001 93.1123 61.9029 99.1475 71.218 100.975" stroke="#41386C" stroke-width="0.75" stroke-miterlimit="10" stroke-linecap="round" stroke-linejoin="round"/>
<path d="M60.98 96.9374C60.98 96.9374 63.8333 101.528 68.9944 102.463" stroke="#41386C" stroke-width="0.75" stroke-miterlimit="10" stroke-linecap="round" stroke-linejoin="round"/>
<path d="M60.2666 102.505C60.2666 102.505 66.8124 107.35 70.6307 109.178" stroke="#41386C" stroke-width="0.75" stroke-miterlimit="10" stroke-linecap="round" stroke-linejoin="round"/>
<path d="M30.8945 106.415C30.8945 106.415 31.8177 114.023 32.573 116.658" stroke="#41386C" stroke-width="0.75" stroke-miterlimit="10" stroke-linecap="round" stroke-linejoin="round"/>
<path d="M26.7402 101.613C26.7402 101.613 28.4606 109.561 30.9363 114.533" stroke="#41386C" stroke-width="0.75" stroke-miterlimit="10" stroke-linecap="round" stroke-linejoin="round"/>
<path d="M34.6283 77.6844C34.6283 77.6844 35.5514 79.512 35.8032 81.8495C35.8032 81.8495 34.6703 80.702 34.1248 80.957C33.6213 81.212 34.2926 83.7196 36.3906 83.2521C36.3906 83.2521 40.2929 86.5247 42.9784 85.3347C45.6638 84.1446 45.2442 81.127 45.0344 79.257C45.0344 79.257 45.9156 78.8319 45.8736 77.2169C45.8317 75.6018 44.9086 75.6018 44.6988 76.6219C44.489 77.6844 44.447 78.4919 44.447 78.4919C44.447 78.4919 42.2651 74.7518 41.0902 73.3492C41.1321 73.3492 38.5726 78.4494 34.6283 77.6844Z" fill="#E79A9A"/>
<path d="M40.3774 79.4692L41.2586 80.7018L40.839 81.0418" stroke="#BA6464" stroke-width="0.75" stroke-miterlimit="10" stroke-linecap="round" stroke-linejoin="round"/>
<path d="M39.958 82.912L42.9372 81.1694C42.9372 81.1694 43.7344 82.572 42.6435 83.252C41.5945 83.932 39.958 82.912 39.958 82.912Z" fill="#FBF2D5"/>
<path d="M42.2297 78.1294C42.4161 78.0347 42.4493 77.7197 42.3038 77.426C42.1583 77.1323 41.8892 76.971 41.7028 77.0658C41.5163 77.1605 41.4832 77.4754 41.6287 77.7691C41.7742 78.0629 42.0433 78.2242 42.2297 78.1294Z" fill="#41386C"/>
<path d="M38.4563 80.469C38.6427 80.3743 38.6758 80.0593 38.5303 79.7656C38.3848 79.4719 38.1157 79.3106 37.9293 79.4054C37.7429 79.5001 37.7098 79.815 37.8553 80.1087C38.0008 80.4025 38.2698 80.5638 38.4563 80.469Z" fill="#41386C"/>
<path d="M37.6496 81.9347C38.5997 81.9347 39.3699 81.1545 39.3699 80.1921C39.3699 79.2298 38.5997 78.4496 37.6496 78.4496C36.6994 78.4496 35.9292 79.2298 35.9292 80.1921C35.9292 81.1545 36.6994 81.9347 37.6496 81.9347Z" stroke="#FBF2D5" stroke-width="0.75" stroke-miterlimit="10" stroke-linecap="round" stroke-linejoin="round"/>
<path d="M41.5519 79.3845C42.502 79.3845 43.2723 78.6044 43.2723 77.642C43.2723 76.6796 42.502 75.8994 41.5519 75.8994C40.6018 75.8994 39.8315 76.6796 39.8315 77.642C39.8315 78.6044 40.6018 79.3845 41.5519 79.3845Z" stroke="#FBF2D5" stroke-width="0.75" stroke-miterlimit="10" stroke-linecap="round" stroke-linejoin="round"/>
<path d="M39.1182 79.257L40.0832 78.6195" stroke="#FBF2D5" stroke-width="0.75" stroke-miterlimit="10" stroke-linecap="round" stroke-linejoin="round"/>
<path d="M116.577 54.3513L122.494 51.9712" stroke="#DD5592" stroke-width="2" stroke-miterlimit="10" stroke-linecap="round" stroke-linejoin="round"/>
<path d="M117.039 58.2189L123.417 58.0914" stroke="#DD5592" stroke-width="2" stroke-miterlimit="10" stroke-linecap="round" stroke-linejoin="round"/>
<path d="M115.444 65.189L120.857 68.6316" stroke="#DD5592" stroke-width="2" stroke-miterlimit="10" stroke-linecap="round" stroke-linejoin="round"/>
<path d="M116.619 61.4491L122.871 62.7666" stroke="#DD5592" stroke-width="2" stroke-miterlimit="10" stroke-linecap="round" stroke-linejoin="round"/>
<path d="M102.731 51.631L97.7793 47.5509" stroke="#DD5592" stroke-width="2" stroke-miterlimit="10" stroke-linecap="round" stroke-linejoin="round"/>
<path d="M101.136 55.2012L95.0518 53.1187" stroke="#DD5592" stroke-width="2" stroke-miterlimit="10" stroke-linecap="round" stroke-linejoin="round"/>
<path d="M100.591 62.2988L94.4233 63.9564" stroke="#DD5592" stroke-width="2" stroke-miterlimit="10" stroke-linecap="round" stroke-linejoin="round"/>
<path d="M100.548 58.3888L94.2119 57.7938" stroke="#DD5592" stroke-width="2" stroke-miterlimit="10" stroke-linecap="round" stroke-linejoin="round"/>
</g>
</svg>
