<svg width="315" height="1093" viewBox="0 0 315 1093" fill="none" xmlns="http://www.w3.org/2000/svg">
<path opacity="0.3" d="M198.5 78.8408C127 128.841 364 156.341 276 304.341C268.833 315.008 252.3 338.341 243.5 346.341M120.5 396.341C85 381.507 11.7996 412.541 2.99957 483.341C-3.00043 542.674 1.49959 666.041 67.4996 684.841C150 708.341 105 701.841 120.5 712.341" stroke="#A0ACAF" stroke-dasharray="6 6"/>
<g filter="url(#filter0_d)">
<path d="M112.492 36.0829C112.492 36.0829 119.585 22.0777 132.39 20.1936C145.196 18.3095 147.016 31.0586 160.01 28.9861C173.004 26.9136 194.723 17.8699 210.415 30.2422C226.108 42.6144 223.597 82.8087 196.417 102.027C169.237 121.244 114.814 120.24 106.654 101.398C98.4937 82.5574 105.587 47.5759 112.492 36.0829Z" fill="white"/>
</g>
<path d="M158.794 90.1604C179.195 90.1604 195.732 87.0104 195.732 83.1247C195.732 79.2389 179.195 76.0889 158.794 76.0889C138.394 76.0889 121.856 79.2389 121.856 83.1247C121.856 87.0104 138.394 90.1604 158.794 90.1604Z" fill="#E5E5F9"/>
<path d="M169.699 77.647L172.112 78.7023L172.765 78.9536L171.509 82.4213L168.041 81.9187L169.699 77.647Z" fill="#34006F"/>
<path d="M175.781 78.6519L172.112 78.7021L170.855 82.3708C170.855 82.3708 175.429 88.1502 176.585 90.1101C177.74 92.0701 180.153 89.6076 180.304 87.1953C180.454 84.783 177.489 81.9687 177.539 81.0641C177.59 80.1595 176.786 78.8529 175.781 78.6519Z" fill="#34006F"/>
<path d="M141.004 60.9118C141.004 60.9118 141.607 68.2994 151.407 72.3198C161.207 76.3403 172.665 73.2244 174.625 64.2789C174.625 64.2789 146.532 59.8564 141.004 60.9118Z" fill="#34006F"/>
<path d="M159.598 24.1748C159.598 24.1748 153.819 24.7779 148.643 27.0896C143.466 29.4516 136.229 42.5181 136.229 42.5181L142.511 46.7898L139.747 60.4593C139.747 60.4593 150.804 65.7362 160.855 66.2387C170.906 66.7413 175.178 64.128 175.178 64.128L176.082 49.5539C176.082 49.5539 179.751 49.0513 182.766 47.1416C182.766 47.1416 178.243 34.4269 173.117 29.8034C169.097 26.0845 159.598 24.1748 159.598 24.1748Z" fill="#4E0829"/>
<path d="M170.453 29.2507C168.996 30.6076 166.031 32.1153 161.91 30.7584C157.789 29.4015 157.487 25.2805 157.487 25.2805C157.487 25.2805 158.392 25.1298 159.598 24.1749C159.799 24.0241 160 23.7729 160.201 23.5718C160.955 22.7175 161.508 21.5616 161.709 21.1596C161.759 21.0591 161.759 21.0088 161.759 21.0088L164.473 21.7124L168.544 22.7175H168.594V22.818C168.544 23.7729 168.694 24.6774 168.895 25.4815C169.448 27.6928 170.453 29.2507 170.453 29.2507Z" fill="#EEAF84"/>
<path d="M168.946 25.5319C168.041 26.135 166.081 27.1903 163.92 26.738C161.809 26.2857 160.653 24.5268 160.201 23.5719C160.955 22.7176 161.508 21.5617 161.709 21.1597L164.523 21.7125L168.594 22.7176L168.644 22.8181C168.644 23.773 168.745 24.6776 168.946 25.5319Z" fill="#4E0829"/>
<path d="M161.609 13.4201L161.358 14.4252C161.358 14.4252 160.051 14.375 159.8 16.3349C159.549 18.2949 161.107 18.6467 161.107 18.6467C161.107 18.6467 160.704 23.9738 164.373 25.0794C168.042 26.185 171.057 20.7072 171.057 20.7072C171.057 20.7072 171.459 21.059 172.464 20.3051C173.469 19.5513 173.319 17.7924 172.716 17.4908L172.816 16.1842C172.866 16.2344 167.59 13.2693 161.609 13.4201Z" fill="#EEAF84"/>
<path d="M161.357 14.4254C161.357 14.4254 162.412 13.6715 165.478 14.1741C168.543 14.6264 172.011 16.6869 172.765 17.5412C172.765 17.5412 173.167 17.692 173.519 17.2397C173.871 16.7874 173.469 16.0336 173.77 15.531C174.072 15.0284 173.519 14.4756 173.519 14.4756C173.519 14.4756 173.971 12.4654 173.469 11.3598C172.966 10.2039 171.408 8.59573 171.609 7.4901C171.81 6.38448 170.503 6.38447 170.202 6.88703C170.202 6.88703 170.051 6.23371 169.348 5.98243C168.644 5.73116 167.991 6.48499 167.991 6.48499C167.991 6.48499 167.488 5.73115 166.533 6.38447C165.578 6.98754 165.176 8.59573 163.92 8.99777C162.664 9.39981 161.608 11.41 161.608 12.0634C161.608 12.0634 160.704 12.2141 160.553 12.6664C160.452 13.169 160.653 13.5208 160.603 13.7721C160.553 14.0233 160.402 14.4756 160.503 14.7772C160.503 14.8274 161.005 14.4254 161.357 14.4254Z" fill="#4A4AFF"/>
<path d="M137.235 43.1714C137.235 43.1714 133.465 52.1169 133.817 56.9917C134.169 61.8665 148.994 61.6152 148.994 61.6152L147.989 54.7302L141.104 53.8256L142.511 46.7898L137.235 43.1714Z" fill="#EEAF84"/>
<path d="M181.561 47.7949C181.561 47.7949 182.817 57.0922 181.963 61.1127C181.108 65.1331 169.047 64.4798 169.047 64.4798V57.5445L175.731 55.3333L175.982 49.6041C176.032 49.5539 179.55 48.4482 181.561 47.7949Z" fill="#EEAF84"/>
<path d="M141.004 60.912C137.486 60.309 130.199 59.8064 127.435 65.1838C124.671 70.5611 130.35 76.1395 141.004 77.6472C151.658 79.1548 166.634 79.5066 166.634 79.5066L168.795 73.9785L160.805 70.1591C160.805 70.2093 146.482 61.8669 141.004 60.912Z" fill="#8989FF"/>
<path d="M174.675 64.078C178.193 63.475 185.48 62.9724 188.244 68.3498C191.008 73.7271 185.329 79.3055 174.675 80.8132C164.021 82.3208 149.045 82.6726 149.045 82.6726L146.884 77.1445L154.874 73.3251C154.874 73.3251 169.248 65.0329 174.675 64.078Z" fill="#8989FF"/>
<path d="M147.386 78.4006L160.854 70.1587C160.804 70.2089 150.602 70.812 147.386 78.4006Z" fill="#34006F"/>
<path d="M147.387 78.4009L144.975 79.4562L144.321 79.7578L145.578 83.1752L149.045 82.6726L147.387 78.4009Z" fill="#34006F"/>
<path d="M141.306 79.4058L144.975 79.456L146.231 83.1247C146.231 83.1247 141.658 88.9041 140.502 90.864C139.346 92.824 136.934 90.3615 136.783 87.9492C136.632 85.5369 139.597 82.7226 139.547 81.818C139.497 80.9134 140.301 79.6068 141.306 79.4058Z" fill="#34006F"/>
<path d="M171.911 52.5189L171.359 65.3341L171.308 66.9423L147.387 66.0377L145.879 52.1671C145.778 51.162 146.331 50.2574 147.186 49.9056C147.437 49.8051 147.789 49.7046 148.09 49.7046L169.75 50.1569C171.007 50.2574 171.962 51.2625 171.911 52.5189Z" fill="#6657AE"/>
<path d="M161.357 14.4255C161.357 14.4255 161.156 16.0337 161.558 16.6367C161.558 16.6367 162.513 14.8275 163.116 14.526C163.719 14.1742 164.071 15.8326 165.729 16.2849C167.388 16.7372 166.735 15.2798 166.735 15.2798C166.735 15.2798 167.84 16.9885 168.996 17.4408C170.152 17.8428 170.453 17.089 170.453 17.089C170.453 17.089 171.057 17.4408 171.006 18.3454C170.956 19.25 171.006 19.9536 171.006 19.9536L172.816 17.4911C172.816 17.4911 171.559 14.727 168.242 13.6716C165.528 12.8173 162.915 13.0686 161.86 13.6716C160.804 14.2747 160.704 14.727 160.704 14.727C160.704 14.727 160.654 14.6767 161.357 14.4255Z" fill="#4E0829"/>
<path d="M142.713 46.6895C142.713 46.6895 147.336 35.1809 147.839 35.0302C148.341 34.8794 142.863 54.0771 142.863 54.0771L141.104 53.8258L142.713 46.6895Z" fill="#37000C"/>
<path d="M173.77 55.836C173.77 55.836 173.066 44.3777 172.162 40.8598C171.257 37.2916 176.032 49.5038 176.032 49.5038L175.78 55.2329L173.77 55.836Z" fill="#37000C"/>
<path d="M171.359 65.3342L171.308 66.9424L147.387 66.0378L145.879 52.1673C145.778 51.1622 146.331 50.2576 147.186 49.9058C149.296 53.0216 154.473 57.8964 160.101 60.1579C164.775 62.0676 168.645 64.8317 171.359 65.3342Z" fill="#5544A8"/>
<path d="M159.448 61.2637C160.863 61.2637 162.011 60.0937 162.011 58.6504C162.011 57.2071 160.863 56.0371 159.448 56.0371C158.032 56.0371 156.885 57.2071 156.885 58.6504C156.885 60.0937 158.032 61.2637 159.448 61.2637Z" fill="#34006F"/>
<path d="M168.041 18.0436C168.041 18.0436 168.493 18.0938 168.996 18.3954C169.498 18.6969 169.8 19.0989 169.8 19.0989C169.8 19.0989 169.8 18.3954 169.297 18.0938C168.946 17.8928 168.393 17.5913 168.041 18.0436Z" fill="#4E0829"/>
<path d="M167.999 20.0545C168.125 20.1144 168.333 19.9397 168.465 19.6643C168.596 19.3889 168.602 19.1171 168.477 19.0572C168.351 18.9973 168.143 19.172 168.011 19.4474C167.88 19.7228 167.874 19.9946 167.999 20.0545Z" fill="#4E0829"/>
<path d="M166.685 18.7476C166.685 18.7476 166.082 21.3608 165.83 21.4614C165.579 21.5619 164.825 21.1096 164.825 21.1096" stroke="#4E0829" stroke-width="0.5" stroke-miterlimit="10" stroke-linecap="round"/>
<path d="M164.121 21.9136C164.121 21.9136 164.573 22.5669 165.327 22.7177" stroke="#4E0829" stroke-width="0.5" stroke-miterlimit="10" stroke-linecap="round"/>
<path d="M165.479 17.1893C165.479 17.1893 165.127 16.8375 164.574 16.6867C164.021 16.5359 163.519 16.5862 163.519 16.5862C163.519 16.5862 164.071 16.1339 164.624 16.2847C165.026 16.3852 165.579 16.6365 165.479 17.1893Z" fill="#4E0829"/>
<path d="M164.496 17.518C164.368 17.4634 164.168 17.6467 164.048 17.9273C163.927 18.208 163.933 18.4798 164.061 18.5344C164.189 18.589 164.389 18.4058 164.51 18.1251C164.63 17.8444 164.624 17.5726 164.496 17.518Z" fill="#4E0829"/>
<circle cx="122.304" cy="26.8408" r="10" fill="#3561D1"/>
<path d="M122.032 31.5073V24.8593L120.652 25.1833V24.0073L122.68 23.1073H123.628V31.5073H122.032Z" fill="white"/>
<path opacity="0.3" d="M105.367 347.458L105.376 347.443L105.384 347.427L105.384 347.427L105.384 347.427L105.384 347.427L105.384 347.426L105.385 347.425L105.389 347.417L105.407 347.383C105.423 347.352 105.447 347.306 105.48 347.246C105.545 347.124 105.644 346.945 105.776 346.717C106.039 346.26 106.434 345.608 106.956 344.831L106.541 344.552C107.455 343.192 108.753 341.458 110.414 339.718L110.776 340.063C112.093 338.684 113.637 337.305 115.399 336.113L115.119 335.699C116.776 334.577 118.626 333.615 120.659 332.963L120.812 333.439C121.752 333.138 122.731 332.905 123.749 332.755C124.996 332.572 126.122 332.541 127.155 332.627L127.197 332.129C129.81 332.346 131.879 333.289 133.765 334.475L133.498 334.899C134.44 335.491 135.336 336.146 136.25 336.813L136.359 336.893C137.306 337.585 138.271 338.286 139.297 338.914L139.558 338.488C141.447 339.645 143.532 340.543 146.167 340.713L146.134 341.212C147.248 341.284 148.45 341.231 149.764 341.021C150.732 340.867 151.749 340.673 152.807 340.451L152.704 339.962C154.307 339.627 156.011 339.228 157.793 338.811C158.097 338.739 158.404 338.668 158.712 338.596L158.826 339.083C160.754 338.633 162.761 338.172 164.821 337.754L164.722 337.264C166.702 336.863 168.733 336.501 170.789 336.227L170.855 336.723C172.868 336.455 174.903 336.271 176.934 336.219L176.921 335.719C178.977 335.665 181.033 335.743 183.065 336L183.003 336.496C185.004 336.748 186.978 337.175 188.902 337.821L189.061 337.347C190.968 337.986 192.831 338.838 194.626 339.945L194.364 340.37C195.205 340.889 196.032 341.464 196.842 342.101C197.65 342.738 198.407 343.456 199.111 344.248L199.485 343.916C200.854 345.457 202.024 347.267 202.988 349.29L202.536 349.505C203.404 351.327 204.103 353.33 204.626 355.472L205.112 355.353C205.603 357.366 205.94 359.495 206.118 361.706L205.619 361.746C205.785 363.805 205.812 365.937 205.695 368.115L206.194 368.142C206.082 370.239 205.838 372.376 205.459 374.529L204.967 374.442C204.604 376.504 204.117 378.581 203.502 380.65L203.981 380.793C203.377 382.824 202.651 384.848 201.801 386.844L201.341 386.648C200.515 388.586 199.571 390.496 198.506 392.361L198.94 392.609C197.886 394.454 196.715 396.255 195.423 397.993L195.022 397.695C193.767 399.383 192.398 401.012 190.913 402.563L191.275 402.909C189.809 404.44 188.231 405.897 186.538 407.263L186.224 406.874C185.404 407.537 184.556 408.178 183.681 408.796C182.919 409.334 182.134 409.855 181.327 410.359L181.592 410.783C180.008 411.774 178.342 412.7 176.61 413.561L176.388 413.113C174.722 413.942 172.993 414.71 171.213 415.42L171.398 415.884C169.65 416.581 167.854 417.221 166.022 417.803L165.87 417.327C164.08 417.896 162.255 418.411 160.406 418.872L160.526 419.357C158.687 419.816 156.824 420.22 154.948 420.572L154.856 420.081C152.995 420.43 151.121 420.727 149.245 420.972L149.309 421.467C147.414 421.715 145.517 421.909 143.629 422.05L143.592 421.551C141.688 421.694 139.793 421.782 137.919 421.817L137.929 422.317C136 422.353 134.093 422.333 132.22 422.257L132.24 421.757C130.311 421.678 128.418 421.54 126.576 421.342L126.523 421.839C124.579 421.63 122.69 421.356 120.872 421.016L120.964 420.525C119.04 420.165 117.198 419.733 115.457 419.228L115.318 419.708C113.405 419.153 111.609 418.511 109.956 417.783L110.157 417.326C108.328 416.52 106.682 415.61 105.252 414.6L104.963 415.008C103.304 413.836 101.92 412.525 100.862 411.077L101.265 410.782C100.715 410.029 100.257 409.24 99.8996 408.415C99.4977 407.488 99.135 406.518 98.8098 405.509L98.3339 405.662C97.7126 403.734 97.228 401.674 96.8653 399.519L97.3583 399.436C97.0218 397.437 96.7908 395.352 96.6539 393.212L96.155 393.244C96.0229 391.179 95.978 389.065 96.0098 386.93L96.5097 386.937C96.5407 384.857 96.6449 382.756 96.8124 380.659L96.314 380.62C96.4824 378.512 96.7145 376.41 97.0002 374.338L97.4955 374.407C97.7866 372.297 98.1336 370.219 98.5258 368.2L98.035 368.105C98.4494 365.973 98.9141 363.907 99.4167 361.939L99.9012 362.063C100.448 359.92 101.04 357.896 101.66 356.032L101.186 355.874C101.919 353.669 102.692 351.685 103.479 349.987L103.933 350.197C104.41 349.167 104.89 348.25 105.367 347.458Z" stroke="#A0ACAF" stroke-dasharray="6 6"/>
<g filter="url(#filter1_d)">
<path d="M114.452 348.8C114.452 348.8 121.41 335.062 133.971 333.214C146.531 331.366 148.317 343.872 161.062 341.839C173.808 339.806 195.112 330.935 210.505 343.071C225.898 355.207 223.435 394.633 196.774 413.484C170.114 432.335 116.73 431.349 108.726 412.868C100.721 394.387 107.679 360.074 114.452 348.8Z" fill="white"/>
<path d="M185.541 376.674L194.522 413.156L171.692 420.234L169.091 394.999L155.298 383.416L165.621 365.931L185.541 376.674Z" fill="#E5A27B"/>
<path d="M176.728 347.746L165.621 365.931C165.621 365.931 180.141 385.459 180.337 384.899C180.561 384.312 185.541 376.702 185.541 376.702L176.728 347.746Z" fill="#E5A27B"/>
<path d="M172.868 370.967C172.868 370.967 172.28 376.954 176.645 382.689C176.645 382.689 173.539 380.871 171.245 374.912L172.868 370.967Z" fill="#1C1C1C"/>
<path d="M154.43 339.017L145.03 333.198C143.743 332.386 142.064 332.806 141.253 334.065C140.61 335.1 140.722 336.471 141.561 337.366L149.562 344.668L154.43 339.017Z" fill="#E5A27B"/>
<path d="M153.591 349.676L143.519 345.536C142.12 344.948 140.526 345.62 139.938 346.99C139.463 348.138 139.798 349.452 140.777 350.208L150.514 356.475L153.591 349.676Z" fill="#E5A27B"/>
<path d="M166.125 388.984L142.624 384.536C140.778 384.172 139.547 382.409 139.91 380.535L149.031 329.364C149.395 327.518 151.157 326.287 153.032 326.651L176.533 331.099C178.379 331.463 179.61 333.225 179.246 335.1L170.126 386.27C169.79 388.117 168 389.32 166.125 388.984Z" fill="#1C1C1C"/>
<path d="M165.958 387.613L143.297 383.332C141.814 383.052 140.863 381.626 141.143 380.143L150.095 329.924C150.375 328.441 151.802 327.49 153.285 327.769L175.946 332.05C177.429 332.33 178.38 333.757 178.1 335.239L169.148 385.458C168.868 386.913 167.441 387.892 165.958 387.613Z" fill="white"/>
<path d="M168.392 332.358L160.138 330.791C158.851 330.54 157.984 329.309 158.236 327.994L171.161 330.456C170.938 331.771 169.679 332.61 168.392 332.358Z" fill="#1C1C1C"/>
<path d="M191.304 339.184L169.062 335.352C168.783 335.296 168.615 335.044 168.643 334.764L169.762 328.273C169.818 327.994 170.07 327.826 170.349 327.854L192.591 331.686C192.871 331.742 193.039 331.994 193.011 332.274L191.892 338.765C191.836 339.044 191.584 339.212 191.304 339.184Z" fill="#639FFB"/>
<path d="M172.727 334.037C173.793 334.037 174.658 333.172 174.658 332.106C174.658 331.04 173.793 330.176 172.727 330.176C171.661 330.176 170.797 331.04 170.797 332.106C170.797 333.172 171.661 334.037 172.727 334.037Z" fill="white"/>
<path d="M176.588 332.078L187.919 334.037" stroke="white" stroke-width="1.0216" stroke-miterlimit="10" stroke-linecap="round" stroke-linejoin="round"/>
<path d="M176.309 333.673L183.471 334.904" stroke="white" stroke-width="1.0216" stroke-miterlimit="10" stroke-linecap="round" stroke-linejoin="round"/>
<path d="M177.069 340.619L148.974 335.778L144.527 361.585L172.623 366.426L177.069 340.619Z" fill="#E7ECF2"/>
<path d="M149.478 358.488L157.535 359.887" stroke="white" stroke-width="1.0216" stroke-miterlimit="10" stroke-linecap="round" stroke-linejoin="round"/>
<path d="M149.198 360.055L168.586 363.412" stroke="white" stroke-width="1.0216" stroke-miterlimit="10" stroke-linecap="round" stroke-linejoin="round"/>
<path d="M153.031 340.583L172.419 343.94" stroke="white" stroke-width="1.0216" stroke-miterlimit="10" stroke-linecap="round" stroke-linejoin="round"/>
<path d="M168.14 359.523L150.906 356.558C150.318 356.446 149.898 355.886 150.01 355.299L151.941 344.164C152.053 343.576 152.612 343.157 153.2 343.269L170.434 346.234C171.021 346.346 171.441 346.906 171.329 347.493L169.399 358.628C169.315 359.244 168.727 359.635 168.14 359.523Z" fill="#639FFB"/>
<path d="M156.976 355.187L163.41 349.284L167.803 357.061L156.976 355.187Z" fill="#8CC0FC"/>
<path d="M152.611 354.46L156.668 351.103L159.074 355.551L152.611 354.46Z" fill="#4575BA"/>
<path d="M157.145 349.732C157.979 349.732 158.655 349.055 158.655 348.221C158.655 347.386 157.979 346.71 157.145 346.71C156.31 346.71 155.634 347.386 155.634 348.221C155.634 349.055 156.31 349.732 157.145 349.732Z" fill="#EEC733"/>
<path d="M172.232 368.685L144.137 363.844L142.208 375.038L170.303 379.879L172.232 368.685Z" fill="#E7ECF2"/>
<path d="M165.846 376.562L147.325 373.373C147.101 373.345 146.933 373.121 146.989 372.897L147.913 367.497C147.941 367.274 148.164 367.106 148.388 367.162L166.909 370.351C167.133 370.379 167.301 370.603 167.245 370.827L166.322 376.226C166.294 376.45 166.07 376.59 165.846 376.562Z" fill="#639FFB"/>
<path d="M150.375 372.282C151.256 372.282 151.97 371.568 151.97 370.687C151.97 369.806 151.256 369.092 150.375 369.092C149.494 369.092 148.78 369.806 148.78 370.687C148.78 371.568 149.494 372.282 150.375 372.282Z" fill="white"/>
<path d="M153.563 370.659L162.992 372.282" stroke="white" stroke-width="0.8504" stroke-miterlimit="10" stroke-linecap="round" stroke-linejoin="round"/>
<path d="M153.34 371.974L159.327 373.009" stroke="white" stroke-width="0.8504" stroke-miterlimit="10" stroke-linecap="round" stroke-linejoin="round"/>
<path d="M185.541 376.674C185.541 376.674 186.212 361.007 184.897 355.971L177.371 343.577C176.616 341.647 175.301 340.807 173.482 341.815C172.251 342.514 172.335 345.004 172.587 346.403C173.119 349.676 174.434 352.446 175.301 354.992L185.541 376.674Z" fill="#E5A27B"/>
<path d="M143.912 358.209L146.43 359.888C147.409 360.671 147.717 362.042 147.157 363.189C146.486 364.56 144.807 365.091 143.464 364.392L139.771 362.517C138.176 361.706 137.505 359.804 138.204 358.153L138.288 357.985C139.044 356.306 141.002 355.523 142.709 356.25L144.135 356.866L143.912 358.209Z" fill="#E5A27B"/>
<path d="M142.261 367.441L144.807 368.756C145.758 369.344 146.178 370.519 145.786 371.582C145.338 372.869 143.912 373.512 142.653 373.009L139.211 371.722C137.729 371.162 136.917 369.54 137.393 368.029L137.449 367.861C137.924 366.294 139.603 365.427 141.17 365.903L142.457 366.294L142.261 367.441Z" fill="#E5A27B"/>
<path d="M168.559 408.148V423.946C168.559 423.946 178.592 422.467 185.247 419.509C190.177 417.537 198.31 411.622 198.31 411.622L191.948 393.768L168.559 408.148Z" fill="#F3CA61"/>
<path d="M168.87 419.829L196.008 406.82" stroke="#DA9C2A" stroke-width="3.1668" stroke-miterlimit="10" stroke-linecap="round" stroke-linejoin="round"/>
</g>
<circle cx="220" cy="352.841" r="10" fill="#3561D1"/>
<path d="M217.612 356.507V355.391C218.124 354.967 218.62 354.547 219.1 354.131C219.588 353.715 220.02 353.303 220.396 352.895C220.78 352.487 221.084 352.091 221.308 351.707C221.54 351.315 221.656 350.935 221.656 350.567C221.656 350.223 221.56 349.919 221.368 349.655C221.184 349.391 220.876 349.259 220.444 349.259C220.004 349.259 219.672 349.403 219.448 349.691C219.224 349.979 219.112 350.327 219.112 350.735H217.624C217.64 350.119 217.776 349.607 218.032 349.199C218.288 348.783 218.628 348.475 219.052 348.275C219.476 348.067 219.952 347.963 220.48 347.963C221.336 347.963 222 348.199 222.472 348.671C222.952 349.135 223.192 349.739 223.192 350.483C223.192 350.947 223.084 351.399 222.868 351.839C222.66 352.279 222.384 352.703 222.04 353.111C221.696 353.519 221.324 353.903 220.924 354.263C220.524 354.615 220.136 354.943 219.76 355.247H223.396V356.507H217.612Z" fill="white"/>
<path opacity="0.2" d="M100.799 680.695L100.808 680.679L100.816 680.663L100.816 680.663L100.816 680.663L100.817 680.663L100.817 680.661L100.822 680.652L100.841 680.616C100.858 680.583 100.884 680.533 100.92 680.468C100.99 680.337 101.096 680.144 101.238 679.898C101.521 679.407 101.945 678.705 102.506 677.869L102.091 677.59C103.072 676.128 104.465 674.263 106.249 672.392L106.611 672.737C108.026 671.252 109.687 669.767 111.581 668.483L111.3 668.069C113.081 666.862 115.067 665.827 117.252 665.125L117.405 665.601C118.416 665.276 119.47 665.025 120.566 664.863C121.434 664.736 122.247 664.677 123.014 664.676L123.013 664.176C124.88 664.174 126.496 664.506 127.957 665.047L127.783 665.516C129.352 666.096 130.745 666.929 132.098 667.859L132.381 667.447C133.033 667.894 133.67 668.361 134.308 668.828C135.028 669.354 135.748 669.882 136.489 670.382L136.209 670.796C137.6 671.736 139.084 672.596 140.784 673.187L140.948 672.715C142.412 673.223 144.035 673.522 145.909 673.489L145.917 673.989C146.734 673.975 147.594 673.899 148.503 673.754C149.543 673.588 150.635 673.379 151.77 673.141L151.667 672.652C153.389 672.291 155.219 671.862 157.133 671.414C157.459 671.337 157.788 671.26 158.12 671.182L158.233 671.669C160.304 671.185 162.46 670.69 164.673 670.24L164.574 669.75C166.7 669.319 168.881 668.93 171.09 668.635L171.156 669.131C173.319 668.842 175.505 668.645 177.689 668.588L177.676 668.088C179.883 668.031 182.092 668.115 184.275 668.391L184.212 668.887C186.363 669.159 188.485 669.618 190.554 670.314L190.714 669.84C192.762 670.528 194.761 671.444 196.689 672.634L196.427 673.06C197.331 673.618 198.219 674.237 199.09 674.923C199.837 675.512 200.543 676.166 201.207 676.88L201.573 676.539C202.876 677.939 204.019 679.56 204.996 681.363L204.556 681.601C205.448 683.246 206.2 685.048 206.809 686.978L207.286 686.828C207.861 688.652 208.308 690.586 208.624 692.603L208.131 692.68C208.425 694.56 208.604 696.513 208.665 698.521L209.165 698.506C209.224 700.44 209.174 702.421 209.013 704.433L208.514 704.393C208.36 706.314 208.104 708.262 207.743 710.223L208.235 710.313C207.882 712.232 207.429 714.162 206.875 716.087L206.394 715.949C205.857 717.813 205.225 719.673 204.494 721.514L204.959 721.699C204.236 723.52 203.418 725.324 202.504 727.096L202.06 726.867C201.168 728.595 200.183 730.293 199.105 731.949L199.523 732.222C198.452 733.865 197.289 735.466 196.032 737.014L195.644 736.699C194.419 738.206 193.105 739.661 191.7 741.054L192.052 741.409C190.663 742.786 189.185 744.102 187.617 745.346L187.306 744.954C186.544 745.559 185.76 746.147 184.954 746.717C184.136 747.296 183.293 747.856 182.426 748.399L182.691 748.823C180.99 749.888 179.202 750.884 177.342 751.81L177.119 751.362C175.329 752.254 173.472 753.081 171.56 753.844L171.745 754.309C169.868 755.058 167.939 755.746 165.971 756.373L165.819 755.897C163.896 756.509 161.935 757.063 159.948 757.559L160.069 758.044C158.093 758.538 156.092 758.973 154.078 759.352L153.986 758.86C151.985 759.236 149.972 759.556 147.956 759.819L148.021 760.315C145.985 760.58 143.947 760.789 141.92 760.941L141.882 760.442C139.836 760.596 137.801 760.691 135.787 760.729L135.797 761.229C133.725 761.268 131.676 761.246 129.664 761.163L129.685 760.664C127.612 760.579 125.578 760.43 123.599 760.217L123.546 760.714C121.458 760.489 119.429 760.194 117.476 759.828L117.568 759.337C115.501 758.95 113.522 758.484 111.65 757.94L111.511 758.42C109.456 757.823 107.528 757.133 105.752 756.349L105.954 755.892C103.988 755.024 102.219 754.044 100.681 752.956L100.392 753.364C98.6116 752.103 97.1264 750.693 95.9909 749.137L96.3948 748.842C95.8026 748.031 95.3106 747.18 94.9256 746.291C94.5643 745.457 94.2325 744.59 93.9291 743.693L93.4555 743.853C92.8707 742.125 92.3914 740.292 92.0081 738.379L92.4983 738.281C92.1408 736.497 91.8672 734.641 91.6701 732.732L91.1727 732.783C90.9824 730.94 90.863 729.05 90.8078 727.131L91.3076 727.117C91.2542 725.263 91.261 723.38 91.3217 721.487L90.8219 721.471C90.8822 719.591 90.9953 717.702 91.155 715.818L91.6533 715.86C91.8126 713.981 92.0185 712.107 92.265 710.254L91.7694 710.189C92.0212 708.296 92.3151 706.425 92.6445 704.593L93.1366 704.681C93.4762 702.793 93.8537 700.946 94.2619 699.159L93.7745 699.048C94.2098 697.142 94.68 695.305 95.1762 693.558L95.6572 693.694C96.1993 691.786 96.7722 689.987 97.3643 688.328L96.8934 688.16C97.5879 686.214 98.3094 684.456 99.0398 682.933L99.4906 683.149C99.9268 682.239 100.364 681.418 100.799 680.695Z" fill="white" stroke="#A0ACAF" stroke-dasharray="6 6"/>
<g filter="url(#filter2_d)">
<path d="M112.181 670.102C112.181 670.102 119.354 655.939 132.304 654.034C145.254 652.128 147.095 665.021 160.235 662.925C173.376 660.829 195.34 651.684 211.21 664.196C227.08 676.708 224.541 717.355 197.054 736.79C169.567 756.225 114.53 755.209 106.277 736.155C98.0249 717.101 105.198 681.725 112.181 670.102Z" fill="white"/>
</g>
<path d="M192.156 653.841H159.341C157.126 653.841 155.303 655.524 155.106 657.739L147.618 748.162C147.478 749.817 148.768 751.219 150.423 751.247L192.857 751.668C195.466 751.696 197.681 749.676 197.878 747.068L204.581 657.823C204.749 655.664 203.038 653.841 200.879 653.841H192.156Z" fill="#3E479B"/>
<path opacity="0.46" d="M191.567 654.458H159.762C157.63 654.458 155.835 656.113 155.667 658.272L148.375 746.76C148.235 748.358 149.497 749.761 151.095 749.761L192.296 750.153C194.848 750.181 196.98 748.218 197.148 745.666L203.655 658.357C203.823 656.253 202.169 654.458 200.065 654.458H191.567Z" fill="#4C65BA"/>
<path d="M190.473 656.281H160.884C158.893 656.281 157.238 657.879 157.07 659.983L150.31 745.722C150.198 747.292 151.348 748.611 152.835 748.639L191.118 749.031C193.474 749.059 195.466 747.152 195.634 744.656L201.664 660.067C201.804 658.02 200.262 656.281 198.326 656.281H190.473Z" fill="white"/>
<path d="M190.473 656.281H160.884C158.893 656.281 157.238 657.879 157.07 659.983L156.901 662.114L201.664 662.255L201.692 660.067C201.832 658.02 200.29 656.281 198.354 656.281H190.473Z" fill="#599AF2"/>
<path d="M193.362 655.299L189.716 658.721H169.634L166.689 655.299H193.362Z" fill="#3E479B"/>
<path opacity="0.46" d="M193.362 655.299L189.716 658.721H169.634L166.689 655.299H193.362Z" fill="#4C65BA"/>
<path d="M183.714 656.281H176.141C176.057 656.281 176.001 656.225 176.001 656.141C176.001 656.057 176.057 656 176.141 656H183.714C183.798 656 183.854 656.057 183.854 656.141C183.854 656.225 183.798 656.281 183.714 656.281Z" fill="#ECF1F7"/>
<path opacity="0.75" d="M176.675 685.253L159.959 684.16C159.651 684.131 159.426 683.879 159.455 683.571L160.52 667.388C160.548 667.079 160.801 666.855 161.109 666.883L177.825 667.977C178.134 668.005 178.358 668.257 178.33 668.566L177.264 684.748C177.236 685.029 176.984 685.253 176.675 685.253Z" fill="#599AF2"/>
<path opacity="0.37" d="M176.367 673.558L174.095 670.977C173.786 670.613 173.31 670.389 172.833 670.36L171.178 670.248C171.038 670.248 170.897 670.36 170.897 670.501C170.841 671.258 170.196 671.819 169.467 671.763L169.187 671.735C168.429 671.679 167.868 671.034 167.925 670.304C167.925 670.164 167.812 670.024 167.672 670.024L166.073 669.912C165.541 669.884 165.036 670.052 164.643 670.389L162.091 672.632L164.363 675.213L165.513 674.203L165.036 681.215L172.58 681.719L173.029 674.96L173.786 675.83L176.367 673.558Z" fill="#ECF1F7"/>
<path d="M196.588 672.689L181.134 672.015C180.938 672.015 180.77 671.819 180.77 671.623L180.798 670.809C180.798 670.613 180.994 670.445 181.19 670.445L196.644 671.118C196.84 671.118 197.009 671.314 197.009 671.511L196.981 672.324C196.981 672.548 196.784 672.717 196.588 672.689Z" fill="#ECF1F7"/>
<path d="M188.792 675.157L181.107 674.82C180.91 674.82 180.742 674.624 180.742 674.427L180.77 673.614C180.77 673.418 180.967 673.25 181.163 673.25L188.848 673.586C189.044 673.586 189.212 673.782 189.212 673.979L189.184 674.792C189.156 675.016 188.988 675.157 188.792 675.157Z" fill="#ECF1F7"/>
<path opacity="0.99" d="M189.044 683.991L182.397 683.711C181.387 683.655 180.602 682.813 180.658 681.804L180.686 681.411C180.742 680.401 181.584 679.616 182.593 679.672L189.24 679.953C190.25 680.009 191.035 680.85 190.979 681.86L190.951 682.253C190.895 683.262 190.054 684.02 189.044 683.991Z" fill="#EF929C"/>
<path d="M182.493 682.028C182.509 682.033 182.529 682.037 182.554 682.04C182.579 682.042 182.603 682.043 182.625 682.044C182.671 682.045 182.708 682.037 182.738 682.02C182.77 682.001 182.786 681.972 182.787 681.932C182.788 681.895 182.777 681.868 182.752 681.851C182.728 681.835 182.69 681.826 182.639 681.824L182.499 681.82L182.493 682.028ZM182.505 681.612L182.629 681.616C182.678 681.617 182.714 681.609 182.736 681.592C182.759 681.574 182.771 681.548 182.772 681.513C182.773 681.482 182.761 681.457 182.735 681.438C182.711 681.419 182.673 681.409 182.622 681.408C182.605 681.407 182.585 681.407 182.562 681.408C182.541 681.408 182.524 681.409 182.511 681.411L182.505 681.612ZM182.596 682.271C182.577 682.27 182.554 682.269 182.528 682.267C182.502 682.265 182.475 682.262 182.447 682.258C182.42 682.254 182.392 682.249 182.365 682.242C182.338 682.237 182.313 682.229 182.291 682.219C182.229 682.194 182.199 682.151 182.201 682.092L182.225 681.297C182.225 681.273 182.232 681.255 182.245 681.243C182.259 681.23 182.278 681.22 182.3 681.212C182.339 681.2 182.388 681.192 182.446 681.188C182.504 681.182 182.564 681.181 182.625 681.183C182.771 681.187 182.882 681.215 182.959 681.266C183.035 681.317 183.072 681.394 183.069 681.496C183.068 681.547 183.052 681.591 183.021 681.627C182.991 681.663 182.95 681.688 182.9 681.704C182.956 681.721 183.002 681.752 183.038 681.795C183.076 681.838 183.093 681.891 183.092 681.955C183.088 682.067 183.044 682.15 182.958 682.202C182.874 682.253 182.753 682.276 182.596 682.271Z" fill="white"/>
<path d="M184.177 681.909C184.176 681.97 184.163 682.026 184.14 682.077C184.118 682.126 184.087 682.168 184.046 682.203C184.005 682.237 183.956 682.263 183.899 682.281C183.841 682.298 183.777 682.306 183.705 682.304C183.634 682.302 183.57 682.29 183.514 682.269C183.458 682.248 183.41 682.22 183.371 682.183C183.333 682.146 183.303 682.102 183.283 682.051C183.264 681.999 183.256 681.943 183.258 681.882L183.277 681.231C183.289 681.229 183.309 681.227 183.337 681.224C183.364 681.22 183.39 681.219 183.415 681.22C183.441 681.221 183.464 681.223 183.483 681.229C183.504 681.233 183.52 681.24 183.534 681.251C183.547 681.261 183.557 681.276 183.563 681.294C183.569 681.312 183.572 681.336 183.571 681.366L183.556 681.885C183.554 681.94 183.568 681.983 183.596 682.014C183.626 682.046 183.665 682.062 183.712 682.064C183.761 682.065 183.801 682.051 183.831 682.021C183.862 681.992 183.878 681.949 183.879 681.895L183.899 681.249C183.911 681.248 183.931 681.245 183.958 681.243C183.986 681.239 184.012 681.237 184.037 681.238C184.063 681.239 184.086 681.242 184.105 681.247C184.125 681.251 184.142 681.258 184.155 681.269C184.169 681.28 184.179 681.294 184.185 681.312C184.191 681.331 184.194 681.355 184.193 681.384L184.177 681.909Z" fill="white"/>
<path d="M184.924 682.306C184.912 682.309 184.892 682.312 184.866 682.315C184.84 682.317 184.814 682.318 184.789 682.317C184.737 682.316 184.698 682.306 184.672 682.288C184.647 682.269 184.635 682.232 184.637 682.175L184.643 681.945C184.616 681.902 184.587 681.855 184.556 681.802C184.524 681.75 184.493 681.697 184.463 681.643C184.433 681.589 184.405 681.535 184.379 681.484C184.354 681.431 184.333 681.382 184.317 681.339C184.332 681.319 184.353 681.3 184.378 681.284C184.405 681.268 184.437 681.26 184.474 681.261C184.519 681.263 184.554 681.273 184.581 681.292C184.609 681.311 184.635 681.346 184.658 681.396L184.791 681.685L184.801 681.685C184.818 681.651 184.833 681.619 184.845 681.591C184.858 681.562 184.871 681.533 184.883 681.505C184.895 681.476 184.908 681.446 184.922 681.416C184.935 681.385 184.95 681.349 184.967 681.308C184.988 681.299 185.011 681.292 185.036 681.287C185.061 681.282 185.085 681.28 185.108 681.28C185.148 681.281 185.181 681.293 185.208 681.316C185.235 681.337 185.249 681.368 185.247 681.41C185.247 681.424 185.244 681.44 185.237 681.46C185.231 681.479 185.217 681.508 185.196 681.547C185.174 681.585 185.142 681.637 185.101 681.703C185.06 681.769 185.005 681.854 184.934 681.96L184.924 682.306Z" fill="white"/>
<path d="M186.637 682.328C186.621 682.343 186.597 682.355 186.567 682.362C186.537 682.37 186.501 682.373 186.459 682.372C186.417 682.371 186.377 682.363 186.34 682.35C186.303 682.336 186.273 682.305 186.251 682.257L186.092 681.908C186.076 681.872 186.062 681.839 186.049 681.808C186.037 681.775 186.023 681.739 186.008 681.697L185.998 681.699C186.001 681.76 186.001 681.823 185.999 681.886C185.999 681.95 185.997 682.012 185.996 682.074L185.988 682.338C185.975 682.341 185.956 682.343 185.929 682.346C185.904 682.349 185.879 682.35 185.854 682.349C185.829 682.348 185.807 682.346 185.788 682.342C185.769 682.338 185.753 682.331 185.741 682.32C185.729 682.309 185.72 682.296 185.713 682.278C185.707 682.26 185.704 682.237 185.705 682.208L185.73 681.357C185.747 681.334 185.772 681.318 185.805 681.308C185.838 681.297 185.874 681.293 185.911 681.294C185.953 681.295 185.993 681.303 186.03 681.318C186.068 681.331 186.098 681.362 186.119 681.409L186.279 681.758C186.295 681.794 186.31 681.828 186.322 681.86C186.335 681.891 186.349 681.927 186.363 681.969L186.372 681.967C186.369 681.906 186.368 681.844 186.369 681.783C186.37 681.722 186.371 681.66 186.373 681.599L186.381 681.323C186.393 681.32 186.412 681.317 186.437 681.315C186.464 681.312 186.489 681.311 186.514 681.312C186.564 681.313 186.602 681.323 186.627 681.342C186.653 681.36 186.665 681.397 186.663 681.452L186.637 682.328Z" fill="white"/>
<path d="M186.822 681.851C186.824 681.762 186.84 681.684 186.869 681.617C186.9 681.55 186.94 681.494 186.989 681.45C187.039 681.405 187.097 681.372 187.162 681.35C187.229 681.328 187.3 681.318 187.376 681.32C187.452 681.322 187.522 681.336 187.586 681.362C187.651 681.388 187.708 681.425 187.755 681.473C187.802 681.52 187.839 681.578 187.864 681.647C187.89 681.716 187.902 681.794 187.9 681.883C187.897 681.972 187.881 682.05 187.852 682.118C187.822 682.186 187.783 682.242 187.733 682.287C187.683 682.331 187.626 682.364 187.559 682.386C187.493 682.408 187.421 682.418 187.343 682.415C187.266 682.413 187.195 682.399 187.13 682.373C187.065 682.346 187.009 682.309 186.963 682.261C186.917 682.213 186.881 682.154 186.856 682.085C186.83 682.017 186.819 681.938 186.822 681.851ZM187.128 681.86C187.125 681.963 187.144 682.041 187.184 682.094C187.225 682.146 187.28 682.173 187.351 682.175C187.422 682.177 187.48 682.153 187.523 682.104C187.567 682.054 187.59 681.977 187.593 681.874C187.596 681.772 187.577 681.694 187.537 681.642C187.498 681.59 187.442 681.563 187.371 681.56C187.3 681.558 187.243 681.582 187.198 681.632C187.154 681.681 187.131 681.757 187.128 681.86Z" fill="white"/>
<path d="M188.555 681.64C188.567 681.635 188.587 681.629 188.613 681.623C188.641 681.616 188.668 681.613 188.695 681.613C188.743 681.615 188.783 681.623 188.814 681.639C188.845 681.654 188.864 681.675 188.87 681.702C188.881 681.749 188.891 681.793 188.9 681.834C188.91 681.874 188.92 681.913 188.929 681.951C188.938 681.988 188.947 682.024 188.955 682.061C188.964 682.097 188.973 682.136 188.98 682.176L188.989 682.176C189.001 682.107 189.012 682.042 189.022 681.979C189.032 681.916 189.041 681.854 189.05 681.794C189.058 681.733 189.067 681.673 189.076 681.614C189.084 681.554 189.093 681.494 189.101 681.433C189.144 681.41 189.189 681.4 189.237 681.401C189.279 681.402 189.315 681.412 189.345 681.431C189.375 681.451 189.39 681.482 189.388 681.525C189.388 681.55 189.384 681.585 189.377 681.632C189.371 681.677 189.362 681.728 189.352 681.785C189.342 681.841 189.331 681.9 189.317 681.963C189.304 682.025 189.291 682.084 189.276 682.14C189.262 682.197 189.248 682.248 189.233 682.294C189.219 682.339 189.206 682.374 189.194 682.399C189.176 682.414 189.148 682.426 189.109 682.435C189.07 682.444 189.03 682.448 188.989 682.447C188.936 682.446 188.891 682.437 188.854 682.423C188.818 682.407 188.796 682.386 188.789 682.359C188.776 682.314 188.761 682.259 188.746 682.196C188.731 682.133 188.715 682.064 188.698 681.988C188.68 682.062 188.661 682.133 188.642 682.203C188.623 682.273 188.606 682.332 188.591 682.381C188.573 682.396 188.547 682.408 188.513 682.418C188.479 682.427 188.441 682.431 188.4 682.43C188.349 682.428 188.303 682.42 188.261 682.405C188.221 682.389 188.195 682.368 188.183 682.341C188.173 682.321 188.163 682.29 188.151 682.25C188.141 682.209 188.131 682.163 188.12 682.111C188.109 682.058 188.097 682.002 188.086 681.941C188.075 681.881 188.065 681.82 188.055 681.76C188.047 681.699 188.039 681.64 188.031 681.583C188.024 681.525 188.019 681.472 188.016 681.424C188.032 681.41 188.055 681.397 188.083 681.386C188.112 681.374 188.143 681.369 188.176 681.37C188.219 681.371 188.254 681.381 188.281 681.402C188.308 681.421 188.325 681.452 188.331 681.497C188.345 681.613 188.357 681.71 188.366 681.788C188.377 681.865 188.384 681.929 188.39 681.979C188.396 682.028 188.401 682.067 188.403 682.094C188.406 682.121 188.409 682.143 188.412 682.159L188.42 682.159C188.432 682.114 188.443 682.072 188.453 682.034C188.463 681.996 188.473 681.957 188.483 681.919C188.495 681.88 188.506 681.838 188.518 681.794C188.529 681.749 188.542 681.697 188.555 681.64Z" fill="white"/>
<path opacity="0.75" d="M175.357 706.653L158.613 705.84C158.304 705.812 158.08 705.559 158.108 705.279L158.893 689.068C158.921 688.759 159.174 688.535 159.454 688.563L176.198 689.376C176.506 689.404 176.731 689.657 176.703 689.937L175.918 706.148C175.918 706.429 175.665 706.653 175.357 706.653Z" fill="#599AF2"/>
<path opacity="0.37" d="M163.997 692.293L162.174 701.605C162.146 701.689 162.231 701.773 162.315 701.801L165.764 702.082C165.849 702.082 165.905 702.026 165.933 701.969L166.774 697.987C166.802 697.903 166.858 697.847 166.942 697.875L167.728 697.931C167.812 697.931 167.868 698.015 167.868 698.071L168.036 702.138C168.036 702.222 168.092 702.278 168.176 702.278L171.626 702.558C171.71 702.558 171.794 702.502 171.794 702.39L171.514 692.91C171.514 692.826 171.458 692.77 171.374 692.77L164.11 692.181C164.082 692.153 163.997 692.209 163.997 692.293Z" fill="#ECF1F7"/>
<path d="M195.242 694.228L179.816 693.162C179.62 693.134 179.452 692.966 179.48 692.77L179.536 691.956C179.564 691.76 179.732 691.592 179.928 691.62L195.354 692.686C195.55 692.714 195.719 692.882 195.691 693.078L195.635 693.892C195.635 694.088 195.466 694.256 195.242 694.228Z" fill="#ECF1F7"/>
<path d="M187.388 696.5L179.731 695.967C179.535 695.939 179.367 695.771 179.395 695.574L179.451 694.761C179.479 694.565 179.647 694.396 179.843 694.424L187.5 694.957C187.696 694.985 187.865 695.154 187.837 695.35L187.781 696.163C187.781 696.36 187.584 696.5 187.388 696.5Z" fill="#ECF1F7"/>
<path opacity="0.99" d="M187.445 705.335L180.826 704.886C179.816 704.83 179.059 703.933 179.143 702.951L179.171 702.558C179.227 701.549 180.125 700.791 181.106 700.876L187.725 701.324C188.735 701.38 189.492 702.278 189.408 703.259L189.38 703.652C189.296 704.634 188.427 705.391 187.445 705.335Z" fill="#EF929C"/>
<path d="M180.915 703.201C180.93 703.207 180.951 703.211 180.975 703.215C181 703.217 181.024 703.219 181.047 703.221C181.092 703.223 181.13 703.216 181.16 703.199C181.192 703.182 181.209 703.153 181.211 703.113C181.213 703.076 181.202 703.049 181.178 703.031C181.154 703.014 181.117 703.004 181.066 703.001L180.926 702.994L180.915 703.201ZM180.937 702.786L181.062 702.793C181.11 702.796 181.146 702.789 181.168 702.772C181.192 702.755 181.205 702.729 181.207 702.693C181.209 702.663 181.197 702.638 181.172 702.618C181.148 702.599 181.11 702.588 181.059 702.585C181.042 702.584 181.022 702.583 181 702.583C180.978 702.583 180.961 702.584 180.948 702.586L180.937 702.786ZM181.012 703.447C180.993 703.446 180.97 703.444 180.944 703.442C180.918 703.439 180.891 703.436 180.863 703.431C180.836 703.426 180.809 703.42 180.782 703.413C180.755 703.407 180.73 703.398 180.708 703.388C180.647 703.361 180.618 703.318 180.621 703.259L180.665 702.464C180.666 702.44 180.673 702.423 180.687 702.411C180.701 702.398 180.72 702.388 180.743 702.381C180.782 702.37 180.831 702.363 180.889 702.36C180.947 702.357 181.007 702.357 181.068 702.36C181.213 702.368 181.324 702.398 181.399 702.451C181.475 702.504 181.51 702.582 181.504 702.684C181.501 702.735 181.484 702.779 181.453 702.814C181.421 702.849 181.38 702.874 181.329 702.888C181.385 702.907 181.431 702.938 181.466 702.982C181.502 703.026 181.519 703.08 181.515 703.144C181.509 703.256 181.462 703.337 181.375 703.387C181.29 703.436 181.169 703.456 181.012 703.447Z" fill="white"/>
<path d="M182.602 703.125C182.598 703.186 182.584 703.241 182.56 703.291C182.537 703.34 182.504 703.381 182.463 703.416C182.421 703.449 182.372 703.473 182.314 703.489C182.256 703.505 182.191 703.512 182.12 703.508C182.048 703.504 181.985 703.491 181.929 703.468C181.874 703.446 181.827 703.416 181.789 703.379C181.751 703.34 181.723 703.296 181.704 703.244C181.687 703.192 181.68 703.136 181.683 703.074L181.718 702.424C181.731 702.423 181.751 702.421 181.778 702.419C181.806 702.416 181.832 702.415 181.857 702.417C181.883 702.418 181.906 702.422 181.925 702.427C181.945 702.432 181.962 702.439 181.975 702.45C181.988 702.461 181.997 702.476 182.003 702.495C182.009 702.513 182.011 702.537 182.009 702.567L181.981 703.086C181.978 703.14 181.99 703.183 182.018 703.216C182.047 703.248 182.085 703.265 182.133 703.268C182.182 703.271 182.222 703.257 182.253 703.228C182.284 703.199 182.301 703.158 182.304 703.103L182.339 702.458C182.352 702.457 182.372 702.455 182.399 702.453C182.427 702.45 182.453 702.449 182.478 702.451C182.504 702.452 182.527 702.456 182.546 702.461C182.566 702.466 182.582 702.473 182.596 702.484C182.609 702.495 182.618 702.51 182.624 702.529C182.63 702.547 182.632 702.571 182.63 702.601L182.602 703.125Z" fill="white"/>
<path d="M183.338 703.54C183.326 703.543 183.306 703.545 183.28 703.547C183.254 703.549 183.228 703.549 183.203 703.548C183.151 703.545 183.112 703.535 183.087 703.516C183.062 703.497 183.051 703.458 183.054 703.402L183.067 703.172C183.041 703.129 183.012 703.08 182.982 703.028C182.952 702.975 182.923 702.921 182.894 702.866C182.865 702.811 182.838 702.757 182.814 702.704C182.79 702.651 182.77 702.602 182.755 702.558C182.771 702.538 182.792 702.521 182.818 702.505C182.845 702.489 182.877 702.483 182.915 702.485C182.959 702.487 182.994 702.498 183.02 702.518C183.048 702.537 183.073 702.573 183.095 702.624L183.22 702.916L183.231 702.917C183.248 702.882 183.264 702.851 183.277 702.823C183.291 702.795 183.304 702.766 183.317 702.739C183.33 702.71 183.344 702.68 183.358 702.65C183.372 702.619 183.388 702.584 183.406 702.544C183.427 702.535 183.45 702.528 183.476 702.524C183.501 702.519 183.525 702.518 183.548 702.519C183.587 702.521 183.62 702.534 183.646 702.557C183.673 702.579 183.686 702.611 183.684 702.653C183.683 702.666 183.679 702.683 183.672 702.702C183.666 702.721 183.651 702.75 183.628 702.788C183.606 702.826 183.573 702.877 183.53 702.941C183.487 703.006 183.43 703.091 183.357 703.195L183.338 703.54Z" fill="white"/>
<path d="M185.05 703.605C185.034 703.62 185.01 703.63 184.979 703.636C184.949 703.644 184.913 703.646 184.871 703.644C184.829 703.642 184.789 703.634 184.753 703.619C184.716 703.604 184.687 703.573 184.666 703.524L184.516 703.171C184.501 703.135 184.487 703.101 184.475 703.07C184.464 703.037 184.451 703 184.437 702.958L184.427 702.96C184.428 703.021 184.427 703.084 184.423 703.147C184.421 703.211 184.418 703.273 184.415 703.334L184.401 703.598C184.388 703.601 184.368 703.603 184.342 703.605C184.317 703.607 184.292 703.608 184.267 703.606C184.242 703.605 184.22 703.602 184.201 703.597C184.182 703.593 184.166 703.585 184.154 703.574C184.143 703.564 184.134 703.549 184.128 703.532C184.122 703.513 184.12 703.49 184.121 703.462L184.168 702.611C184.185 702.589 184.21 702.574 184.244 702.564C184.277 702.554 184.313 702.551 184.35 702.553C184.392 702.555 184.431 702.564 184.468 702.58C184.506 702.594 184.535 702.625 184.555 702.673L184.707 703.026C184.722 703.062 184.735 703.096 184.747 703.129C184.759 703.16 184.772 703.197 184.785 703.239L184.794 703.237C184.793 703.176 184.793 703.114 184.795 703.053C184.798 702.992 184.8 702.931 184.804 702.869L184.819 702.594C184.832 702.591 184.85 702.589 184.876 702.587C184.902 702.585 184.927 702.584 184.952 702.586C185.002 702.588 185.04 702.599 185.065 702.619C185.09 702.637 185.101 702.675 185.098 702.73L185.05 703.605Z" fill="white"/>
<path d="M185.246 703.132C185.251 703.044 185.269 702.966 185.3 702.9C185.332 702.833 185.373 702.779 185.423 702.736C185.474 702.692 185.533 702.66 185.599 702.64C185.666 702.619 185.738 702.611 185.814 702.616C185.89 702.62 185.959 702.635 186.023 702.663C186.087 702.69 186.143 702.728 186.189 702.778C186.235 702.826 186.27 702.884 186.293 702.954C186.318 703.024 186.328 703.103 186.323 703.191C186.318 703.28 186.3 703.358 186.269 703.425C186.238 703.492 186.197 703.547 186.146 703.591C186.096 703.634 186.037 703.665 185.97 703.685C185.903 703.706 185.831 703.714 185.754 703.709C185.677 703.705 185.606 703.689 185.542 703.662C185.477 703.634 185.422 703.595 185.377 703.546C185.332 703.496 185.298 703.437 185.274 703.368C185.251 703.298 185.241 703.22 185.246 703.132ZM185.552 703.149C185.547 703.252 185.564 703.331 185.603 703.384C185.642 703.437 185.697 703.466 185.767 703.47C185.839 703.473 185.897 703.451 185.941 703.402C185.986 703.354 186.011 703.278 186.017 703.174C186.023 703.072 186.006 702.995 185.967 702.941C185.928 702.888 185.874 702.859 185.802 702.856C185.732 702.852 185.674 702.874 185.628 702.923C185.583 702.97 185.558 703.046 185.552 703.149Z" fill="white"/>
<path d="M186.984 702.964C186.997 702.959 187.017 702.954 187.043 702.949C187.071 702.942 187.098 702.94 187.125 702.941C187.173 702.944 187.212 702.954 187.243 702.97C187.274 702.985 187.292 703.007 187.298 703.034C187.308 703.082 187.317 703.126 187.325 703.167C187.334 703.208 187.342 703.247 187.351 703.285C187.359 703.322 187.366 703.358 187.374 703.395C187.382 703.432 187.389 703.471 187.396 703.511L187.405 703.511C187.419 703.443 187.431 703.377 187.443 703.315C187.454 703.252 187.465 703.191 187.475 703.131C187.485 703.07 187.495 703.01 187.505 702.952C187.515 702.892 187.525 702.832 187.536 702.771C187.579 702.749 187.624 702.74 187.672 702.743C187.714 702.745 187.75 702.756 187.779 702.776C187.809 702.796 187.823 702.827 187.82 702.87C187.819 702.895 187.814 702.931 187.806 702.977C187.799 703.022 187.789 703.073 187.777 703.129C187.766 703.185 187.753 703.244 187.738 703.306C187.724 703.368 187.709 703.427 187.693 703.483C187.677 703.539 187.662 703.589 187.645 703.635C187.63 703.68 187.617 703.714 187.604 703.739C187.586 703.754 187.558 703.765 187.518 703.773C187.479 703.781 187.439 703.784 187.399 703.782C187.345 703.779 187.3 703.77 187.264 703.754C187.228 703.738 187.207 703.716 187.201 703.689C187.188 703.643 187.175 703.589 187.162 703.525C187.148 703.462 187.134 703.392 187.119 703.316C187.099 703.389 187.078 703.46 187.057 703.53C187.037 703.599 187.018 703.658 187.002 703.706C186.984 703.721 186.958 703.732 186.923 703.741C186.888 703.749 186.851 703.752 186.81 703.75C186.759 703.747 186.713 703.738 186.672 703.722C186.631 703.705 186.606 703.683 186.595 703.656C186.586 703.635 186.576 703.605 186.566 703.564C186.557 703.523 186.547 703.476 186.538 703.425C186.528 703.372 186.518 703.315 186.508 703.254C186.498 703.193 186.49 703.133 186.482 703.072C186.475 703.011 186.468 702.952 186.462 702.895C186.456 702.837 186.453 702.784 186.451 702.736C186.467 702.722 186.49 702.709 186.519 702.698C186.548 702.687 186.579 702.683 186.612 702.685C186.655 702.687 186.69 702.699 186.716 702.719C186.743 702.739 186.759 702.771 186.764 702.816C186.775 702.933 186.785 703.03 186.792 703.107C186.8 703.185 186.807 703.249 186.811 703.3C186.816 703.349 186.819 703.387 186.821 703.415C186.823 703.442 186.826 703.464 186.828 703.48L186.837 703.48C186.849 703.435 186.861 703.394 186.872 703.356C186.884 703.318 186.895 703.28 186.906 703.242C186.918 703.203 186.931 703.161 186.943 703.117C186.956 703.073 186.97 703.022 186.984 702.964Z" fill="white"/>
<path opacity="0.24" d="M155.975 671.931L199.111 696.219L198.578 703.455L155.807 675.969L155.975 671.931Z" fill="white"/>
<path opacity="0.27" d="M155.078 683.822L197.905 710.859L196.952 724.406L153.844 699.528L155.078 683.822Z" fill="white"/>
<path d="M156.285 711.112L153.564 742.693C153.452 744.011 154.462 745.161 155.808 745.189L189.604 745.75C190.81 745.778 191.792 744.852 191.904 743.646L194.625 712.879C194.737 711.561 193.755 710.439 192.437 710.383L158.641 708.981C157.407 708.953 156.369 709.878 156.285 711.112Z" fill="#ECF1F7"/>
<path opacity="0.14" d="M156.285 711.112L155.948 715.039L194.204 716.441L194.597 712.907C194.709 711.589 193.727 710.467 192.409 710.411L158.613 709.009C157.407 708.953 156.369 709.878 156.285 711.112Z" fill="#3E479B"/>
<path d="M186.547 714.057C186.547 714.057 186.519 714.057 186.547 714.057C186.182 714.057 185.93 713.777 185.93 713.44C185.93 713.103 186.21 712.851 186.547 712.851C186.883 712.851 187.136 713.132 187.136 713.468C187.136 713.805 186.883 714.057 186.547 714.057ZM186.547 713.103C186.378 713.103 186.238 713.244 186.21 713.412C186.21 713.58 186.35 713.749 186.519 713.749C186.687 713.749 186.827 713.608 186.855 713.44C186.883 713.272 186.743 713.132 186.547 713.103Z" fill="white"/>
<path d="M189.043 714.142C189.043 714.142 189.015 714.142 189.043 714.142C188.678 714.142 188.426 713.861 188.426 713.525C188.426 713.188 188.734 712.907 189.043 712.936C189.379 712.936 189.632 713.216 189.632 713.553C189.632 713.889 189.351 714.142 189.043 714.142ZM189.043 713.188C188.875 713.188 188.734 713.328 188.706 713.496C188.706 713.665 188.846 713.833 189.015 713.833C189.183 713.833 189.351 713.693 189.351 713.525C189.379 713.356 189.239 713.216 189.043 713.188Z" fill="white"/>
<path d="M191.539 714.225C191.511 714.225 191.511 714.225 191.539 714.225C191.343 714.225 191.202 714.141 191.09 714.029C190.978 713.917 190.922 713.748 190.922 713.58C190.922 713.412 191.006 713.272 191.118 713.159C191.23 713.047 191.399 712.991 191.567 712.991C191.735 712.991 191.875 713.075 191.988 713.188C192.1 713.3 192.156 713.468 192.156 713.636C192.156 713.805 192.072 713.945 191.96 714.057C191.819 714.169 191.679 714.225 191.539 714.225ZM191.539 713.272C191.455 713.272 191.371 713.3 191.315 713.356C191.258 713.412 191.202 713.496 191.202 713.58C191.202 713.664 191.23 713.748 191.286 713.805C191.343 713.861 191.427 713.917 191.511 713.917C191.595 713.917 191.679 713.889 191.735 713.833C191.791 713.777 191.847 713.692 191.847 713.608C191.847 713.524 191.819 713.44 191.763 713.384C191.707 713.328 191.623 713.3 191.539 713.272Z" fill="white"/>
<g opacity="0.14">
<g opacity="0.14">
<path opacity="0.75" d="M171.401 732.764L158.724 732.259C158.416 732.259 158.191 732.007 158.191 731.698L158.668 719.442C158.668 719.134 158.921 718.909 159.229 718.909L171.906 719.414C172.215 719.414 172.439 719.666 172.439 719.975L171.962 732.231C171.962 732.54 171.71 732.764 171.401 732.764Z" fill="#3E479B"/>
<path opacity="0.4" d="M171.037 723.761L169.242 721.798C168.99 721.517 168.625 721.349 168.26 721.349L166.97 721.293C166.858 721.293 166.746 721.377 166.746 721.489C166.718 722.078 166.241 722.499 165.652 722.499H165.456C164.867 722.471 164.446 721.994 164.446 721.405C164.446 721.293 164.362 721.181 164.25 721.181L163.016 721.125C162.623 721.097 162.23 721.265 161.922 721.517L160.015 723.284L161.81 725.247L162.679 724.434L162.455 729.847L168.288 730.072L168.485 724.855L169.074 725.5L171.037 723.761Z" fill="#ECF1F7"/>
</g>
</g>
<path opacity="0.14" d="M186.603 723.228L174.879 722.724C174.683 722.724 174.515 722.527 174.515 722.331L174.543 721.882C174.543 721.686 174.739 721.518 174.935 721.518L186.659 722.022C186.855 722.022 187.023 722.219 187.023 722.415L186.995 722.864C186.967 723.088 186.799 723.256 186.603 723.228Z" fill="#3E479B"/>
<path opacity="0.14" d="M180.573 725.136L174.824 724.883C174.627 724.883 174.459 724.687 174.459 724.491L174.487 724.042C174.487 723.846 174.683 723.677 174.88 723.677L180.629 723.93C180.826 723.93 180.994 724.126 180.994 724.322L180.966 724.771C180.966 724.995 180.798 725.164 180.573 725.136Z" fill="#3E479B"/>
<path opacity="0.14" d="M185.622 739.243L158.304 738.261C158.108 738.261 157.939 738.093 157.939 737.869L157.967 737.42C157.967 737.223 158.136 737.055 158.36 737.055L185.678 738.037C185.874 738.037 186.042 738.205 186.042 738.429L186.014 738.878C185.986 739.075 185.818 739.243 185.622 739.243Z" fill="#3E479B"/>
<path opacity="0.14" d="M172.215 740.926L158.36 740.421C158.163 740.421 157.995 740.253 157.995 740.028L158.023 739.579C158.023 739.383 158.191 739.215 158.416 739.215L172.271 739.72C172.467 739.72 172.636 739.888 172.636 740.112L172.607 740.561C172.607 740.757 172.439 740.926 172.215 740.926Z" fill="#3E479B"/>
<path d="M153.525 704.069C153.497 704.069 153.497 704.069 153.469 704.069C153.331 704.041 153.221 703.903 153.248 703.738C153.939 700.231 155.568 696.227 157.17 694.018C157.28 693.852 157.39 693.714 157.501 693.576C158.854 691.891 159.848 691.974 160.455 692.306C160.594 692.388 160.621 692.554 160.538 692.692C160.455 692.83 160.29 692.858 160.152 692.775C159.434 692.333 158.523 693.162 157.915 693.907C157.805 694.045 157.694 694.183 157.611 694.321C156.037 696.503 154.463 700.396 153.773 703.848C153.773 703.958 153.663 704.069 153.525 704.069Z" fill="#4C65BA"/>
<path d="M142.7 704.152L127.9 729.86C127.541 730.495 127.734 731.296 128.369 731.682L143.17 740.519C143.805 740.905 144.606 740.684 144.992 740.077L160.649 714.921C160.898 714.507 160.925 714.01 160.677 713.568L155.734 704.456C155.513 704.041 155.071 703.765 154.574 703.765L143.888 703.517C143.418 703.462 142.949 703.738 142.7 704.152Z" fill="#599AF2"/>
<path opacity="0.35" d="M143.888 738.448C143.667 738.448 143.418 738.392 143.225 738.254L130.357 730.578C129.75 730.219 129.529 729.418 129.888 728.811L142.756 706.471C143.004 706.057 143.446 705.809 143.915 705.809L153.221 706.03C153.69 706.03 154.105 706.306 154.326 706.72L158.633 714.645C158.854 715.059 158.854 715.556 158.606 715.943L144.992 737.812C144.771 738.227 144.33 738.448 143.888 738.448ZM143.915 706.112C143.556 706.112 143.197 706.306 143.032 706.637L130.164 728.976C129.888 729.473 130.053 730.081 130.523 730.385L143.391 738.061C143.86 738.337 144.495 738.199 144.799 737.73L158.412 715.86C158.606 715.556 158.606 715.142 158.44 714.838L154.132 706.913C153.967 706.582 153.608 706.388 153.249 706.388L143.915 706.112C143.943 706.112 143.915 706.112 143.915 706.112Z" fill="#ECF1F7"/>
<path d="M145.131 718.704C144.606 719.56 143.971 720.085 143.143 720.251C142.342 720.416 141.541 720.251 140.713 719.781C139.884 719.284 139.359 718.649 139.139 717.876C138.918 717.103 139.056 716.274 139.58 715.418C140.077 714.562 140.74 714.065 141.541 713.899C142.342 713.734 143.143 713.899 143.971 714.369C144.772 714.866 145.296 715.501 145.517 716.274C145.793 717.047 145.655 717.876 145.131 718.704ZM141.707 716.633C141.513 716.965 141.403 717.268 141.458 717.517C141.486 717.765 141.596 717.931 141.789 718.069C141.983 718.18 142.204 718.207 142.425 718.124C142.645 718.041 142.866 717.821 143.087 717.489C143.281 717.158 143.363 716.882 143.336 716.633C143.308 716.385 143.198 716.219 143.004 716.109C142.811 715.998 142.59 715.97 142.369 716.053C142.121 716.109 141.9 716.302 141.707 716.633ZM149.963 717.903C150.322 718.207 150.598 718.511 150.819 718.842C151.04 719.174 151.068 719.477 150.929 719.754C150.819 719.947 150.653 720.085 150.46 720.223C150.239 720.361 150.018 720.499 149.742 720.61L138.669 725.635C138.338 725.359 138.089 725.083 137.951 724.779C137.786 724.475 137.786 724.199 137.924 723.923C138.034 723.73 138.144 723.564 138.283 723.398C138.421 723.233 138.614 723.095 138.918 722.957L149.963 717.903ZM149.162 728.286C148.638 729.142 148.002 729.667 147.174 729.832C146.373 729.998 145.572 729.832 144.744 729.363C143.916 728.866 143.391 728.231 143.17 727.458C142.949 726.684 143.087 725.856 143.612 725C144.109 724.144 144.772 723.647 145.572 723.481C146.373 723.316 147.174 723.481 148.002 723.951C148.803 724.448 149.328 725.083 149.549 725.856C149.797 726.629 149.659 727.43 149.162 728.286ZM145.711 726.215C145.517 726.546 145.407 726.85 145.462 727.099C145.49 727.347 145.6 727.513 145.793 727.651C145.987 727.761 146.208 727.789 146.428 727.706C146.649 727.623 146.87 727.402 147.091 727.071C147.285 726.74 147.367 726.464 147.34 726.215C147.312 725.967 147.202 725.801 147.008 725.69C146.815 725.58 146.594 725.552 146.373 725.635C146.125 725.69 145.904 725.884 145.711 726.215Z" fill="#ECF1F7"/>
<path d="M153 708.708C153.58 708.708 154.05 708.238 154.05 707.659C154.05 707.079 153.58 706.609 153 706.609C152.421 706.609 151.951 707.079 151.951 707.659C151.951 708.238 152.421 708.708 153 708.708Z" fill="#3E479B"/>
<path d="M153 707.962C152.917 707.962 152.835 707.935 152.779 707.88C152.669 707.769 152.696 707.603 152.807 707.493C154.712 705.809 161.781 698.712 161.422 694.736C161.339 693.88 160.925 693.244 160.18 692.803C159.462 692.361 158.55 693.189 157.943 693.935C157.833 694.073 157.722 694.211 157.639 694.349C157.556 694.459 157.391 694.487 157.253 694.404C157.142 694.321 157.115 694.156 157.197 694.018C157.308 693.852 157.418 693.714 157.529 693.576C158.882 691.891 159.876 691.974 160.483 692.306C161.395 692.858 161.892 693.659 162.002 694.68C162.444 699.54 153.276 707.824 153.193 707.907C153.111 707.935 153.055 707.962 153 707.962Z" fill="#4C65BA"/>
<circle cx="110" cy="673.841" r="10" fill="#3561D1"/>
<path d="M110.564 677.651C110.012 677.651 109.512 677.555 109.064 677.363C108.616 677.163 108.256 676.859 107.984 676.451C107.712 676.043 107.568 675.531 107.552 674.915H109.064C109.072 675.323 109.204 675.667 109.46 675.947C109.724 676.219 110.092 676.355 110.564 676.355C111.012 676.355 111.356 676.231 111.596 675.983C111.836 675.735 111.956 675.423 111.956 675.047C111.956 674.607 111.796 674.275 111.476 674.051C111.164 673.819 110.76 673.703 110.264 673.703H109.64V672.443H110.276C110.684 672.443 111.024 672.347 111.296 672.155C111.568 671.963 111.704 671.679 111.704 671.303C111.704 670.991 111.6 670.743 111.392 670.559C111.192 670.367 110.912 670.271 110.552 670.271C110.16 670.271 109.852 670.387 109.628 670.619C109.412 670.851 109.292 671.135 109.268 671.471H107.768C107.8 670.695 108.068 670.083 108.572 669.635C109.084 669.187 109.744 668.963 110.552 668.963C111.128 668.963 111.612 669.067 112.004 669.275C112.404 669.475 112.704 669.743 112.904 670.079C113.112 670.415 113.216 670.787 113.216 671.195C113.216 671.667 113.084 672.067 112.82 672.395C112.564 672.715 112.244 672.931 111.86 673.043C112.332 673.139 112.716 673.371 113.012 673.739C113.308 674.099 113.456 674.555 113.456 675.107C113.456 675.571 113.344 675.995 113.12 676.379C112.896 676.763 112.568 677.071 112.136 677.303C111.712 677.535 111.188 677.651 110.564 677.651Z" fill="white"/>
<path opacity="0.3" d="M178.412 751.841C222.993 790.995 307.145 782.453 313.156 856.49C319.167 930.528 292.619 952.597 248.038 971.818C176.927 1002.48 109.788 946.901 84.7427 984.632C64.7065 1014.82 72.3869 1071.72 72.7208 1092.84" stroke="#A0ACAF" stroke-dasharray="6 6"/>
<defs>
<filter id="filter0_d" x="83" y="0.00292969" width="157.096" height="135.988" filterUnits="userSpaceOnUse" color-interpolation-filters="sRGB">
<feFlood flood-opacity="0" result="BackgroundImageFix"/>
<feColorMatrix in="SourceAlpha" type="matrix" values="0 0 0 0 0 0 0 0 0 0 0 0 0 0 0 0 0 0 127 0"/>
<feOffset/>
<feGaussianBlur stdDeviation="10"/>
<feColorMatrix type="matrix" values="0 0 0 0 0 0 0 0 0 0 0 0 0 0 0 0 0 0 0.1 0"/>
<feBlend mode="normal" in2="BackgroundImageFix" result="effect1_dropShadow"/>
<feBlend mode="normal" in="SourceGraphic" in2="effect1_dropShadow" result="shape"/>
</filter>
<filter id="filter1_d" x="85.1416" y="306.587" width="154.859" height="140.595" filterUnits="userSpaceOnUse" color-interpolation-filters="sRGB">
<feFlood flood-opacity="0" result="BackgroundImageFix"/>
<feColorMatrix in="SourceAlpha" type="matrix" values="0 0 0 0 0 0 0 0 0 0 0 0 0 0 0 0 0 0 127 0"/>
<feOffset/>
<feGaussianBlur stdDeviation="10"/>
<feColorMatrix type="matrix" values="0 0 0 0 0 0 0 0 0 0 0 0 0 0 0 0 0 0 0.1 0"/>
<feBlend mode="normal" in2="BackgroundImageFix" result="effect1_dropShadow"/>
<feBlend mode="normal" in="SourceGraphic" in2="effect1_dropShadow" result="shape"/>
</filter>
<filter id="filter2_d" x="82.582" y="633.841" width="158.417" height="137.072" filterUnits="userSpaceOnUse" color-interpolation-filters="sRGB">
<feFlood flood-opacity="0" result="BackgroundImageFix"/>
<feColorMatrix in="SourceAlpha" type="matrix" values="0 0 0 0 0 0 0 0 0 0 0 0 0 0 0 0 0 0 127 0"/>
<feOffset/>
<feGaussianBlur stdDeviation="10"/>
<feColorMatrix type="matrix" values="0 0 0 0 0 0 0 0 0 0 0 0 0 0 0 0 0 0 0.1 0"/>
<feBlend mode="normal" in2="BackgroundImageFix" result="effect1_dropShadow"/>
<feBlend mode="normal" in="SourceGraphic" in2="effect1_dropShadow" result="shape"/>
</filter>
</defs>
</svg>
