<svg width="1075" height="1377" viewBox="0 0 1075 1377" fill="none" xmlns="http://www.w3.org/2000/svg">
<path opacity="0.3" d="M24.0632 505.303L24.0912 505.257L24.1154 505.209L24.1155 505.209L24.1156 505.208L24.1157 505.208L24.1166 505.206L24.1228 505.194L24.1508 505.14C24.1763 505.091 24.2157 505.016 24.2687 504.916C24.3749 504.717 24.5361 504.42 24.7515 504.036C25.1823 503.269 25.83 502.157 26.6893 500.795L25.4206 499.995C26.8748 497.689 28.92 494.686 31.5331 491.418L32.7046 492.355C34.6877 489.875 37.0003 487.243 39.631 484.656L38.5792 483.587C40.9824 481.223 43.6487 478.893 46.5706 476.74L47.4604 477.947C50.1606 475.957 53.0765 474.128 56.2012 472.573L55.5329 471.23C58.6098 469.699 61.8904 468.423 65.3689 467.511L65.7495 468.962C67.372 468.536 69.0382 468.192 70.7475 467.941C72.7908 467.641 74.7051 467.502 76.5084 467.5L76.5068 466C80.9368 465.995 84.7714 466.782 88.2364 468.062L87.7167 469.469C91.4056 470.832 94.6863 472.789 97.889 474.986L98.7377 473.749C100.284 474.81 101.797 475.916 103.311 477.022C105.02 478.271 106.729 479.52 108.487 480.705L107.649 481.949C110.962 484.183 114.509 486.239 118.579 487.65L119.07 486.233C122.545 487.438 126.396 488.145 130.84 488.067L130.866 489.567C132.819 489.532 134.873 489.352 137.045 489.006C139.047 488.687 141.128 488.302 143.277 487.867L142.98 486.397C146.834 485.618 150.933 484.677 155.223 483.675L155.564 485.136C156.31 484.962 157.061 484.786 157.818 484.609C161.053 483.852 164.379 483.073 167.786 482.313L167.459 480.849C171.458 479.955 175.566 479.087 179.747 478.311L180.021 479.786C184.072 479.034 188.185 478.37 192.331 477.854L192.146 476.366C196.288 475.851 200.466 475.482 204.65 475.321L204.708 476.82C208.845 476.66 212.979 476.705 217.08 477.013L217.193 475.517C221.365 475.831 225.512 476.412 229.601 477.323L229.275 478.787C233.252 479.673 237.167 480.875 240.992 482.449L241.563 481.062C245.353 482.622 249.062 484.542 252.66 486.876L251.844 488.134C253.535 489.231 255.202 490.422 256.842 491.713C258.383 492.926 259.851 494.257 261.243 495.697L262.322 494.654C265.097 497.525 267.576 500.808 269.75 504.441L268.463 505.211C270.448 508.529 272.178 512.155 273.643 516.04L275.046 515.511C276.449 519.233 277.61 523.18 278.522 527.306L277.057 527.63C277.907 531.471 278.538 535.475 278.946 539.607L280.439 539.46C280.833 543.454 281.021 547.561 280.998 551.749L279.498 551.741C279.476 555.721 279.262 559.777 278.851 563.88L280.344 564.03C279.941 568.051 279.351 572.115 278.572 576.197L277.098 575.916C276.347 579.854 275.416 583.809 274.303 587.758L275.747 588.165C274.645 592.074 273.367 595.975 271.909 599.848L270.505 599.32C269.087 603.087 267.498 606.826 265.734 610.515L267.087 611.162C265.331 614.836 263.403 618.461 261.302 622.017L260.01 621.254C257.96 624.723 255.743 628.125 253.357 631.441L254.574 632.318C252.197 635.62 249.653 638.839 246.941 641.954L245.809 640.969C243.17 644 240.37 646.932 237.406 649.747L238.439 650.835C235.494 653.631 232.389 656.314 229.122 658.866L228.198 657.684C226.609 658.926 224.98 660.136 223.313 661.314C221.763 662.408 220.175 663.475 218.551 664.515L219.36 665.778C216.14 667.84 212.784 669.795 209.31 671.643L208.606 670.319C205.256 672.101 201.794 673.783 198.236 675.367L198.845 676.737C195.337 678.299 191.739 679.764 188.066 681.133L187.542 679.728C183.965 681.062 180.315 682.304 176.608 683.456L177.053 684.889C173.368 686.034 169.627 687.09 165.846 688.057L165.474 686.603C161.753 687.555 157.992 688.419 154.205 689.198L154.507 690.667C150.71 691.447 146.888 692.141 143.054 692.749L142.819 691.268C139.003 691.873 135.176 692.393 131.351 692.828L131.521 694.318C127.648 694.758 123.778 695.112 119.925 695.379L119.821 693.882C115.947 694.151 112.092 694.331 108.268 694.425L108.305 695.924C104.383 696.02 100.495 696.025 96.6556 695.939L96.6892 694.439C92.7824 694.351 88.9278 694.169 85.1423 693.893L85.0332 695.389C81.0914 695.102 77.2228 694.713 73.4458 694.224L73.6385 692.736C69.7363 692.231 65.9353 691.618 62.2563 690.897L61.9682 692.37C58.0426 691.601 54.2518 690.711 50.6207 689.702L51.0226 688.256C47.1909 687.191 43.5454 685.991 40.1149 684.66L39.5723 686.059C35.7915 684.592 32.2607 682.964 29.0187 681.177L29.7427 679.864C26.2324 677.929 23.0848 675.813 20.344 673.522L19.382 674.673C16.254 672.059 13.6222 669.208 11.5576 666.123L12.8041 665.289C11.7603 663.729 10.8713 662.112 10.1449 660.437C9.41101 658.745 8.72851 656.995 8.09566 655.193L6.68033 655.689C5.44869 652.181 4.40534 648.484 3.53579 644.638L4.99887 644.307C4.18449 640.704 3.52336 636.963 3.00412 633.114L1.51758 633.314C1.01446 629.584 0.643875 625.759 0.394904 621.866L1.89185 621.77C1.65229 618.025 1.5261 614.214 1.50365 610.363L0.00368008 610.372C-0.0184923 606.568 0.0598766 602.728 0.229361 598.876L1.72791 598.942C1.89497 595.145 2.15113 591.334 2.48736 587.535L0.993202 587.402C1.33211 583.573 1.75181 579.754 2.24305 575.971L3.73056 576.165C4.22609 572.349 4.79483 568.569 5.42717 564.849L3.94838 564.598C4.6013 560.757 5.32166 556.982 6.09899 553.297L7.56669 553.607C8.3737 549.781 9.24226 546.056 10.1604 542.46L8.70705 542.089C9.69036 538.239 10.7305 534.536 11.8132 531.017L13.2469 531.458C14.4288 527.616 15.6602 524 16.9217 520.658L15.5184 520.129C16.9952 516.216 18.5155 512.668 20.0494 509.561L21.3944 510.226C22.2859 508.42 23.1778 506.775 24.0632 505.303Z" stroke="#A0ACAF" stroke-width="3" stroke-dasharray="12 12"/>
<path opacity="0.3" d="M947 251.5C656.5 506 33 251.5 70.5 451.5" stroke="#A0ACAF" stroke-width="3" stroke-dasharray="12 12"/>
<path opacity="0.3" d="M772.201 48.5723L772.234 48.5294L772.264 48.4846L772.264 48.4845L772.264 48.4844L772.264 48.4843L772.264 48.4842L772.266 48.4817L772.275 48.468L772.315 48.4082C772.352 48.3541 772.408 48.2717 772.483 48.1628C772.634 47.945 772.861 47.6211 773.162 47.2046C773.765 46.3714 774.665 45.1684 775.843 43.7033L774.674 42.7632C776.664 40.2899 779.429 37.0877 782.887 33.6553L783.944 34.7198C786.574 32.1089 789.606 29.3661 793.002 26.7163L792.08 25.5337C795.174 23.1191 798.569 20.7783 802.235 18.6762L802.981 19.9775C806.38 18.0284 810.01 16.2932 813.846 14.9054L813.335 13.4948C817.099 12.1332 821.064 11.0956 825.209 10.5045L825.421 11.9894C827.363 11.7125 829.345 11.5363 831.365 11.4742C833.779 11.4 836.023 11.4962 838.12 11.7369L838.291 10.2467C843.414 10.8347 847.742 12.2603 851.576 14.2068L850.897 15.5443C855.003 17.6289 858.55 20.3478 861.964 23.3268L862.95 22.1966C864.595 23.6317 866.195 25.114 867.796 26.5966C869.604 28.2708 871.412 29.9453 873.284 31.5526L872.307 32.6908C875.83 35.7141 879.635 38.5537 884.123 40.7199L884.775 39.3691C888.63 41.23 892.987 42.5653 898.136 43.0703L897.99 44.5631C900.24 44.7837 902.628 44.8502 905.175 44.741C907.144 44.6566 909.185 44.5254 911.287 44.3588L911.169 42.8635C914.999 42.5601 919.054 42.1375 923.287 41.6637L923.454 43.1544C925.507 42.9247 927.617 42.6811 929.762 42.4336C931.669 42.2135 933.603 41.9903 935.548 41.7709L935.38 40.2804C939.322 39.8356 943.369 39.3995 947.488 39.0171L947.627 40.5107C951.601 40.1418 955.639 39.8235 959.715 39.5962L959.631 38.0985C963.655 37.8741 967.718 37.7376 971.794 37.7278L971.798 39.2278C975.818 39.2181 979.845 39.3325 983.857 39.6081L983.959 38.1116C988.011 38.3899 992.05 38.8312 996.052 39.4735L995.814 40.9546C999.774 41.5904 1003.69 42.4246 1007.54 43.494L1007.94 42.0488C1011.84 43.1325 1015.68 44.4555 1019.43 46.0557L1018.84 47.4352C1022.47 48.9857 1026.01 50.7998 1029.44 52.9128L1030.23 51.6357C1033.61 53.7236 1036.9 56.099 1040.06 58.7953L1039.08 59.9359C1040.58 61.2124 1042.04 62.5626 1043.48 63.9902C1044.78 65.2896 1046.02 66.6704 1047.2 68.1279L1048.36 67.1866C1050.71 70.1009 1052.8 73.3067 1054.63 76.7643L1053.3 77.4652C1055 80.6831 1056.48 84.1311 1057.72 87.7773L1059.14 87.2934C1060.34 90.8198 1061.33 94.5211 1062.1 98.3677L1060.63 98.6635C1061.36 102.268 1061.89 106.006 1062.23 109.853L1063.73 109.719C1064.06 113.443 1064.22 117.264 1064.19 121.16L1062.69 121.151C1062.67 124.861 1062.49 128.642 1062.14 132.474L1063.63 132.61C1063.29 136.363 1062.79 140.163 1062.14 143.992L1060.66 143.74C1060.03 147.418 1059.26 151.125 1058.34 154.842L1059.8 155.202C1058.89 158.875 1057.85 162.558 1056.66 166.237L1055.23 165.776C1054.08 169.345 1052.79 172.91 1051.37 176.456L1052.77 177.014C1051.36 180.536 1049.81 184.039 1048.14 187.511L1046.79 186.859C1045.16 190.247 1043.4 193.603 1041.51 196.916L1042.81 197.658C1040.93 200.962 1038.93 204.222 1036.8 207.426L1035.55 206.595C1033.47 209.73 1031.26 212.809 1028.94 215.822L1030.12 216.739C1027.8 219.749 1025.36 222.694 1022.8 225.561L1021.68 224.562C1019.17 227.368 1016.55 230.099 1013.81 232.743L1014.85 233.822C1012.12 236.46 1009.28 239.013 1006.32 241.47L1005.36 240.315C1002.46 242.717 999.46 245.025 996.346 247.231L997.213 248.455C994.123 250.643 990.925 252.73 987.62 254.707L986.85 253.42C985.23 254.388 983.584 255.33 981.912 256.244C980.147 257.208 978.349 258.143 976.519 259.047L977.184 260.391C973.548 262.188 969.792 263.866 965.934 265.427L965.371 264.037C961.646 265.544 957.821 266.942 953.912 268.234L954.383 269.658C950.523 270.934 946.583 272.106 942.577 273.176L942.19 271.727C938.279 272.771 934.304 273.719 930.278 274.571L930.588 276.038C926.599 276.882 922.562 277.632 918.489 278.291L918.249 276.81C914.236 277.459 910.188 278.019 906.116 278.492L906.289 279.982C902.22 280.454 898.128 280.839 894.025 281.139L893.916 279.643C889.843 279.941 885.76 280.155 881.677 280.286L881.726 281.785C877.614 281.917 873.503 281.966 869.407 281.933L869.419 280.433C865.316 280.4 861.228 280.285 857.165 280.089L857.093 281.588C852.968 281.389 848.869 281.108 844.811 280.747L844.944 279.253C840.838 278.887 836.774 278.438 832.765 277.909L832.569 279.396C828.445 278.852 824.38 278.223 820.385 277.51L820.649 276.034C816.572 275.307 812.571 274.493 808.662 273.595L808.326 275.057C804.246 274.12 800.264 273.092 796.397 271.974L796.813 270.533C792.803 269.374 788.92 268.119 785.184 266.772L784.675 268.183C780.699 266.75 776.885 265.212 773.257 263.572L773.875 262.205C770.046 260.475 766.431 258.633 763.059 256.685L762.309 257.984C758.592 255.836 755.158 253.558 752.044 251.154L752.961 249.967C749.614 247.384 746.658 244.663 744.132 241.815L743.01 242.811C740.165 239.604 737.838 236.225 736.091 232.682L737.436 232.019C736.553 230.23 735.826 228.401 735.263 226.535C734.716 224.724 734.221 222.867 733.776 220.967L732.315 221.309C731.448 217.605 730.77 213.75 730.267 209.771L731.755 209.583C731.281 205.836 730.964 201.974 730.791 198.02L729.292 198.086C729.124 194.25 729.091 190.333 729.182 186.357L730.681 186.391C730.768 182.568 730.97 178.688 731.277 174.771L729.781 174.653C730.083 170.794 730.487 166.9 730.981 162.99L732.469 163.179C732.954 159.343 733.528 155.49 734.18 151.639L732.701 151.388C733.354 147.539 734.084 143.692 734.885 139.865L736.353 140.172C737.151 136.353 738.019 132.554 738.947 128.792L737.49 128.432C738.434 124.608 739.438 120.822 740.496 117.092L741.939 117.501C743.014 113.709 744.143 109.976 745.315 106.32L743.887 105.862C745.104 102.07 746.367 98.362 747.667 94.7586L749.078 95.2674C750.433 91.51 751.826 87.8682 753.246 84.3664L751.856 83.803C753.38 80.0431 754.933 76.4424 756.501 73.0309L757.864 73.6574C759.574 69.9385 761.298 66.4502 763.016 63.2312L761.692 62.525C763.693 58.7766 765.688 55.3841 767.646 52.4083L768.899 53.2328C770.019 51.5309 771.122 49.9741 772.201 48.5723Z" stroke="#A0ACAF" stroke-width="3" stroke-dasharray="12 12"/>
<path opacity="0.2" d="M713.293 957.83L713.32 957.784L713.345 957.736L713.345 957.736L713.345 957.736L713.345 957.736L713.345 957.736L713.346 957.733L713.354 957.719L713.386 957.656C713.415 957.599 713.461 957.513 713.522 957.398C713.643 957.169 713.828 956.828 714.075 956.388C714.568 955.508 715.309 954.235 716.292 952.674L715.022 951.875C716.682 949.24 719.016 945.806 721.998 942.071L723.17 943.006C725.438 940.166 728.084 937.151 731.093 934.186L730.041 933.117C732.784 930.414 735.828 927.75 739.163 925.287L740.054 926.494C743.146 924.211 746.486 922.111 750.067 920.326L749.397 918.984C752.912 917.232 756.659 915.773 760.632 914.728L761.013 916.179C762.874 915.69 764.785 915.295 766.746 915.006C769.089 914.662 771.285 914.502 773.355 914.5L773.353 913C778.412 912.995 782.791 913.895 786.748 915.36L786.227 916.766C790.461 918.333 794.223 920.581 797.886 923.098L798.736 921.862C800.501 923.075 802.228 924.339 803.955 925.603C805.906 927.031 807.857 928.459 809.864 929.814L809.024 931.057C812.8 933.606 816.831 935.946 821.453 937.551L821.945 936.134C825.913 937.513 830.31 938.322 835.385 938.233L835.412 939.733C837.631 939.694 839.967 939.489 842.439 939.094C844.349 938.79 846.323 938.431 848.354 938.032L848.064 936.56C851.762 935.832 855.667 934.962 859.74 934.022L860.077 935.484C862.052 935.028 864.081 934.552 866.144 934.069C867.977 933.639 869.837 933.203 871.707 932.77L871.369 931.308C875.161 930.43 879.055 929.548 883.027 928.71L883.337 930.178C887.168 929.369 891.068 928.603 895.014 927.922L894.758 926.443C898.654 925.77 902.599 925.179 906.571 924.709L906.747 926.198C910.663 925.735 914.601 925.392 918.541 925.207L918.471 923.709C922.451 923.523 926.437 923.497 930.41 923.671L930.344 925.17C934.274 925.342 938.185 925.713 942.056 926.32L942.288 924.838C946.212 925.454 950.101 926.31 953.933 927.447L953.507 928.885C957.219 929.986 960.874 931.353 964.455 933.025L965.089 931.666C968.628 933.318 972.097 935.262 975.478 937.534L974.641 938.779C976.242 939.854 977.822 941.004 979.381 942.233C980.955 943.473 982.461 944.821 983.9 946.269L984.964 945.212C987.831 948.097 990.427 951.363 992.746 954.957L991.486 955.77C993.632 959.096 995.54 962.717 997.203 966.592L998.581 966.001C1000.18 969.725 1001.55 973.671 1002.69 977.802L1001.24 978.201C1002.31 982.06 1003.17 986.087 1003.82 990.251L1005.3 990.019C1005.93 994.047 1006.37 998.197 1006.61 1002.44L1005.12 1002.53C1005.34 1006.57 1005.39 1010.7 1005.26 1014.89L1006.76 1014.94C1006.62 1019.04 1006.32 1023.2 1005.83 1027.4L1004.34 1027.23C1003.88 1031.28 1003.24 1035.37 1002.44 1039.48L1003.91 1039.76C1003.12 1043.81 1002.17 1047.87 1001.05 1051.92L999.604 1051.52C998.514 1055.47 997.266 1059.41 995.858 1063.32L997.269 1063.83C995.869 1067.73 994.311 1071.6 992.594 1075.43L991.225 1074.82C989.549 1078.56 987.719 1082.26 985.734 1085.91L987.051 1086.62C985.07 1090.26 982.936 1093.85 980.646 1097.36L979.389 1096.54C977.151 1099.98 974.762 1103.34 972.221 1106.62L973.407 1107.54C970.874 1110.82 968.191 1114.01 965.356 1117.1L964.25 1116.09C961.485 1119.11 958.575 1122.03 955.517 1124.85L956.533 1125.95C953.496 1128.75 950.316 1131.44 946.99 1134.01L946.072 1132.83C944.446 1134.09 942.786 1135.31 941.09 1136.51C939.479 1137.65 937.832 1138.77 936.151 1139.85L936.966 1141.11C933.626 1143.27 930.155 1145.33 926.57 1147.29L925.851 1145.97C922.391 1147.86 918.822 1149.66 915.159 1151.36L915.791 1152.72C912.173 1154.4 908.465 1155.99 904.682 1157.48L904.13 1156.09C900.437 1157.54 896.67 1158.92 892.843 1160.2L893.32 1161.62C889.528 1162.9 885.678 1164.08 881.782 1165.19L881.374 1163.74C877.537 1164.83 873.655 1165.83 869.74 1166.75L870.083 1168.21C866.17 1169.13 862.226 1169.97 858.261 1170.72L857.98 1169.25C854.045 1170 850.09 1170.67 846.126 1171.26L846.347 1172.74C842.354 1173.33 838.354 1173.85 834.358 1174.28L834.197 1172.79C830.195 1173.22 826.197 1173.57 822.216 1173.83L822.317 1175.33C818.274 1175.6 814.248 1175.79 810.251 1175.9L810.212 1174.4C806.169 1174.51 802.158 1174.53 798.191 1174.46L798.168 1175.96C794.088 1175.9 790.054 1175.75 786.081 1175.5L786.172 1174.01C782.117 1173.76 778.126 1173.42 774.216 1172.98L774.051 1174.47C769.968 1174.02 765.971 1173.47 762.076 1172.82L762.324 1171.34C758.284 1170.66 754.359 1169.88 750.566 1168.98L750.223 1170.44C746.186 1169.5 742.296 1168.43 738.575 1167.24L739.031 1165.81C735.104 1164.56 731.375 1163.17 727.869 1161.65L727.273 1163.03C723.408 1161.36 719.805 1159.52 716.498 1157.53L717.272 1156.25C713.72 1154.11 710.533 1151.79 707.751 1149.3L706.751 1150.42C703.616 1147.62 700.967 1144.59 698.864 1141.33L700.123 1140.52C699.062 1138.87 698.148 1137.18 697.388 1135.42C696.651 1133.72 695.959 1131.97 695.311 1130.16L693.9 1130.67C692.636 1127.16 691.54 1123.48 690.6 1119.66L692.057 1119.3C691.172 1115.7 690.427 1111.98 689.812 1108.14L688.331 1108.38C687.734 1104.66 687.26 1100.85 686.899 1096.96L688.392 1096.82C688.045 1093.09 687.804 1089.28 687.661 1085.43L686.162 1085.49C686.02 1081.69 685.974 1077.85 686.014 1073.98L687.514 1074C687.553 1070.21 687.677 1066.39 687.878 1062.56L686.381 1062.48C686.582 1058.66 686.86 1054.83 687.207 1051.01L688.701 1051.14C689.048 1047.33 689.464 1043.53 689.944 1039.76L688.456 1039.57C688.943 1035.73 689.495 1031.93 690.104 1028.18L691.585 1028.42C692.204 1024.6 692.883 1020.83 693.613 1017.14L692.142 1016.85C692.899 1013.02 693.712 1009.26 694.572 1005.6L696.032 1005.94C696.928 1002.13 697.875 998.422 698.863 994.849L697.417 994.45C698.478 990.613 699.586 986.928 700.729 983.426L702.155 983.892C703.4 980.075 704.687 976.481 705.997 973.15L704.601 972.601C706.128 968.722 707.689 965.19 709.262 962.069L710.601 962.743C711.5 960.959 712.399 959.318 713.293 957.83Z" fill="white" stroke="#A0ACAF" stroke-width="3" stroke-dasharray="12 12"/>
<g filter="url(#filter0_d)">
<path d="M744.007 929.057C744.007 929.057 763.442 890.684 798.527 885.522C833.613 880.36 838.601 915.291 874.202 909.613C909.804 903.934 969.312 879.155 1012.31 913.054C1055.31 946.953 1048.43 1057.08 973.956 1109.74C899.485 1162.39 750.37 1159.64 728.012 1108.02C705.653 1056.39 725.088 960.547 744.007 929.057Z" fill="white"/>
</g>
<path d="M960.686 885H871.78C865.777 885 860.837 889.559 860.305 895.562L840.017 1140.55C839.637 1145.03 843.132 1148.83 847.615 1148.91L962.585 1150.05C969.652 1150.12 975.655 1144.65 976.187 1137.58L994.348 895.79C994.804 889.939 990.169 885 984.318 885H960.686Z" fill="#3E479B"/>
<path opacity="0.46" d="M959.09 886.672H872.919C867.144 886.672 862.281 891.155 861.825 897.006L842.068 1136.75C841.688 1141.08 845.107 1144.88 849.439 1144.88L961.065 1145.94C967.98 1146.02 973.755 1140.7 974.211 1133.79L991.841 897.234C992.296 891.535 987.813 886.672 982.114 886.672H959.09Z" fill="#4C65BA"/>
<path d="M956.127 891.611H875.959C870.564 891.611 866.081 895.942 865.625 901.641L847.312 1133.94C847.008 1138.19 850.123 1141.76 854.15 1141.84L957.874 1142.9C964.257 1142.98 969.652 1137.81 970.108 1131.05L986.446 901.869C986.826 896.322 982.646 891.611 977.403 891.611H956.127Z" fill="white"/>
<path d="M956.127 891.611H875.959C870.564 891.611 866.081 895.942 865.625 901.641L865.169 907.416L986.446 907.796L986.522 901.869C986.902 896.322 982.723 891.611 977.479 891.611H956.127Z" fill="#599AF2"/>
<path d="M963.953 888.951L954.075 898.222H899.667L891.688 888.951H963.953Z" fill="#3E479B"/>
<path opacity="0.46" d="M963.953 888.951L954.075 898.222H899.667L891.688 888.951H963.953Z" fill="#4C65BA"/>
<path d="M937.814 891.611H917.297C917.069 891.611 916.917 891.459 916.917 891.231C916.917 891.003 917.069 890.851 917.297 890.851H937.814C938.042 890.851 938.194 891.003 938.194 891.231C938.194 891.459 938.042 891.611 937.814 891.611Z" fill="#ECF1F7"/>
<path opacity="0.75" d="M918.74 970.107L873.451 967.143C872.615 967.067 872.008 966.383 872.084 965.547L874.971 921.702C875.047 920.866 875.731 920.259 876.567 920.335L921.856 923.298C922.692 923.374 923.3 924.058 923.224 924.894L920.336 968.739C920.26 969.499 919.576 970.107 918.74 970.107Z" fill="#599AF2"/>
<path opacity="0.37" d="M917.905 938.419L911.749 931.428C910.914 930.441 909.622 929.833 908.33 929.757L903.847 929.453C903.467 929.453 903.087 929.757 903.087 930.137C902.935 932.188 901.187 933.708 899.211 933.556L898.452 933.48C896.4 933.328 894.88 931.58 895.032 929.605C895.032 929.225 894.728 928.845 894.348 928.845L890.017 928.541C888.573 928.465 887.205 928.921 886.141 929.833L879.227 935.912L885.382 942.903L888.497 940.167L887.205 959.164L907.646 960.532L908.862 942.219L910.914 944.574L917.905 938.419Z" fill="#ECF1F7"/>
<path d="M972.692 936.064L930.823 934.24C930.291 934.24 929.835 933.708 929.835 933.176L929.911 930.973C929.911 930.441 930.443 929.985 930.975 929.985L972.844 931.809C973.376 931.809 973.832 932.34 973.832 932.872L973.756 935.076C973.756 935.684 973.224 936.14 972.692 936.064Z" fill="#ECF1F7"/>
<path d="M951.567 942.751L930.747 941.839C930.215 941.839 929.759 941.307 929.759 940.775L929.835 938.572C929.835 938.04 930.367 937.584 930.899 937.584L951.719 938.496C952.251 938.496 952.707 939.028 952.707 939.56L952.631 941.763C952.555 942.371 952.099 942.751 951.567 942.751Z" fill="#ECF1F7"/>
<path opacity="0.99" d="M952.251 966.687L934.241 965.927C931.506 965.776 929.378 963.496 929.53 960.76L929.606 959.696C929.758 956.961 932.038 954.833 934.773 954.985L952.782 955.745C955.518 955.897 957.646 958.177 957.494 960.912L957.418 961.976C957.266 964.712 954.986 966.763 952.251 966.687Z" fill="#EF929C"/>
<path d="M934.502 961.367C934.545 961.38 934.6 961.391 934.667 961.399C934.735 961.404 934.8 961.408 934.861 961.41C934.984 961.413 935.086 961.392 935.168 961.345C935.252 961.295 935.296 961.216 935.3 961.109C935.303 961.007 935.271 960.934 935.204 960.889C935.138 960.844 935.036 960.819 934.897 960.815L934.519 960.804L934.502 961.367ZM934.536 960.241L934.872 960.251C935.005 960.255 935.101 960.233 935.161 960.185C935.224 960.138 935.257 960.067 935.259 959.971C935.262 959.888 935.228 959.821 935.159 959.77C935.093 959.718 934.991 959.691 934.852 959.687C934.806 959.685 934.752 959.685 934.691 959.686C934.632 959.688 934.586 959.691 934.552 959.696L934.536 960.241ZM934.783 962.026C934.73 962.025 934.669 962.021 934.598 962.016C934.528 962.011 934.454 962.003 934.377 961.991C934.304 961.98 934.23 961.965 934.157 961.948C934.084 961.933 934.016 961.913 933.956 961.886C933.788 961.817 933.707 961.702 933.712 961.542L933.776 959.387C933.778 959.322 933.796 959.274 933.831 959.241C933.869 959.205 933.919 959.177 933.981 959.157C934.087 959.124 934.218 959.101 934.376 959.091C934.533 959.077 934.695 959.072 934.861 959.077C935.255 959.089 935.556 959.164 935.764 959.303C935.972 959.441 936.073 959.649 936.064 959.926C936.06 960.064 936.017 960.183 935.934 960.282C935.851 960.378 935.741 960.447 935.604 960.489C935.757 960.537 935.882 960.619 935.98 960.736C936.081 960.853 936.13 960.998 936.124 961.17C936.115 961.475 935.995 961.697 935.763 961.838C935.534 961.976 935.207 962.039 934.783 962.026Z" fill="white"/>
<path d="M939.066 961.045C939.061 961.211 939.027 961.362 938.965 961.499C938.905 961.633 938.821 961.747 938.71 961.842C938.599 961.935 938.466 962.005 938.311 962.052C938.156 962.1 937.981 962.121 937.787 962.115C937.594 962.11 937.421 962.078 937.268 962.021C937.116 961.965 936.987 961.887 936.883 961.788C936.778 961.687 936.698 961.567 936.644 961.43C936.593 961.29 936.569 961.137 936.574 960.971L936.627 959.208C936.661 959.203 936.715 959.197 936.789 959.19C936.863 959.18 936.934 959.176 937.002 959.178C937.072 959.18 937.134 959.188 937.186 959.202C937.241 959.213 937.286 959.232 937.322 959.261C937.359 959.29 937.385 959.329 937.402 959.379C937.419 959.429 937.426 959.494 937.424 959.574L937.382 960.981C937.378 961.129 937.414 961.245 937.492 961.331C937.573 961.416 937.677 961.461 937.807 961.465C937.939 961.469 938.046 961.43 938.129 961.35C938.211 961.269 938.255 961.155 938.259 961.007L938.311 959.258C938.345 959.253 938.399 959.247 938.473 959.24C938.547 959.23 938.618 959.226 938.686 959.228C938.757 959.23 938.818 959.238 938.87 959.252C938.925 959.263 938.971 959.282 939.007 959.311C939.043 959.34 939.069 959.379 939.086 959.429C939.103 959.479 939.111 959.544 939.108 959.624L939.066 961.045Z" fill="white"/>
<path d="M941.09 962.121C941.056 962.129 941.003 962.137 940.932 962.144C940.861 962.151 940.792 962.154 940.724 962.152C940.582 962.147 940.477 962.121 940.408 962.073C940.338 962.022 940.306 961.919 940.31 961.765L940.329 961.142C940.255 961.026 940.176 960.898 940.091 960.757C940.006 960.615 939.922 960.471 939.841 960.324C939.759 960.177 939.683 960.033 939.613 959.893C939.544 959.749 939.487 959.618 939.445 959.5C939.486 959.445 939.542 959.396 939.611 959.352C939.683 959.308 939.77 959.288 939.871 959.291C939.991 959.294 940.087 959.322 940.16 959.373C940.235 959.425 940.305 959.519 940.368 959.656L940.729 960.438L940.756 960.439C940.802 960.345 940.842 960.26 940.875 960.184C940.911 960.105 940.946 960.028 940.979 959.952C941.012 959.872 941.046 959.792 941.083 959.71C941.119 959.625 941.16 959.527 941.207 959.418C941.263 959.392 941.325 959.372 941.393 959.359C941.461 959.345 941.526 959.34 941.588 959.342C941.695 959.345 941.785 959.377 941.857 959.437C941.933 959.495 941.969 959.581 941.965 959.694C941.964 959.731 941.955 959.776 941.938 959.828C941.921 959.879 941.884 959.958 941.825 960.064C941.767 960.167 941.681 960.308 941.568 960.486C941.458 960.665 941.308 960.897 941.117 961.184L941.09 962.121Z" fill="white"/>
<path d="M945.731 962.18C945.687 962.222 945.623 962.252 945.539 962.271C945.459 962.294 945.361 962.303 945.248 962.3C945.134 962.296 945.027 962.276 944.926 962.239C944.826 962.203 944.745 962.119 944.684 961.987L944.255 961.042C944.212 960.945 944.173 960.855 944.138 960.77C944.104 960.683 944.067 960.584 944.027 960.472L943.999 960.475C944.007 960.642 944.008 960.811 944.003 960.983C944.001 961.156 943.997 961.325 943.992 961.491L943.971 962.206C943.937 962.215 943.884 962.222 943.813 962.229C943.745 962.237 943.677 962.239 943.61 962.237C943.542 962.235 943.482 962.229 943.43 962.218C943.378 962.207 943.336 962.188 943.303 962.159C943.27 962.13 943.245 962.092 943.228 962.046C943.211 961.996 943.203 961.933 943.205 961.856L943.274 959.549C943.319 959.488 943.386 959.444 943.476 959.416C943.567 959.388 943.662 959.375 943.764 959.378C943.878 959.382 943.985 959.403 944.085 959.443C944.189 959.48 944.27 959.563 944.327 959.691L944.761 960.636C944.804 960.733 944.843 960.825 944.878 960.912C944.912 960.997 944.949 961.095 944.989 961.207L945.012 961.203C945.005 961.036 945.002 960.87 945.004 960.704C945.006 960.538 945.009 960.371 945.014 960.205L945.036 959.458C945.07 959.449 945.121 959.442 945.189 959.435C945.26 959.427 945.33 959.425 945.397 959.427C945.533 959.431 945.635 959.459 945.704 959.51C945.774 959.558 945.806 959.658 945.802 959.808L945.731 962.18Z" fill="white"/>
<path d="M946.23 960.888C946.237 960.648 946.281 960.437 946.36 960.254C946.442 960.072 946.55 959.921 946.683 959.802C946.819 959.68 946.975 959.589 947.153 959.53C947.333 959.47 947.526 959.444 947.732 959.45C947.938 959.456 948.128 959.494 948.302 959.564C948.478 959.634 948.631 959.734 948.759 959.864C948.888 959.991 948.986 960.148 949.055 960.334C949.126 960.521 949.158 960.735 949.151 960.975C949.144 961.215 949.101 961.427 949.021 961.613C948.942 961.795 948.834 961.947 948.698 962.07C948.566 962.189 948.409 962.278 948.229 962.337C948.048 962.397 947.853 962.423 947.644 962.417C947.435 962.411 947.242 962.373 947.066 962.303C946.889 962.23 946.738 962.128 946.613 961.998C946.487 961.868 946.391 961.71 946.322 961.523C946.254 961.337 946.223 961.125 946.23 960.888ZM947.061 960.913C947.053 961.192 947.103 961.403 947.213 961.545C947.323 961.687 947.473 961.761 947.664 961.766C947.857 961.772 948.013 961.707 948.131 961.572C948.249 961.437 948.312 961.23 948.321 960.95C948.329 960.673 948.278 960.464 948.168 960.322C948.062 960.18 947.911 960.106 947.718 960.101C947.527 960.095 947.371 960.16 947.25 960.295C947.132 960.427 947.069 960.633 947.061 960.913Z" fill="white"/>
<path d="M950.926 960.316C950.961 960.302 951.013 960.286 951.085 960.27C951.159 960.251 951.233 960.242 951.307 960.244C951.436 960.248 951.543 960.271 951.628 960.314C951.713 960.353 951.764 960.41 951.78 960.485C951.81 960.612 951.838 960.731 951.862 960.843C951.89 960.951 951.916 961.057 951.94 961.159C951.965 961.258 951.988 961.357 952.01 961.457C952.035 961.556 952.058 961.66 952.079 961.768L952.102 961.769C952.136 961.582 952.166 961.404 952.192 961.236C952.219 961.064 952.244 960.897 952.267 960.734C952.29 960.569 952.314 960.406 952.337 960.247C952.36 960.085 952.384 959.92 952.407 959.755C952.523 959.694 952.645 959.665 952.774 959.669C952.888 959.672 952.986 959.7 953.068 959.751C953.149 959.803 953.188 959.887 953.185 960.004C953.183 960.072 953.172 960.169 953.153 960.294C953.137 960.417 953.114 960.555 953.085 960.708C953.059 960.861 953.028 961.022 952.993 961.19C952.957 961.358 952.92 961.519 952.881 961.672C952.843 961.825 952.803 961.964 952.763 962.089C952.725 962.211 952.69 962.305 952.657 962.372C952.61 962.413 952.533 962.447 952.428 962.471C952.323 962.496 952.214 962.506 952.104 962.503C951.959 962.499 951.837 962.477 951.736 962.437C951.639 962.394 951.581 962.337 951.561 962.265C951.525 962.141 951.486 961.994 951.445 961.823C951.404 961.653 951.36 961.465 951.314 961.26C951.265 961.459 951.215 961.653 951.163 961.842C951.111 962.032 951.065 962.192 951.024 962.323C950.976 962.365 950.906 962.398 950.813 962.423C950.72 962.448 950.618 962.459 950.507 962.456C950.369 962.452 950.243 962.429 950.13 962.389C950.021 962.346 949.95 962.288 949.918 962.217C949.892 962.16 949.864 962.078 949.833 961.969C949.806 961.858 949.777 961.732 949.748 961.593C949.718 961.45 949.687 961.297 949.655 961.133C949.626 960.969 949.599 960.805 949.573 960.641C949.55 960.477 949.528 960.318 949.508 960.163C949.488 960.005 949.474 959.862 949.466 959.732C949.51 959.694 949.571 959.658 949.649 959.627C949.727 959.595 949.81 959.581 949.9 959.584C950.017 959.587 950.111 959.616 950.183 959.67C950.259 959.722 950.304 959.808 950.319 959.928C950.359 960.244 950.391 960.506 950.416 960.717C950.443 960.927 950.464 961.1 950.479 961.236C950.496 961.369 950.509 961.472 950.516 961.546C950.523 961.62 950.53 961.679 950.538 961.722L950.561 961.723C950.593 961.601 950.622 961.488 950.65 961.384C950.678 961.28 950.705 961.176 950.733 961.072C950.764 960.965 950.795 960.852 950.826 960.733C950.857 960.611 950.891 960.472 950.926 960.316Z" fill="white"/>
<path opacity="0.75" d="M915.169 1028.09L869.804 1025.88C868.968 1025.81 868.36 1025.12 868.436 1024.36L870.564 980.441C870.64 979.605 871.324 978.997 872.084 979.073L917.448 981.277C918.284 981.353 918.892 982.037 918.816 982.797L916.689 1026.72C916.689 1027.48 916.005 1028.09 915.169 1028.09Z" fill="#599AF2"/>
<path opacity="0.37" d="M884.394 989.18L879.454 1014.41C879.378 1014.64 879.606 1014.86 879.834 1014.94L889.181 1015.7C889.409 1015.7 889.561 1015.55 889.637 1015.4L891.916 1004.61C891.992 1004.38 892.144 1004.23 892.372 1004.3L894.5 1004.45C894.728 1004.45 894.88 1004.68 894.88 1004.83L895.336 1015.85C895.336 1016.08 895.488 1016.23 895.716 1016.23L905.062 1016.99C905.29 1016.99 905.518 1016.84 905.518 1016.54L904.758 990.851C904.758 990.623 904.606 990.471 904.378 990.471L884.698 988.876C884.622 988.8 884.394 988.952 884.394 989.18Z" fill="#ECF1F7"/>
<path d="M969.045 994.423L927.251 991.535C926.719 991.459 926.263 991.003 926.339 990.471L926.491 988.268C926.567 987.736 927.023 987.28 927.555 987.356L969.349 990.244C969.881 990.32 970.336 990.775 970.261 991.307L970.109 993.511C970.109 994.043 969.653 994.499 969.045 994.423Z" fill="#ECF1F7"/>
<path d="M947.767 1000.58L927.023 999.134C926.491 999.058 926.035 998.602 926.111 998.07L926.263 995.866C926.339 995.335 926.795 994.879 927.327 994.955L948.071 996.398C948.603 996.474 949.059 996.93 948.983 997.462L948.831 999.666C948.831 1000.2 948.299 1000.58 947.767 1000.58Z" fill="#ECF1F7"/>
<path opacity="0.99" d="M947.92 1024.51L929.987 1023.3C927.251 1023.15 925.199 1020.71 925.427 1018.05L925.503 1016.99C925.655 1014.26 928.087 1012.2 930.747 1012.43L948.68 1013.65C951.415 1013.8 953.467 1016.23 953.239 1018.89L953.163 1019.95C952.935 1022.61 950.58 1024.67 947.92 1024.51Z" fill="#EF929C"/>
<path d="M930.227 1018.73C930.269 1018.75 930.324 1018.76 930.392 1018.77C930.459 1018.78 930.523 1018.78 930.585 1018.79C930.708 1018.79 930.811 1018.77 930.893 1018.73C930.979 1018.68 931.025 1018.6 931.031 1018.5C931.036 1018.39 931.006 1018.32 930.941 1018.27C930.876 1018.23 930.774 1018.2 930.636 1018.19L930.258 1018.17L930.227 1018.73ZM930.289 1017.61L930.625 1017.63C930.757 1017.64 930.854 1017.62 930.915 1017.57C930.979 1017.52 931.014 1017.45 931.019 1017.36C931.023 1017.28 930.992 1017.21 930.924 1017.15C930.859 1017.1 930.757 1017.07 930.619 1017.06C930.573 1017.06 930.519 1017.06 930.457 1017.06C930.399 1017.06 930.352 1017.06 930.318 1017.07L930.289 1017.61ZM930.491 1019.4C930.439 1019.4 930.378 1019.39 930.307 1019.39C930.237 1019.38 930.163 1019.37 930.087 1019.36C930.014 1019.34 929.941 1019.33 929.868 1019.31C929.795 1019.29 929.728 1019.27 929.668 1019.24C929.502 1019.17 929.424 1019.05 929.433 1018.89L929.55 1016.74C929.554 1016.67 929.573 1016.62 929.609 1016.59C929.648 1016.56 929.699 1016.53 929.761 1016.51C929.868 1016.48 930 1016.46 930.157 1016.46C930.315 1016.45 930.477 1016.45 930.643 1016.45C931.036 1016.48 931.335 1016.56 931.54 1016.7C931.745 1016.85 931.84 1017.06 931.825 1017.33C931.817 1017.47 931.771 1017.59 931.685 1017.69C931.6 1017.78 931.488 1017.85 931.351 1017.88C931.502 1017.94 931.625 1018.02 931.72 1018.14C931.819 1018.26 931.863 1018.41 931.854 1018.58C931.837 1018.88 931.711 1019.1 931.476 1019.24C931.243 1019.37 930.915 1019.42 930.491 1019.4Z" fill="white"/>
<path d="M934.797 1018.53C934.788 1018.69 934.751 1018.84 934.685 1018.98C934.622 1019.11 934.535 1019.22 934.422 1019.31C934.309 1019.4 934.174 1019.47 934.018 1019.51C933.861 1019.56 933.686 1019.57 933.493 1019.56C933.299 1019.55 933.127 1019.52 932.976 1019.46C932.825 1019.4 932.699 1019.32 932.596 1019.21C932.494 1019.11 932.418 1018.99 932.367 1018.85C932.319 1018.71 932.299 1018.56 932.308 1018.39L932.405 1016.63C932.439 1016.62 932.493 1016.62 932.567 1016.62C932.642 1016.61 932.713 1016.6 932.78 1016.61C932.851 1016.61 932.912 1016.62 932.964 1016.64C933.018 1016.65 933.063 1016.67 933.099 1016.7C933.134 1016.73 933.16 1016.77 933.175 1016.82C933.191 1016.87 933.197 1016.93 933.193 1017.01L933.116 1018.42C933.108 1018.57 933.141 1018.69 933.217 1018.77C933.295 1018.86 933.399 1018.91 933.528 1018.91C933.66 1018.92 933.768 1018.89 933.853 1018.81C933.937 1018.73 933.984 1018.62 933.992 1018.47L934.087 1016.72C934.121 1016.72 934.175 1016.71 934.25 1016.71C934.324 1016.7 934.395 1016.7 934.463 1016.7C934.533 1016.7 934.594 1016.71 934.646 1016.73C934.701 1016.74 934.746 1016.76 934.781 1016.79C934.817 1016.82 934.842 1016.86 934.858 1016.91C934.874 1016.96 934.879 1017.03 934.875 1017.11L934.797 1018.53Z" fill="white"/>
<path d="M936.794 1019.65C936.759 1019.66 936.707 1019.67 936.635 1019.67C936.564 1019.68 936.495 1019.68 936.427 1019.67C936.286 1019.67 936.181 1019.64 936.113 1019.59C936.045 1019.53 936.015 1019.43 936.023 1019.28L936.057 1018.65C935.987 1018.54 935.911 1018.41 935.829 1018.26C935.748 1018.12 935.668 1017.97 935.59 1017.82C935.511 1017.68 935.439 1017.53 935.373 1017.39C935.307 1017.24 935.254 1017.11 935.214 1016.99C935.257 1016.94 935.314 1016.89 935.384 1016.85C935.457 1016.81 935.545 1016.79 935.646 1016.79C935.766 1016.8 935.861 1016.83 935.932 1016.88C936.006 1016.94 936.074 1017.03 936.134 1017.17L936.474 1017.96L936.502 1017.96C936.55 1017.87 936.592 1017.79 936.627 1017.71C936.665 1017.63 936.701 1017.56 936.736 1017.48C936.771 1017.4 936.808 1017.32 936.847 1017.24C936.885 1017.16 936.929 1017.06 936.978 1016.95C937.035 1016.93 937.097 1016.91 937.166 1016.9C937.234 1016.89 937.299 1016.88 937.361 1016.89C937.468 1016.89 937.557 1016.93 937.628 1016.99C937.702 1017.05 937.735 1017.13 937.729 1017.25C937.727 1017.28 937.717 1017.33 937.699 1017.38C937.681 1017.43 937.641 1017.51 937.58 1017.61C937.519 1017.72 937.429 1017.85 937.312 1018.03C937.198 1018.21 937.042 1018.43 936.845 1018.72L936.794 1019.65Z" fill="white"/>
<path d="M941.432 1019.83C941.387 1019.87 941.322 1019.9 941.238 1019.91C941.157 1019.93 941.059 1019.94 940.945 1019.93C940.832 1019.93 940.725 1019.9 940.626 1019.87C940.526 1019.83 940.447 1019.74 940.39 1019.61L939.984 1018.65C939.944 1018.55 939.907 1018.46 939.875 1018.38C939.842 1018.29 939.808 1018.19 939.771 1018.08L939.743 1018.08C939.746 1018.25 939.743 1018.42 939.734 1018.59C939.727 1018.76 939.72 1018.93 939.711 1019.09L939.672 1019.81C939.637 1019.82 939.585 1019.82 939.513 1019.83C939.445 1019.83 939.378 1019.83 939.31 1019.83C939.242 1019.83 939.183 1019.82 939.131 1019.81C939.079 1019.8 939.037 1019.77 939.005 1019.74C938.973 1019.72 938.948 1019.68 938.933 1019.63C938.917 1019.58 938.911 1019.52 938.915 1019.44L939.041 1017.13C939.087 1017.08 939.156 1017.03 939.247 1017.01C939.338 1016.98 939.434 1016.97 939.535 1016.98C939.649 1016.98 939.755 1017.01 939.855 1017.05C939.957 1017.09 940.036 1017.17 940.09 1017.3L940.501 1018.26C940.541 1018.36 940.578 1018.45 940.61 1018.54C940.643 1018.62 940.677 1018.72 940.714 1018.83L940.737 1018.83C940.734 1018.66 940.736 1018.5 940.742 1018.33C940.748 1018.17 940.755 1018 940.764 1017.83L940.805 1017.09C940.839 1017.08 940.89 1017.07 940.959 1017.07C941.03 1017.06 941.099 1017.06 941.167 1017.07C941.302 1017.07 941.404 1017.1 941.471 1017.16C941.54 1017.21 941.57 1017.31 941.561 1017.46L941.432 1019.83Z" fill="white"/>
<path d="M941.963 1018.55C941.976 1018.31 942.024 1018.1 942.108 1017.92C942.195 1017.74 942.306 1017.59 942.442 1017.47C942.581 1017.35 942.74 1017.27 942.919 1017.21C943.1 1017.16 943.294 1017.14 943.5 1017.15C943.706 1017.16 943.895 1017.2 944.066 1017.27C944.241 1017.35 944.391 1017.45 944.516 1017.59C944.642 1017.72 944.736 1017.88 944.8 1018.06C944.867 1018.25 944.894 1018.47 944.881 1018.71C944.868 1018.95 944.819 1019.16 944.735 1019.34C944.651 1019.52 944.54 1019.67 944.401 1019.79C944.265 1019.91 944.106 1019.99 943.925 1020.05C943.743 1020.1 943.547 1020.12 943.338 1020.11C943.129 1020.1 942.938 1020.06 942.763 1019.98C942.588 1019.9 942.44 1019.8 942.318 1019.67C942.196 1019.53 942.103 1019.37 942.039 1019.18C941.975 1019 941.95 1018.78 941.963 1018.55ZM942.793 1018.59C942.777 1018.87 942.823 1019.08 942.929 1019.23C943.035 1019.37 943.183 1019.45 943.374 1019.46C943.568 1019.47 943.725 1019.41 943.846 1019.28C943.967 1019.15 944.036 1018.94 944.051 1018.66C944.066 1018.38 944.02 1018.17 943.914 1018.03C943.811 1017.89 943.663 1017.81 943.469 1017.8C943.279 1017.79 943.121 1017.85 942.997 1017.98C942.876 1018.11 942.808 1018.31 942.793 1018.59Z" fill="white"/>
<path d="M946.671 1018.09C946.706 1018.08 946.759 1018.06 946.831 1018.05C946.906 1018.03 946.98 1018.03 947.054 1018.03C947.183 1018.04 947.289 1018.06 947.373 1018.11C947.457 1018.15 947.507 1018.21 947.521 1018.28C947.548 1018.41 947.572 1018.53 947.594 1018.64C947.619 1018.75 947.642 1018.86 947.664 1018.96C947.687 1019.06 947.707 1019.16 947.727 1019.26C947.749 1019.36 947.769 1019.46 947.788 1019.57L947.811 1019.57C947.849 1019.39 947.883 1019.21 947.914 1019.04C947.945 1018.87 947.974 1018.71 948.001 1018.54C948.029 1018.38 948.056 1018.22 948.083 1018.06C948.111 1017.9 948.138 1017.73 948.166 1017.57C948.283 1017.51 948.406 1017.48 948.535 1017.49C948.649 1017.5 948.746 1017.53 948.826 1017.58C948.906 1017.63 948.943 1017.72 948.937 1017.84C948.933 1017.9 948.92 1018 948.898 1018.13C948.879 1018.25 948.853 1018.39 948.82 1018.54C948.79 1018.69 948.755 1018.85 948.715 1019.02C948.675 1019.18 948.634 1019.34 948.592 1019.5C948.55 1019.65 948.507 1019.79 948.463 1019.91C948.423 1020.03 948.385 1020.12 948.351 1020.19C948.302 1020.23 948.225 1020.26 948.119 1020.28C948.013 1020.31 947.905 1020.31 947.794 1020.31C947.65 1020.3 947.528 1020.27 947.428 1020.23C947.332 1020.19 947.275 1020.13 947.258 1020.06C947.224 1019.93 947.189 1019.78 947.153 1019.61C947.116 1019.44 947.077 1019.25 947.035 1019.05C946.982 1019.24 946.926 1019.44 946.87 1019.62C946.813 1019.81 946.763 1019.97 946.719 1020.1C946.671 1020.14 946.599 1020.17 946.506 1020.2C946.412 1020.22 946.31 1020.23 946.199 1020.22C946.061 1020.21 945.936 1020.19 945.824 1020.14C945.716 1020.1 945.647 1020.04 945.617 1019.97C945.592 1019.91 945.566 1019.83 945.538 1019.72C945.513 1019.61 945.488 1019.48 945.462 1019.34C945.435 1019.2 945.408 1019.04 945.38 1018.88C945.355 1018.71 945.332 1018.55 945.31 1018.38C945.292 1018.22 945.274 1018.06 945.258 1017.9C945.242 1017.75 945.231 1017.6 945.226 1017.47C945.271 1017.43 945.333 1017.4 945.412 1017.37C945.49 1017.34 945.574 1017.33 945.663 1017.33C945.78 1017.34 945.874 1017.37 945.945 1017.43C946.019 1017.48 946.062 1017.57 946.074 1017.69C946.106 1018.01 946.132 1018.27 946.151 1018.48C946.173 1018.69 946.19 1018.86 946.201 1019C946.215 1019.13 946.225 1019.24 946.23 1019.31C946.236 1019.39 946.242 1019.44 946.249 1019.49L946.272 1019.49C946.306 1019.37 946.338 1019.26 946.369 1019.15C946.399 1019.05 946.429 1018.95 946.459 1018.84C946.493 1018.74 946.527 1018.63 946.561 1018.51C946.595 1018.39 946.632 1018.25 946.671 1018.09Z" fill="white"/>
<path opacity="0.24" d="M862.661 934.013L979.531 999.818L978.087 1019.42L862.205 944.955L862.661 934.013Z" fill="white"/>
<path opacity="0.27" d="M860.229 966.231L976.263 1039.48L973.68 1076.19L856.886 1008.78L860.229 966.231Z" fill="white"/>
<path d="M863.496 1040.17L856.126 1125.73C855.822 1129.3 858.557 1132.42 862.205 1132.49L953.77 1134.01C957.038 1134.09 959.697 1131.58 960.001 1128.31L967.372 1044.96C967.676 1041.38 965.017 1038.34 961.445 1038.19L869.879 1034.39C866.536 1034.32 863.724 1036.82 863.496 1040.17Z" fill="#ECF1F7"/>
<path opacity="0.14" d="M863.497 1040.17L862.585 1050.81L966.233 1054.61L967.297 1045.03C967.601 1041.46 964.941 1038.42 961.37 1038.27L869.804 1034.47C866.536 1034.32 863.725 1036.82 863.497 1040.17Z" fill="#3E479B"/>
<path d="M945.487 1048.15C945.487 1048.15 945.411 1048.15 945.487 1048.15C944.499 1048.15 943.815 1047.39 943.815 1046.48C943.815 1045.56 944.575 1044.88 945.487 1044.88C946.399 1044.88 947.083 1045.64 947.083 1046.55C947.083 1047.46 946.399 1048.15 945.487 1048.15ZM945.487 1045.56C945.031 1045.56 944.651 1045.94 944.575 1046.4C944.575 1046.86 944.955 1047.31 945.411 1047.31C945.867 1047.31 946.247 1046.93 946.323 1046.48C946.399 1046.02 946.019 1045.64 945.487 1045.56Z" fill="white"/>
<path d="M952.25 1048.37C952.25 1048.37 952.174 1048.37 952.25 1048.37C951.262 1048.37 950.578 1047.61 950.578 1046.7C950.578 1045.79 951.414 1045.03 952.25 1045.11C953.162 1045.11 953.846 1045.87 953.846 1046.78C953.846 1047.69 953.086 1048.37 952.25 1048.37ZM952.25 1045.79C951.794 1045.79 951.414 1046.17 951.338 1046.63C951.338 1047.08 951.718 1047.54 952.174 1047.54C952.63 1047.54 953.086 1047.16 953.086 1046.7C953.162 1046.25 952.782 1045.87 952.25 1045.79Z" fill="white"/>
<path d="M959.014 1048.6C958.938 1048.6 958.938 1048.6 959.014 1048.6C958.482 1048.6 958.102 1048.37 957.798 1048.07C957.494 1047.77 957.342 1047.31 957.342 1046.86C957.342 1046.4 957.57 1046.02 957.874 1045.72C958.178 1045.41 958.634 1045.26 959.09 1045.26C959.545 1045.26 959.925 1045.49 960.229 1045.79C960.533 1046.1 960.685 1046.55 960.685 1047.01C960.685 1047.46 960.457 1047.84 960.153 1048.15C959.773 1048.45 959.393 1048.6 959.014 1048.6ZM959.014 1046.02C958.786 1046.02 958.558 1046.1 958.406 1046.25C958.254 1046.4 958.102 1046.63 958.102 1046.86C958.102 1047.08 958.178 1047.31 958.33 1047.46C958.482 1047.61 958.71 1047.77 958.938 1047.77C959.166 1047.77 959.393 1047.69 959.545 1047.54C959.697 1047.39 959.849 1047.16 959.849 1046.93C959.849 1046.7 959.773 1046.48 959.621 1046.32C959.469 1046.17 959.242 1046.1 959.014 1046.02Z" fill="white"/>
<g opacity="0.14">
<g opacity="0.14">
<path opacity="0.75" d="M904.454 1098.83L870.107 1097.46C869.271 1097.46 868.663 1096.78 868.663 1095.94L869.955 1062.74C869.955 1061.9 870.639 1061.29 871.475 1061.29L905.821 1062.66C906.657 1062.66 907.265 1063.34 907.265 1064.18L905.973 1097.39C905.973 1098.22 905.289 1098.83 904.454 1098.83Z" fill="#3E479B"/>
<path opacity="0.4" d="M903.466 1074.44L898.603 1069.12C897.919 1068.36 896.931 1067.9 895.943 1067.9L892.448 1067.75C892.144 1067.75 891.84 1067.98 891.84 1068.28C891.764 1069.88 890.472 1071.02 888.876 1071.02H888.344C886.748 1070.94 885.609 1069.65 885.609 1068.06C885.609 1067.75 885.381 1067.45 885.077 1067.45L881.733 1067.3C880.669 1067.22 879.606 1067.68 878.77 1068.36L873.603 1073.15L878.466 1078.47L880.821 1076.26L880.214 1090.93L896.019 1091.54L896.551 1077.4L898.147 1079.15L903.466 1074.44Z" fill="#ECF1F7"/>
</g>
</g>
<path opacity="0.14" d="M945.64 1073L913.877 1071.63C913.345 1071.63 912.889 1071.1 912.889 1070.56L912.965 1069.35C912.965 1068.82 913.497 1068.36 914.028 1068.36L945.792 1069.73C946.323 1069.73 946.779 1070.26 946.779 1070.79L946.703 1072.01C946.627 1072.62 946.171 1073.07 945.64 1073Z" fill="#3E479B"/>
<path opacity="0.14" d="M929.302 1078.16L913.724 1077.48C913.192 1077.48 912.736 1076.95 912.736 1076.41L912.812 1075.2C912.812 1074.67 913.344 1074.21 913.876 1074.21L929.454 1074.89C929.986 1074.89 930.442 1075.43 930.442 1075.96L930.366 1077.17C930.366 1077.78 929.91 1078.24 929.302 1078.16Z" fill="#3E479B"/>
<path opacity="0.14" d="M942.98 1116.38L868.967 1113.72C868.435 1113.72 867.979 1113.27 867.979 1112.66L868.055 1111.44C868.055 1110.91 868.511 1110.46 869.119 1110.46L943.132 1113.12C943.664 1113.12 944.12 1113.57 944.12 1114.18L944.044 1115.4C943.968 1115.93 943.512 1116.38 942.98 1116.38Z" fill="#3E479B"/>
<path opacity="0.14" d="M906.658 1120.94L869.12 1119.58C868.588 1119.58 868.132 1119.12 868.132 1118.51L868.208 1117.3C868.208 1116.76 868.664 1116.31 869.272 1116.31L906.81 1117.68C907.342 1117.68 907.798 1118.13 907.798 1118.74L907.722 1119.96C907.722 1120.49 907.266 1120.94 906.658 1120.94Z" fill="#3E479B"/>
<path d="M856.023 1021.08C855.949 1021.08 855.949 1021.08 855.874 1021.08C855.5 1021.01 855.2 1020.64 855.275 1020.19C857.146 1010.69 861.56 999.837 865.899 993.852C866.198 993.403 866.497 993.029 866.797 992.655C870.462 988.092 873.156 988.316 874.802 989.214C875.176 989.438 875.251 989.887 875.026 990.261C874.802 990.635 874.353 990.71 873.979 990.486C872.034 989.289 869.565 991.533 867.919 993.553C867.62 993.927 867.32 994.301 867.096 994.675C862.831 1000.59 858.567 1011.13 856.697 1020.49C856.697 1020.79 856.397 1021.08 856.023 1021.08Z" fill="#4C65BA"/>
<path d="M826.696 1021.31L786.595 1090.96C785.623 1092.68 786.146 1094.85 787.867 1095.9L827.967 1119.84C829.688 1120.89 831.858 1120.29 832.905 1118.64L875.325 1050.49C875.998 1049.36 876.073 1048.02 875.4 1046.82L862.008 1022.13C861.409 1021.01 860.212 1020.26 858.866 1020.26L829.913 1019.59C828.641 1019.44 827.369 1020.19 826.696 1021.31Z" fill="#599AF2"/>
<path opacity="0.35" d="M829.913 1114.23C829.314 1114.23 828.641 1114.08 828.117 1113.7L793.254 1092.91C791.608 1091.93 791.01 1089.76 791.982 1088.12L826.845 1027.59C827.519 1026.47 828.716 1025.8 829.988 1025.8L855.2 1026.4C856.472 1026.4 857.594 1027.14 858.193 1028.27L869.864 1049.74C870.462 1050.86 870.462 1052.21 869.789 1053.25L832.905 1112.51C832.307 1113.63 831.11 1114.23 829.913 1114.23ZM829.988 1026.62C829.015 1026.62 828.042 1027.14 827.594 1028.04L792.73 1088.57C791.982 1089.91 792.431 1091.56 793.703 1092.38L828.566 1113.18C829.838 1113.93 831.559 1113.55 832.382 1112.28L869.265 1053.03C869.789 1052.21 869.789 1051.09 869.34 1050.26L857.669 1028.79C857.22 1027.89 856.247 1027.37 855.275 1027.37L829.988 1026.62C830.062 1026.62 829.988 1026.62 829.988 1026.62Z" fill="#ECF1F7"/>
<path d="M833.28 1060.74C831.858 1063.06 830.138 1064.48 827.893 1064.93C825.724 1065.37 823.554 1064.93 821.31 1063.65C819.065 1062.31 817.644 1060.59 817.045 1058.49C816.447 1056.4 816.821 1054.15 818.242 1051.83C819.589 1049.51 821.384 1048.17 823.554 1047.72C825.724 1047.27 827.893 1047.72 830.138 1048.99C832.307 1050.34 833.729 1052.06 834.327 1054.15C835.075 1056.25 834.701 1058.49 833.28 1060.74ZM824.003 1055.12C823.479 1056.02 823.18 1056.85 823.329 1057.52C823.404 1058.19 823.704 1058.64 824.227 1059.02C824.751 1059.31 825.349 1059.39 825.948 1059.16C826.546 1058.94 827.145 1058.34 827.744 1057.44C828.267 1056.55 828.492 1055.8 828.417 1055.12C828.342 1054.45 828.043 1054 827.519 1053.7C826.995 1053.4 826.397 1053.33 825.798 1053.55C825.125 1053.7 824.527 1054.23 824.003 1055.12ZM846.372 1058.57C847.345 1059.39 848.093 1060.21 848.691 1061.11C849.29 1062.01 849.365 1062.83 848.991 1063.58C848.691 1064.1 848.243 1064.48 847.719 1064.85C847.12 1065.22 846.522 1065.6 845.774 1065.9L815.773 1079.51C814.875 1078.77 814.202 1078.02 813.828 1077.2C813.379 1076.37 813.379 1075.62 813.753 1074.88C814.053 1074.35 814.352 1073.9 814.726 1073.45C815.1 1073.01 815.624 1072.63 816.447 1072.26L846.372 1058.57ZM844.203 1086.7C842.781 1089.02 841.06 1090.44 838.816 1090.89C836.646 1091.33 834.477 1090.89 832.232 1089.61C829.988 1088.27 828.566 1086.55 827.968 1084.45C827.369 1082.36 827.744 1080.11 829.165 1077.79C830.512 1075.47 832.307 1074.13 834.477 1073.68C836.646 1073.23 838.816 1073.68 841.06 1074.95C843.23 1076.3 844.652 1078.02 845.25 1080.11C845.923 1082.21 845.549 1084.38 844.203 1086.7ZM834.851 1081.09C834.327 1081.98 834.028 1082.81 834.178 1083.48C834.252 1084.15 834.552 1084.6 835.075 1084.98C835.599 1085.28 836.198 1085.35 836.796 1085.13C837.395 1084.9 837.993 1084.3 838.592 1083.4C839.115 1082.51 839.34 1081.76 839.265 1081.09C839.19 1080.41 838.891 1079.96 838.367 1079.66C837.843 1079.36 837.245 1079.29 836.646 1079.51C835.973 1079.66 835.375 1080.19 834.851 1081.09Z" fill="#ECF1F7"/>
<path d="M854.602 1033.65C856.172 1033.65 857.445 1032.38 857.445 1030.81C857.445 1029.24 856.172 1027.97 854.602 1027.97C853.032 1027.97 851.759 1029.24 851.759 1030.81C851.759 1032.38 853.032 1033.65 854.602 1033.65Z" fill="#3E479B"/>
<path d="M854.602 1031.63C854.377 1031.63 854.153 1031.56 854.003 1031.41C853.704 1031.11 853.779 1030.66 854.078 1030.36C859.24 1025.8 878.392 1006.57 877.42 995.797C877.195 993.478 876.073 991.758 874.053 990.56C872.108 989.363 869.639 991.608 867.993 993.628C867.694 994.002 867.395 994.376 867.17 994.75C866.946 995.049 866.497 995.124 866.123 994.9C865.824 994.675 865.749 994.226 865.973 993.852C866.273 993.403 866.572 993.029 866.871 992.655C870.537 988.092 873.23 988.316 874.876 989.214C877.345 990.71 878.692 992.88 878.991 995.648C880.188 1008.82 855.35 1031.26 855.125 1031.48C854.901 1031.56 854.751 1031.63 854.602 1031.63Z" fill="#4C65BA"/>
<g filter="url(#filter1_d)">
<path d="M734.507 90.0248C734.507 90.0248 754.315 50.9141 790.075 45.6526C825.835 40.3911 830.919 75.9941 867.205 70.2064C903.491 64.4187 964.143 39.1634 1007.97 73.7141C1051.79 108.265 1044.78 220.511 968.876 274.178C892.974 327.846 740.993 325.04 718.204 272.425C695.416 219.809 715.224 122.12 734.507 90.0248Z" fill="white"/>
</g>
<path d="M863.811 241.043C920.78 241.043 966.963 232.246 966.963 221.395C966.963 210.543 920.78 201.747 863.811 201.747C806.841 201.747 760.658 210.543 760.658 221.395C760.658 232.246 806.841 241.043 863.811 241.043Z" fill="#E5E5F9"/>
<path d="M894.265 206.097L901.002 209.044L902.826 209.746L899.317 219.43L889.634 218.026L894.265 206.097Z" fill="#34006F"/>
<path d="M911.247 208.904L901.002 209.044L897.493 219.289C897.493 219.289 910.264 235.429 913.492 240.902C916.72 246.375 923.457 239.499 923.878 232.762C924.299 226.026 916.018 218.166 916.159 215.64C916.299 213.114 914.054 209.465 911.247 208.904Z" fill="#34006F"/>
<path d="M814.129 159.363C814.129 159.363 815.813 179.993 843.18 191.221C870.547 202.448 902.545 193.747 908.019 168.766C908.019 168.766 829.567 156.416 814.129 159.363Z" fill="#34006F"/>
<path d="M866.057 56.772C866.057 56.772 849.917 58.4561 835.462 64.9119C821.006 71.508 800.797 107.997 800.797 107.997L818.34 119.926L810.621 158.1C810.621 158.1 841.496 172.836 869.565 174.239C897.634 175.643 909.563 168.345 909.563 168.345L912.089 127.645C912.089 127.645 922.334 126.242 930.755 120.909C930.755 120.909 918.124 85.402 903.809 72.4904C892.581 62.105 866.057 56.772 866.057 56.772Z" fill="#4E0829"/>
<path d="M896.371 70.9465C892.301 74.7357 884.02 78.946 872.512 75.1568C861.004 71.3675 860.162 59.8594 860.162 59.8594C860.162 59.8594 862.688 59.4384 866.057 56.7718C866.618 56.3508 867.179 55.6491 867.741 55.0877C869.846 52.7019 871.39 49.474 871.951 48.3512C872.091 48.0705 872.091 47.9302 872.091 47.9302L879.67 49.895L891.038 52.7018H891.178V52.9825C891.038 55.6491 891.459 58.1752 892.02 60.4207C893.564 66.5958 896.371 70.9465 896.371 70.9465Z" fill="#EEAF84"/>
<path d="M892.16 60.5609C889.634 62.245 884.16 65.1922 878.126 63.9292C872.231 62.6661 869.003 57.7541 867.74 55.0875C869.845 52.7017 871.389 49.4738 871.951 48.3511L879.81 49.8948L891.178 52.7017L891.318 52.9824C891.318 55.6489 891.599 58.1751 892.16 60.5609Z" fill="#4E0829"/>
<path d="M871.67 26.7382L870.968 29.5451C870.968 29.5451 867.319 29.4047 866.618 34.8781C865.916 40.3515 870.267 41.3339 870.267 41.3339C870.267 41.3339 869.144 56.2103 879.389 59.2979C889.634 62.3854 898.055 47.088 898.055 47.088C898.055 47.088 899.177 48.0704 901.984 45.9652C904.791 43.8601 904.37 38.9481 902.686 38.106L902.967 34.4571C903.107 34.5974 888.371 26.3172 871.67 26.7382Z" fill="#EEAF84"/>
<path d="M870.969 29.5451C870.969 29.5451 873.916 27.4399 882.477 28.8434C891.038 30.1065 900.721 35.8606 902.826 38.2464C902.826 38.2464 903.949 38.6674 904.932 37.4043C905.914 36.1412 904.791 34.0361 905.633 32.6327C906.475 31.2292 904.932 29.6854 904.932 29.6854C904.932 29.6854 906.195 24.0717 904.791 20.9842C903.388 17.7563 899.037 13.2653 899.599 10.1777C900.16 7.09017 896.511 7.09016 895.669 8.49359C895.669 8.49359 895.248 6.66914 893.283 5.96743C891.318 5.26571 889.494 7.37086 889.494 7.37086C889.494 7.37086 888.09 5.26569 885.424 7.09016C882.757 8.77428 881.635 13.2653 878.126 14.388C874.617 15.5108 871.67 21.1245 871.67 22.949C871.67 22.949 869.144 23.37 868.723 24.6331C868.442 26.0365 869.004 27.0189 868.863 27.7206C868.723 28.4224 868.302 29.6855 868.583 30.5275C868.583 30.6679 869.986 29.5451 870.969 29.5451Z" fill="#4A4AFF"/>
<path d="M803.603 109.821C803.603 109.821 793.077 134.802 794.06 148.416C795.042 162.029 836.444 161.327 836.444 161.327L833.637 142.1L814.41 139.574L818.339 119.926L803.603 109.821Z" fill="#EEAF84"/>
<path d="M927.386 122.733C927.386 122.733 930.895 148.696 928.509 159.924C926.123 171.151 892.44 169.327 892.44 169.327V149.96L911.106 143.784L911.808 127.785C911.948 127.645 921.772 124.557 927.386 122.733Z" fill="#EEAF84"/>
<path d="M814.13 159.363C804.306 157.679 783.956 156.275 776.237 171.292C768.518 186.309 784.377 201.887 814.13 206.097C843.882 210.307 885.705 211.29 885.705 211.29L891.739 195.852L869.425 185.186C869.425 185.326 829.427 162.029 814.13 159.363Z" fill="#8989FF"/>
<path d="M908.16 168.204C917.984 166.52 938.333 165.117 946.052 180.134C953.771 195.15 937.912 210.728 908.16 214.939C878.407 219.149 836.585 220.131 836.585 220.131L830.55 204.694L852.864 194.028C852.864 194.028 893.003 170.871 908.16 168.204Z" fill="#8989FF"/>
<path d="M831.953 208.202L869.565 185.186C869.425 185.326 840.935 187.01 831.953 208.202Z" fill="#34006F"/>
<path d="M831.953 208.202L825.216 211.149L823.392 211.991L826.9 221.535L836.584 220.131L831.953 208.202Z" fill="#34006F"/>
<path d="M814.972 211.009L825.217 211.149L828.725 221.394C828.725 221.394 815.954 237.534 812.726 243.007C809.498 248.48 802.762 241.604 802.341 234.867C801.92 228.131 810.2 220.271 810.06 217.745C809.919 215.219 812.165 211.57 814.972 211.009Z" fill="#34006F"/>
<path d="M900.441 135.926L898.897 171.713L898.757 176.204L831.953 173.678L827.743 134.943C827.462 132.136 829.006 129.61 831.392 128.628C832.093 128.347 833.076 128.066 833.918 128.066L894.406 129.329C897.914 129.61 900.581 132.417 900.441 135.926Z" fill="#6657AE"/>
<path d="M870.968 29.5449C870.968 29.5449 870.407 34.0359 871.53 35.72C871.53 35.72 874.196 30.6677 875.88 29.8256C877.564 28.8432 878.547 33.4745 883.178 34.7376C887.809 36.0007 885.985 31.9308 885.985 31.9308C885.985 31.9308 889.073 36.7024 892.3 37.9655C895.528 39.0883 896.37 36.9831 896.37 36.9831C896.37 36.9831 898.055 37.9655 897.914 40.4917C897.774 43.0179 897.914 44.9827 897.914 44.9827L902.967 38.1059C902.967 38.1059 899.458 30.387 890.195 27.4398C882.617 25.0539 875.319 25.7556 872.372 27.4398C869.424 29.1239 869.144 30.387 869.144 30.387C869.144 30.387 869.003 30.2466 870.968 29.5449Z" fill="#4E0829"/>
<path d="M818.901 119.646C818.901 119.646 831.813 87.507 833.216 87.086C834.62 86.6649 819.322 140.276 819.322 140.276L814.41 139.574L818.901 119.646Z" fill="#37000C"/>
<path d="M905.633 145.188C905.633 145.188 903.668 113.19 901.142 103.366C898.616 93.4014 911.948 127.505 911.948 127.505L911.246 143.504L905.633 145.188Z" fill="#37000C"/>
<path d="M898.897 171.713L898.757 176.204L831.953 173.678L827.743 134.943C827.462 132.136 829.006 129.61 831.392 128.627C837.286 137.329 851.742 150.942 867.46 157.257C880.512 162.591 891.318 170.309 898.897 171.713Z" fill="#5544A8"/>
<path d="M865.635 160.345C869.588 160.345 872.793 157.078 872.793 153.047C872.793 149.017 869.588 145.75 865.635 145.75C861.682 145.75 858.478 149.017 858.478 153.047C858.478 157.078 861.682 160.345 865.635 160.345Z" fill="#34006F"/>
<path d="M889.634 39.6496C889.634 39.6496 890.897 39.79 892.3 40.6321C893.704 41.4741 894.546 42.5969 894.546 42.5969C894.546 42.5969 894.546 40.6321 893.142 39.79C892.16 39.2286 890.616 38.3866 889.634 39.6496Z" fill="#4E0829"/>
<path d="M889.516 45.2647C889.865 45.432 890.447 44.9442 890.815 44.1751C891.183 43.4061 891.198 42.647 890.849 42.4797C890.499 42.3124 889.917 42.8002 889.549 43.5693C889.181 44.3383 889.166 45.0974 889.516 45.2647Z" fill="#4E0829"/>
<path d="M885.845 41.6147C885.845 41.6147 884.161 48.9126 883.459 49.1933C882.757 49.474 880.652 48.2109 880.652 48.2109" stroke="#4E0829" stroke-width="0.5" stroke-miterlimit="10" stroke-linecap="round"/>
<path d="M878.687 50.4561C878.687 50.4561 879.95 52.2805 882.055 52.7015" stroke="#4E0829" stroke-width="0.5" stroke-miterlimit="10" stroke-linecap="round"/>
<path d="M882.476 37.2639C882.476 37.2639 881.494 36.2815 879.95 35.8605C878.406 35.4395 877.003 35.5798 877.003 35.5798C877.003 35.5798 878.547 34.3167 880.09 34.7378C881.213 35.0185 882.757 35.7202 882.476 37.2639Z" fill="#4E0829"/>
<path d="M879.732 38.1814C879.376 38.0289 878.815 38.5406 878.479 39.3244C878.144 40.1082 878.161 40.8673 878.517 41.0198C878.873 41.1723 879.434 40.6605 879.77 39.8767C880.105 39.0929 880.088 38.3339 879.732 38.1814Z" fill="#4E0829"/>
<g filter="url(#filter2_d)">
<path d="M47.0235 508.607C47.0235 508.607 64.7542 473.598 96.7638 468.888C128.773 464.179 133.324 496.047 165.804 490.867C198.284 485.686 252.575 463.08 291.802 494.007C331.03 524.933 324.753 625.407 256.811 673.445C188.87 721.484 52.8291 718.972 32.4309 671.875C12.0326 624.779 29.7634 537.336 47.0235 508.607Z" fill="white"/>
<path d="M228.183 579.639L251.069 672.609L192.891 690.647L186.26 626.338L151.111 596.821L177.42 552.261L228.183 579.639Z" fill="#E5A27B"/>
<path d="M205.725 505.918L177.42 552.261C177.42 552.261 214.423 602.026 214.922 600.6C215.492 599.103 228.183 579.71 228.183 579.71L205.725 505.918Z" fill="#E5A27B"/>
<path d="M195.885 565.094C195.885 565.094 194.388 580.352 205.51 594.967C205.51 594.967 197.596 590.333 191.75 575.147L195.885 565.094Z" fill="#1C1C1C"/>
<path d="M148.901 483.674L124.946 468.844C121.666 466.777 117.388 467.846 115.321 471.054C113.681 473.692 113.966 477.186 116.105 479.467L136.496 498.076L148.901 483.674Z" fill="#E5A27B"/>
<path d="M146.763 510.838L121.096 500.286C117.531 498.789 113.467 500.5 111.97 503.993C110.758 506.916 111.613 510.267 114.109 512.192L138.92 528.163L146.763 510.838Z" fill="#E5A27B"/>
<path d="M178.704 611.009L118.816 599.673C114.11 598.746 110.973 594.255 111.9 589.478L135.142 459.077C136.069 454.371 140.561 451.234 145.338 452.161L205.227 463.497C209.932 464.424 213.069 468.916 212.142 473.692L188.9 604.094C188.044 608.799 183.481 611.865 178.704 611.009Z" fill="#1C1C1C"/>
<path d="M178.276 607.516L120.526 596.608C116.748 595.895 114.323 592.258 115.036 588.48L137.851 460.503C138.564 456.724 142.2 454.3 145.979 455.013L203.729 465.921C207.508 466.634 209.932 470.27 209.219 474.049L186.404 602.026C185.691 605.733 182.055 608.229 178.276 607.516Z" fill="white"/>
<path d="M184.48 466.705L163.447 462.713C160.168 462.071 157.958 458.934 158.599 455.583L191.538 461.857C190.968 465.208 187.759 467.347 184.48 466.705Z" fill="#1C1C1C"/>
<path d="M242.871 484.102L186.19 474.334C185.477 474.192 185.05 473.55 185.121 472.837L187.973 456.296C188.115 455.583 188.757 455.156 189.47 455.227L246.151 464.995C246.864 465.137 247.291 465.779 247.22 466.492L244.368 483.033C244.226 483.746 243.584 484.173 242.871 484.102Z" fill="#639FFB"/>
<path d="M195.531 470.983C198.248 470.983 200.45 468.781 200.45 466.064C200.45 463.347 198.248 461.145 195.531 461.145C192.814 461.145 190.611 463.347 190.611 466.064C190.611 468.781 192.814 470.983 195.531 470.983Z" fill="white"/>
<path d="M205.369 465.993L234.244 470.983" stroke="white" stroke-width="1.0216" stroke-miterlimit="10" stroke-linecap="round" stroke-linejoin="round"/>
<path d="M204.656 470.057L222.908 473.194" stroke="white" stroke-width="1.0216" stroke-miterlimit="10" stroke-linecap="round" stroke-linejoin="round"/>
<path d="M206.595 487.758L134.997 475.421L123.666 541.187L195.263 553.523L206.595 487.758Z" fill="#E7ECF2"/>
<path d="M136.283 533.297L156.817 536.862" stroke="white" stroke-width="1.0216" stroke-miterlimit="10" stroke-linecap="round" stroke-linejoin="round"/>
<path d="M135.57 537.289L184.979 545.845" stroke="white" stroke-width="1.0216" stroke-miterlimit="10" stroke-linecap="round" stroke-linejoin="round"/>
<path d="M145.338 487.667L194.746 496.223" stroke="white" stroke-width="1.0216" stroke-miterlimit="10" stroke-linecap="round" stroke-linejoin="round"/>
<path d="M183.838 535.934L139.919 528.377C138.422 528.092 137.353 526.666 137.638 525.168L142.557 496.793C142.843 495.295 144.269 494.226 145.766 494.511L189.684 502.068C191.182 502.354 192.251 503.78 191.966 505.277L187.046 533.653C186.832 535.221 185.335 536.219 183.838 535.934Z" fill="#639FFB"/>
<path d="M155.391 524.883L171.789 509.839L182.982 529.66L155.391 524.883Z" fill="#8CC0FC"/>
<path d="M144.269 523.029L154.607 514.474L160.738 525.81L144.269 523.029Z" fill="#4575BA"/>
<path d="M155.819 510.98C157.945 510.98 159.669 509.257 159.669 507.13C159.669 505.004 157.945 503.28 155.819 503.28C153.692 503.28 151.969 505.004 151.969 507.13C151.969 509.257 153.692 510.98 155.819 510.98Z" fill="#EEC733"/>
<path d="M194.267 559.28L122.67 546.944L117.755 575.471L189.352 587.807L194.267 559.28Z" fill="#E7ECF2"/>
<path d="M177.992 579.354L130.793 571.226C130.223 571.155 129.795 570.584 129.938 570.014L132.291 556.254C132.362 555.683 132.932 555.256 133.503 555.398L180.701 563.526C181.271 563.597 181.699 564.168 181.556 564.738L179.204 578.498C179.132 579.069 178.562 579.425 177.992 579.354Z" fill="#639FFB"/>
<path d="M138.565 568.446C140.809 568.446 142.629 566.626 142.629 564.382C142.629 562.137 140.809 560.318 138.565 560.318C136.32 560.318 134.501 562.137 134.501 564.382C134.501 566.626 136.32 568.446 138.565 568.446Z" fill="white"/>
<path d="M146.692 564.31L170.719 568.445" stroke="white" stroke-width="0.8504" stroke-miterlimit="10" stroke-linecap="round" stroke-linejoin="round"/>
<path d="M146.122 567.661L161.379 570.299" stroke="white" stroke-width="0.8504" stroke-miterlimit="10" stroke-linecap="round" stroke-linejoin="round"/>
<path d="M228.184 579.639C228.184 579.639 229.895 539.713 226.544 526.88L207.365 495.295C205.44 490.376 202.089 488.237 197.455 490.804C194.318 492.586 194.532 498.931 195.174 502.496C196.528 510.838 199.879 517.896 202.089 524.384L228.184 579.639Z" fill="#E5A27B"/>
<path d="M122.094 532.583L128.511 536.861C131.006 538.857 131.791 542.351 130.365 545.274C128.654 548.768 124.376 550.122 120.954 548.34L111.543 543.563C107.479 541.495 105.768 536.647 107.55 532.441L107.764 532.013C109.689 527.735 114.68 525.739 119.029 527.592L122.665 529.161L122.094 532.583Z" fill="#E5A27B"/>
<path d="M117.888 556.111L124.376 559.462C126.8 560.959 127.869 563.954 126.871 566.663C125.73 569.942 122.094 571.582 118.886 570.299L110.117 567.019C106.338 565.593 104.27 561.458 105.482 557.608L105.625 557.18C106.837 553.188 111.115 550.978 115.107 552.19L118.387 553.188L117.888 556.111Z" fill="#E5A27B"/>
<path d="M184.906 659.847V700.105C184.906 700.105 210.476 696.337 227.435 688.799C239.997 683.774 260.725 668.699 260.725 668.699L244.51 623.201L184.906 659.847Z" fill="#F3CA61"/>
<path d="M185.7 689.614L254.858 656.461" stroke="#DA9C2A" stroke-width="3.1668" stroke-miterlimit="10" stroke-linecap="round" stroke-linejoin="round"/>
</g>
<path opacity="0.3" d="M210 694C210 918.959 688 660.5 922 860" stroke="#A0ACAF" stroke-width="3" stroke-dasharray="12 12"/>
<circle cx="750.5" cy="59.5" r="22.5" fill="#3561D1"/>
<path d="M749.744 69V54.596L746.754 55.298V52.75L751.148 50.8H753.202V69H749.744Z" fill="white"/>
<circle cx="299.5" cy="508.5" r="22.5" fill="#3561D1"/>
<path d="M294.326 518V515.582C295.435 514.663 296.51 513.753 297.55 512.852C298.607 511.951 299.543 511.058 300.358 510.174C301.19 509.29 301.849 508.432 302.334 507.6C302.837 506.751 303.088 505.927 303.088 505.13C303.088 504.385 302.88 503.726 302.464 503.154C302.065 502.582 301.398 502.296 300.462 502.296C299.509 502.296 298.789 502.608 298.304 503.232C297.819 503.856 297.576 504.61 297.576 505.494H294.352C294.387 504.159 294.681 503.05 295.236 502.166C295.791 501.265 296.527 500.597 297.446 500.164C298.365 499.713 299.396 499.488 300.54 499.488C302.395 499.488 303.833 499.999 304.856 501.022C305.896 502.027 306.416 503.336 306.416 504.948C306.416 505.953 306.182 506.933 305.714 507.886C305.263 508.839 304.665 509.758 303.92 510.642C303.175 511.526 302.369 512.358 301.502 513.138C300.635 513.901 299.795 514.611 298.98 515.27H306.858V518H294.326Z" fill="white"/>
<circle cx="769.5" cy="906.5" r="22.5" fill="#3561D1"/>
<path d="M769.722 916.312C768.526 916.312 767.443 916.104 766.472 915.688C765.501 915.255 764.721 914.596 764.132 913.712C763.543 912.828 763.231 911.719 763.196 910.384H766.472C766.489 911.268 766.775 912.013 767.33 912.62C767.902 913.209 768.699 913.504 769.722 913.504C770.693 913.504 771.438 913.235 771.958 912.698C772.478 912.161 772.738 911.485 772.738 910.67C772.738 909.717 772.391 908.997 771.698 908.512C771.022 908.009 770.147 907.758 769.072 907.758H767.72V905.028H769.098C769.982 905.028 770.719 904.82 771.308 904.404C771.897 903.988 772.192 903.373 772.192 902.558C772.192 901.882 771.967 901.345 771.516 900.946C771.083 900.53 770.476 900.322 769.696 900.322C768.847 900.322 768.179 900.573 767.694 901.076C767.226 901.579 766.966 902.194 766.914 902.922H763.664C763.733 901.241 764.314 899.915 765.406 898.944C766.515 897.973 767.945 897.488 769.696 897.488C770.944 897.488 771.993 897.713 772.842 898.164C773.709 898.597 774.359 899.178 774.792 899.906C775.243 900.634 775.468 901.44 775.468 902.324C775.468 903.347 775.182 904.213 774.61 904.924C774.055 905.617 773.362 906.085 772.53 906.328C773.553 906.536 774.385 907.039 775.026 907.836C775.667 908.616 775.988 909.604 775.988 910.8C775.988 911.805 775.745 912.724 775.26 913.556C774.775 914.388 774.064 915.055 773.128 915.558C772.209 916.061 771.074 916.312 769.722 916.312Z" fill="white"/>
<path opacity="0.3" d="M836 1152C842.5 1191.83 811.361 1304.16 702.561 1284.96C566.561 1260.96 323.561 1166.96 223.561 1235.96C143.561 1291.16 92.5 1375.17 79 1375" stroke="#A0ACAF" stroke-width="3" stroke-dasharray="12 12"/>
<defs>
<filter id="filter0_d" x="698" y="865" width="360.832" height="303" filterUnits="userSpaceOnUse" color-interpolation-filters="sRGB">
<feFlood flood-opacity="0" result="BackgroundImageFix"/>
<feColorMatrix in="SourceAlpha" type="matrix" values="0 0 0 0 0 0 0 0 0 0 0 0 0 0 0 0 0 0 127 0"/>
<feOffset/>
<feGaussianBlur stdDeviation="10"/>
<feColorMatrix type="matrix" values="0 0 0 0 0 0 0 0 0 0 0 0 0 0 0 0 0 0 0.1 0"/>
<feBlend mode="normal" in2="BackgroundImageFix" result="effect1_dropShadow"/>
<feBlend mode="normal" in="SourceGraphic" in2="effect1_dropShadow" result="shape"/>
</filter>
<filter id="filter1_d" x="688" y="25.1201" width="367" height="308.056" filterUnits="userSpaceOnUse" color-interpolation-filters="sRGB">
<feFlood flood-opacity="0" result="BackgroundImageFix"/>
<feColorMatrix in="SourceAlpha" type="matrix" values="0 0 0 0 0 0 0 0 0 0 0 0 0 0 0 0 0 0 127 0"/>
<feOffset/>
<feGaussianBlur stdDeviation="10"/>
<feColorMatrix type="matrix" values="0 0 0 0 0 0 0 0 0 0 0 0 0 0 0 0 0 0 0.1 0"/>
<feBlend mode="normal" in2="BackgroundImageFix" result="effect1_dropShadow"/>
<feBlend mode="normal" in="SourceGraphic" in2="effect1_dropShadow" result="shape"/>
</filter>
<filter id="filter2_d" x="3.29688" y="431.999" width="332.703" height="296.354" filterUnits="userSpaceOnUse" color-interpolation-filters="sRGB">
<feFlood flood-opacity="0" result="BackgroundImageFix"/>
<feColorMatrix in="SourceAlpha" type="matrix" values="0 0 0 0 0 0 0 0 0 0 0 0 0 0 0 0 0 0 127 0"/>
<feOffset/>
<feGaussianBlur stdDeviation="10"/>
<feColorMatrix type="matrix" values="0 0 0 0 0 0 0 0 0 0 0 0 0 0 0 0 0 0 0.1 0"/>
<feBlend mode="normal" in2="BackgroundImageFix" result="effect1_dropShadow"/>
<feBlend mode="normal" in="SourceGraphic" in2="effect1_dropShadow" result="shape"/>
</filter>
</defs>
</svg>
