<svg width="10" height="20" viewBox="0 0 10 20" fill="none" xmlns="http://www.w3.org/2000/svg">
<path d="M7.42188 5.50781C7.85156 4.92188 8.125 4.21875 8.125 3.4375C8.125 1.5625 6.5625 0 4.6875 0C2.77344 0 1.25 1.5625 1.25 3.4375C1.25 4.21875 1.48438 4.92188 1.91406 5.50781C0.78125 5.89844 0 6.95312 0 8.20312V12.3047C0 13.2812 0.664062 14.1016 1.5625 14.3359V17.9297C1.5625 19.1016 2.46094 20 3.63281 20H5.74219C6.875 20 7.8125 19.1016 7.8125 17.9297V14.3359C8.67188 14.1016 9.375 13.2812 9.375 12.3047V8.20312C9.375 6.95312 8.55469 5.89844 7.42188 5.50781ZM4.6875 1.25C5.85938 1.25 6.875 2.26562 6.875 3.4375C6.875 4.64844 5.85938 5.625 4.6875 5.625C3.47656 5.625 2.5 4.64844 2.5 3.4375C2.5 2.26562 3.47656 1.25 4.6875 1.25ZM8.125 12.3047C8.125 12.7734 7.73438 13.125 7.30469 13.125H6.5625V17.9297C6.5625 18.3984 6.17188 18.75 5.74219 18.75H3.63281C3.16406 18.75 2.8125 18.3984 2.8125 17.9297V13.125H2.07031C1.60156 13.125 1.25 12.7734 1.25 12.3047V8.20312C1.25 7.30469 1.95312 6.5625 2.89062 6.5625H3.24219C4.14062 6.99219 5.15625 6.99219 6.09375 6.5625H6.48438C7.38281 6.5625 8.125 7.30469 8.125 8.20312V12.3047Z" fill="#EB5433"/>
</svg>
