<svg width="205" height="394" viewBox="0 0 205 394" fill="none" xmlns="http://www.w3.org/2000/svg">
<path d="M120.135 394C162.091 394 196.103 385.065 196.103 374.042C196.103 363.02 162.091 354.085 120.135 354.085C78.1798 354.085 44.1681 363.02 44.1681 374.042C44.1681 385.065 78.1798 394 120.135 394Z" fill="#EAEDEF"/>
<path d="M135.341 351.574L119.441 220.757L111.92 255.127L117.711 351.574H74.0393L67.8906 245.6C67.4682 238.335 68.159 231.047 69.939 223.99L93.0551 132.337L166.507 131.75L166.769 239.926L177.942 351.574H135.341Z" fill="#365599"/>
<path d="M119.223 223.6L114.292 171.952" stroke="white" stroke-miterlimit="10" stroke-linecap="square"/>
<path d="M35.4565 35.3856L36.2479 30.9139C36.4804 28.7329 36.5999 26.5412 36.606 24.3478C36.606 20.9216 34.7474 16.6468 37.9131 10.9651C41.0788 5.28332 34.6901 8.71673 33.0714 11.3983C31.7035 13.6359 31.6892 18.6768 30.1385 20.3488C29.4941 19.8848 28.9189 19.3314 28.4303 18.7055L17.687 0.700682C17.5208 0.409503 17.2549 0.188232 16.9383 0.0776888C16.6217 -0.0328542 16.2759 -0.0252078 15.9645 0.0992128L15.2483 0.389207C15.0677 0.461656 14.9042 0.571126 14.7685 0.71057C14.6328 0.850014 14.5279 1.01634 14.4604 1.19881C14.3929 1.38129 14.3644 1.57588 14.3768 1.77004C14.3891 1.9642 14.442 2.15362 14.532 2.32609C16.5769 6.2643 22.9871 17.8677 22.7686 17.95L22.3854 18.3081L9.34656 0.786609C9.152 0.50886 8.86281 0.311608 8.53315 0.231853C8.2035 0.152098 7.85605 0.195317 7.556 0.353403L6.58553 0.87253C6.4186 0.960419 6.27145 1.08154 6.1531 1.22844C6.03476 1.37534 5.94774 1.5449 5.89742 1.72669C5.84709 1.90847 5.83451 2.09863 5.86048 2.28545C5.88644 2.47228 5.95038 2.65181 6.04836 2.813C8.55514 7.00182 18.2242 20.4991 18.0093 20.5922L17.5151 20.9717L5.09578 7.04478C4.89069 6.75267 4.58105 6.55067 4.23101 6.48068C3.88097 6.41069 3.51738 6.47807 3.21569 6.66886L2.47083 7.14502C2.31612 7.24332 2.18233 7.37118 2.07714 7.52127C1.97195 7.67135 1.89741 7.84072 1.85782 8.01966C1.81823 8.1986 1.81439 8.38359 1.84645 8.56403C1.87852 8.74447 1.94589 8.91681 2.0447 9.07117L13.6618 22.9659L13.2142 23.5172L2.78597 14.1622C2.56003 13.9068 2.24822 13.7431 1.90962 13.7022C1.57103 13.6613 1.22916 13.746 0.94886 13.9402L0.590748 14.1873C0.294109 14.3968 0.0907974 14.7137 0.023941 15.0706C-0.0429153 15.4275 0.0319443 15.7964 0.232635 16.0991C1.66508 18.2723 6.44586 22.1854 10.027 26.7573C12.8059 30.2981 13.9984 33.4845 17.9842 37.5623C19.6673 39.2915 22.3747 41.1067 23.8572 42.1306" fill="#EEAF84"/>
<path d="M115.265 351.574L123.523 368.029H49.269L80.1991 351.574H115.265Z" fill="#162C56"/>
<path d="M175.425 351.574L183.68 368.029H109.429L140.359 351.574H175.425Z" fill="#162C56"/>
<path d="M58.3975 72.7017C58.3975 72.7017 86.6883 62.4301 123.04 63.2285C165.892 64.1701 186.279 94.795 195.021 114.69C195.825 116.515 196.164 118.512 196.005 120.5C195.847 122.488 195.198 124.406 194.115 126.081C193.032 127.756 191.549 129.136 189.801 130.097C188.053 131.057 186.093 131.569 184.098 131.585L145.064 131.897L93.0556 132.337L83.9488 101.637L47.3247 103.803C42.3028 104.1 37.3392 102.599 33.3251 99.5671C29.311 96.5356 26.5091 92.173 25.4225 87.2623L15.1626 40.8666L40.3271 34.1931L58.3975 72.7017Z" fill="#EF6E45"/>
<path d="M94.1338 131.577L138.16 130.843" stroke="white" stroke-width="7" stroke-miterlimit="10" stroke-linecap="square"/>
<path d="M114.985 24.6445L116.106 65.559" stroke="#EEAF84" stroke-width="15" stroke-linecap="round" stroke-linejoin="round"/>
<path d="M111.401 54.2607L109.224 54.3072C106.692 54.361 104.179 53.856 101.864 52.8281C99.5488 51.8003 97.489 50.2749 95.831 48.3606C94.1729 46.4462 92.9574 44.19 92.2709 41.7525C91.5844 39.315 91.4438 36.7562 91.8592 34.2582L93.9112 21.8922C94.5746 17.8957 96.6255 14.2607 99.7037 11.6259C102.782 8.99114 106.69 7.52516 110.742 7.48552C113.005 7.46237 115.251 7.88509 117.35 8.72954C119.45 9.574 121.363 10.8237 122.979 12.4071C124.596 13.9906 125.884 15.8769 126.772 17.9584C127.659 20.0398 128.127 22.2755 128.15 24.538L128.258 36.861C128.303 41.3951 126.559 45.7644 123.404 49.0215C120.248 52.2786 115.936 54.1611 111.401 54.2607Z" fill="#EEAF84"/>
<path d="M131.457 40.6677C129.359 43.4694 125.387 44.0407 122.586 41.9439C119.784 39.847 119.214 35.876 121.312 33.0744L123.464 30.1997C125.562 27.3981 129.534 26.8267 132.336 28.9235C135.137 31.0204 135.708 34.9914 133.61 37.7931L131.457 40.6677Z" fill="#EEAF84"/>
<path d="M131.18 33.7749L126.826 38.3361" stroke="#5A2525" stroke-miterlimit="10" stroke-linecap="square"/>
<path d="M100.806 27.616L99.5378 37.594L103.083 38.063" stroke="#5A2525" stroke-miterlimit="10" stroke-linecap="square"/>
<path d="M112.021 41.9411C112.515 43.0943 112.531 44.3964 112.064 45.561C111.598 46.7256 110.688 47.6572 109.534 48.151C108.381 48.6447 107.078 48.6601 105.914 48.1938C104.749 47.7275 103.817 46.8177 103.323 45.6645C102.295 43.2658 104.798 42.4423 107.201 41.4113C109.604 40.3802 110.994 39.5424 112.021 41.9411Z" fill="#5A2525"/>
<path d="M121.657 37.5662L118.491 19.0566L117.743 14.6637C116.563 15.7119 115.219 16.5586 113.764 17.1698C108.482 19.4182 93.3913 16.9514 92.2776 6.1142C91.3536 -2.72528 100.12 3.10685 104.894 2.99586C112.389 2.81685 117.943 -1.0784 127.595 5.3373C139.151 13.0204 131.921 28.6085 131.921 28.6085C131.921 28.6085 126.742 26.0523 121.657 37.5662Z" fill="#24272D"/>
<path d="M106.259 54.3101L112.748 54.3136L106.345 59.5085L106.259 54.3101Z" fill="#24272D"/>
<path d="M109.518 31.934C108.539 31.934 107.745 31.1406 107.745 30.1618C107.745 29.1831 108.539 28.3896 109.518 28.3896C110.497 28.3896 111.291 29.1831 111.291 30.1618C111.291 31.1406 110.497 31.934 109.518 31.934Z" fill="#5A2525"/>
<path d="M96.6329 31.934C95.6539 31.934 94.8602 31.1406 94.8602 30.1618C94.8602 29.1831 95.6539 28.3896 96.6329 28.3896C97.6119 28.3896 98.4055 29.1831 98.4055 30.1618C98.4055 31.1406 97.6119 31.934 96.6329 31.934Z" fill="#5A2525"/>
<path d="M162.472 195.429L162.831 195.361C168.075 194.375 173.126 197.826 174.112 203.069L202.973 356.508C203.959 361.751 200.508 366.8 195.263 367.786L194.904 367.854C189.66 368.84 184.61 365.389 183.623 360.146L154.762 206.707C153.776 201.464 157.228 196.415 162.472 195.429Z" fill="#F7B40A"/>
<path d="M196.741 339.282L196.808 339.641C197.794 344.884 194.342 349.933 189.098 350.919L172.307 354.076C167.063 355.062 162.012 351.611 161.026 346.368L160.958 346.009C159.972 340.766 163.424 335.717 168.668 334.731L185.46 331.574C190.704 330.588 195.754 334.039 196.741 339.282Z" fill="#F7B40A"/>
<path d="M185.374 311.955L185.441 312.313C186.427 317.556 182.975 322.606 177.731 323.592L155.495 327.772C150.251 328.758 145.201 325.307 144.214 320.064L144.147 319.705C143.161 314.462 146.613 309.413 151.857 308.427L174.093 304.247C179.337 303.261 184.387 306.712 185.374 311.955Z" fill="#F7B40A"/>
<path d="M156.605 151.05C155.264 151.053 153.926 151.18 152.609 151.43C147.369 152.419 142.686 155.326 139.475 159.583C136.264 163.839 134.755 169.14 135.244 174.449C135.732 179.758 138.183 184.694 142.117 188.293C146.052 191.892 151.187 193.896 156.519 193.912C157.865 193.91 159.208 193.783 160.53 193.533C165.771 192.543 170.454 189.636 173.665 185.379C176.876 181.122 178.384 175.822 177.895 170.512C177.406 165.203 174.955 160.267 171.02 156.668C167.085 153.069 161.949 151.066 156.616 151.05H156.605ZM156.616 128.495C167.937 128.496 178.823 132.857 187.013 140.672C195.202 148.487 200.066 159.155 200.594 170.461C201.122 181.767 197.274 192.842 189.848 201.386C182.422 209.929 171.99 215.285 160.718 216.34C149.446 217.396 138.201 214.07 129.317 207.053C120.434 200.037 114.595 189.869 113.014 178.661C111.433 167.454 114.231 156.068 120.827 146.869C127.422 137.669 137.309 131.364 148.433 129.261C151.131 128.751 153.871 128.495 156.616 128.495Z" fill="#F7B40A"/>
<path d="M144.546 129.956L138.078 135.53C138.078 135.53 140.431 152.275 132.936 152.275C132.936 152.275 133.233 154.928 131.761 155.364C130.289 155.801 125.444 150.037 125.444 150.037C125.444 150.037 119.567 148.605 117.805 143.314C116.044 138.022 114.278 125.248 115.897 124.074C117.515 122.899 134.554 120.4 134.554 120.4C134.554 120.4 141.752 120.4 144.546 129.956Z" fill="#EEAF84"/>
<path d="M131.122 118.639L158.228 104.722" stroke="white" stroke-miterlimit="10" stroke-linecap="square"/>
<path d="M152.785 106.975L134.51 89.5322" stroke="white" stroke-miterlimit="10" stroke-linecap="square"/>
<path d="M83.6128 102.368L80.3826 89.6653" stroke="white" stroke-miterlimit="10" stroke-linecap="square"/>
<path d="M144.677 130.68C144.677 130.68 144.179 120.401 130.624 118.865" stroke="white" stroke-miterlimit="10" stroke-linecap="square"/>
<path d="M107.542 248.793L111.936 255.127L107.101 260.307" stroke="white" stroke-miterlimit="10" stroke-linecap="square"/>
<path d="M175.73 212.694C175.73 212.694 170 215.153 166.634 215.916" stroke="white" stroke-miterlimit="10" stroke-linecap="square"/>
<path d="M198.484 354.784L194.076 331.724" stroke="white" stroke-miterlimit="10" stroke-linecap="square"/>
<path d="M192.972 327.023L190.988 316.745" stroke="white" stroke-miterlimit="10" stroke-linecap="square"/>
</svg>
