<svg width="20" height="20" viewBox="0 0 20 20" fill="none" xmlns="http://www.w3.org/2000/svg">
<path fill-rule="evenodd" clip-rule="evenodd" d="M15 2.66663C14.1716 2.66663 13.5 3.3382 13.5 4.16663C13.5 4.42462 13.5651 4.66741 13.6799 4.87943C13.6887 4.89298 13.6972 4.90682 13.7054 4.92093C13.7136 4.93495 13.7214 4.94909 13.7288 4.96334C13.9942 5.3858 14.4643 5.66663 15 5.66663C15.8284 5.66663 16.5 4.99505 16.5 4.16663C16.5 3.3382 15.8284 2.66663 15 2.66663ZM12.6063 6.72016C13.2323 7.30715 14.0742 7.66663 15 7.66663C16.933 7.66663 18.5 6.09962 18.5 4.16663C18.5 2.23363 16.933 0.666626 15 0.666626C13.067 0.666626 11.5 2.23363 11.5 4.16663C11.5 4.45126 11.534 4.72796 11.5981 4.99289L7.39371 7.44648C6.76775 6.85946 5.92586 6.49996 5 6.49996C3.067 6.49996 1.5 8.06696 1.5 9.99996C1.5 11.933 3.067 13.5 5 13.5C5.92606 13.5 6.76813 13.1403 7.39412 12.553L11.599 15.0033C11.5343 15.2694 11.5 15.5473 11.5 15.8333C11.5 17.7663 13.067 19.3333 15 19.3333C16.933 19.3333 18.5 17.7663 18.5 15.8333C18.5 13.9003 16.933 12.3333 15 12.3333C14.0755 12.3333 13.2348 12.6917 12.6091 13.2772L8.40205 10.8256C8.46608 10.5609 8.5 10.2844 8.5 9.99996C8.5 9.71535 8.46603 9.43867 8.40192 9.17377L12.6063 6.72016ZM6.27203 9.20464C6.27924 9.21841 6.2868 9.23209 6.29472 9.24565C6.30268 9.25929 6.31091 9.27267 6.3194 9.28579C6.43458 9.49813 6.5 9.74141 6.5 9.99996C6.5 10.2585 6.43459 10.5018 6.31941 10.7141C6.3108 10.7274 6.30246 10.741 6.2944 10.7548C6.2866 10.7682 6.27915 10.7817 6.27204 10.7953C6.00685 11.2185 5.53629 11.5 5 11.5C4.17157 11.5 3.5 10.8284 3.5 9.99996C3.5 9.17153 4.17157 8.49996 5 8.49996C5.53629 8.49996 6.00685 8.7814 6.27203 9.20464ZM13.5 15.8333C13.5 15.5946 13.5558 15.3688 13.655 15.1685C13.6761 15.1398 13.6958 15.1098 13.7141 15.0784C13.7315 15.0485 13.7472 15.0181 13.7612 14.9872C14.0314 14.5924 14.4855 14.3333 15 14.3333C15.8284 14.3333 16.5 15.0049 16.5 15.8333C16.5 16.6617 15.8284 17.3333 15 17.3333C14.1716 17.3333 13.5 16.6617 13.5 15.8333Z" fill="#A0ACAF"/>
</svg>
