<svg width="49" height="38" viewBox="0 0 49 38" fill="none" xmlns="http://www.w3.org/2000/svg">
<path fill-rule="evenodd" clip-rule="evenodd" d="M44.3591 5.96214C45.4779 5.96214 46.4821 6.40543 47.1866 7.21024C47.8911 8.01505 48.1976 9.06889 48.0497 10.1778L46.4528 22.1543C46.3125 23.2079 45.7713 24.1944 44.9288 24.932C44.0863 25.6693 43.037 26.0754 41.9742 26.0754H35.8138C35.8135 26.0754 35.8135 26.0757 35.8132 26.0757L35.8125 26.0756L35.812 26.0754H28.6598L28.659 26.0756L28.6586 26.0757L28.6577 26.0754H19.993L20.2258 27.8222C20.3696 28.9004 21.4098 29.8113 22.4976 29.8113H44.9554C45.57 29.8113 46.0687 30.3097 46.0687 30.9246C46.0687 31.5392 45.57 32.0379 44.9554 32.0379H42.0386C42.3273 32.5983 42.4914 33.2329 42.4914 33.9055C42.4914 36.1634 40.6545 38 38.3969 38C36.1393 38 34.3024 36.1634 34.3024 33.9055C34.3024 33.2329 34.4665 32.5983 34.7553 32.0379H28.9216C29.2103 32.5983 29.3744 33.2329 29.3744 33.9055C29.3744 36.1634 27.5375 38 25.2799 38C23.0223 38 21.1854 36.1634 21.1854 33.9055C21.1854 33.2007 21.3646 32.5368 21.6797 31.9573C20.9062 31.8051 20.1678 31.4412 19.543 30.8941C18.7005 30.1566 18.1593 29.1703 18.0189 28.1167L14.8322 4.21539C14.6678 2.9818 13.9114 2.22656 13.5542 2.22656H11.5668C10.9519 2.22656 10.4536 1.7282 10.4536 1.11328C10.4536 0.498367 10.9519 0 11.5668 0H13.5542C15.2152 0 16.7459 1.7224 17.0393 3.92113L17.3115 5.96214H44.3591ZM25.2799 35.7734C26.31 35.7734 27.1479 34.9356 27.1479 33.9055C27.1479 32.8757 26.31 32.0379 25.2799 32.0379C24.2501 32.0379 23.412 32.8757 23.412 33.9055C23.412 34.9356 24.2501 35.7734 25.2799 35.7734ZM38.3969 35.7734C39.427 35.7734 40.2649 34.9356 40.2649 33.9055C40.2649 32.8757 39.427 32.0379 38.3969 32.0379C37.3668 32.0379 36.529 32.8757 36.529 33.9055C36.529 34.9356 37.3668 35.7734 38.3969 35.7734ZM45.8426 9.88327C45.9046 9.41998 45.7869 8.99178 45.5112 8.67693C45.2358 8.36208 44.8267 8.18871 44.3591 8.18871H38.0458L37.5982 14.9055H45.1732L45.8426 9.88327ZM29.2532 17.1321L29.7012 23.8489H34.7704L35.2183 17.1321H29.2532ZM28.6572 8.18871L29.1048 14.9055H35.3667L35.8143 8.18871H28.6572ZM26.8733 14.9055L26.4257 8.18871H17.6081L18.5037 14.9055H26.8733ZM27.0217 17.1321H18.8006L19.6961 23.8489H27.4697L27.0217 17.1321ZM37.0018 23.8489H41.9742C43.0617 23.8489 44.1022 22.9382 44.246 21.86L44.8763 17.1321H37.4498L37.0018 23.8489ZM4.01927 14.6154C3.41388 14.6154 2.92312 15.1061 2.92312 15.7115C2.92312 16.3169 3.41388 16.8077 4.01927 16.8077H10.5962C11.2016 16.8077 11.6923 16.3169 11.6923 15.7115C11.6923 15.1061 11.2016 14.6154 10.5962 14.6154H4.01927ZM2.92312 24.4808C2.92312 23.8754 3.41388 23.3846 4.01927 23.3846H10.5962C11.2016 23.3846 11.6923 23.8754 11.6923 24.4808C11.6923 25.0862 11.2016 25.5769 10.5962 25.5769H4.01927C3.41388 25.5769 2.92312 25.0862 2.92312 24.4808ZM1.09615 19C0.490765 19 0 19.4908 0 20.0962C0 20.7015 0.490763 21.1923 1.09615 21.1923H10.5962C11.2015 21.1923 11.6923 20.7015 11.6923 20.0962C11.6923 19.4908 11.2015 19 10.5962 19H1.09615Z" fill="#3561D1"/>
</svg>
