<svg width="29" height="23" viewBox="0 0 29 23" fill="none" xmlns="http://www.w3.org/2000/svg">
<path d="M25.8244 5.70843C26.9496 4.87711 27.9623 3.87952 28.75 2.71566C27.7373 3.15904 26.5558 3.49157 25.3743 3.60241C26.612 2.88193 27.5122 1.77349 27.9623 0.387952C26.8371 1.05301 25.5431 1.55181 24.249 1.82892C23.1238 0.66506 21.6047 0 19.9168 0C16.6536 0 14.0093 2.60482 14.0093 5.81928C14.0093 6.26265 14.0656 6.70602 14.1781 7.1494C9.28327 6.87229 4.89481 4.54458 1.96918 1.05301C1.46282 1.88434 1.18151 2.88193 1.18151 3.99036C1.18151 5.98554 2.19423 7.75904 3.82583 8.81205C2.86937 8.75663 1.91292 8.53494 1.12524 8.09157V8.14699C1.12524 10.9735 3.15069 13.3012 5.85127 13.8554C5.40117 13.9663 4.83855 14.0771 4.33219 14.0771C3.93836 14.0771 3.60078 14.0217 3.20695 13.9663C3.93836 16.294 6.13258 17.9566 8.72065 18.012C6.69521 19.5639 4.16341 20.506 1.40656 20.506C0.900196 20.506 0.450098 20.4506 0 20.3952C2.58806 22.0578 5.68249 23 9.05822 23C19.9168 23 25.8244 14.188 25.8244 6.48434C25.8244 6.20723 25.8244 5.98554 25.8244 5.70843Z" fill="#1A2224"/>
</svg>
