<svg width="25" height="21" viewBox="0 0 25 21" fill="none" xmlns="http://www.w3.org/2000/svg">
<path d="M22.429 5.03309C23.4063 4.30012 24.2859 3.42055 24.97 2.39438C24.0904 2.7853 23.0643 3.07849 22.0381 3.17622C23.1131 2.54098 23.895 1.56368 24.2859 0.342055C23.3086 0.928435 22.1847 1.36822 21.0608 1.61254C20.0835 0.58638 18.7641 0 17.2982 0C14.464 0 12.1674 2.29665 12.1674 5.13082C12.1674 5.52174 12.2162 5.91266 12.314 6.30358C8.06272 6.05926 4.25125 4.00693 1.71027 0.928435C1.27049 1.66141 1.02616 2.54098 1.02616 3.51828C1.02616 5.27742 1.90573 6.8411 3.32282 7.76953C2.49211 7.72067 1.66141 7.52521 0.977299 7.13429V7.18315C0.977299 9.67527 2.73644 11.7276 5.08196 12.2162C4.69104 12.314 4.20239 12.4117 3.7626 12.4117C3.42055 12.4117 3.12736 12.3628 2.7853 12.314C3.42055 14.3663 5.32628 15.8323 7.57407 15.8811C5.81493 17.2493 3.61601 18.08 1.22162 18.08C0.781839 18.08 0.39092 18.0312 0 17.9823C2.24779 19.4483 4.93536 20.279 7.86726 20.279C17.2982 20.279 22.429 12.5094 22.429 5.7172C22.429 5.47288 22.429 5.27742 22.429 5.03309Z" fill="#FFFFFF"/>
</svg>
