<svg width="18" height="18" viewBox="0 0 18 18" fill="none" xmlns="http://www.w3.org/2000/svg">
<path fill-rule="evenodd" clip-rule="evenodd" d="M17.5621 6.95312C16.6037 2.9635 13.1612 0.258336 8.99511 0.199951C8.44745 0.219413 7.86067 0.277797 7.31301 0.375105C1.48434 1.5428 -1.50823 7.94566 1.30831 13.103C1.40611 13.2392 1.40611 13.3754 1.38655 13.5311C0.975803 14.8545 0.604176 16.2363 0.23255 17.5791C0.173872 17.8322 0.173872 17.8322 0.408583 17.7543C1.83641 17.3651 3.24468 17.0148 4.65295 16.6645C4.7703 16.6255 4.8681 16.6255 4.9659 16.6839C6.78491 17.5986 8.72128 17.8516 10.7359 17.4818C15.5475 16.5671 18.7161 11.6823 17.5621 6.95312ZM10.2273 16.0806C9.8166 16.1585 9.42542 16.1974 9.21026 16.1779C7.66508 16.1779 6.41329 15.8471 5.25929 15.1659C5.10281 15.0686 4.9659 15.0297 4.80942 15.0881C4.00749 15.2827 3.24468 15.4968 2.46231 15.6914C2.30583 15.7498 2.28628 15.7303 2.32539 15.5551C2.54055 14.8351 2.73614 14.0955 2.95129 13.356C3.00997 13.1614 2.99041 13.0057 2.85349 12.85C1.26919 10.2616 1.34743 7.08935 3.12732 4.69558C4.9659 2.24342 7.5086 1.21195 10.5403 1.85419C13.5329 2.47696 15.4301 4.40365 16.1147 7.36182C17.0731 11.4098 14.3348 15.4189 10.2273 16.0806Z" fill="white"/>
<path fill-rule="evenodd" clip-rule="evenodd" d="M11.4642 12.9887C11.127 13.0076 10.7898 12.9508 10.4736 12.8562C8.3027 12.2886 6.67978 11.0967 5.35194 9.48845C4.86717 8.883 4.40348 8.23971 4.25594 7.50183C4.06625 6.61258 4.36133 5.83685 5.09902 5.2314C5.35194 5.02328 6.06855 4.92868 6.36363 5.06112C6.44793 5.1368 6.51116 5.21248 6.57439 5.28816C6.84839 5.87469 7.14347 6.4423 7.39639 7.0099C7.43855 7.14234 7.43855 7.25586 7.37532 7.36939C7.22778 7.63427 6.99593 7.86131 6.78516 8.06943C6.59547 8.22079 6.59547 8.37216 6.72193 8.54244C7.50178 9.71549 8.53454 10.548 9.94669 11.021C10.1575 11.0967 10.305 11.0777 10.4315 10.9264C10.6844 10.6804 10.9162 10.4155 11.1481 10.1507C11.2956 9.98037 11.4642 9.96145 11.675 10.0182C12.1387 10.2074 12.6024 10.4155 13.045 10.5858C13.1714 10.6426 13.2558 10.6804 13.3611 10.7183C13.8248 10.9264 13.8248 10.9642 13.7827 11.3994C13.7194 12.2886 12.9607 12.7238 12.0965 12.9508C11.8436 13.0076 11.6539 13.0076 11.4642 12.9887Z" fill="white"/>
</svg>
