<svg width="427" height="291" viewBox="0 0 427 291" fill="none" xmlns="http://www.w3.org/2000/svg">
<path d="M211.062 290.64C325.862 290.64 418.926 289.466 418.926 288.018C418.926 286.57 325.862 285.397 211.062 285.397C96.2622 285.397 3.19836 286.57 3.19836 288.018C3.19836 289.466 96.2622 290.64 211.062 290.64Z" fill="#EAEDEF"/>
<path d="M20.3937 214.958V287.648" stroke="#475056" stroke-width="5" stroke-miterlimit="10"/>
<path d="M96.5634 214.958V287.648" stroke="#475056" stroke-width="5" stroke-miterlimit="10"/>
<path d="M113.169 142.765H0V255.934H113.169V142.765Z" fill="#6657AE"/>
<path d="M425.419 103.49H113.169V255.939H425.419V103.49Z" fill="#6657AE"/>
<path d="M38.7797 142.765V223.825" stroke="white" stroke-width="3" stroke-miterlimit="10" stroke-linecap="square"/>
<path d="M18.3613 167.54C22.08 167.54 25.0945 164.525 25.0945 160.806C25.0945 157.088 22.08 154.073 18.3613 154.073C14.6426 154.073 11.6281 157.088 11.6281 160.806C11.6281 164.525 14.6426 167.54 18.3613 167.54Z" stroke="white" stroke-width="3" stroke-miterlimit="10" stroke-linecap="square"/>
<path d="M49.2672 181.389C49.2672 181.389 46.5445 155.192 73.9993 155.192C101.454 155.192 121.002 181.389 121.002 181.389" fill="#24272D"/>
<path d="M128.15 166.727L116.527 163.735L122.448 156.737C122.547 156.619 122.674 156.53 122.817 156.475C122.961 156.421 123.116 156.405 123.267 156.428C123.419 156.45 123.562 156.512 123.683 156.606C123.804 156.7 123.899 156.823 123.959 156.964L128.15 166.727Z" fill="#24272D"/>
<path d="M110.48 156.778L116.372 163.735L104.748 166.727L108.919 157.014C108.981 156.869 109.08 156.742 109.205 156.646C109.33 156.549 109.478 156.486 109.634 156.463C109.79 156.439 109.95 156.456 110.098 156.511C110.246 156.566 110.377 156.658 110.48 156.778Z" fill="#24272D"/>
<path d="M116.645 185.323C124.582 185.323 131.017 180.066 131.017 173.582C131.017 167.098 124.582 161.841 116.645 161.841C108.708 161.841 102.274 167.098 102.274 173.582C102.274 180.066 108.708 185.323 116.645 185.323Z" fill="#24272D"/>
<path d="M135.119 181.158H103.717V191.581H135.119V181.158Z" fill="#6657AE"/>
<path d="M216.087 181.388H38.7797" stroke="white" stroke-width="3" stroke-miterlimit="10" stroke-linecap="square"/>
<path d="M111.095 168.368C111.095 167.349 112.189 166.525 113.54 166.525C114.891 166.525 115.981 167.366 115.981 168.368" fill="white"/>
<path d="M123.169 168.368C123.169 167.349 124.263 166.525 125.614 166.525C126.964 166.525 128.059 167.366 128.059 168.368" fill="white"/>
<path d="M117.116 174.832C117.116 174.832 120.331 174.639 120.331 171.596C120.331 171.596 121.312 174.593 123.323 174.593" stroke="white" stroke-width="3" stroke-linejoin="round"/>
<path d="M118.833 170.603H121.61C121.688 170.611 121.762 170.641 121.824 170.69C121.885 170.738 121.933 170.802 121.96 170.876C121.987 170.949 121.993 171.029 121.977 171.105C121.962 171.182 121.925 171.253 121.871 171.31L120.482 172.497C120.408 172.555 120.316 172.587 120.221 172.587C120.127 172.587 120.035 172.555 119.961 172.497L118.572 171.31C118.518 171.253 118.481 171.182 118.466 171.105C118.45 171.029 118.456 170.949 118.483 170.876C118.51 170.802 118.557 170.738 118.619 170.69C118.681 170.641 118.755 170.611 118.833 170.603Z" fill="#EA6F57"/>
<path d="M78.4933 196.812C74.4575 192.124 64.728 201.694 58.6386 197.814C49.0689 191.716 65.9736 164.863 59.981 160.932C56.2735 158.508 46.8301 177.5 48.484 191.43C49.5066 200.036 56.9006 206.264 66.1209 205.637C71.5959 205.262 81.0519 199.783 78.4933 196.812Z" fill="#24272D"/>
<path d="M328.018 214.958V287.648" stroke="#475056" stroke-width="5" stroke-miterlimit="10"/>
<path d="M404.189 214.958V287.648" stroke="#475056" stroke-width="5" stroke-miterlimit="10"/>
<path d="M347.988 110.866L312.866 106.018L307.862 128.781L345.366 141.793C358.201 146.249 371.272 135.699 369.614 122.212C367.956 108.724 366.185 95.384 365.444 93.6459C363.891 90.0184 358.446 74.7423 325.558 73.3578C292.67 71.9733 276.784 102.193 276.784 102.193L344.764 162.965" fill="#24272D"/>
<path d="M330.152 34.1376C332.477 19.5728 323.472 6.02731 310.038 3.88286C296.605 1.73842 283.831 11.8071 281.505 26.3718C279.18 40.9366 288.185 54.4821 301.619 56.6266C315.052 58.771 327.827 48.7023 330.152 34.1376Z" fill="#8F3D3D"/>
<path d="M317.624 85.4819C315.434 85.2181 313.389 84.2475 311.801 82.7173C310.212 81.1871 309.166 79.1807 308.82 77.0022L303.404 42.8856C303.165 41.5574 303.194 40.1949 303.489 38.878C303.783 37.561 304.338 36.3162 305.12 35.2164C305.902 34.1167 306.896 33.1842 308.043 32.4735C309.19 31.7629 310.468 31.2885 311.801 31.0781C313.134 30.8677 314.496 30.9255 315.806 31.2483C317.116 31.571 318.349 32.1521 319.432 32.9575C320.515 33.7629 321.426 34.7763 322.112 35.9385C322.798 37.1006 323.245 38.388 323.427 39.7252L328.856 73.8123C329.065 75.1268 329.013 76.4697 328.704 77.7642C328.394 79.0587 327.832 80.2796 327.051 81.357C326.269 82.4344 325.283 83.3473 324.149 84.0435C323.014 84.7397 321.754 85.2056 320.439 85.4146C319.508 85.5663 318.561 85.5889 317.624 85.4819Z" fill="#EEAF84"/>
<path d="M310.592 68.687L308.522 69.0027C306.113 69.3695 303.653 69.201 301.316 68.5092C298.98 67.8175 296.825 66.6195 295.004 65.0004C293.183 63.3813 291.742 61.3808 290.782 59.1414C289.822 56.9019 289.367 54.4784 289.45 52.0433L289.87 39.9781C290.003 36.0819 291.504 32.357 294.111 29.4584C296.718 26.5598 300.263 24.673 304.124 24.1298C306.28 23.8249 308.475 23.9477 310.583 24.4912C312.692 25.0347 314.672 25.9883 316.412 27.2974C318.152 28.6066 319.617 30.2457 320.723 32.1211C321.829 33.9965 322.555 36.0715 322.859 38.2275L324.517 49.977C325.128 54.301 324.008 58.6912 321.4 62.1943C318.793 65.6974 314.909 68.0306 310.592 68.687Z" fill="#EEAF84"/>
<path d="M297.757 42.3135L293.667 52.4933L297.808 53.0698" stroke="#25282D" stroke-width="0.5" stroke-miterlimit="10"/>
<path d="M302.516 47.014C303.637 47.014 304.545 46.1058 304.545 44.9856C304.545 43.8653 303.637 42.9572 302.516 42.9572C301.396 42.9572 300.488 43.8653 300.488 44.9856C300.488 46.1058 301.396 47.014 302.516 47.014Z" fill="#24272D"/>
<path d="M292.833 45.8609C293.954 45.8609 294.862 44.9528 294.862 43.8325C294.862 42.7123 293.954 41.8041 292.833 41.8041C291.713 41.8041 290.805 42.7123 290.805 43.8325C290.805 44.9528 291.713 45.8609 292.833 45.8609Z" fill="#24272D"/>
<path d="M301.574 57.5569C301.574 57.5569 304.061 57.7168 305.361 55.6884" stroke="#25282D" stroke-miterlimit="10"/>
<path d="M368.337 68.1523C368.337 68.1523 371.165 90.3215 352.569 90.0985C321.785 89.724 316.845 69.5032 318.978 57.821C319.82 53.1666 322.703 49.7201 325.905 46.4208C309.304 42.7806 310.436 31.9149 310.436 31.9149C310.436 31.9149 279.568 46.5428 281.361 27.0543C283.153 7.56577 301.392 -0.139595 313.928 0.937724C343.067 3.43744 343.925 22.0001 351.744 24.6724C396.066 39.839 368.337 68.1523 368.337 68.1523Z" fill="#8F3D3D"/>
<path d="M329.779 45.8935C331.82 42.3086 330.569 37.7476 326.984 35.7061C323.399 33.6646 318.838 34.9158 316.797 38.5007L313.438 44.3993C311.396 47.9842 312.648 52.5452 316.232 54.5867C319.817 56.6281 324.378 55.377 326.42 51.7921L329.779 45.8935Z" fill="#EEAF84"/>
<path d="M324.729 40.1713L319.961 48.5415" stroke="#25282D" stroke-miterlimit="10"/>
<path d="M314.351 104.945L348.337 110.029" stroke="white" stroke-miterlimit="10" stroke-linecap="square"/>
<path d="M339.019 108.631L336.25 96.4653" stroke="white" stroke-miterlimit="10" stroke-linecap="square"/>
<path d="M288.036 108.072C288.036 108.072 302.799 95.8888 315.163 111.232C327.527 126.576 305.904 123.924 305.904 123.924" fill="#EEAF84"/>
<path d="M315.835 125.276H243.84L201.757 95.502H273.752L315.835 125.276Z" fill="#9BA8B8"/>
<path d="M170.607 288.018H217.344L223.236 287.955L218.729 270.158L197.586 271.762L170.607 288.018Z" fill="#24272D"/>
<path d="M132.266 201.386L174.719 227.751L180.11 231.012L190.538 201.075L168.065 198.487L132.266 201.386Z" fill="#24272D"/>
<path d="M249.901 137.968L330.153 183.387H227.357V271.601H183.704V164.459C183.704 149.826 196.329 137.968 211.875 137.968H249.901Z" fill="#EA6F57"/>
<path d="M248.365 148.362L290.712 179.693C306.132 191.097 327.577 186.005 336.785 168.718L349.022 146.132L262.816 99.9753C249.686 92.9517 233.644 96.7266 224.634 108.964L161.401 194.851L194.225 221.872L248.365 148.362Z" fill="#EA6F57"/>
<path d="M425.419 142.765H312.25V255.934H425.419V142.765Z" fill="#6657AE"/>
<path d="M234.368 137.968L290.713 179.693C290.713 179.693 297.501 185.841 310.913 185.841" stroke="white" stroke-miterlimit="10"/>
<path d="M201.867 139.883C201.867 139.883 206.724 137.964 211.875 137.964H234.368" stroke="white" stroke-miterlimit="10"/>
<path d="M184.302 163.748V214.752" stroke="white" stroke-miterlimit="10"/>
<path d="M270.095 43.0415H205.414C203.394 43.0415 201.757 44.6788 201.757 46.6985V92.8087C201.757 94.8284 203.394 96.4657 205.414 96.4657H270.095C272.115 96.4657 273.752 94.8284 273.752 92.8087V46.6985C273.752 44.6788 272.115 43.0415 270.095 43.0415Z" fill="#B4C1D1"/>
<path d="M350.061 144.027V225.087" stroke="white" stroke-width="3" stroke-miterlimit="10" stroke-linecap="square"/>
<path d="M331.343 167.54C335.062 167.54 338.076 164.525 338.076 160.806C338.076 157.088 335.062 154.073 331.343 154.073C327.625 154.073 324.61 157.088 324.61 160.806C324.61 164.525 327.625 167.54 331.343 167.54Z" stroke="white" stroke-width="3" stroke-miterlimit="10" stroke-linecap="square"/>
<path d="M338.076 142.832H425.423" stroke="white" stroke-width="3" stroke-miterlimit="10" stroke-linecap="square"/>
<path d="M237.756 75.437C241.523 75.437 244.577 72.3829 244.577 68.6154C244.577 64.8479 241.523 61.7938 237.756 61.7938C233.988 61.7938 230.934 64.8479 230.934 68.6154C230.934 72.3829 233.988 75.437 237.756 75.437Z" fill="white"/>
</svg>
