<svg width="746" height="900" viewBox="0 0 746 900" fill="none" xmlns="http://www.w3.org/2000/svg">
<path opacity="0.7" d="M29.5386 325.658C-40.9574 195.721 23.9687 0 126.98 0H748C748 261.119 747 660.963 747 892.706C747 920.538 655.334 931.844 536.51 940.548C417.685 949.252 304.044 830.921 354.52 689.917C377.11 626.813 395.518 480.06 257.026 461.032C144.573 445.581 60.8312 383.336 29.5386 325.658Z" fill="#F3CA61"/>
<path d="M365.062 628.64C479.862 628.64 572.926 627.466 572.926 626.018C572.926 624.57 479.862 623.397 365.062 623.397C250.262 623.397 157.198 624.57 157.198 626.018C157.198 627.466 250.262 628.64 365.062 628.64Z" fill="#EAEDEF"/>
<path d="M174.394 552.958V625.648" stroke="#475056" stroke-width="5" stroke-miterlimit="10"/>
<path d="M250.563 552.958V625.648" stroke="#475056" stroke-width="5" stroke-miterlimit="10"/>
<path d="M267.169 480.765H154V593.934H267.169V480.765Z" fill="#6657AE"/>
<path d="M579.419 441.49H267.169V593.939H579.419V441.49Z" fill="#6657AE"/>
<path d="M192.78 480.765V561.825" stroke="white" stroke-width="3" stroke-miterlimit="10" stroke-linecap="square"/>
<path d="M172.361 505.54C176.08 505.54 179.095 502.525 179.095 498.806C179.095 495.088 176.08 492.073 172.361 492.073C168.643 492.073 165.628 495.088 165.628 498.806C165.628 502.525 168.643 505.54 172.361 505.54Z" stroke="white" stroke-width="3" stroke-miterlimit="10" stroke-linecap="square"/>
<path d="M203.267 519.389C203.267 519.389 200.544 493.192 227.999 493.192C255.454 493.192 275.002 519.389 275.002 519.389" fill="#24272D"/>
<path d="M282.15 504.727L270.527 501.735L276.448 494.737C276.547 494.619 276.674 494.53 276.817 494.475C276.961 494.421 277.116 494.405 277.267 494.428C277.419 494.45 277.562 494.512 277.683 494.606C277.804 494.7 277.899 494.823 277.959 494.964L282.15 504.727Z" fill="#24272D"/>
<path d="M264.48 494.778L270.372 501.735L258.748 504.727L262.919 495.014C262.981 494.869 263.08 494.742 263.205 494.646C263.33 494.549 263.478 494.486 263.634 494.463C263.79 494.439 263.95 494.456 264.098 494.511C264.246 494.566 264.377 494.658 264.48 494.778Z" fill="#24272D"/>
<path d="M270.645 523.323C278.582 523.323 285.017 518.066 285.017 511.582C285.017 505.098 278.582 499.841 270.645 499.841C262.708 499.841 256.274 505.098 256.274 511.582C256.274 518.066 262.708 523.323 270.645 523.323Z" fill="#24272D"/>
<path d="M289.119 519.158H257.717V529.582H289.119V519.158Z" fill="#6657AE"/>
<path d="M370.087 519.388H192.78" stroke="white" stroke-width="3" stroke-miterlimit="10" stroke-linecap="square"/>
<path d="M265.095 506.368C265.095 505.349 266.189 504.525 267.54 504.525C268.891 504.525 269.981 505.366 269.981 506.368" fill="white"/>
<path d="M277.169 506.368C277.169 505.349 278.263 504.525 279.614 504.525C280.964 504.525 282.059 505.366 282.059 506.368" fill="white"/>
<path d="M271.116 512.832C271.116 512.832 274.331 512.639 274.331 509.596C274.331 509.596 275.312 512.592 277.323 512.592" stroke="white" stroke-width="3" stroke-linejoin="round"/>
<path d="M272.833 508.603H275.61C275.688 508.611 275.762 508.641 275.824 508.69C275.885 508.738 275.933 508.802 275.96 508.876C275.987 508.949 275.993 509.029 275.977 509.105C275.962 509.182 275.925 509.253 275.871 509.31L274.482 510.497C274.408 510.555 274.316 510.587 274.221 510.587C274.127 510.587 274.035 510.555 273.961 510.497L272.572 509.31C272.518 509.253 272.481 509.182 272.466 509.105C272.45 509.029 272.456 508.949 272.483 508.876C272.51 508.802 272.557 508.738 272.619 508.69C272.681 508.641 272.755 508.611 272.833 508.603Z" fill="#EA6F57"/>
<path d="M232.493 534.812C228.458 530.124 218.728 539.694 212.639 535.814C203.069 529.716 219.974 502.863 213.981 498.933C210.274 496.509 200.83 515.5 202.484 529.43C203.507 538.036 210.901 544.264 220.121 543.637C225.596 543.263 235.052 537.783 232.493 534.812Z" fill="#24272D"/>
<path d="M482.018 552.958V625.648" stroke="#475056" stroke-width="5" stroke-miterlimit="10"/>
<path d="M558.189 552.958V625.648" stroke="#475056" stroke-width="5" stroke-miterlimit="10"/>
<path d="M501.988 448.866L466.866 444.018L461.862 466.781L499.366 479.793C512.201 484.249 525.272 473.699 523.614 460.212C521.956 446.724 520.185 433.384 519.444 431.646C517.891 428.018 512.446 412.742 479.558 411.358C446.67 409.973 430.784 440.193 430.784 440.193L498.764 500.965" fill="#24272D"/>
<path d="M484.152 372.138C486.477 357.573 477.472 344.027 464.038 341.883C450.605 339.738 437.831 349.807 435.505 364.372C433.18 378.937 442.185 392.482 455.619 394.627C469.052 396.771 481.827 386.702 484.152 372.138Z" fill="#8F3D3D"/>
<path d="M471.624 423.482C469.434 423.218 467.389 422.248 465.801 420.717C464.212 419.187 463.166 417.181 462.82 415.002L457.404 380.886C457.165 379.557 457.194 378.195 457.489 376.878C457.783 375.561 458.338 374.316 459.12 373.216C459.902 372.117 460.896 371.184 462.043 370.474C463.19 369.763 464.468 369.288 465.801 369.078C467.134 368.868 468.496 368.926 469.806 369.248C471.116 369.571 472.349 370.152 473.432 370.957C474.515 371.763 475.426 372.776 476.112 373.938C476.798 375.101 477.245 376.388 477.427 377.725L482.856 411.812C483.065 413.127 483.013 414.47 482.704 415.764C482.394 417.059 481.832 418.28 481.051 419.357C480.269 420.434 479.283 421.347 478.149 422.044C477.014 422.74 475.754 423.206 474.439 423.415C473.508 423.566 472.561 423.589 471.624 423.482Z" fill="#EEAF84"/>
<path d="M464.592 406.687L462.522 407.003C460.113 407.369 457.653 407.201 455.316 406.509C452.98 405.818 450.825 404.619 449.004 403C447.183 401.381 445.742 399.381 444.782 397.141C443.822 394.902 443.367 392.478 443.45 390.043L443.87 377.978C444.003 374.082 445.504 370.357 448.111 367.458C450.718 364.56 454.263 362.673 458.124 362.13C460.28 361.825 462.475 361.948 464.583 362.491C466.692 363.035 468.672 363.988 470.412 365.297C472.152 366.607 473.617 368.246 474.723 370.121C475.829 371.997 476.555 374.071 476.859 376.228L478.517 387.977C479.128 392.301 478.008 396.691 475.4 400.194C472.793 403.697 468.909 406.031 464.592 406.687Z" fill="#EEAF84"/>
<path d="M451.757 380.313L447.667 390.493L451.808 391.07" stroke="#25282D" stroke-width="0.5" stroke-miterlimit="10"/>
<path d="M456.516 385.014C457.637 385.014 458.545 384.106 458.545 382.986C458.545 381.865 457.637 380.957 456.516 380.957C455.396 380.957 454.488 381.865 454.488 382.986C454.488 384.106 455.396 385.014 456.516 385.014Z" fill="#24272D"/>
<path d="M446.833 383.861C447.954 383.861 448.862 382.953 448.862 381.833C448.862 380.712 447.954 379.804 446.833 379.804C445.713 379.804 444.805 380.712 444.805 381.833C444.805 382.953 445.713 383.861 446.833 383.861Z" fill="#24272D"/>
<path d="M455.574 395.557C455.574 395.557 458.061 395.717 459.361 393.688" stroke="#25282D" stroke-miterlimit="10"/>
<path d="M522.337 406.152C522.337 406.152 525.165 428.321 506.569 428.098C475.785 427.724 470.845 407.503 472.978 395.821C473.82 391.167 476.703 387.72 479.905 384.421C463.304 380.781 464.436 369.915 464.436 369.915C464.436 369.915 433.568 384.543 435.361 365.054C437.153 345.566 455.392 337.86 467.928 338.938C497.067 341.437 497.925 360 505.744 362.672C550.066 377.839 522.337 406.152 522.337 406.152Z" fill="#8F3D3D"/>
<path d="M483.779 383.894C485.82 380.309 484.569 375.748 480.984 373.706C477.399 371.665 472.838 372.916 470.797 376.501L467.438 382.399C465.396 385.984 466.648 390.545 470.232 392.587C473.817 394.628 478.378 393.377 480.42 389.792L483.779 383.894Z" fill="#EEAF84"/>
<path d="M478.729 378.171L473.961 386.542" stroke="#25282D" stroke-miterlimit="10"/>
<path d="M468.351 442.945L502.337 448.029" stroke="white" stroke-miterlimit="10" stroke-linecap="square"/>
<path d="M493.019 446.631L490.25 434.465" stroke="white" stroke-miterlimit="10" stroke-linecap="square"/>
<path d="M442.036 446.072C442.036 446.072 456.799 433.889 469.163 449.232C481.527 464.576 459.904 461.924 459.904 461.924" fill="#EEAF84"/>
<path d="M469.835 463.276H397.84L355.757 433.502H427.752L469.835 463.276Z" fill="#9BA8B8"/>
<path d="M324.607 626.018H371.344L377.236 625.955L372.729 608.158L351.586 609.762L324.607 626.018Z" fill="#24272D"/>
<path d="M286.266 539.386L328.719 565.751L334.11 569.012L344.538 539.075L322.065 536.487L286.266 539.386Z" fill="#24272D"/>
<path d="M403.901 475.968L484.153 521.387H381.357V609.601H337.704V502.459C337.704 487.826 350.329 475.968 365.875 475.968H403.901Z" fill="#EA6F57"/>
<path d="M402.365 486.362L444.712 517.693C460.132 529.097 481.577 524.005 490.785 506.718L503.022 484.132L416.816 437.975C403.686 430.952 387.644 434.727 378.634 446.964L315.401 532.851L348.225 559.872L402.365 486.362Z" fill="#EA6F57"/>
<path d="M579.419 480.765H466.25V593.934H579.419V480.765Z" fill="#6657AE"/>
<path d="M388.368 475.968L444.713 517.693C444.713 517.693 451.501 523.841 464.913 523.841" stroke="white" stroke-miterlimit="10"/>
<path d="M355.867 477.882C355.867 477.882 360.724 475.964 365.875 475.964H388.368" stroke="white" stroke-miterlimit="10"/>
<path d="M338.302 501.748V552.752" stroke="white" stroke-miterlimit="10"/>
<path d="M424.095 381.042H359.414C357.394 381.042 355.757 382.679 355.757 384.699V430.809C355.757 432.828 357.394 434.466 359.414 434.466H424.095C426.115 434.466 427.752 432.828 427.752 430.809V384.699C427.752 382.679 426.115 381.042 424.095 381.042Z" fill="#B4C1D1"/>
<path d="M504.061 482.027V563.087" stroke="white" stroke-width="3" stroke-miterlimit="10" stroke-linecap="square"/>
<path d="M485.343 505.54C489.062 505.54 492.076 502.525 492.076 498.806C492.076 495.088 489.062 492.073 485.343 492.073C481.625 492.073 478.61 495.088 478.61 498.806C478.61 502.525 481.625 505.54 485.343 505.54Z" stroke="white" stroke-width="3" stroke-miterlimit="10" stroke-linecap="square"/>
<path d="M492.076 480.832H579.423" stroke="white" stroke-width="3" stroke-miterlimit="10" stroke-linecap="square"/>
<path d="M391.756 413.437C395.523 413.437 398.577 410.383 398.577 406.615C398.577 402.848 395.523 399.794 391.756 399.794C387.988 399.794 384.934 402.848 384.934 406.615C384.934 410.383 387.988 413.437 391.756 413.437Z" fill="white"/>
</svg>
