<svg width="746" height="900" viewBox="0 0 746 900" fill="none" xmlns="http://www.w3.org/2000/svg">
<path opacity="0.7" d="M29.5386 325.658C-40.9574 195.721 23.9687 0 126.98 0H748C748 261.119 747 660.963 747 892.706C747 920.538 655.334 931.844 536.51 940.548C417.685 949.252 304.044 830.921 354.52 689.917C377.11 626.813 395.518 480.06 257.026 461.032C144.573 445.581 60.8312 383.336 29.5386 325.658Z" fill="#F3CA61"/>
<path d="M253.135 660C295.091 660 329.103 651.065 329.103 640.042C329.103 629.02 295.091 620.085 253.135 620.085C211.18 620.085 177.168 629.02 177.168 640.042C177.168 651.065 211.18 660 253.135 660Z" fill="#EAEDEF"/>
<path d="M268.341 617.574L252.441 486.758L244.92 521.127L250.711 617.574H207.039L200.891 511.6C200.468 504.335 201.159 497.047 202.939 489.99L226.055 398.338L299.507 397.75L299.769 505.926L310.942 617.574H268.341Z" fill="#365599"/>
<path d="M252.223 489.6L247.292 437.952" stroke="white" stroke-miterlimit="10" stroke-linecap="square"/>
<path d="M168.456 301.386L169.248 296.914C169.48 294.733 169.6 292.541 169.606 290.348C169.606 286.922 167.747 282.647 170.913 276.965C174.079 271.283 167.69 274.717 166.071 277.398C164.703 279.636 164.689 284.677 163.138 286.349C162.494 285.885 161.919 285.331 161.43 284.705L150.687 266.701C150.521 266.41 150.255 266.188 149.938 266.078C149.622 265.967 149.276 265.975 148.964 266.099L148.248 266.389C148.068 266.462 147.904 266.571 147.768 266.711C147.633 266.85 147.528 267.016 147.46 267.199C147.393 267.381 147.364 267.576 147.377 267.77C147.389 267.964 147.442 268.154 147.532 268.326C149.577 272.264 155.987 283.868 155.768 283.95L155.385 284.308L142.346 266.787C142.152 266.509 141.863 266.312 141.533 266.232C141.203 266.152 140.856 266.195 140.556 266.353L139.585 266.873C139.418 266.96 139.271 267.082 139.153 267.228C139.035 267.375 138.948 267.545 138.897 267.727C138.847 267.908 138.834 268.099 138.86 268.285C138.886 268.472 138.95 268.652 139.048 268.813C141.555 273.002 151.224 286.499 151.009 286.592L150.515 286.972L138.096 273.045C137.891 272.753 137.581 272.551 137.231 272.481C136.881 272.411 136.517 272.478 136.216 272.669L135.471 273.145C135.316 273.243 135.182 273.371 135.077 273.521C134.972 273.671 134.897 273.841 134.858 274.02C134.818 274.199 134.814 274.384 134.846 274.564C134.878 274.744 134.946 274.917 135.045 275.071L146.662 288.966L146.214 289.517L135.786 280.162C135.56 279.907 135.248 279.743 134.91 279.702C134.571 279.661 134.229 279.746 133.949 279.94L133.591 280.187C133.294 280.397 133.091 280.714 133.024 281.071C132.957 281.427 133.032 281.796 133.233 282.099C134.665 284.272 139.446 288.185 143.027 292.757C145.806 296.298 146.998 299.484 150.984 303.562C152.667 305.292 155.375 307.107 156.857 308.131" fill="#EEAF84"/>
<path d="M248.265 617.574L256.523 634.029H182.269L213.199 617.574H248.265Z" fill="#162C56"/>
<path d="M308.426 617.574L316.68 634.029H242.429L273.359 617.574H308.426Z" fill="#162C56"/>
<path d="M191.398 338.701C191.398 338.701 219.688 328.43 256.04 329.228C298.892 330.17 319.279 360.795 328.021 380.69C328.825 382.515 329.164 384.511 329.006 386.5C328.847 388.488 328.198 390.406 327.115 392.081C326.032 393.756 324.55 395.136 322.801 396.096C321.053 397.057 319.093 397.569 317.098 397.585L278.064 397.896L226.056 398.337L216.949 367.637L180.325 369.803C175.303 370.1 170.339 368.598 166.325 365.567C162.311 362.535 159.509 358.173 158.423 353.262L148.163 306.866L173.327 300.193L191.398 338.701Z" fill="#EF6E45"/>
<path d="M227.134 397.577L271.16 396.843" stroke="white" stroke-width="7" stroke-miterlimit="10" stroke-linecap="square"/>
<path d="M247.985 290.645L249.106 331.559" stroke="#EEAF84" stroke-width="15" stroke-linecap="round" stroke-linejoin="round"/>
<path d="M244.402 320.26L242.224 320.307C239.692 320.361 237.179 319.856 234.864 318.828C232.549 317.8 230.489 316.275 228.831 314.36C227.173 312.446 225.958 310.19 225.271 307.752C224.585 305.315 224.444 302.756 224.859 300.258L226.911 287.892C227.575 283.895 229.626 280.26 232.704 277.626C235.782 274.991 239.691 273.525 243.743 273.485C246.006 273.462 248.251 273.885 250.351 274.729C252.45 275.574 254.363 276.823 255.979 278.407C257.596 279.99 258.885 281.877 259.772 283.958C260.659 286.04 261.128 288.275 261.15 290.538L261.258 302.861C261.303 307.395 259.559 311.764 256.404 315.021C253.248 318.278 248.936 320.161 244.402 320.26Z" fill="#EEAF84"/>
<path d="M264.457 306.668C262.359 309.47 258.388 310.041 255.586 307.944C252.784 305.847 252.214 301.876 254.312 299.075L256.465 296.2C258.563 293.398 262.534 292.827 265.336 294.924C268.138 297.021 268.708 300.992 266.61 303.793L264.457 306.668Z" fill="#EEAF84"/>
<path d="M264.181 299.775L259.826 304.336" stroke="#5A2525" stroke-miterlimit="10" stroke-linecap="square"/>
<path d="M233.805 293.616L232.538 303.594L236.083 304.063" stroke="#5A2525" stroke-miterlimit="10" stroke-linecap="square"/>
<path d="M245.021 307.941C245.515 309.095 245.531 310.397 245.064 311.561C244.598 312.726 243.688 313.657 242.534 314.151C241.381 314.645 240.078 314.66 238.914 314.194C237.749 313.728 236.817 312.818 236.323 311.665C235.295 309.266 237.798 308.443 240.201 307.411C242.604 306.38 243.994 305.543 245.021 307.941Z" fill="#5A2525"/>
<path d="M254.657 303.566L251.491 285.057L250.743 280.664C249.563 281.712 248.219 282.559 246.764 283.17C241.482 285.418 226.391 282.951 225.278 272.114C224.354 263.275 233.12 269.107 237.894 268.996C245.389 268.817 250.944 264.922 260.595 271.337C272.151 279.02 264.921 294.609 264.921 294.609C264.921 294.609 259.742 292.052 254.657 303.566Z" fill="#24272D"/>
<path d="M239.259 320.31L245.748 320.314L239.345 325.508L239.259 320.31Z" fill="#24272D"/>
<path d="M242.518 297.934C241.539 297.934 240.745 297.141 240.745 296.162C240.745 295.183 241.539 294.39 242.518 294.39C243.497 294.39 244.291 295.183 244.291 296.162C244.291 297.141 243.497 297.934 242.518 297.934Z" fill="#5A2525"/>
<path d="M229.633 297.934C228.654 297.934 227.86 297.141 227.86 296.162C227.86 295.183 228.654 294.39 229.633 294.39C230.612 294.39 231.406 295.183 231.406 296.162C231.406 297.141 230.612 297.934 229.633 297.934Z" fill="#5A2525"/>
<path d="M295.472 461.429L295.831 461.361C301.075 460.375 306.126 463.826 307.112 469.069L335.973 622.508C336.959 627.751 333.508 632.8 328.263 633.786L327.904 633.854C322.66 634.84 317.61 631.389 316.623 626.146L287.762 472.707C286.776 467.464 290.228 462.415 295.472 461.429Z" fill="#F7B40A"/>
<path d="M329.741 605.282L329.808 605.641C330.794 610.884 327.343 615.933 322.098 616.919L305.307 620.076C300.063 621.062 295.012 617.611 294.026 612.368L293.959 612.009C292.972 606.766 296.424 601.717 301.668 600.731L318.46 597.574C323.704 596.588 328.754 600.039 329.741 605.282Z" fill="#F7B40A"/>
<path d="M318.374 577.955L318.441 578.314C319.428 583.556 315.976 588.606 310.732 589.592L288.496 593.772C283.252 594.758 278.201 591.307 277.215 586.064L277.147 585.705C276.161 580.463 279.613 575.413 284.857 574.427L307.093 570.247C312.337 569.261 317.388 572.712 318.374 577.955Z" fill="#F7B40A"/>
<path d="M289.606 417.05C288.265 417.053 286.927 417.18 285.609 417.43C280.369 418.419 275.686 421.326 272.475 425.583C269.264 429.839 267.755 435.14 268.244 440.449C268.733 445.758 271.184 450.694 275.118 454.293C279.052 457.892 284.187 459.896 289.52 459.912C290.866 459.91 292.208 459.783 293.531 459.533C298.771 458.543 303.454 455.636 306.665 451.379C309.876 447.122 311.385 441.822 310.896 436.512C310.406 431.203 307.955 426.267 304.02 422.668C300.085 419.069 294.95 417.066 289.616 417.05H289.606ZM289.616 394.495C300.938 394.496 311.824 398.857 320.013 406.672C328.203 414.487 333.067 425.155 333.595 436.461C334.123 447.767 330.274 458.842 322.848 467.386C315.423 475.929 304.99 481.285 293.718 482.34C282.446 483.396 271.201 480.07 262.318 473.053C253.434 466.037 247.596 455.869 246.014 444.661C244.433 433.454 247.231 422.068 253.827 412.869C260.423 403.669 270.309 397.364 281.434 395.261C284.131 394.751 286.871 394.495 289.616 394.495Z" fill="#F7B40A"/>
<path d="M277.546 395.956L271.078 401.53C271.078 401.53 273.431 418.275 265.936 418.275C265.936 418.275 266.233 420.928 264.761 421.364C263.29 421.801 258.444 416.037 258.444 416.037C258.444 416.037 252.568 414.605 250.806 409.314C249.044 404.022 247.278 391.248 248.897 390.074C250.516 388.899 267.555 386.4 267.555 386.4C267.555 386.4 274.753 386.4 277.546 395.956Z" fill="#EEAF84"/>
<path d="M264.123 384.639L291.228 370.723" stroke="white" stroke-miterlimit="10" stroke-linecap="square"/>
<path d="M285.785 372.975L267.511 355.532" stroke="white" stroke-miterlimit="10" stroke-linecap="square"/>
<path d="M216.613 368.368L213.383 355.665" stroke="white" stroke-miterlimit="10" stroke-linecap="square"/>
<path d="M277.677 396.679C277.677 396.679 277.179 386.401 263.624 384.865" stroke="white" stroke-miterlimit="10" stroke-linecap="square"/>
<path d="M240.542 514.793L244.936 521.127L240.102 526.307" stroke="white" stroke-miterlimit="10" stroke-linecap="square"/>
<path d="M308.73 478.694C308.73 478.694 303 481.153 299.634 481.916" stroke="white" stroke-miterlimit="10" stroke-linecap="square"/>
<path d="M331.484 620.784L327.076 597.724" stroke="white" stroke-miterlimit="10" stroke-linecap="square"/>
<path d="M325.972 593.023L323.988 582.745" stroke="white" stroke-miterlimit="10" stroke-linecap="square"/>
</svg>
