<svg width="44" height="44" viewBox="0 0 44 44" fill="none" xmlns="http://www.w3.org/2000/svg">
<circle cx="22" cy="22" r="21" stroke="#3561D1" stroke-width="2"/>
<path d="M21.9 29V27.686C20.7588 27.5609 19.8294 27.1741 19.1118 26.5256C18.3941 25.8771 18.0235 25.0068 18 23.9147H20.3824C20.4059 24.3697 20.5471 24.7679 20.8059 25.1092C21.0765 25.4505 21.4412 25.6837 21.9 25.8089V22.2082C21.7941 22.1741 21.6824 22.1399 21.5647 22.1058C21.4588 22.0717 21.3471 22.0375 21.2294 22.0034C20.2765 21.6849 19.5471 21.2753 19.0412 20.7747C18.5471 20.2742 18.3 19.6086 18.3 18.7782C18.2882 17.7998 18.6176 17.0148 19.2882 16.4232C19.9588 15.8203 20.8294 15.4733 21.9 15.3823V14H23.0824V15.3993C24.1412 15.5017 24.9941 15.8601 25.6412 16.4744C26.3 17.0774 26.6471 17.8567 26.6824 18.8123H24.2647C24.2529 18.4824 24.1412 18.1809 23.9294 17.9079C23.7294 17.6234 23.4471 17.4243 23.0824 17.3106V20.4846C23.1765 20.5188 23.2706 20.5529 23.3647 20.587C23.4588 20.6098 23.5529 20.6382 23.6471 20.6724C24.2588 20.8771 24.8176 21.116 25.3235 21.3891C25.8294 21.6621 26.2353 22.0262 26.5412 22.4812C26.8471 22.9249 27 23.4994 27 24.2048C27 24.7964 26.8471 25.3481 26.5412 25.8601C26.2471 26.372 25.8059 26.7986 25.2176 27.1399C24.6412 27.4699 23.9294 27.6576 23.0824 27.7031V29H21.9ZM20.6647 18.6246C20.6647 18.9886 20.7765 19.2844 21 19.5119C21.2235 19.7281 21.5235 19.9158 21.9 20.0751V17.2423C21.5353 17.3106 21.2353 17.4642 21 17.7031C20.7765 17.942 20.6647 18.2491 20.6647 18.6246ZM24.6 24.3584C24.6 23.9033 24.4588 23.5449 24.1765 23.2833C23.8941 23.0216 23.5294 22.7998 23.0824 22.6177V25.8601C23.5529 25.7918 23.9235 25.6268 24.1941 25.3652C24.4647 25.1035 24.6 24.7679 24.6 24.3584Z" fill="#3561D1"/>
</svg>
