<svg width="59" height="45" viewBox="0 0 59 45" fill="none" xmlns="http://www.w3.org/2000/svg">
<path d="M56.8085 34.5348L53.3198 32.7907C53.2996 32.7806 53.2869 32.7601 53.2869 32.7376L53.2872 30.9842C54.7193 29.998 55.733 28.4391 55.9867 26.6095C56.6308 25.4963 56.9703 24.239 56.9703 22.9605C56.9703 20.5764 55.8223 18.4558 54.0505 17.1212C54.1543 16.7754 54.2079 16.4186 54.2079 16.0546C54.2079 13.8025 52.1692 11.9703 49.6634 11.9703C47.1575 11.9703 45.1188 13.8025 45.1188 16.0546C45.1188 16.4191 45.1718 16.776 45.2757 17.1216C44.2192 17.9174 43.3862 18.9935 42.8847 20.2375C42.6712 18.139 42.4488 15.6582 42.2355 12.7684C41.9541 8.95548 40.5828 5.73553 38.2701 3.4568C35.9749 1.1953 32.9097 0 29.4059 0C25.9021 0 22.8369 1.1953 20.542 3.45669C18.2292 5.73553 16.858 8.95548 16.5765 12.7683C16.5018 13.7806 16.426 14.7401 16.3498 15.6534H8.22779C5.21415 15.6534 2.76232 18.1052 2.76232 21.1188V21.1702C2.76232 21.872 2.92818 22.5749 3.24212 23.2026L3.68309 24.0847V25.4912C3.68309 27.7204 4.78156 29.7205 6.44541 30.9242V32.1685C6.44541 32.328 6.33824 32.47 6.18489 32.5139L2.62827 33.5301C1.08078 33.9721 0 35.4049 0 37.0143V44.1385C0 44.6143 0.385723 45 0.861501 45C1.33728 45 1.723 44.6143 1.723 44.1385V37.0143C1.723 36.1701 2.28998 35.4185 3.10163 35.1866L6.65837 34.1704C6.78668 34.1337 6.90855 34.084 7.02456 34.0249L9.20784 36.2082V44.1385C9.20784 44.6143 9.59356 45 10.0693 45C10.5451 45 10.9308 44.6143 10.9308 44.1385V36.2082L13.1294 34.0097C13.4232 34.1538 13.716 34.2377 13.9306 34.299L14.8039 34.5485C13.6204 35.39 12.891 36.7626 12.891 38.2509V44.1383C12.891 44.614 13.2768 44.9998 13.7525 44.9998C14.2283 44.9998 14.614 44.614 14.614 44.1383V38.2509C14.614 37.1341 15.2742 36.121 16.2958 35.6698L21.2213 33.4944C22.7648 36.5853 25.9188 38.5544 29.406 38.5544C32.9062 38.5544 36.0497 36.5897 37.5922 33.4951L42.5162 35.6698C43.5379 36.121 44.198 37.1341 44.198 38.2509V44.1383C44.198 44.614 44.5837 44.9998 45.0595 44.9998C45.5353 44.9998 45.921 44.614 45.921 44.1383V38.2509C45.921 37.1488 45.5205 36.1107 44.833 35.3036L46.1662 34.6371L47.1671 35.5882C47.8671 36.2535 48.7651 36.5859 49.6635 36.5859C50.5615 36.5859 51.46 36.2532 52.1598 35.5882L53.1605 34.6372L56.0381 36.0759C56.6863 36.3999 57.0889 37.0514 57.0889 37.7761V44.1384C57.0889 44.6142 57.4746 44.9999 57.9504 44.9999C58.4262 44.9999 58.8119 44.6142 58.8119 44.1384V37.7761C58.8118 36.3947 58.0442 35.1527 56.8085 34.5348ZM49.6632 13.6932C51.219 13.6932 52.4848 14.7525 52.4848 16.0545C52.4848 16.109 52.4805 16.1631 52.4761 16.2171C51.6098 15.8544 50.6596 15.6534 49.6632 15.6534C48.667 15.6534 47.7169 15.8544 46.8508 16.217C46.8464 16.163 46.8416 16.109 46.8416 16.0545C46.8416 14.7525 48.1075 13.6932 49.6632 13.6932ZM10.0695 34.6332L8.10638 32.6701C8.14693 32.5083 8.16864 32.3401 8.16864 32.1683V31.8049C8.71058 31.9828 9.28216 32.0884 9.87361 32.1061C9.93988 32.1082 10.0058 32.1091 10.0719 32.1091C10.7252 32.1091 11.3631 32.0104 11.97 31.8221V32.168C11.97 32.3549 11.9892 32.5244 12.0233 32.6793L10.0695 34.6332ZM9.9253 30.3837C7.43338 30.3091 5.40609 28.1142 5.40609 25.4912V23.8813C5.40609 23.7476 5.37496 23.6156 5.31512 23.496L4.78317 22.4321C4.58835 22.0423 4.48532 21.606 4.48532 21.1702V21.1188C4.48532 19.0553 6.16421 17.3764 8.22779 17.3764H15.6535V20.9527C15.6535 21.5306 15.5169 22.1095 15.2583 22.6264L14.8236 23.4959C14.7637 23.6156 14.7326 23.7475 14.7326 23.8812V25.7227C14.7326 26.9947 14.2297 28.1834 13.3165 29.0695C12.4038 29.9551 11.1987 30.4222 9.9253 30.3837ZM17.1255 33.4198L14.404 32.6423C13.6929 32.4392 13.693 32.3599 13.693 32.1682L13.6933 30.9813C13.9826 30.7809 14.2585 30.5565 14.5166 30.306C14.6903 30.1375 14.852 29.9601 15.0037 29.7764C15.1421 30.0571 15.3542 30.3023 15.6284 30.4798C16.319 30.927 17.6222 31.6698 19.5386 32.354L17.1255 33.4198ZM29.4059 36.8315C26.6029 36.8315 24.0644 35.2647 22.7984 32.7979L24.0524 32.244C25.0311 31.8118 25.6634 30.8413 25.6634 29.7714V27.7043C26.8209 28.1694 28.084 28.4259 29.4059 28.4259C30.7278 28.4259 31.9907 28.1694 33.1484 27.7043V29.7714C33.1484 30.8413 33.7807 31.8119 34.7594 32.244L36.0132 32.7978C34.7481 35.2673 32.2193 36.8315 29.4059 36.8315ZM36.8762 31.2954L35.4555 30.6678C35.1007 30.5112 34.8714 30.1592 34.8714 29.7713V26.8095C37.6399 25.0133 39.4754 21.8952 39.4754 18.3564V16.741C39.4754 15.6912 39.029 14.7008 38.2506 14.024C36.5197 12.5185 32.6015 9.89141 25.8085 9.21209C25.3363 9.16476 24.9129 9.51005 24.8656 9.98365C24.8182 10.4571 25.1636 10.8793 25.6371 10.9266C31.9554 11.5584 35.5435 13.953 37.12 15.3242C37.5219 15.6736 37.7524 16.1901 37.7524 16.741V18.3564C37.7524 22.9585 34.0082 26.7027 29.406 26.7027C24.8039 26.7027 21.0597 22.9585 21.0597 18.3564V17.6357C21.0597 17.3047 21.2432 17.0014 21.5506 16.8244C22.6277 16.2043 24.0482 15.0554 24.6987 13.1041C24.8491 12.6528 24.6052 12.1649 24.1537 12.0144C23.7025 11.8639 23.2145 12.1079 23.064 12.5593C22.5848 13.997 21.5089 14.8602 20.6908 15.3313C19.8555 15.8122 19.3366 16.6953 19.3366 17.6358V18.3565C19.3366 21.8955 21.1719 25.0134 23.9405 26.8096V29.7714C23.9405 30.1593 23.7113 30.5112 23.3564 30.6679L21.9357 31.2955C19.1609 30.5531 17.383 29.5633 16.5648 29.0336C16.5485 29.0231 16.5393 29.011 16.5439 28.9838C16.8444 27.2075 17.6165 22.0838 18.295 12.8952C18.5451 9.50488 19.7403 6.66538 21.7513 4.68393C23.7172 2.74693 26.3641 1.723 29.4059 1.723C32.4477 1.723 35.0946 2.74693 37.0605 4.68393C39.0715 6.66538 40.2667 9.50477 40.517 12.8951C41.1953 22.0834 41.9674 27.2072 42.268 28.9837C42.2726 29.011 42.2634 29.0231 42.247 29.0336C41.4276 29.564 39.6497 30.5532 36.8762 31.2954ZM46.0394 32.7375C46.0394 32.7601 46.0269 32.7805 46.0067 32.7906L43.3075 34.1401C43.2755 34.1251 43.2447 34.1082 43.2123 34.0939L39.2734 32.3542C41.1889 31.6703 42.4919 30.9278 43.1834 30.48C43.7775 30.0953 44.0851 29.3953 43.9669 28.6964C43.9604 28.6581 43.9534 28.6162 43.9465 28.5748C44.4311 29.5491 45.1555 30.3756 46.0394 30.9842V32.7375ZM50.9725 34.3393C50.2384 35.0373 49.0881 35.0371 48.3538 34.3393L47.553 33.5784C47.6881 33.3253 47.7623 33.0381 47.7623 32.7375V31.8208C48.364 32.0074 49.0022 32.109 49.6631 32.109C50.324 32.109 50.9623 32.0074 51.5638 31.8208L51.5637 32.7373C51.5637 33.0381 51.6379 33.3253 51.7731 33.5786L50.9725 34.3393ZM49.6632 30.3858C47.2779 30.3858 45.2857 28.5997 45.0292 26.231C45.0154 26.1041 44.9737 25.9818 44.9068 25.873C44.3654 24.9911 44.0792 23.984 44.0792 22.9603C44.0792 19.8814 46.5841 17.3764 49.6632 17.3764C52.7422 17.3764 55.2473 19.8814 55.2473 22.9604C55.2473 23.5539 55.1504 24.1418 54.964 24.703C52.5178 22.2179 48.2145 21.2439 48.0071 21.1982C47.7523 21.142 47.4856 21.2045 47.2821 21.368C47.0786 21.5316 46.9602 21.7785 46.9602 22.0395C46.9602 22.0451 46.9209 22.6428 46.2918 23.2719C45.9553 23.6083 45.9553 24.1539 46.2918 24.4902C46.6282 24.8266 47.1737 24.8266 47.5101 24.4902C47.9946 24.0057 48.2792 23.5139 48.4462 23.0987C49.8958 23.5293 52.9046 24.6169 54.2548 26.5259C53.8716 28.7461 51.9483 30.3858 49.6632 30.3858Z" fill="#3561D1"/>
</svg>
