<svg width="387" height="334" viewBox="0 0 387 334" fill="none" xmlns="http://www.w3.org/2000/svg">
<path opacity="0.3" d="M84.2014 48.5723L84.2345 48.5294L84.2641 48.4846L84.2642 48.4845L84.2643 48.4844L84.2643 48.4843L84.2644 48.4842L84.2661 48.4817L84.2752 48.468L84.3154 48.4082C84.3519 48.3541 84.408 48.2717 84.4832 48.1628C84.6336 47.945 84.8606 47.6211 85.162 47.2046C85.7649 46.3714 86.6647 45.1684 87.8431 43.7033L86.6743 42.7632C88.6636 40.2899 91.4294 37.0877 94.887 33.6553L95.9437 34.7198C98.5738 32.1089 101.606 29.3661 105.002 26.7163L104.08 25.5337C107.174 23.1191 110.569 20.7783 114.235 18.6762L114.981 19.9775C118.38 18.0284 122.01 16.2932 125.846 14.9054L125.335 13.4948C129.099 12.1332 133.064 11.0956 137.209 10.5045L137.421 11.9894C139.363 11.7125 141.345 11.5363 143.365 11.4742C145.779 11.4 148.023 11.4962 150.12 11.7369L150.291 10.2467C155.414 10.8347 159.742 12.2603 163.576 14.2068L162.897 15.5443C167.003 17.6289 170.55 20.3478 173.964 23.3268L174.95 22.1966C176.595 23.6317 178.195 25.114 179.796 26.5966C181.604 28.2708 183.412 29.9453 185.284 31.5526L184.307 32.6908C187.83 35.7141 191.635 38.5537 196.123 40.7199L196.775 39.3691C200.63 41.23 204.987 42.5653 210.136 43.0703L209.99 44.5631C212.24 44.7837 214.628 44.8502 217.175 44.741C219.144 44.6566 221.185 44.5254 223.287 44.3588L223.169 42.8635C226.999 42.5601 231.054 42.1375 235.287 41.6637L235.454 43.1544C237.507 42.9247 239.617 42.6811 241.762 42.4336C243.669 42.2135 245.603 41.9903 247.548 41.7709L247.38 40.2804C251.322 39.8356 255.369 39.3995 259.488 39.0171L259.627 40.5107C263.601 40.1418 267.639 39.8235 271.715 39.5962L271.631 38.0985C275.655 37.8741 279.718 37.7376 283.794 37.7278L283.798 39.2278C287.818 39.2181 291.845 39.3325 295.857 39.6081L295.959 38.1116C300.011 38.3899 304.05 38.8312 308.052 39.4735L307.814 40.9546C311.774 41.5904 315.691 42.4246 319.54 43.494L319.941 42.0488C323.842 43.1325 327.678 44.4555 331.425 46.0557L330.836 47.4352C334.467 48.9857 338.008 50.7998 341.438 52.9128L342.225 51.6357C345.614 53.7236 348.898 56.099 352.055 58.7953L351.081 59.9359C352.575 61.2124 354.041 62.5626 355.476 63.9902C356.781 65.2896 358.022 66.6704 359.196 68.1279L360.364 67.1866C362.713 70.1009 364.801 73.3067 366.629 76.7643L365.302 77.4652C367.003 80.6831 368.476 84.1311 369.718 87.7773L371.138 87.2934C372.34 90.8198 373.328 94.5211 374.102 98.3677L372.631 98.6635C373.356 102.268 373.891 106.006 374.234 109.853L375.728 109.719C376.06 113.443 376.215 117.264 376.192 121.16L374.692 121.151C374.67 124.861 374.485 128.642 374.137 132.474L375.63 132.61C375.289 136.363 374.792 140.163 374.14 143.992L372.661 143.74C372.034 147.418 371.262 151.125 370.345 154.842L371.801 155.202C370.895 158.875 369.848 162.558 368.66 166.237L367.233 165.776C366.08 169.345 364.794 172.91 363.374 176.456L364.766 177.014C363.355 180.536 361.813 184.039 360.14 187.511L358.789 186.859C357.156 190.247 355.397 193.603 353.511 196.916L354.815 197.658C352.934 200.962 350.929 204.222 348.799 207.426L347.55 206.595C345.466 209.73 343.262 212.809 340.937 215.822L342.125 216.739C339.802 219.749 337.36 222.694 334.798 225.561L333.679 224.562C331.172 227.368 328.549 230.099 325.811 232.743L326.853 233.822C324.122 236.46 321.276 239.013 318.316 241.47L317.358 240.315C314.464 242.717 311.46 245.025 308.346 247.231L309.213 248.455C306.123 250.643 302.925 252.73 299.62 254.707L298.85 253.42C297.23 254.388 295.584 255.33 293.912 256.244C292.147 257.208 290.349 258.143 288.519 259.047L289.184 260.391C285.548 262.188 281.792 263.866 277.934 265.427L277.371 264.037C273.646 265.544 269.821 266.942 265.912 268.234L266.383 269.658C262.523 270.934 258.583 272.106 254.577 273.176L254.19 271.727C250.279 272.771 246.304 273.719 242.278 274.571L242.588 276.038C238.599 276.882 234.562 277.632 230.489 278.291L230.249 276.81C226.236 277.459 222.188 278.019 218.116 278.492L218.289 279.982C214.22 280.454 210.128 280.839 206.025 281.139L205.916 279.643C201.843 279.941 197.76 280.155 193.677 280.286L193.726 281.785C189.614 281.917 185.503 281.966 181.407 281.933L181.419 280.433C177.316 280.4 173.228 280.285 169.165 280.089L169.093 281.588C164.968 281.389 160.869 281.108 156.811 280.747L156.944 279.253C152.838 278.887 148.774 278.438 144.765 277.909L144.569 279.396C140.445 278.852 136.38 278.223 132.385 277.51L132.649 276.034C128.572 275.307 124.571 274.493 120.662 273.595L120.326 275.057C116.246 274.12 112.264 273.092 108.397 271.974L108.813 270.533C104.803 269.374 100.92 268.119 97.1838 266.772L96.675 268.183C92.699 266.75 88.8853 265.212 85.2573 263.572L85.8751 262.205C82.0457 260.475 78.4314 258.633 75.0592 256.685L74.3088 257.984C70.5921 255.836 67.1584 253.558 64.0442 251.154L64.9608 249.967C61.6145 247.384 58.658 244.663 56.1319 241.815L55.0097 242.811C52.1654 239.604 49.8381 236.225 48.0907 232.682L49.436 232.019C48.5533 230.23 47.8265 228.401 47.2626 226.535C46.7156 224.724 46.2205 222.867 45.7756 220.967L44.3152 221.309C43.4476 217.605 42.7698 213.75 42.2668 209.771L43.755 209.583C43.2812 205.836 42.9638 201.974 42.7908 198.02L41.2923 198.086C41.1244 194.25 41.0913 190.333 41.1817 186.357L42.6813 186.391C42.7681 182.568 42.97 178.688 43.2767 174.771L41.7813 174.653C42.0835 170.794 42.4866 166.9 42.9809 162.99L44.4691 163.179C44.9541 159.343 45.5275 155.49 46.1802 151.639L44.7013 151.388C45.3536 147.539 46.0844 143.692 46.8846 139.865L48.3528 140.172C49.1511 136.353 50.0189 132.554 50.9468 128.792L49.4904 128.432C50.4336 124.608 51.4385 120.822 52.4956 117.092L53.9387 117.501C55.0136 113.709 56.1425 109.976 57.3154 106.32L55.8871 105.862C57.1037 102.07 58.3674 98.362 59.6668 94.7586L61.0778 95.2674C62.4328 91.51 63.8264 87.8682 65.2457 84.3664L63.8556 83.803C65.3795 80.0431 66.9334 76.4424 68.5014 73.0309L69.8643 73.6574C71.5736 69.9385 73.2978 66.4502 75.0157 63.2312L73.6924 62.525C75.6928 58.7766 77.6881 55.3841 79.646 52.4083L80.8991 53.2328C82.0188 51.5309 83.1217 49.9741 84.2014 48.5723Z" stroke="#A0ACAF" stroke-width="3" stroke-dasharray="12 12"/>
<g filter="url(#filter0_d)">
<path d="M46.5067 90.0249C46.5067 90.0249 66.3151 50.9142 102.075 45.6527C137.835 40.3911 142.919 75.9942 179.205 70.2065C215.491 64.4188 276.143 39.1634 319.967 73.7142C363.791 108.265 356.779 220.511 280.876 274.178C204.974 327.846 52.9926 325.04 30.2043 272.425C7.41588 219.809 27.2242 122.12 46.5067 90.0249Z" fill="white"/>
</g>
<path d="M175.811 241.042C232.781 241.042 278.963 232.246 278.963 221.394C278.963 210.543 232.781 201.746 175.811 201.746C118.842 201.746 72.6587 210.543 72.6587 221.394C72.6587 232.246 118.842 241.042 175.811 241.042Z" fill="#E5E5F9"/>
<path d="M206.266 206.097L213.002 209.044L214.827 209.746L211.318 219.429L201.634 218.026L206.266 206.097Z" fill="#34006F"/>
<path d="M223.247 208.904L213.002 209.044L209.494 219.289C209.494 219.289 222.265 235.429 225.493 240.902C228.721 246.375 235.457 239.499 235.878 232.762C236.299 226.026 228.019 218.166 228.159 215.64C228.3 213.114 226.054 209.465 223.247 208.904Z" fill="#34006F"/>
<path d="M126.13 159.363C126.13 159.363 127.814 179.993 155.181 191.22C182.548 202.448 214.546 193.747 220.02 168.766C220.02 168.766 141.568 156.415 126.13 159.363Z" fill="#34006F"/>
<path d="M178.057 56.7715C178.057 56.7715 161.917 58.4556 147.462 64.9114C133.006 71.5076 112.797 107.997 112.797 107.997L130.34 119.926L122.621 158.099C122.621 158.099 153.496 172.835 181.565 174.239C209.634 175.642 221.563 168.345 221.563 168.345L224.089 127.645C224.089 127.645 234.334 126.241 242.755 120.908C242.755 120.908 230.124 85.4016 215.809 72.49C204.581 62.1046 178.057 56.7715 178.057 56.7715Z" fill="#4E0829"/>
<path d="M208.371 70.9462C204.301 74.7355 196.02 78.9458 184.512 75.1565C173.004 71.3673 172.162 59.8591 172.162 59.8591C172.162 59.8591 174.688 59.4381 178.057 56.7716C178.618 56.3506 179.179 55.6488 179.741 55.0875C181.846 52.7016 183.39 49.4737 183.951 48.351C184.091 48.0703 184.091 47.9299 184.091 47.9299L191.67 49.8947L203.038 52.7016H203.178V52.9823C203.038 55.6488 203.459 58.175 204.02 60.4205C205.564 66.5956 208.371 70.9462 208.371 70.9462Z" fill="#EEAF84"/>
<path d="M204.16 60.5608C201.634 62.2449 196.161 65.1921 190.126 63.929C184.232 62.6659 181.004 57.7539 179.741 55.0874C181.846 52.7016 183.39 49.4737 183.951 48.351L191.81 49.8947L203.178 52.7016L203.318 52.9823C203.318 55.6488 203.599 58.175 204.16 60.5608Z" fill="#4E0829"/>
<path d="M183.67 26.7381L182.969 29.5449C182.969 29.5449 179.32 29.4046 178.618 34.878C177.916 40.3514 182.267 41.3338 182.267 41.3338C182.267 41.3338 181.144 56.2102 191.389 59.2977C201.634 62.3853 210.055 47.0879 210.055 47.0879C210.055 47.0879 211.178 48.0703 213.985 45.9651C216.791 43.86 216.37 38.9479 214.686 38.1059L214.967 34.4569C215.107 34.5973 200.371 26.317 183.67 26.7381Z" fill="#EEAF84"/>
<path d="M182.969 29.5449C182.969 29.5449 185.916 27.4398 194.477 28.8432C203.038 30.1063 212.721 35.8604 214.826 38.2462C214.826 38.2462 215.949 38.6672 216.932 37.4041C217.914 36.1411 216.791 34.0359 217.633 32.6325C218.475 31.229 216.932 29.6853 216.932 29.6853C216.932 29.6853 218.195 24.0716 216.791 20.984C215.388 17.7561 211.037 13.2651 211.599 10.1775C212.16 7.08999 208.511 7.08997 207.669 8.49341C207.669 8.49341 207.248 6.66896 205.283 5.96724C203.318 5.26553 201.494 7.37068 201.494 7.37068C201.494 7.37068 200.09 5.26551 197.424 7.08997C194.757 8.77409 193.635 13.2651 190.126 14.3878C186.617 15.5106 183.67 21.1243 183.67 22.9488C183.67 22.9488 181.144 23.3698 180.723 24.6329C180.442 26.0363 181.004 27.0187 180.863 27.7205C180.723 28.4222 180.302 29.6853 180.583 30.5273C180.583 30.6677 181.986 29.5449 182.969 29.5449Z" fill="#4A4AFF"/>
<path d="M115.604 109.821C115.604 109.821 105.078 134.802 106.061 148.416C107.043 162.029 148.445 161.327 148.445 161.327L145.638 142.1L126.411 139.574L130.34 119.926L115.604 109.821Z" fill="#EEAF84"/>
<path d="M239.387 122.733C239.387 122.733 242.895 148.696 240.51 159.924C238.124 171.151 204.441 169.327 204.441 169.327V149.96L223.107 143.784L223.809 127.785C223.949 127.645 233.773 124.557 239.387 122.733Z" fill="#EEAF84"/>
<path d="M126.13 159.363C116.306 157.678 95.9558 156.275 88.2369 171.292C80.518 186.309 96.3768 201.887 126.13 206.097C155.882 210.307 197.705 211.29 197.705 211.29L203.739 195.852L181.425 185.186C181.425 185.326 141.427 162.029 126.13 159.363Z" fill="#8989FF"/>
<path d="M220.16 168.204C229.984 166.52 250.333 165.117 258.052 180.133C265.771 195.15 249.912 210.728 220.16 214.939C190.407 219.149 148.585 220.131 148.585 220.131L142.55 204.693L164.864 194.027C164.864 194.027 205.003 170.871 220.16 168.204Z" fill="#8989FF"/>
<path d="M143.953 208.202L181.565 185.186C181.425 185.326 152.935 187.01 143.953 208.202Z" fill="#34006F"/>
<path d="M143.953 208.202L137.217 211.149L135.392 211.991L138.901 221.535L148.584 220.131L143.953 208.202Z" fill="#34006F"/>
<path d="M126.972 211.009L137.217 211.149L140.725 221.394C140.725 221.394 127.954 237.534 124.726 243.007C121.498 248.481 114.762 241.604 114.341 234.867C113.92 228.131 122.2 220.271 122.06 217.745C121.919 215.219 124.165 211.57 126.972 211.009Z" fill="#34006F"/>
<path d="M212.441 135.925L210.897 171.713L210.757 176.204L143.953 173.678L139.743 134.943C139.462 132.136 141.006 129.61 143.392 128.627C144.093 128.347 145.076 128.066 145.918 128.066L206.406 129.329C209.914 129.61 212.581 132.417 212.441 135.925Z" fill="#6657AE"/>
<path d="M182.969 29.5449C182.969 29.5449 182.407 34.0359 183.53 35.72C183.53 35.72 186.197 30.6677 187.881 29.8256C189.565 28.8432 190.547 33.4745 195.179 34.7376C199.81 36.0007 197.985 31.9308 197.985 31.9308C197.985 31.9308 201.073 36.7024 204.301 37.9655C207.529 39.0883 208.371 36.9831 208.371 36.9831C208.371 36.9831 210.055 37.9655 209.915 40.4917C209.774 43.0179 209.915 44.9827 209.915 44.9827L214.967 38.1059C214.967 38.1059 211.458 30.387 202.196 27.4398C194.617 25.0539 187.319 25.7556 184.372 27.4398C181.425 29.1239 181.144 30.387 181.144 30.387C181.144 30.387 181.004 30.2466 182.969 29.5449Z" fill="#4E0829"/>
<path d="M130.901 119.645C130.901 119.645 143.813 87.5067 145.216 87.0857C146.62 86.6646 131.322 140.276 131.322 140.276L126.41 139.574L130.901 119.645Z" fill="#37000C"/>
<path d="M217.634 145.188C217.634 145.188 215.669 113.189 213.143 103.365C210.616 93.4011 223.949 127.505 223.949 127.505L223.247 143.504L217.634 145.188Z" fill="#37000C"/>
<path d="M210.897 171.713L210.757 176.204L143.953 173.678L139.743 134.943C139.462 132.136 141.006 129.61 143.392 128.627C149.286 137.329 163.742 150.942 179.46 157.257C192.512 162.59 203.318 170.309 210.897 171.713Z" fill="#5544A8"/>
<path d="M177.636 160.345C181.589 160.345 184.793 157.078 184.793 153.047C184.793 149.017 181.589 145.749 177.636 145.749C173.683 145.749 170.478 149.017 170.478 153.047C170.478 157.078 173.683 160.345 177.636 160.345Z" fill="#34006F"/>
<path d="M201.634 39.6497C201.634 39.6497 202.897 39.7901 204.301 40.6321C205.704 41.4742 206.546 42.5969 206.546 42.5969C206.546 42.5969 206.546 40.6321 205.143 39.7901C204.16 39.2287 202.617 38.3866 201.634 39.6497Z" fill="#4E0829"/>
<path d="M201.516 45.2645C201.866 45.4318 202.448 44.944 202.816 44.1749C203.184 43.4059 203.199 42.6468 202.849 42.4795C202.5 42.3122 201.918 42.8 201.55 43.5691C201.182 44.3381 201.167 45.0972 201.516 45.2645Z" fill="#4E0829"/>
<path d="M197.845 41.6145C197.845 41.6145 196.161 48.9123 195.459 49.193C194.757 49.4737 192.652 48.2107 192.652 48.2107" stroke="#4E0829" stroke-width="0.5" stroke-miterlimit="10" stroke-linecap="round"/>
<path d="M190.688 50.4561C190.688 50.4561 191.951 52.2805 194.056 52.7016" stroke="#4E0829" stroke-width="0.5" stroke-miterlimit="10" stroke-linecap="round"/>
<path d="M194.477 37.2638C194.477 37.2638 193.494 36.2814 191.951 35.8604C190.407 35.4394 189.003 35.5797 189.003 35.5797C189.003 35.5797 190.547 34.3166 192.091 34.7377C193.214 35.0183 194.757 35.72 194.477 37.2638Z" fill="#4E0829"/>
<path d="M191.732 38.1811C191.376 38.0286 190.815 38.5403 190.479 39.3241C190.144 40.1079 190.161 40.867 190.517 41.0195C190.873 41.172 191.434 40.6602 191.77 39.8764C192.105 39.0926 192.088 38.3336 191.732 38.1811Z" fill="#4E0829"/>
<circle cx="62.5" cy="59.5" r="22.5" fill="#3561D1"/>
<path d="M61.744 69V54.596L58.754 55.298V52.75L63.148 50.8H65.202V69H61.744Z" fill="white"/>
<defs>
<filter id="filter0_d" x="0" y="25.1202" width="367" height="308.056" filterUnits="userSpaceOnUse" color-interpolation-filters="sRGB">
<feFlood flood-opacity="0" result="BackgroundImageFix"/>
<feColorMatrix in="SourceAlpha" type="matrix" values="0 0 0 0 0 0 0 0 0 0 0 0 0 0 0 0 0 0 127 0"/>
<feOffset/>
<feGaussianBlur stdDeviation="10"/>
<feColorMatrix type="matrix" values="0 0 0 0 0 0 0 0 0 0 0 0 0 0 0 0 0 0 0.1 0"/>
<feBlend mode="normal" in2="BackgroundImageFix" result="effect1_dropShadow"/>
<feBlend mode="normal" in="SourceGraphic" in2="effect1_dropShadow" result="shape"/>
</filter>
</defs>
</svg>
