<svg width="336" height="298" viewBox="0 0 336 298" fill="none" xmlns="http://www.w3.org/2000/svg">
<path opacity="0.3" d="M24.0632 74.303L24.0912 74.2565L24.1154 74.2087L24.1155 74.2085L24.1156 74.2084L24.1157 74.2082L24.1166 74.2063L24.1228 74.1942L24.1508 74.1402C24.1763 74.091 24.2157 74.0159 24.2687 73.9163C24.3749 73.717 24.5361 73.4197 24.7515 73.0362C25.1823 72.269 25.83 71.1574 26.6893 69.795L25.4206 68.9947C26.8748 66.6892 28.92 63.6857 31.5331 60.4177L32.7046 61.3545C34.6877 58.8745 37.0003 56.2434 39.631 53.6561L38.5792 52.5867C40.9824 50.2232 43.6487 47.8931 46.5706 45.7398L47.4604 46.9473C50.1606 44.9574 53.0765 43.1275 56.2012 41.5726L55.5329 40.2296C58.6098 38.6985 61.8904 37.4234 65.3689 36.5109L65.7495 37.9618C67.372 37.5361 69.0382 37.1921 70.7475 36.941C72.7908 36.6408 74.7051 36.502 76.5084 36.5L76.5068 35C80.9368 34.9952 84.7714 35.7825 88.2364 37.0624L87.7167 38.4695C91.4056 39.8321 94.6863 41.7886 97.889 43.9861L98.7377 42.7493C100.284 43.8104 101.797 44.916 103.311 46.0219C105.02 47.2707 106.729 48.5198 108.487 49.7052L107.649 50.9489C110.962 53.1832 114.509 55.2386 118.579 56.6499L119.07 55.2327C122.545 56.4375 126.396 57.145 130.84 57.0668L130.866 58.5665C132.819 58.5322 134.873 58.3521 137.045 58.0061C139.047 57.6874 141.128 57.3016 143.277 56.8671L142.98 55.3969C146.834 54.6179 150.933 53.6769 155.223 52.6754L155.564 54.1361C156.31 53.9619 157.061 53.786 157.818 53.609C161.053 52.8519 164.379 52.0733 167.786 51.3125L167.459 49.8486C171.458 48.9554 175.566 48.0871 179.747 47.3108L180.021 48.7856C184.072 48.0336 188.185 47.3695 192.331 46.8542L192.146 45.3657C196.288 44.8508 200.466 44.4824 204.65 44.3209L204.708 45.8198C208.845 45.66 212.979 45.7052 217.08 46.0132L217.193 44.5174C221.365 44.8308 225.512 45.4125 229.601 46.3232L229.275 47.7873C233.252 48.6731 237.167 49.8749 240.992 51.4492L241.563 50.0621C245.353 51.6223 249.062 53.5422 252.66 55.8758L251.844 57.1343C253.535 58.2314 255.202 59.4223 256.842 60.7131C258.383 61.9261 259.851 63.2566 261.243 64.6969L262.322 63.6542C265.097 66.5247 267.576 69.8081 269.75 73.4406L268.463 74.2108C270.448 77.5291 272.178 81.1551 273.643 85.0401L275.046 84.5111C276.449 88.2334 277.61 92.1796 278.522 96.306L277.057 96.6298C277.907 100.471 278.538 104.475 278.946 108.607L280.439 108.46C280.833 112.454 281.021 116.561 280.998 120.749L279.498 120.741C279.476 124.721 279.262 128.777 278.851 132.88L280.344 133.03C279.941 137.051 279.351 141.115 278.572 145.197L277.098 144.916C276.347 148.854 275.416 152.809 274.303 156.758L275.747 157.165C274.645 161.074 273.367 164.975 271.909 168.848L270.505 168.32C269.087 172.087 267.498 175.826 265.734 179.515L267.087 180.162C265.331 183.836 263.403 187.461 261.302 191.017L260.01 190.254C257.96 193.723 255.743 197.125 253.357 200.441L254.574 201.318C252.197 204.62 249.653 207.839 246.941 210.954L245.809 209.969C243.17 213 240.37 215.932 237.406 218.747L238.439 219.835C235.494 222.631 232.389 225.314 229.122 227.866L228.198 226.684C226.609 227.926 224.98 229.136 223.313 230.314C221.763 231.408 220.175 232.475 218.551 233.515L219.36 234.778C216.14 236.84 212.784 238.795 209.31 240.643L208.606 239.319C205.256 241.101 201.794 242.783 198.236 244.367L198.845 245.737C195.337 247.299 191.739 248.764 188.066 250.133L187.542 248.728C183.965 250.062 180.315 251.304 176.608 252.456L177.053 253.889C173.368 255.034 169.627 256.09 165.846 257.057L165.474 255.603C161.753 256.555 157.992 257.419 154.205 258.198L154.507 259.667C150.71 260.447 146.888 261.141 143.054 261.749L142.819 260.268C139.003 260.873 135.176 261.393 131.351 261.828L131.521 263.318C127.648 263.758 123.778 264.112 119.925 264.379L119.821 262.882C115.947 263.151 112.092 263.331 108.268 263.425L108.305 264.924C104.383 265.02 100.495 265.025 96.6556 264.939L96.6892 263.439C92.7824 263.351 88.9278 263.169 85.1423 262.893L85.0332 264.389C81.0914 264.102 77.2228 263.713 73.4458 263.224L73.6385 261.736C69.7363 261.231 65.9353 260.618 62.2563 259.897L61.9682 261.37C58.0426 260.601 54.2518 259.711 50.6207 258.702L51.0226 257.256C47.1909 256.191 43.5454 254.991 40.1149 253.66L39.5723 255.059C35.7915 253.592 32.2607 251.964 29.0187 250.177L29.7427 248.864C26.2324 246.929 23.0848 244.813 20.344 242.522L19.382 243.673C16.254 241.059 13.6222 238.208 11.5576 235.123L12.8041 234.289C11.7603 232.729 10.8713 231.112 10.1449 229.437C9.41101 227.745 8.72851 225.995 8.09566 224.193L6.68033 224.689C5.44869 221.181 4.40534 217.484 3.53579 213.638L4.99887 213.307C4.18449 209.704 3.52336 205.963 3.00412 202.114L1.51758 202.314C1.01446 198.584 0.643875 194.759 0.394904 190.866L1.89185 190.77C1.65229 187.025 1.5261 183.214 1.50365 179.363L0.00368008 179.372C-0.0184923 175.568 0.0598766 171.728 0.229361 167.876L1.72791 167.942C1.89497 164.145 2.15113 160.334 2.48736 156.535L0.993202 156.402C1.33211 152.573 1.75181 148.754 2.24305 144.971L3.73056 145.165C4.22609 141.349 4.79483 137.569 5.42717 133.849L3.94838 133.598C4.6013 129.757 5.32166 125.982 6.09899 122.297L7.56669 122.607C8.3737 118.781 9.24226 115.056 10.1604 111.46L8.70705 111.089C9.69036 107.239 10.7305 103.536 11.8132 100.017L13.2469 100.458C14.4288 96.6163 15.6602 93.0005 16.9217 89.6584L15.5184 89.1287C16.9952 85.2162 18.5155 81.6684 20.0494 78.5615L21.3944 79.2255C22.2859 77.4199 23.1778 75.7746 24.0632 74.303Z" stroke="#A0ACAF" stroke-width="3" stroke-dasharray="12 12"/>
<g filter="url(#filter0_d)">
<path d="M47.0235 77.6066C47.0235 77.6066 64.7542 42.5979 96.7638 37.8883C128.773 33.1786 133.324 65.0474 165.804 59.8668C198.284 54.6861 252.575 32.0797 291.802 63.0066C331.03 93.9335 324.753 194.407 256.811 242.445C188.87 290.484 52.8291 287.972 32.4309 240.875C12.0326 193.779 29.7634 106.336 47.0235 77.6066Z" fill="white"/>
<path d="M228.183 148.639L251.069 241.609L192.891 259.647L186.261 195.338L151.112 165.821L177.42 121.261L228.183 148.639Z" fill="#E5A27B"/>
<path d="M205.725 74.9186L177.42 121.261C177.42 121.261 214.423 171.026 214.922 169.6C215.492 168.103 228.183 148.71 228.183 148.71L205.725 74.9186Z" fill="#E5A27B"/>
<path d="M195.886 134.094C195.886 134.094 194.389 149.352 205.511 163.968C205.511 163.968 197.597 159.333 191.751 144.147L195.886 134.094Z" fill="#1C1C1C"/>
<path d="M148.902 52.6741L124.946 37.8445C121.667 35.7769 117.389 36.8463 115.321 40.0547C113.681 42.6926 113.967 46.1862 116.106 48.4676L136.496 67.076L148.902 52.6741Z" fill="#E5A27B"/>
<path d="M146.763 79.838L121.096 69.2862C117.532 67.7889 113.468 69.5 111.97 72.9936C110.758 75.9167 111.614 79.2676 114.109 81.1926L138.92 97.163L146.763 79.838Z" fill="#E5A27B"/>
<path d="M178.704 180.009L118.815 168.673C114.109 167.746 110.972 163.255 111.899 158.478L135.142 28.0769C136.069 23.3713 140.56 20.2343 145.337 21.1611L205.226 32.4972C209.932 33.4241 213.069 37.9157 212.142 42.6926L188.899 173.094C188.044 177.799 183.481 180.865 178.704 180.009Z" fill="#1C1C1C"/>
<path d="M178.276 176.516L120.526 165.608C116.748 164.895 114.323 161.258 115.036 157.48L137.851 29.5028C138.564 25.7241 142.2 23.3 145.979 24.013L203.729 34.9213C207.508 35.6343 209.932 39.2704 209.219 43.0491L186.404 171.026C185.691 174.733 182.055 177.229 178.276 176.516Z" fill="white"/>
<path d="M184.479 35.7055L163.446 31.7129C160.167 31.0713 157.957 27.9342 158.598 24.5833L191.537 30.8574C190.967 34.2083 187.758 36.3472 184.479 35.7055Z" fill="#1C1C1C"/>
<path d="M242.871 53.1019L186.19 43.3343C185.477 43.1917 185.049 42.55 185.121 41.837L187.972 25.2963C188.115 24.5833 188.757 24.1555 189.47 24.2268L246.15 33.9944C246.863 34.137 247.291 34.7787 247.22 35.4917L244.368 52.0324C244.225 52.7454 243.584 53.1732 242.871 53.1019Z" fill="#639FFB"/>
<path d="M195.53 39.9834C198.247 39.9834 200.449 37.7809 200.449 35.0639C200.449 32.347 198.247 30.1445 195.53 30.1445C192.813 30.1445 190.61 32.347 190.61 35.0639C190.61 37.7809 192.813 39.9834 195.53 39.9834Z" fill="white"/>
<path d="M205.369 34.9927L234.244 39.9834" stroke="white" stroke-width="1.0216" stroke-miterlimit="10" stroke-linecap="round" stroke-linejoin="round"/>
<path d="M204.656 39.0565L222.908 42.1936" stroke="white" stroke-width="1.0216" stroke-miterlimit="10" stroke-linecap="round" stroke-linejoin="round"/>
<path d="M206.595 56.7575L134.997 44.4214L123.666 110.187L195.263 122.523L206.595 56.7575Z" fill="#E7ECF2"/>
<path d="M136.283 102.296L156.816 105.861" stroke="white" stroke-width="1.0216" stroke-miterlimit="10" stroke-linecap="round" stroke-linejoin="round"/>
<path d="M135.57 106.289L184.978 114.845" stroke="white" stroke-width="1.0216" stroke-miterlimit="10" stroke-linecap="round" stroke-linejoin="round"/>
<path d="M145.337 56.6667L194.746 65.2223" stroke="white" stroke-width="1.0216" stroke-miterlimit="10" stroke-linecap="round" stroke-linejoin="round"/>
<path d="M183.838 104.934L139.919 97.377C138.422 97.0918 137.352 95.6659 137.637 94.1687L142.557 65.7928C142.842 64.2955 144.268 63.2261 145.765 63.5113L189.684 71.0687C191.181 71.3539 192.251 72.7798 191.965 74.277L187.046 102.653C186.832 104.221 185.335 105.22 183.838 104.934Z" fill="#639FFB"/>
<path d="M155.39 93.8834L171.788 78.8398L182.982 98.6602L155.39 93.8834Z" fill="#8CC0FC"/>
<path d="M144.268 92.0298L154.606 83.4742L160.737 94.8104L144.268 92.0298Z" fill="#4575BA"/>
<path d="M155.818 79.9806C157.944 79.9806 159.668 78.2569 159.668 76.1306C159.668 74.0044 157.944 72.2806 155.818 72.2806C153.691 72.2806 151.968 74.0044 151.968 76.1306C151.968 78.2569 153.691 79.9806 155.818 79.9806Z" fill="#EEC733"/>
<path d="M194.267 128.28L122.67 115.944L117.755 144.471L189.352 156.807L194.267 128.28Z" fill="#E7ECF2"/>
<path d="M177.991 148.354L130.793 140.226C130.222 140.155 129.795 139.584 129.937 139.014L132.29 125.254C132.361 124.683 132.932 124.256 133.502 124.398L180.7 132.526C181.271 132.597 181.698 133.168 181.556 133.738L179.203 147.498C179.132 148.069 178.561 148.425 177.991 148.354Z" fill="#639FFB"/>
<path d="M138.564 137.445C140.809 137.445 142.628 135.626 142.628 133.381C142.628 131.137 140.809 129.318 138.564 129.318C136.32 129.318 134.5 131.137 134.5 133.381C134.5 135.626 136.32 137.445 138.564 137.445Z" fill="white"/>
<path d="M146.692 133.31L170.719 137.445" stroke="white" stroke-width="0.8504" stroke-miterlimit="10" stroke-linecap="round" stroke-linejoin="round"/>
<path d="M146.122 136.661L161.379 139.299" stroke="white" stroke-width="0.8504" stroke-miterlimit="10" stroke-linecap="round" stroke-linejoin="round"/>
<path d="M228.183 148.639C228.183 148.639 229.894 108.713 226.543 95.8797L207.365 64.2955C205.44 59.376 202.089 57.2371 197.455 59.8038C194.318 61.5862 194.531 67.9316 195.173 71.4964C196.528 79.8381 199.879 86.8964 202.089 93.3844L228.183 148.639Z" fill="#E5A27B"/>
<path d="M122.094 101.583L128.511 105.861C131.006 107.858 131.791 111.351 130.365 114.274C128.654 117.768 124.376 119.122 120.954 117.34L111.543 112.563C107.479 110.496 105.768 105.647 107.55 101.441L107.764 101.013C109.689 96.7353 114.68 94.739 119.029 96.5927L122.665 98.1613L122.094 101.583Z" fill="#E5A27B"/>
<path d="M117.888 125.111L124.376 128.462C126.8 129.959 127.869 132.954 126.871 135.663C125.73 138.943 122.094 140.582 118.886 139.299L110.117 136.019C106.338 134.594 104.27 130.458 105.482 126.608L105.625 126.181C106.837 122.188 111.115 119.978 115.107 121.19L118.387 122.188L117.888 125.111Z" fill="#E5A27B"/>
<path d="M184.907 228.847V269.105C184.907 269.105 210.476 265.337 227.435 257.799C239.998 252.774 260.726 237.699 260.726 237.699L244.51 192.201L184.907 228.847Z" fill="#F3CA61"/>
<path d="M185.701 258.614L254.859 225.461" stroke="#DA9C2A" stroke-width="3.1668" stroke-miterlimit="10" stroke-linecap="round" stroke-linejoin="round"/>
</g>
<circle cx="299.5" cy="77.5" r="22.5" fill="#3561D1"/>
<path d="M294.326 87V84.582C295.435 83.6633 296.51 82.7533 297.55 81.852C298.607 80.9507 299.543 80.058 300.358 79.174C301.19 78.29 301.849 77.432 302.334 76.6C302.837 75.7507 303.088 74.9273 303.088 74.13C303.088 73.3847 302.88 72.726 302.464 72.154C302.065 71.582 301.398 71.296 300.462 71.296C299.509 71.296 298.789 71.608 298.304 72.232C297.819 72.856 297.576 73.61 297.576 74.494H294.352C294.387 73.1593 294.681 72.05 295.236 71.166C295.791 70.2647 296.527 69.5973 297.446 69.164C298.365 68.7133 299.396 68.488 300.54 68.488C302.395 68.488 303.833 68.9993 304.856 70.022C305.896 71.0273 306.416 72.336 306.416 73.948C306.416 74.9533 306.182 75.9327 305.714 76.886C305.263 77.8393 304.665 78.758 303.92 79.642C303.175 80.526 302.369 81.358 301.502 82.138C300.635 82.9007 299.795 83.6113 298.98 84.27H306.858V87H294.326Z" fill="white"/>
<defs>
<filter id="filter0_d" x="3.29688" y="0.998657" width="332.703" height="296.354" filterUnits="userSpaceOnUse" color-interpolation-filters="sRGB">
<feFlood flood-opacity="0" result="BackgroundImageFix"/>
<feColorMatrix in="SourceAlpha" type="matrix" values="0 0 0 0 0 0 0 0 0 0 0 0 0 0 0 0 0 0 127 0"/>
<feOffset/>
<feGaussianBlur stdDeviation="10"/>
<feColorMatrix type="matrix" values="0 0 0 0 0 0 0 0 0 0 0 0 0 0 0 0 0 0 0.1 0"/>
<feBlend mode="normal" in2="BackgroundImageFix" result="effect1_dropShadow"/>
<feBlend mode="normal" in="SourceGraphic" in2="effect1_dropShadow" result="shape"/>
</filter>
</defs>
</svg>
