<svg width="373" height="311" viewBox="0 0 373 311" fill="none" xmlns="http://www.w3.org/2000/svg">
<path opacity="0.2" d="M27.2926 92.8303L27.3204 92.7838L27.3447 92.736L27.3448 92.7358L27.3448 92.7357L27.3449 92.7357L27.3449 92.7355L27.3463 92.7329L27.3535 92.7186L27.3859 92.6559C27.4154 92.5991 27.4607 92.5126 27.5216 92.3981C27.6435 92.169 27.8281 91.8278 28.0747 91.388C28.568 90.5083 29.3089 89.2347 30.2917 87.6741L29.0224 86.8748C30.682 84.2396 33.016 80.8064 35.9982 77.0707L37.1705 78.0065C39.4384 75.1656 42.0836 72.1509 45.0933 69.1858L44.0405 68.1172C46.7839 65.4144 49.8278 62.7497 53.1634 60.2871L54.0544 61.4938C57.1462 59.2112 60.4862 57.1111 64.0667 55.3261L63.3974 53.9837C66.9117 52.2317 70.6587 50.7727 74.6319 49.7285L75.0131 51.1792C76.874 50.6902 78.785 50.2949 80.7456 50.0065C83.0886 49.6617 85.2848 49.5022 87.3549 49.5L87.3533 48C92.4121 47.9946 96.7909 48.8954 100.748 50.3595L100.227 51.7663C104.461 53.3332 108.223 55.5811 111.886 58.0984L112.736 56.8622C114.501 58.0752 116.228 59.3391 117.955 60.6033C119.906 62.0309 121.857 63.4588 123.864 64.8138L123.024 66.0569C126.8 68.6064 130.831 70.9457 135.453 72.5513L135.945 71.1344C139.913 72.5127 144.31 73.3222 149.385 73.2329L149.412 74.7327C151.631 74.6936 153.967 74.4886 156.439 74.0944C158.349 73.7897 160.323 73.4313 162.354 73.0315L162.064 71.5598C165.762 70.8316 169.667 69.9619 173.74 69.022L174.077 70.4836C176.052 70.0279 178.081 69.5522 180.144 69.0687C181.977 68.6389 183.837 68.203 185.707 67.7696L185.369 66.3083C189.161 65.4297 193.055 64.5477 197.027 63.7098L197.337 65.1775C201.168 64.3693 205.068 63.6032 209.014 62.9216L208.758 61.4435C212.654 60.7704 216.599 60.1786 220.571 59.7087L220.747 61.1983C224.663 60.735 228.601 60.3918 232.541 60.2074L232.471 58.7091C236.451 58.5228 240.437 58.4968 244.41 58.671L244.344 60.1696C248.274 60.342 252.185 60.7127 256.056 61.3202L256.288 59.8383C260.212 60.4541 264.101 61.3103 267.933 62.4468L267.507 63.8849C271.219 64.9858 274.874 66.3534 278.455 68.0248L279.089 66.6657C282.628 68.3178 286.097 70.2622 289.478 72.5336L288.641 73.7787C290.242 74.8537 291.822 76.0037 293.381 77.2326C294.955 78.4734 296.461 79.8209 297.9 81.269L298.964 80.2118C301.831 83.0971 304.427 86.363 306.746 89.9571L305.486 90.7705C307.632 94.0962 309.54 97.7172 311.203 101.592L312.581 101.001C314.179 104.725 315.55 108.671 316.69 112.802L315.244 113.201C316.309 117.06 317.17 121.087 317.822 125.251L319.304 125.019C319.935 129.047 320.372 133.197 320.613 137.443L319.115 137.528C319.344 141.567 319.393 145.695 319.258 149.889L320.757 149.937C320.625 154.04 320.318 158.203 319.834 162.404L318.344 162.232C317.878 166.284 317.245 170.372 316.442 174.475L317.914 174.763C317.123 178.808 316.169 182.867 315.05 186.92L313.604 186.521C312.514 190.467 311.266 194.407 309.858 198.325L311.269 198.833C309.869 202.727 308.311 206.599 306.594 210.431L305.225 209.817C303.549 213.558 301.719 217.26 299.734 220.907L301.051 221.624C299.07 225.262 296.936 228.846 294.646 232.359L293.389 231.54C291.151 234.975 288.762 238.342 286.221 241.625L287.407 242.543C284.874 245.816 282.191 249.007 279.356 252.101L278.25 251.087C275.485 254.105 272.575 257.03 269.517 259.847L270.533 260.95C267.496 263.747 264.316 266.439 260.99 269.014L260.072 267.827C258.446 269.085 256.786 270.314 255.09 271.513C253.479 272.652 251.832 273.766 250.151 274.853L250.966 276.113C247.626 278.274 244.155 280.333 240.57 282.291L239.851 280.974C236.391 282.863 232.822 284.658 229.159 286.358L229.791 287.719C226.173 289.398 222.465 290.985 218.682 292.48L218.13 291.085C214.437 292.545 210.67 293.917 206.843 295.201L207.32 296.623C203.528 297.896 199.678 299.083 195.782 300.186L195.374 298.742C191.537 299.828 187.655 300.83 183.74 301.751L184.083 303.211C180.17 304.13 176.226 304.968 172.261 305.724L171.98 304.25C168.045 305 164.09 305.67 160.126 306.258L160.347 307.742C156.354 308.335 152.354 308.846 148.358 309.277L148.197 307.786C144.195 308.217 140.197 308.566 136.216 308.834L136.317 310.331C132.274 310.603 128.248 310.792 124.251 310.898L124.212 309.399C120.169 309.506 116.158 309.528 112.191 309.465L112.168 310.965C108.088 310.9 104.054 310.746 100.081 310.502L100.172 309.005C96.1171 308.757 92.1265 308.416 88.2158 307.982L88.0505 309.473C83.968 309.021 79.9707 308.468 76.0759 307.815L76.3237 306.336C72.2845 305.659 68.3589 304.875 64.5665 303.984L64.2235 305.444C60.1865 304.496 56.2959 303.428 52.5749 302.239L53.0312 300.81C49.1044 299.557 45.3748 298.17 41.869 296.652L41.2732 298.029C37.4083 296.356 33.8046 294.523 30.498 292.532L31.2718 291.247C27.72 289.108 24.5329 286.792 21.7507 284.302L20.7506 285.42C17.6163 282.616 14.9666 279.586 12.8636 276.331L14.1235 275.517C13.062 273.874 12.1479 272.175 11.3882 270.421C10.6508 268.719 9.95884 266.965 9.31094 265.164L7.89953 265.672C6.63572 262.16 5.53977 258.479 4.60033 254.659L6.05694 254.3C5.17229 250.703 4.42703 246.975 3.81211 243.142L2.33105 243.38C1.73425 239.66 1.25975 235.846 0.898832 231.961L2.3924 231.822C2.04544 228.087 1.80406 224.284 1.66064 220.431L0.161676 220.487C0.0203669 216.691 -0.0264102 212.851 0.0139069 208.984L1.51383 209C1.55338 205.207 1.67725 201.388 1.87844 197.561L0.380511 197.483C0.581618 193.657 0.859513 189.826 1.20717 186.005L2.701 186.141C3.04784 182.33 3.4645 178.529 3.94395 174.758L2.45592 174.568C2.9433 170.735 3.49521 166.931 4.10433 163.177L5.58497 163.417C6.20426 159.6 6.88293 155.834 7.61318 152.139L6.14164 151.849C6.89921 148.016 7.71207 144.259 8.57163 140.6L10.0319 140.943C10.9281 137.129 11.875 133.422 12.8628 129.849L11.417 129.45C12.4777 125.613 13.5856 121.928 14.7285 118.426L16.1545 118.892C17.4003 115.075 18.6867 111.481 19.9973 108.15L18.6015 107.601C20.1279 103.722 21.6894 100.19 23.2616 97.0687L24.6013 97.7435C25.5001 95.9589 26.399 94.3177 27.2926 92.8303Z" fill="white" stroke="#A0ACAF" stroke-width="3" stroke-dasharray="12 12"/>
<g filter="url(#filter0_d)">
<path d="M58.0068 64.0574C58.0068 64.0574 77.4415 25.6844 112.527 20.5221C147.613 15.3598 152.601 50.2913 188.202 44.6128C223.804 38.9343 283.312 14.1552 326.309 48.0543C369.307 81.9534 362.427 192.082 287.956 244.738C213.485 297.393 64.3703 294.64 42.0118 243.017C19.6532 191.394 39.088 95.5474 58.0068 64.0574Z" fill="white"/>
</g>
<path d="M274.686 20H185.78C179.777 20 174.838 24.5593 174.306 30.5624L154.017 275.548C153.637 280.031 157.133 283.831 161.616 283.907L276.586 285.047C283.653 285.123 289.656 279.652 290.188 272.585L308.349 30.7903C308.805 24.9392 304.17 20 298.319 20H274.686Z" fill="#3E479B"/>
<path opacity="0.46" d="M273.091 21.6718H186.92C181.145 21.6718 176.282 26.1551 175.826 32.0061L156.069 271.749C155.689 276.08 159.108 279.879 163.44 279.879L275.066 280.943C281.981 281.019 287.756 275.7 288.212 268.785L305.842 32.2341C306.297 26.535 301.814 21.6718 296.115 21.6718H273.091Z" fill="#4C65BA"/>
<path d="M270.127 26.611H189.959C184.564 26.611 180.081 30.9423 179.625 36.6414L161.312 268.937C161.008 273.193 164.123 276.764 168.15 276.84L271.874 277.904C278.257 277.98 283.652 272.813 284.108 266.05L300.446 36.8694C300.826 31.3222 296.646 26.611 291.403 26.611H270.127Z" fill="white"/>
<path d="M270.127 26.611H189.96C184.565 26.611 180.081 30.9423 179.625 36.6414L179.169 42.4165L300.447 42.7964L300.522 36.8694C300.902 31.3222 296.723 26.611 291.48 26.611H270.127Z" fill="#599AF2"/>
<path d="M277.954 23.9514L268.075 33.222H213.668L205.689 23.9514H277.954Z" fill="#3E479B"/>
<path opacity="0.46" d="M277.954 23.9514L268.075 33.222H213.668L205.689 23.9514H277.954Z" fill="#4C65BA"/>
<path d="M251.814 26.6112H231.297C231.069 26.6112 230.917 26.4592 230.917 26.2313C230.917 26.0033 231.069 25.8513 231.297 25.8513H251.814C252.042 25.8513 252.194 26.0033 252.194 26.2313C252.194 26.4592 252.042 26.6112 251.814 26.6112Z" fill="#ECF1F7"/>
<path opacity="0.75" d="M232.741 105.107L187.452 102.143C186.616 102.067 186.008 101.383 186.084 100.548L188.972 56.7024C189.048 55.8666 189.731 55.2587 190.567 55.3347L235.856 58.2982C236.692 58.3742 237.3 59.0581 237.224 59.8939L234.337 103.739C234.261 104.499 233.577 105.107 232.741 105.107Z" fill="#599AF2"/>
<path opacity="0.37" d="M231.905 73.4196L225.75 66.4287C224.914 65.4408 223.622 64.8329 222.331 64.7569L217.847 64.453C217.467 64.453 217.087 64.7569 217.087 65.1369C216.935 67.1886 215.188 68.7083 213.212 68.5563L212.452 68.4804C210.4 68.3284 208.881 66.5807 209.033 64.605C209.033 64.225 208.729 63.8451 208.349 63.8451L204.017 63.5411C202.574 63.4651 201.206 63.9211 200.142 64.8329L193.227 70.912L199.382 77.9029L202.498 75.1673L201.206 94.1644L221.647 95.5321L222.862 77.219L224.914 79.5746L231.905 73.4196Z" fill="#ECF1F7"/>
<path d="M286.692 71.0639L244.823 69.2402C244.291 69.2402 243.835 68.7083 243.835 68.1764L243.911 65.9727C243.911 65.4408 244.443 64.9849 244.975 64.9849L286.844 66.8086C287.376 66.8086 287.832 67.3405 287.832 67.8724L287.756 70.0761C287.756 70.684 287.224 71.1399 286.692 71.0639Z" fill="#ECF1F7"/>
<path d="M265.567 77.7511L244.747 76.8392C244.215 76.8392 243.759 76.3073 243.759 75.7754L243.835 73.5717C243.835 73.0398 244.367 72.5839 244.899 72.5839L265.719 73.4957C266.251 73.4957 266.707 74.0276 266.707 74.5596L266.631 76.7632C266.555 77.3711 266.099 77.7511 265.567 77.7511Z" fill="#ECF1F7"/>
<path opacity="0.99" d="M266.252 101.687L248.242 100.928C245.507 100.776 243.379 98.496 243.531 95.7604L243.607 94.6966C243.759 91.961 246.039 89.8333 248.774 89.9853L266.783 90.7452C269.519 90.8972 271.647 93.1768 271.495 95.9124L271.419 96.9762C271.267 99.7118 268.987 101.763 266.252 101.687Z" fill="#EF929C"/>
<path d="M248.503 96.3667C248.546 96.3803 248.601 96.3912 248.668 96.3993C248.736 96.4044 248.801 96.4079 248.862 96.4097C248.985 96.4134 249.087 96.3918 249.169 96.3449C249.253 96.2951 249.297 96.2163 249.301 96.1087C249.304 96.0071 249.272 95.9338 249.205 95.8888C249.139 95.8437 249.037 95.8191 248.898 95.815L248.52 95.8038L248.503 96.3667ZM248.537 95.2408L248.873 95.2508C249.006 95.2547 249.102 95.233 249.162 95.1855C249.225 95.1381 249.258 95.0667 249.26 94.9713C249.263 94.8883 249.229 94.8211 249.16 94.7698C249.094 94.7185 248.992 94.6909 248.853 94.6868C248.807 94.6854 248.753 94.6853 248.692 94.6866C248.633 94.6879 248.587 94.6912 248.553 94.6963L248.537 95.2408ZM248.784 97.0263C248.731 97.0247 248.67 97.0213 248.599 97.0162C248.529 97.011 248.455 97.0026 248.378 96.9911C248.305 96.9797 248.231 96.9652 248.158 96.9476C248.084 96.9332 248.017 96.9127 247.957 96.8863C247.789 96.8166 247.708 96.7018 247.713 96.5419L247.777 94.3869C247.779 94.3223 247.797 94.2736 247.832 94.2408C247.87 94.205 247.92 94.1772 247.982 94.1575C248.088 94.1237 248.219 94.1014 248.377 94.0907C248.534 94.0769 248.696 94.0725 248.862 94.0774C249.256 94.0891 249.557 94.1642 249.765 94.3028C249.973 94.4414 250.074 94.6491 250.065 94.9259C250.061 95.0644 250.018 95.1832 249.935 95.2823C249.852 95.3784 249.742 95.4475 249.605 95.4896C249.758 95.5372 249.883 95.6195 249.981 95.7363C250.082 95.8532 250.131 95.9978 250.125 96.1701C250.116 96.4746 249.996 96.6974 249.764 96.8383C249.535 96.9762 249.208 97.0389 248.784 97.0263Z" fill="white"/>
<path d="M253.067 96.0449C253.062 96.211 253.028 96.3624 252.966 96.4991C252.906 96.6329 252.821 96.7473 252.711 96.8426C252.6 96.9348 252.467 97.0047 252.312 97.0524C252.157 97.1002 251.982 97.1212 251.788 97.1154C251.595 97.1097 251.422 97.0784 251.269 97.0215C251.117 96.9646 250.988 96.8869 250.884 96.7884C250.779 96.6867 250.699 96.5674 250.645 96.4303C250.594 96.2902 250.57 96.1371 250.575 95.971L250.628 94.2083C250.662 94.2031 250.716 94.197 250.79 94.19C250.864 94.1799 250.935 94.1758 251.003 94.1778C251.073 94.1799 251.135 94.1879 251.187 94.2018C251.242 94.2127 251.287 94.2325 251.323 94.2613C251.36 94.29 251.386 94.3293 251.403 94.3791C251.42 94.4289 251.427 94.4937 251.425 94.5737L251.383 95.9811C251.379 96.1288 251.415 96.2453 251.493 96.3307C251.574 96.4163 251.678 96.4609 251.808 96.4648C251.94 96.4687 252.047 96.4303 252.13 96.3496C252.212 96.269 252.256 96.1548 252.26 96.0071L252.312 94.2583C252.346 94.2531 252.4 94.247 252.474 94.24C252.548 94.2299 252.619 94.2258 252.687 94.2278C252.758 94.2299 252.819 94.2379 252.871 94.2518C252.926 94.2626 252.972 94.2825 253.008 94.3112C253.044 94.34 253.07 94.3793 253.087 94.4291C253.104 94.4788 253.112 94.5437 253.109 94.6237L253.067 96.0449Z" fill="white"/>
<path d="M255.091 97.121C255.057 97.1292 255.004 97.1369 254.933 97.1441C254.862 97.1512 254.793 97.1537 254.725 97.1517C254.583 97.1475 254.478 97.1213 254.409 97.0731C254.339 97.0218 254.307 96.9192 254.311 96.7654L254.33 96.1424C254.256 96.0263 254.177 95.8977 254.092 95.7567C254.007 95.6156 253.923 95.4715 253.842 95.3243C253.76 95.1772 253.684 95.0333 253.614 94.8927C253.545 94.749 253.488 94.618 253.446 94.4997C253.487 94.4456 253.543 94.3964 253.612 94.3523C253.684 94.3082 253.771 94.2877 253.872 94.2907C253.992 94.2943 254.088 94.3218 254.161 94.3732C254.236 94.4247 254.306 94.5191 254.369 94.6565L254.73 95.4384L254.757 95.4393C254.803 95.3452 254.843 95.2601 254.876 95.1841C254.912 95.1052 254.946 95.0277 254.98 94.9517C255.013 94.8726 255.047 94.792 255.084 94.71C255.12 94.6249 255.161 94.5276 255.208 94.4181C255.264 94.392 255.326 94.3723 255.394 94.359C255.462 94.3456 255.527 94.3398 255.589 94.3416C255.696 94.3448 255.786 94.3768 255.858 94.4374C255.934 94.495 255.97 94.5808 255.966 94.6946C255.965 94.7315 255.956 94.7759 255.939 94.8277C255.922 94.8796 255.885 94.9585 255.826 95.0645C255.768 95.1675 255.682 95.3081 255.569 95.4864C255.459 95.6648 255.309 95.8974 255.118 96.1843L255.091 97.121Z" fill="white"/>
<path d="M259.732 97.1802C259.688 97.222 259.624 97.2525 259.54 97.2715C259.46 97.2938 259.362 97.3032 259.248 97.2998C259.135 97.2964 259.028 97.2763 258.927 97.2395C258.826 97.2026 258.746 97.1186 258.685 96.9875L258.256 96.0419C258.213 95.9451 258.174 95.8547 258.139 95.7705C258.105 95.6833 258.068 95.5837 258.028 95.4716L258 95.4754C258.008 95.6419 258.009 95.8113 258.004 95.9836C258.002 96.1559 257.998 96.3252 257.993 96.4913L257.972 97.2065C257.938 97.2147 257.885 97.2224 257.814 97.2295C257.746 97.2368 257.678 97.2394 257.611 97.2374C257.543 97.2354 257.483 97.229 257.431 97.2182C257.379 97.2074 257.337 97.1877 257.304 97.159C257.271 97.1303 257.246 97.0926 257.229 97.0459C257.212 96.9961 257.204 96.9328 257.206 96.8559L257.275 94.5487C257.32 94.4885 257.387 94.4443 257.477 94.4162C257.568 94.388 257.663 94.3755 257.765 94.3785C257.879 94.3819 257.986 94.4035 258.086 94.4435C258.19 94.4804 258.271 94.5628 258.328 94.6908L258.762 95.6366C258.805 95.7333 258.844 95.8253 258.879 95.9125C258.913 95.9967 258.95 96.0948 258.99 96.2068L259.013 96.2029C259.006 96.0364 259.003 95.8701 259.005 95.7038C259.007 95.5376 259.01 95.3715 259.015 95.2053L259.037 94.4578C259.071 94.4496 259.122 94.4419 259.19 94.4346C259.261 94.4275 259.331 94.425 259.398 94.427C259.534 94.431 259.636 94.4587 259.705 94.51C259.775 94.5582 259.807 94.6577 259.803 94.8084L259.732 97.1802Z" fill="white"/>
<path d="M260.231 95.888C260.238 95.6481 260.282 95.4369 260.361 95.2545C260.443 95.0722 260.551 94.9215 260.684 94.8023C260.82 94.6801 260.976 94.5893 261.154 94.5299C261.334 94.4705 261.527 94.4439 261.733 94.4501C261.939 94.4562 262.129 94.4941 262.303 94.5639C262.479 94.6338 262.632 94.7338 262.76 94.8639C262.889 94.9908 262.987 95.1477 263.056 95.3345C263.127 95.5213 263.159 95.7347 263.152 95.9747C263.145 96.2146 263.102 96.4273 263.022 96.6128C262.943 96.7952 262.835 96.9475 262.699 97.0697C262.567 97.1889 262.41 97.2782 262.23 97.3375C262.049 97.3968 261.854 97.4233 261.645 97.4171C261.436 97.4109 261.243 97.3729 261.067 97.303C260.89 97.23 260.739 97.1285 260.614 96.9986C260.488 96.8686 260.392 96.7102 260.323 96.5235C260.255 96.3367 260.224 96.1249 260.231 95.888ZM261.062 95.9127C261.054 96.1926 261.104 96.4035 261.214 96.5453C261.324 96.6871 261.474 96.7608 261.665 96.7665C261.858 96.7722 262.014 96.7076 262.132 96.5725C262.25 96.4375 262.313 96.23 262.322 95.95C262.33 95.6732 262.279 95.4638 262.169 95.322C262.063 95.1803 261.912 95.1066 261.719 95.1008C261.528 95.0952 261.372 95.1598 261.251 95.2948C261.133 95.4268 261.07 95.6327 261.062 95.9127Z" fill="white"/>
<path d="M264.927 95.3161C264.962 95.3017 265.014 95.2864 265.086 95.27C265.16 95.2507 265.234 95.2421 265.308 95.2443C265.437 95.2481 265.544 95.2713 265.629 95.3139C265.714 95.3533 265.765 95.4103 265.781 95.4846C265.811 95.6118 265.839 95.7311 265.863 95.8427C265.891 95.9513 265.917 96.0567 265.941 96.1591C265.966 96.2583 265.989 96.3575 266.011 96.4567C266.036 96.556 266.059 96.6598 266.08 96.7682L266.103 96.7689C266.137 96.5821 266.167 96.4044 266.193 96.2358C266.22 96.0642 266.245 95.8971 266.268 95.7346C266.291 95.569 266.315 95.4065 266.338 95.2471C266.361 95.0846 266.385 94.9206 266.408 94.755C266.524 94.6938 266.646 94.6651 266.775 94.6689C266.889 94.6723 266.987 94.6999 267.068 94.7515C267.15 94.8032 267.189 94.8875 267.186 95.0044C267.184 95.0721 267.173 95.1688 267.154 95.2944C267.138 95.4171 267.115 95.555 267.086 95.7081C267.06 95.8613 267.029 96.022 266.993 96.1903C266.958 96.3586 266.921 96.5191 266.882 96.6719C266.844 96.8247 266.804 96.9636 266.764 97.0887C266.726 97.2107 266.691 97.3051 266.658 97.3719C266.611 97.4136 266.534 97.4467 266.429 97.4713C266.324 97.4959 266.215 97.5065 266.105 97.5033C265.96 97.499 265.838 97.4769 265.737 97.4369C265.64 97.394 265.582 97.3369 265.562 97.2655C265.526 97.1412 265.487 96.9938 265.446 96.8233C265.405 96.6527 265.361 96.4651 265.315 96.2605C265.266 96.4592 265.215 96.6532 265.164 96.8426C265.112 97.032 265.066 97.1922 265.025 97.3234C264.977 97.3651 264.907 97.3984 264.814 97.4234C264.721 97.4483 264.619 97.4592 264.508 97.4559C264.37 97.4518 264.244 97.4296 264.131 97.3893C264.022 97.346 263.951 97.2885 263.919 97.2167C263.893 97.1605 263.865 97.0781 263.834 96.9694C263.807 96.8578 263.778 96.7322 263.749 96.5928C263.719 96.4503 263.688 96.2969 263.656 96.1328C263.627 95.9688 263.6 95.8048 263.574 95.6408C263.551 95.4769 263.529 95.3177 263.509 95.1632C263.489 95.0056 263.475 94.862 263.467 94.7324C263.511 94.6937 263.572 94.6586 263.65 94.627C263.728 94.5955 263.811 94.581 263.901 94.5836C264.018 94.5871 264.112 94.6161 264.184 94.6706C264.26 94.7221 264.305 94.8081 264.32 94.9286C264.36 95.2439 264.392 95.5065 264.417 95.7166C264.444 95.9268 264.465 96.0999 264.48 96.2358C264.497 96.3687 264.51 96.4722 264.517 96.5463C264.524 96.6204 264.531 96.6791 264.539 96.7225L264.562 96.7232C264.594 96.6009 264.623 96.4879 264.651 96.384C264.679 96.2802 264.706 96.1763 264.734 96.0724C264.765 95.9656 264.796 95.8526 264.827 95.7334C264.858 95.6112 264.892 95.4721 264.927 95.3161Z" fill="white"/>
<path opacity="0.75" d="M229.169 163.086L183.804 160.882C182.969 160.806 182.361 160.122 182.437 159.362L184.564 115.441C184.64 114.605 185.324 113.998 186.084 114.074L231.449 116.277C232.285 116.353 232.893 117.037 232.817 117.797L230.689 161.718C230.689 162.478 230.005 163.086 229.169 163.086Z" fill="#599AF2"/>
<path opacity="0.37" d="M198.394 124.18L193.455 149.408C193.379 149.636 193.607 149.864 193.835 149.94L203.181 150.7C203.409 150.7 203.561 150.548 203.637 150.396L205.917 139.606C205.993 139.378 206.145 139.226 206.373 139.302L208.5 139.454C208.728 139.454 208.88 139.682 208.88 139.834L209.336 150.852C209.336 151.08 209.488 151.232 209.716 151.232L219.063 151.992C219.291 151.992 219.519 151.84 219.519 151.536L218.759 125.852C218.759 125.624 218.607 125.472 218.379 125.472L198.698 123.876C198.622 123.8 198.394 123.952 198.394 124.18Z" fill="#ECF1F7"/>
<path d="M283.045 129.423L241.252 126.536C240.72 126.46 240.264 126.004 240.34 125.472L240.492 123.268C240.568 122.736 241.024 122.28 241.556 122.356L283.349 125.244C283.881 125.32 284.337 125.776 284.261 126.308L284.109 128.511C284.109 129.043 283.653 129.499 283.045 129.423Z" fill="#ECF1F7"/>
<path d="M261.768 135.578L241.023 134.134C240.491 134.058 240.035 133.602 240.111 133.07L240.263 130.867C240.339 130.335 240.795 129.879 241.327 129.955L262.072 131.399C262.604 131.475 263.06 131.931 262.984 132.462L262.832 134.666C262.832 135.198 262.3 135.578 261.768 135.578Z" fill="#ECF1F7"/>
<path opacity="0.99" d="M261.92 159.514L243.987 158.299C241.252 158.147 239.2 155.715 239.428 153.055L239.504 151.992C239.656 149.256 242.088 147.204 244.747 147.432L262.68 148.648C265.416 148.8 267.468 151.232 267.24 153.891L267.164 154.955C266.936 157.615 264.58 159.666 261.92 159.514Z" fill="#EF929C"/>
<path d="M244.227 153.734C244.269 153.749 244.324 153.761 244.392 153.771C244.459 153.778 244.523 153.783 244.585 153.786C244.708 153.793 244.811 153.774 244.893 153.729C244.979 153.681 245.025 153.604 245.031 153.496C245.036 153.395 245.006 153.321 244.941 153.274C244.876 153.227 244.774 153.2 244.636 153.192L244.258 153.172L244.227 153.734ZM244.289 152.609L244.625 152.628C244.757 152.635 244.854 152.616 244.915 152.57C244.979 152.524 245.014 152.453 245.019 152.358C245.023 152.275 244.992 152.207 244.924 152.154C244.859 152.101 244.757 152.071 244.619 152.063C244.573 152.061 244.519 152.06 244.457 152.059C244.399 152.059 244.352 152.061 244.318 152.066L244.289 152.609ZM244.491 154.4C244.439 154.398 244.378 154.393 244.307 154.386C244.237 154.379 244.163 154.369 244.087 154.355C244.014 154.342 243.941 154.326 243.868 154.306C243.795 154.29 243.728 154.268 243.668 154.24C243.502 154.166 243.424 154.049 243.433 153.89L243.55 151.737C243.554 151.672 243.573 151.624 243.609 151.592C243.648 151.557 243.699 151.531 243.761 151.513C243.868 151.482 244 151.463 244.157 151.456C244.315 151.446 244.477 151.445 244.643 151.455C245.036 151.476 245.335 151.559 245.54 151.702C245.745 151.846 245.84 152.056 245.825 152.333C245.817 152.471 245.771 152.589 245.685 152.686C245.6 152.78 245.488 152.846 245.351 152.885C245.502 152.936 245.625 153.021 245.72 153.141C245.819 153.26 245.863 153.406 245.854 153.578C245.837 153.882 245.711 154.102 245.476 154.237C245.243 154.369 244.915 154.424 244.491 154.4Z" fill="white"/>
<path d="M248.797 153.526C248.788 153.692 248.751 153.842 248.685 153.977C248.622 154.11 248.535 154.222 248.422 154.314C248.309 154.404 248.174 154.47 248.018 154.514C247.861 154.558 247.686 154.575 247.493 154.564C247.299 154.554 247.127 154.518 246.976 154.457C246.825 154.397 246.699 154.316 246.596 154.215C246.494 154.111 246.418 153.989 246.367 153.851C246.319 153.71 246.299 153.556 246.308 153.39L246.405 151.629C246.439 151.625 246.493 151.62 246.567 151.615C246.642 151.607 246.713 151.604 246.78 151.608C246.851 151.612 246.912 151.622 246.964 151.637C247.018 151.649 247.063 151.67 247.099 151.7C247.134 151.729 247.16 151.769 247.175 151.819C247.191 151.869 247.197 151.934 247.193 152.014L247.116 153.42C247.108 153.568 247.141 153.685 247.217 153.772C247.295 153.86 247.399 153.907 247.528 153.914C247.66 153.921 247.768 153.886 247.853 153.807C247.937 153.729 247.984 153.616 247.992 153.468L248.087 151.721C248.121 151.717 248.175 151.712 248.25 151.707C248.324 151.699 248.395 151.696 248.463 151.7C248.533 151.704 248.594 151.713 248.646 151.728C248.701 151.741 248.746 151.762 248.781 151.791C248.817 151.821 248.842 151.861 248.858 151.911C248.874 151.961 248.879 152.026 248.875 152.106L248.797 153.526Z" fill="white"/>
<path d="M250.794 154.652C250.759 154.659 250.707 154.666 250.635 154.671C250.564 154.676 250.495 154.677 250.427 154.673C250.286 154.666 250.181 154.637 250.113 154.587C250.045 154.534 250.015 154.431 250.023 154.277L250.057 153.655C249.987 153.537 249.911 153.406 249.829 153.263C249.748 153.12 249.668 152.974 249.59 152.825C249.511 152.676 249.439 152.53 249.373 152.388C249.307 152.242 249.254 152.11 249.214 151.991C249.257 151.938 249.314 151.89 249.384 151.847C249.457 151.805 249.545 151.787 249.646 151.792C249.766 151.799 249.861 151.829 249.932 151.882C250.006 151.935 250.074 152.031 250.134 152.17L250.474 152.961L250.502 152.962C250.55 152.87 250.592 152.785 250.627 152.71C250.665 152.632 250.701 152.556 250.736 152.481C250.771 152.402 250.808 152.323 250.847 152.242C250.885 152.157 250.929 152.061 250.978 151.953C251.035 151.928 251.097 151.91 251.166 151.898C251.234 151.887 251.299 151.883 251.361 151.886C251.468 151.892 251.557 151.926 251.628 151.988C251.702 152.048 251.735 152.134 251.729 152.248C251.727 152.285 251.717 152.329 251.699 152.381C251.681 152.432 251.641 152.51 251.58 152.614C251.519 152.716 251.429 152.854 251.312 153.03C251.198 153.205 251.042 153.434 250.845 153.716L250.794 154.652Z" fill="white"/>
<path d="M255.432 154.826C255.387 154.867 255.322 154.896 255.238 154.913C255.157 154.933 255.059 154.94 254.945 154.934C254.832 154.928 254.725 154.905 254.626 154.866C254.526 154.826 254.447 154.74 254.39 154.608L253.984 153.652C253.944 153.554 253.907 153.463 253.875 153.378C253.842 153.29 253.808 153.189 253.771 153.076L253.743 153.079C253.746 153.246 253.743 153.415 253.734 153.587C253.727 153.759 253.72 153.929 253.711 154.094L253.672 154.809C253.637 154.816 253.585 154.823 253.513 154.828C253.445 154.834 253.378 154.834 253.31 154.831C253.242 154.827 253.183 154.819 253.131 154.807C253.079 154.795 253.037 154.774 253.005 154.745C252.973 154.715 252.948 154.677 252.933 154.63C252.917 154.58 252.911 154.516 252.915 154.439L253.041 152.135C253.087 152.076 253.156 152.033 253.247 152.007C253.338 151.981 253.434 151.971 253.535 151.977C253.649 151.983 253.755 152.007 253.855 152.05C253.957 152.089 254.036 152.174 254.09 152.303L254.501 153.259C254.541 153.357 254.578 153.45 254.61 153.538C254.643 153.623 254.677 153.722 254.714 153.835L254.737 153.832C254.734 153.665 254.736 153.499 254.742 153.332C254.748 153.166 254.755 153 254.764 152.834L254.805 152.088C254.839 152.08 254.89 152.074 254.959 152.068C255.03 152.063 255.099 152.062 255.167 152.066C255.302 152.073 255.404 152.103 255.471 152.156C255.54 152.206 255.57 152.307 255.561 152.457L255.432 154.826Z" fill="white"/>
<path d="M255.963 153.547C255.976 153.307 256.024 153.097 256.108 152.917C256.195 152.737 256.306 152.589 256.442 152.473C256.581 152.354 256.74 152.267 256.919 152.212C257.1 152.158 257.294 152.136 257.5 152.147C257.706 152.158 257.895 152.201 258.066 152.275C258.241 152.349 258.391 152.453 258.516 152.586C258.642 152.716 258.736 152.876 258.8 153.064C258.867 153.252 258.894 153.467 258.881 153.706C258.868 153.946 258.819 154.158 258.735 154.341C258.651 154.521 258.54 154.671 258.401 154.79C258.265 154.905 258.106 154.991 257.925 155.046C257.743 155.1 257.547 155.122 257.338 155.111C257.129 155.099 256.938 155.057 256.763 154.982C256.588 154.905 256.44 154.8 256.318 154.667C256.196 154.534 256.103 154.373 256.039 154.185C255.975 153.996 255.95 153.784 255.963 153.547ZM256.793 153.592C256.777 153.872 256.823 154.084 256.929 154.229C257.035 154.373 257.183 154.45 257.374 154.461C257.568 154.471 257.725 154.411 257.846 154.279C257.967 154.146 258.036 153.941 258.051 153.661C258.066 153.384 258.02 153.174 257.914 153.029C257.811 152.885 257.663 152.808 257.469 152.797C257.279 152.787 257.121 152.847 256.997 152.979C256.876 153.108 256.808 153.313 256.793 153.592Z" fill="white"/>
<path d="M260.671 153.092C260.706 153.079 260.759 153.064 260.831 153.05C260.906 153.032 260.98 153.026 261.054 153.03C261.183 153.037 261.289 153.063 261.373 153.107C261.457 153.149 261.507 153.207 261.521 153.282C261.548 153.41 261.572 153.53 261.594 153.642C261.619 153.751 261.642 153.857 261.664 153.96C261.687 154.06 261.707 154.159 261.727 154.259C261.749 154.359 261.769 154.463 261.788 154.572L261.811 154.574C261.849 154.388 261.883 154.211 261.914 154.043C261.945 153.872 261.974 153.706 262.001 153.544C262.029 153.379 262.056 153.217 262.083 153.058C262.111 152.896 262.138 152.733 262.166 152.568C262.283 152.51 262.406 152.484 262.535 152.491C262.649 152.497 262.746 152.527 262.826 152.581C262.906 152.635 262.943 152.72 262.937 152.837C262.933 152.904 262.92 153.001 262.898 153.126C262.879 153.248 262.853 153.385 262.82 153.538C262.79 153.69 262.755 153.85 262.715 154.017C262.675 154.185 262.634 154.344 262.592 154.496C262.55 154.648 262.507 154.786 262.463 154.91C262.423 155.031 262.385 155.124 262.351 155.19C262.302 155.231 262.225 155.262 262.119 155.284C262.013 155.306 261.905 155.314 261.794 155.308C261.65 155.3 261.528 155.275 261.428 155.232C261.332 155.187 261.275 155.128 261.258 155.056C261.224 154.931 261.189 154.783 261.153 154.612C261.116 154.44 261.077 154.251 261.035 154.046C260.982 154.243 260.926 154.436 260.87 154.624C260.813 154.812 260.763 154.971 260.719 155.101C260.671 155.142 260.599 155.173 260.506 155.196C260.412 155.218 260.31 155.227 260.199 155.221C260.061 155.213 259.936 155.188 259.824 155.145C259.716 155.099 259.647 155.039 259.617 154.967C259.592 154.91 259.566 154.827 259.538 154.718C259.513 154.605 259.488 154.479 259.462 154.339C259.435 154.196 259.408 154.042 259.38 153.877C259.355 153.712 259.332 153.548 259.31 153.383C259.292 153.219 259.274 153.059 259.258 152.904C259.242 152.746 259.231 152.602 259.226 152.472C259.271 152.435 259.333 152.401 259.412 152.371C259.49 152.342 259.574 152.329 259.663 152.334C259.78 152.341 259.874 152.372 259.945 152.428C260.019 152.482 260.062 152.569 260.074 152.69C260.106 153.006 260.132 153.269 260.151 153.48C260.173 153.691 260.19 153.864 260.201 154C260.215 154.134 260.225 154.237 260.23 154.312C260.236 154.386 260.242 154.445 260.249 154.488L260.272 154.49C260.306 154.368 260.338 154.256 260.369 154.153C260.399 154.05 260.429 153.946 260.459 153.843C260.493 153.737 260.527 153.625 260.561 153.507C260.595 153.385 260.632 153.247 260.671 153.092Z" fill="white"/>
<path opacity="0.24" d="M176.661 69.0126L293.531 134.818L292.088 154.423L176.206 79.9549L176.661 69.0126Z" fill="white"/>
<path opacity="0.27" d="M174.23 101.231L290.264 174.484L287.68 211.186L170.886 143.785L174.23 101.231Z" fill="white"/>
<path d="M177.497 175.168L170.127 260.73C169.823 264.302 172.558 267.417 176.206 267.493L267.771 269.013C271.039 269.089 273.698 266.581 274.002 263.314L281.373 179.955C281.677 176.383 279.018 173.344 275.446 173.192L183.88 169.393C180.537 169.317 177.725 171.824 177.497 175.168Z" fill="#ECF1F7"/>
<path opacity="0.14" d="M177.497 175.168L176.585 185.806L280.233 189.606L281.297 180.031C281.601 176.46 278.941 173.42 275.37 173.268L183.804 169.469C180.537 169.317 177.725 171.824 177.497 175.168Z" fill="#3E479B"/>
<path d="M259.489 183.146C259.489 183.146 259.413 183.146 259.489 183.146C258.501 183.146 257.817 182.387 257.817 181.475C257.817 180.563 258.577 179.879 259.489 179.879C260.4 179.879 261.084 180.639 261.084 181.551C261.084 182.463 260.4 183.146 259.489 183.146ZM259.489 180.563C259.033 180.563 258.653 180.943 258.577 181.399C258.577 181.855 258.957 182.311 259.413 182.311C259.869 182.311 260.249 181.931 260.324 181.475C260.4 181.019 260.021 180.639 259.489 180.563Z" fill="white"/>
<path d="M266.252 183.374C266.252 183.374 266.176 183.374 266.252 183.374C265.264 183.374 264.58 182.615 264.58 181.703C264.58 180.791 265.416 180.031 266.252 180.107C267.164 180.107 267.848 180.867 267.848 181.779C267.848 182.691 267.088 183.374 266.252 183.374ZM266.252 180.791C265.796 180.791 265.416 181.171 265.34 181.627C265.34 182.083 265.72 182.539 266.176 182.539C266.632 182.539 267.088 182.159 267.088 181.703C267.164 181.247 266.784 180.867 266.252 180.791Z" fill="white"/>
<path d="M273.015 183.602C272.939 183.602 272.939 183.602 273.015 183.602C272.483 183.602 272.103 183.374 271.799 183.07C271.495 182.767 271.343 182.311 271.343 181.855C271.343 181.399 271.571 181.019 271.875 180.715C272.179 180.411 272.635 180.259 273.091 180.259C273.546 180.259 273.926 180.487 274.23 180.791C274.534 181.095 274.686 181.551 274.686 182.007C274.686 182.463 274.458 182.843 274.154 183.146C273.774 183.45 273.394 183.602 273.015 183.602ZM273.015 181.019C272.787 181.019 272.559 181.095 272.407 181.247C272.255 181.399 272.103 181.627 272.103 181.855C272.103 182.083 272.179 182.311 272.331 182.463C272.483 182.615 272.711 182.767 272.939 182.767C273.166 182.767 273.394 182.691 273.546 182.539C273.698 182.387 273.85 182.159 273.85 181.931C273.85 181.703 273.774 181.475 273.622 181.323C273.47 181.171 273.242 181.095 273.015 181.019Z" fill="white"/>
<g opacity="0.14">
<g opacity="0.14">
<path opacity="0.75" d="M218.455 233.831L184.109 232.463C183.273 232.463 182.665 231.779 182.665 230.943L183.957 197.736C183.957 196.9 184.641 196.292 185.477 196.292L219.823 197.66C220.659 197.66 221.267 198.344 221.267 199.18L219.975 232.387C219.975 233.223 219.291 233.831 218.455 233.831Z" fill="#3E479B"/>
<path opacity="0.4" d="M217.467 209.438L212.604 204.119C211.92 203.359 210.932 202.903 209.945 202.903L206.449 202.751C206.145 202.751 205.841 202.979 205.841 203.283C205.765 204.879 204.473 206.019 202.878 206.019H202.346C200.75 205.943 199.61 204.651 199.61 203.055C199.61 202.751 199.382 202.447 199.078 202.447L195.735 202.295C194.671 202.219 193.607 202.675 192.771 203.359L187.604 208.147L192.467 213.466L194.823 211.262L194.215 225.928L210.021 226.536L210.552 212.402L212.148 214.15L217.467 209.438Z" fill="#ECF1F7"/>
</g>
</g>
<path opacity="0.14" d="M259.641 207.994L227.878 206.627C227.346 206.627 226.89 206.095 226.89 205.563L226.966 204.347C226.966 203.815 227.498 203.359 228.03 203.359L259.793 204.727C260.325 204.727 260.781 205.259 260.781 205.791L260.705 207.007C260.629 207.614 260.173 208.07 259.641 207.994Z" fill="#3E479B"/>
<path opacity="0.14" d="M243.303 213.162L227.726 212.478C227.194 212.478 226.738 211.946 226.738 211.414L226.814 210.198C226.814 209.666 227.346 209.21 227.878 209.21L243.455 209.894C243.987 209.894 244.443 210.426 244.443 210.958L244.367 212.174C244.367 212.782 243.911 213.238 243.303 213.162Z" fill="#3E479B"/>
<path opacity="0.14" d="M256.981 251.384L182.969 248.724C182.437 248.724 181.981 248.268 181.981 247.66L182.057 246.445C182.057 245.913 182.513 245.457 183.121 245.457L257.133 248.116C257.665 248.116 258.121 248.572 258.121 249.18L258.045 250.396C257.969 250.928 257.513 251.384 256.981 251.384Z" fill="#3E479B"/>
<path opacity="0.14" d="M220.659 255.943L183.121 254.575C182.589 254.575 182.133 254.119 182.133 253.512L182.209 252.296C182.209 251.764 182.665 251.308 183.273 251.308L220.811 252.676C221.343 252.676 221.799 253.132 221.799 253.739L221.723 254.955C221.723 255.487 221.267 255.943 220.659 255.943Z" fill="#3E479B"/>
<path d="M170.022 156.085C169.948 156.085 169.948 156.085 169.873 156.085C169.499 156.01 169.199 155.636 169.274 155.187C171.145 145.686 175.559 134.838 179.898 128.853C180.197 128.404 180.496 128.03 180.796 127.656C184.461 123.092 187.155 123.316 188.801 124.214C189.175 124.439 189.25 124.887 189.025 125.261C188.801 125.636 188.352 125.71 187.978 125.486C186.033 124.289 183.564 126.533 181.918 128.553C181.619 128.927 181.319 129.301 181.095 129.675C176.83 135.586 172.566 146.135 170.696 155.486C170.696 155.786 170.396 156.085 170.022 156.085Z" fill="#4C65BA"/>
<path d="M140.695 156.309L100.595 225.961C99.6222 227.682 100.146 229.852 101.867 230.899L141.967 254.839C143.688 255.887 145.857 255.288 146.905 253.642L189.324 185.487C189.998 184.365 190.072 183.018 189.399 181.821L176.007 157.132C175.409 156.01 174.212 155.262 172.865 155.262L143.912 154.589C142.64 154.439 141.368 155.187 140.695 156.309Z" fill="#599AF2"/>
<path opacity="0.35" d="M143.912 249.229C143.314 249.229 142.641 249.079 142.117 248.705L107.253 227.907C105.608 226.934 105.009 224.764 105.982 223.118L140.845 162.594C141.518 161.472 142.715 160.798 143.987 160.798L169.2 161.397C170.471 161.397 171.594 162.145 172.192 163.267L183.863 184.739C184.462 185.861 184.462 187.208 183.788 188.255L146.905 247.508C146.306 248.63 145.109 249.229 143.912 249.229ZM143.987 161.621C143.015 161.621 142.042 162.145 141.593 163.043L106.73 223.567C105.982 224.914 106.43 226.56 107.702 227.383L142.566 248.181C143.838 248.929 145.558 248.555 146.381 247.283L183.265 188.031C183.788 187.208 183.788 186.086 183.339 185.263L171.668 163.791C171.22 162.893 170.247 162.369 169.274 162.369L143.987 161.621C144.062 161.621 143.987 161.621 143.987 161.621Z" fill="#ECF1F7"/>
<path d="M147.279 195.736C145.857 198.055 144.137 199.477 141.892 199.926C139.723 200.375 137.553 199.926 135.309 198.654C133.064 197.307 131.643 195.587 131.044 193.492C130.446 191.397 130.82 189.153 132.241 186.833C133.588 184.514 135.383 183.167 137.553 182.719C139.723 182.27 141.892 182.719 144.137 183.99C146.306 185.337 147.728 187.058 148.326 189.153C149.074 191.247 148.7 193.492 147.279 195.736ZM138.002 190.125C137.478 191.023 137.179 191.846 137.329 192.519C137.403 193.193 137.703 193.641 138.226 194.016C138.75 194.315 139.348 194.39 139.947 194.165C140.546 193.941 141.144 193.342 141.743 192.444C142.266 191.547 142.491 190.799 142.416 190.125C142.341 189.452 142.042 189.003 141.518 188.704C140.994 188.404 140.396 188.33 139.797 188.554C139.124 188.704 138.526 189.227 138.002 190.125ZM160.371 193.567C161.344 194.39 162.092 195.213 162.69 196.11C163.289 197.008 163.364 197.831 162.99 198.579C162.69 199.103 162.242 199.477 161.718 199.851C161.119 200.225 160.521 200.599 159.773 200.898L129.772 214.515C128.875 213.766 128.201 213.018 127.827 212.195C127.378 211.372 127.378 210.624 127.752 209.876C128.052 209.352 128.351 208.904 128.725 208.455C129.099 208.006 129.623 207.632 130.446 207.258L160.371 193.567ZM158.202 221.697C156.78 224.016 155.059 225.437 152.815 225.886C150.645 226.335 148.476 225.886 146.231 224.614C143.987 223.268 142.565 221.547 141.967 219.452C141.368 217.357 141.743 215.113 143.164 212.794C144.511 210.475 146.306 209.128 148.476 208.679C150.645 208.23 152.815 208.679 155.059 209.951C157.229 211.298 158.651 213.018 159.249 215.113C159.922 217.208 159.548 219.377 158.202 221.697ZM148.85 216.086C148.326 216.983 148.027 217.806 148.177 218.48C148.251 219.153 148.551 219.602 149.074 219.976C149.598 220.275 150.197 220.35 150.795 220.126C151.394 219.901 151.992 219.303 152.591 218.405C153.114 217.507 153.339 216.759 153.264 216.086C153.189 215.412 152.89 214.963 152.366 214.664C151.842 214.365 151.244 214.29 150.645 214.515C149.972 214.664 149.374 215.188 148.85 216.086Z" fill="#ECF1F7"/>
<path d="M168.601 168.654C170.171 168.654 171.444 167.381 171.444 165.811C171.444 164.241 170.171 162.968 168.601 162.968C167.031 162.968 165.758 164.241 165.758 165.811C165.758 167.381 167.031 168.654 168.601 168.654Z" fill="#3E479B"/>
<path d="M168.601 166.634C168.377 166.634 168.152 166.559 168.003 166.409C167.703 166.11 167.778 165.661 168.077 165.362C173.24 160.798 192.392 141.571 191.419 130.798C191.195 128.478 190.073 126.758 188.053 125.561C186.108 124.364 183.639 126.608 181.993 128.628C181.694 129.002 181.394 129.376 181.17 129.75C180.945 130.05 180.496 130.124 180.122 129.9C179.823 129.676 179.748 129.227 179.973 128.853C180.272 128.404 180.571 128.03 180.871 127.656C184.536 123.092 187.23 123.316 188.876 124.214C191.345 125.71 192.691 127.88 192.99 130.648C194.187 143.815 169.349 166.26 169.125 166.484C168.9 166.559 168.751 166.634 168.601 166.634Z" fill="#4C65BA"/>
<circle cx="83.5" cy="41.5" r="22.5" fill="#3561D1"/>
<path d="M83.722 51.312C82.526 51.312 81.4427 51.104 80.472 50.688C79.5013 50.2547 78.7213 49.596 78.132 48.712C77.5427 47.828 77.2307 46.7187 77.196 45.384H80.472C80.4893 46.268 80.7753 47.0133 81.33 47.62C81.902 48.2093 82.6993 48.504 83.722 48.504C84.6927 48.504 85.438 48.2353 85.958 47.698C86.478 47.1607 86.738 46.4847 86.738 45.67C86.738 44.7167 86.3913 43.9973 85.698 43.512C85.022 43.0093 84.1467 42.758 83.072 42.758H81.72V40.028H83.098C83.982 40.028 84.7187 39.82 85.308 39.404C85.8973 38.988 86.192 38.3727 86.192 37.558C86.192 36.882 85.9667 36.3447 85.516 35.946C85.0827 35.53 84.476 35.322 83.696 35.322C82.8467 35.322 82.1793 35.5733 81.694 36.076C81.226 36.5787 80.966 37.194 80.914 37.922H77.664C77.7333 36.2407 78.314 34.9147 79.406 33.944C80.5153 32.9733 81.9453 32.488 83.696 32.488C84.944 32.488 85.9927 32.7133 86.842 33.164C87.7087 33.5973 88.3587 34.178 88.792 34.906C89.2427 35.634 89.468 36.44 89.468 37.324C89.468 38.3467 89.182 39.2133 88.61 39.924C88.0553 40.6173 87.362 41.0853 86.53 41.328C87.5527 41.536 88.3847 42.0387 89.026 42.836C89.6673 43.616 89.988 44.604 89.988 45.8C89.988 46.8053 89.7453 47.724 89.26 48.556C88.7747 49.388 88.064 50.0553 87.128 50.558C86.2093 51.0607 85.074 51.312 83.722 51.312Z" fill="white"/>
<defs>
<filter id="filter0_d" x="12" y="-0.000366211" width="360.832" height="303" filterUnits="userSpaceOnUse" color-interpolation-filters="sRGB">
<feFlood flood-opacity="0" result="BackgroundImageFix"/>
<feColorMatrix in="SourceAlpha" type="matrix" values="0 0 0 0 0 0 0 0 0 0 0 0 0 0 0 0 0 0 127 0"/>
<feOffset/>
<feGaussianBlur stdDeviation="10"/>
<feColorMatrix type="matrix" values="0 0 0 0 0 0 0 0 0 0 0 0 0 0 0 0 0 0 0.1 0"/>
<feBlend mode="normal" in2="BackgroundImageFix" result="effect1_dropShadow"/>
<feBlend mode="normal" in="SourceGraphic" in2="effect1_dropShadow" result="shape"/>
</filter>
</defs>
</svg>
